G04 #@! TF.FileFunction,Drawing*
%FSLAX46Y46*%
G04 Gerber Fmt 4.6, Leading zero omitted, Abs format (unit mm)*
G04 Created by KiCad (PCBNEW 4.0.1-stable) date 2018/04/26 15:04:28*
%MOMM*%
G01*
G04 APERTURE LIST*
%ADD10C,0.150000*%
%ADD11C,0.100000*%
%ADD12C,0.300000*%
G04 APERTURE END LIST*
D10*
D11*
X142000000Y-101600000D02*
X142000000Y-96200000D01*
X132900000Y-101600000D02*
X142000000Y-101600000D01*
X132900000Y-96200000D02*
X142000000Y-96200000D01*
D10*
X136304762Y-101233333D02*
X136257142Y-101185714D01*
X136161904Y-101042857D01*
X136114285Y-100947619D01*
X136066666Y-100804762D01*
X136019047Y-100566667D01*
X136019047Y-100376190D01*
X136066666Y-100138095D01*
X136114285Y-99995238D01*
X136161904Y-99900000D01*
X136257142Y-99757143D01*
X136304762Y-99709524D01*
X136638095Y-100566667D02*
X137114286Y-100566667D01*
X136542857Y-100852381D02*
X136876190Y-99852381D01*
X137209524Y-100852381D01*
X137542857Y-100471429D02*
X138304762Y-100471429D01*
X137923810Y-100852381D02*
X137923810Y-100090476D01*
X139257143Y-99852381D02*
X138780952Y-99852381D01*
X138733333Y-100328571D01*
X138780952Y-100280952D01*
X138876190Y-100233333D01*
X139114286Y-100233333D01*
X139209524Y-100280952D01*
X139257143Y-100328571D01*
X139304762Y-100423810D01*
X139304762Y-100661905D01*
X139257143Y-100757143D01*
X139209524Y-100804762D01*
X139114286Y-100852381D01*
X138876190Y-100852381D01*
X138780952Y-100804762D01*
X138733333Y-100757143D01*
X139590476Y-99852381D02*
X139923809Y-100852381D01*
X140257143Y-99852381D01*
X140495238Y-101233333D02*
X140542857Y-101185714D01*
X140638095Y-101042857D01*
X140685714Y-100947619D01*
X140733333Y-100804762D01*
X140780952Y-100566667D01*
X140780952Y-100376190D01*
X140733333Y-100138095D01*
X140685714Y-99995238D01*
X140638095Y-99900000D01*
X140542857Y-99757143D01*
X140495238Y-99709524D01*
X135828572Y-99733333D02*
X135780952Y-99685714D01*
X135685714Y-99542857D01*
X135638095Y-99447619D01*
X135590476Y-99304762D01*
X135542857Y-99066667D01*
X135542857Y-98876190D01*
X135590476Y-98638095D01*
X135638095Y-98495238D01*
X135685714Y-98400000D01*
X135780952Y-98257143D01*
X135828572Y-98209524D01*
X136161905Y-99066667D02*
X136638096Y-99066667D01*
X136066667Y-99352381D02*
X136400000Y-98352381D01*
X136733334Y-99352381D01*
X137066667Y-98971429D02*
X137828572Y-98971429D01*
X137447620Y-99352381D02*
X137447620Y-98590476D01*
X138828572Y-99352381D02*
X138257143Y-99352381D01*
X138542857Y-99352381D02*
X138542857Y-98352381D01*
X138447619Y-98495238D01*
X138352381Y-98590476D01*
X138257143Y-98638095D01*
X139209524Y-98447619D02*
X139257143Y-98400000D01*
X139352381Y-98352381D01*
X139590477Y-98352381D01*
X139685715Y-98400000D01*
X139733334Y-98447619D01*
X139780953Y-98542857D01*
X139780953Y-98638095D01*
X139733334Y-98780952D01*
X139161905Y-99352381D01*
X139780953Y-99352381D01*
X140066667Y-98352381D02*
X140400000Y-99352381D01*
X140733334Y-98352381D01*
X140971429Y-99733333D02*
X141019048Y-99685714D01*
X141114286Y-99542857D01*
X141161905Y-99447619D01*
X141209524Y-99304762D01*
X141257143Y-99066667D01*
X141257143Y-98876190D01*
X141209524Y-98638095D01*
X141161905Y-98495238D01*
X141114286Y-98400000D01*
X141019048Y-98257143D01*
X140971429Y-98209524D01*
X135790477Y-98233333D02*
X135742857Y-98185714D01*
X135647619Y-98042857D01*
X135600000Y-97947619D01*
X135552381Y-97804762D01*
X135504762Y-97566667D01*
X135504762Y-97376190D01*
X135552381Y-97138095D01*
X135600000Y-96995238D01*
X135647619Y-96900000D01*
X135742857Y-96757143D01*
X135790477Y-96709524D01*
X136123810Y-97566667D02*
X136600001Y-97566667D01*
X136028572Y-97852381D02*
X136361905Y-96852381D01*
X136695239Y-97852381D01*
X137028572Y-97471429D02*
X137790477Y-97471429D01*
X137409525Y-97852381D02*
X137409525Y-97090476D01*
X138171429Y-96852381D02*
X138790477Y-96852381D01*
X138457143Y-97233333D01*
X138600001Y-97233333D01*
X138695239Y-97280952D01*
X138742858Y-97328571D01*
X138790477Y-97423810D01*
X138790477Y-97661905D01*
X138742858Y-97757143D01*
X138695239Y-97804762D01*
X138600001Y-97852381D01*
X138314286Y-97852381D01*
X138219048Y-97804762D01*
X138171429Y-97757143D01*
X139219048Y-97757143D02*
X139266667Y-97804762D01*
X139219048Y-97852381D01*
X139171429Y-97804762D01*
X139219048Y-97757143D01*
X139219048Y-97852381D01*
X139600000Y-96852381D02*
X140219048Y-96852381D01*
X139885714Y-97233333D01*
X140028572Y-97233333D01*
X140123810Y-97280952D01*
X140171429Y-97328571D01*
X140219048Y-97423810D01*
X140219048Y-97661905D01*
X140171429Y-97757143D01*
X140123810Y-97804762D01*
X140028572Y-97852381D01*
X139742857Y-97852381D01*
X139647619Y-97804762D01*
X139600000Y-97757143D01*
X140504762Y-96852381D02*
X140838095Y-97852381D01*
X141171429Y-96852381D01*
X141409524Y-98233333D02*
X141457143Y-98185714D01*
X141552381Y-98042857D01*
X141600000Y-97947619D01*
X141647619Y-97804762D01*
X141695238Y-97566667D01*
X141695238Y-97376190D01*
X141647619Y-97138095D01*
X141600000Y-96995238D01*
X141552381Y-96900000D01*
X141457143Y-96757143D01*
X141409524Y-96709524D01*
D12*
X195428573Y-176028571D02*
X194571430Y-176028571D01*
X195000002Y-176028571D02*
X195000002Y-174528571D01*
X194857145Y-174742857D01*
X194714287Y-174885714D01*
X194571430Y-174957143D01*
X195928573Y-174528571D02*
X196857144Y-174528571D01*
X196357144Y-175100000D01*
X196571430Y-175100000D01*
X196714287Y-175171429D01*
X196785716Y-175242857D01*
X196857144Y-175385714D01*
X196857144Y-175742857D01*
X196785716Y-175885714D01*
X196714287Y-175957143D01*
X196571430Y-176028571D01*
X196142858Y-176028571D01*
X196000001Y-175957143D01*
X195928573Y-175885714D01*
X197571429Y-176028571D02*
X197857144Y-176028571D01*
X198000001Y-175957143D01*
X198071429Y-175885714D01*
X198214287Y-175671429D01*
X198285715Y-175385714D01*
X198285715Y-174814286D01*
X198214287Y-174671429D01*
X198142858Y-174600000D01*
X198000001Y-174528571D01*
X197714287Y-174528571D01*
X197571429Y-174600000D01*
X197500001Y-174671429D01*
X197428572Y-174814286D01*
X197428572Y-175171429D01*
X197500001Y-175314286D01*
X197571429Y-175385714D01*
X197714287Y-175457143D01*
X198000001Y-175457143D01*
X198142858Y-175385714D01*
X198214287Y-175314286D01*
X198285715Y-175171429D01*
X198928572Y-175885714D02*
X199000000Y-175957143D01*
X198928572Y-176028571D01*
X198857143Y-175957143D01*
X198928572Y-175885714D01*
X198928572Y-176028571D01*
X199928572Y-174528571D02*
X200071429Y-174528571D01*
X200214286Y-174600000D01*
X200285715Y-174671429D01*
X200357144Y-174814286D01*
X200428572Y-175100000D01*
X200428572Y-175457143D01*
X200357144Y-175742857D01*
X200285715Y-175885714D01*
X200214286Y-175957143D01*
X200071429Y-176028571D01*
X199928572Y-176028571D01*
X199785715Y-175957143D01*
X199714286Y-175885714D01*
X199642858Y-175742857D01*
X199571429Y-175457143D01*
X199571429Y-175100000D01*
X199642858Y-174814286D01*
X199714286Y-174671429D01*
X199785715Y-174600000D01*
X199928572Y-174528571D01*
X201357143Y-174528571D02*
X201500000Y-174528571D01*
X201642857Y-174600000D01*
X201714286Y-174671429D01*
X201785715Y-174814286D01*
X201857143Y-175100000D01*
X201857143Y-175457143D01*
X201785715Y-175742857D01*
X201714286Y-175885714D01*
X201642857Y-175957143D01*
X201500000Y-176028571D01*
X201357143Y-176028571D01*
X201214286Y-175957143D01*
X201142857Y-175885714D01*
X201071429Y-175742857D01*
X201000000Y-175457143D01*
X201000000Y-175100000D01*
X201071429Y-174814286D01*
X201142857Y-174671429D01*
X201214286Y-174600000D01*
X201357143Y-174528571D01*
X202785714Y-174528571D02*
X202928571Y-174528571D01*
X203071428Y-174600000D01*
X203142857Y-174671429D01*
X203214286Y-174814286D01*
X203285714Y-175100000D01*
X203285714Y-175457143D01*
X203214286Y-175742857D01*
X203142857Y-175885714D01*
X203071428Y-175957143D01*
X202928571Y-176028571D01*
X202785714Y-176028571D01*
X202642857Y-175957143D01*
X202571428Y-175885714D01*
X202500000Y-175742857D01*
X202428571Y-175457143D01*
X202428571Y-175100000D01*
X202500000Y-174814286D01*
X202571428Y-174671429D01*
X202642857Y-174600000D01*
X202785714Y-174528571D01*
X205071428Y-176028571D02*
X205071428Y-175028571D01*
X205071428Y-175171429D02*
X205142856Y-175100000D01*
X205285714Y-175028571D01*
X205499999Y-175028571D01*
X205642856Y-175100000D01*
X205714285Y-175242857D01*
X205714285Y-176028571D01*
X205714285Y-175242857D02*
X205785714Y-175100000D01*
X205928571Y-175028571D01*
X206142856Y-175028571D01*
X206285714Y-175100000D01*
X206357142Y-175242857D01*
X206357142Y-176028571D01*
X207071428Y-176028571D02*
X207071428Y-175028571D01*
X207071428Y-175171429D02*
X207142856Y-175100000D01*
X207285714Y-175028571D01*
X207499999Y-175028571D01*
X207642856Y-175100000D01*
X207714285Y-175242857D01*
X207714285Y-176028571D01*
X207714285Y-175242857D02*
X207785714Y-175100000D01*
X207928571Y-175028571D01*
X208142856Y-175028571D01*
X208285714Y-175100000D01*
X208357142Y-175242857D01*
X208357142Y-176028571D01*
X271000000Y-174000000D02*
X132000000Y-174000000D01*
X271000000Y-164000000D02*
X271000000Y-176700000D01*
X132000000Y-164000000D02*
X132000000Y-176700000D01*
X132000000Y-174000000D02*
X133126504Y-173413579D01*
X132000000Y-174000000D02*
X133126504Y-174586421D01*
X271000000Y-174000000D02*
X269873496Y-173413579D01*
X271000000Y-174000000D02*
X269873496Y-174586421D01*
X302028571Y-120071427D02*
X302028571Y-120928570D01*
X302028571Y-120499998D02*
X300528571Y-120499998D01*
X300742857Y-120642855D01*
X300885714Y-120785713D01*
X300957143Y-120928570D01*
X300528571Y-119142856D02*
X300528571Y-118999999D01*
X300600000Y-118857142D01*
X300671429Y-118785713D01*
X300814286Y-118714284D01*
X301100000Y-118642856D01*
X301457143Y-118642856D01*
X301742857Y-118714284D01*
X301885714Y-118785713D01*
X301957143Y-118857142D01*
X302028571Y-118999999D01*
X302028571Y-119142856D01*
X301957143Y-119285713D01*
X301885714Y-119357142D01*
X301742857Y-119428570D01*
X301457143Y-119499999D01*
X301100000Y-119499999D01*
X300814286Y-119428570D01*
X300671429Y-119357142D01*
X300600000Y-119285713D01*
X300528571Y-119142856D01*
X300528571Y-117714285D02*
X300528571Y-117571428D01*
X300600000Y-117428571D01*
X300671429Y-117357142D01*
X300814286Y-117285713D01*
X301100000Y-117214285D01*
X301457143Y-117214285D01*
X301742857Y-117285713D01*
X301885714Y-117357142D01*
X301957143Y-117428571D01*
X302028571Y-117571428D01*
X302028571Y-117714285D01*
X301957143Y-117857142D01*
X301885714Y-117928571D01*
X301742857Y-117999999D01*
X301457143Y-118071428D01*
X301100000Y-118071428D01*
X300814286Y-117999999D01*
X300671429Y-117928571D01*
X300600000Y-117857142D01*
X300528571Y-117714285D01*
X301885714Y-116571428D02*
X301957143Y-116500000D01*
X302028571Y-116571428D01*
X301957143Y-116642857D01*
X301885714Y-116571428D01*
X302028571Y-116571428D01*
X300528571Y-115571428D02*
X300528571Y-115428571D01*
X300600000Y-115285714D01*
X300671429Y-115214285D01*
X300814286Y-115142856D01*
X301100000Y-115071428D01*
X301457143Y-115071428D01*
X301742857Y-115142856D01*
X301885714Y-115214285D01*
X301957143Y-115285714D01*
X302028571Y-115428571D01*
X302028571Y-115571428D01*
X301957143Y-115714285D01*
X301885714Y-115785714D01*
X301742857Y-115857142D01*
X301457143Y-115928571D01*
X301100000Y-115928571D01*
X300814286Y-115857142D01*
X300671429Y-115785714D01*
X300600000Y-115714285D01*
X300528571Y-115571428D01*
X300528571Y-114142857D02*
X300528571Y-114000000D01*
X300600000Y-113857143D01*
X300671429Y-113785714D01*
X300814286Y-113714285D01*
X301100000Y-113642857D01*
X301457143Y-113642857D01*
X301742857Y-113714285D01*
X301885714Y-113785714D01*
X301957143Y-113857143D01*
X302028571Y-114000000D01*
X302028571Y-114142857D01*
X301957143Y-114285714D01*
X301885714Y-114357143D01*
X301742857Y-114428571D01*
X301457143Y-114500000D01*
X301100000Y-114500000D01*
X300814286Y-114428571D01*
X300671429Y-114357143D01*
X300600000Y-114285714D01*
X300528571Y-114142857D01*
X300528571Y-112714286D02*
X300528571Y-112571429D01*
X300600000Y-112428572D01*
X300671429Y-112357143D01*
X300814286Y-112285714D01*
X301100000Y-112214286D01*
X301457143Y-112214286D01*
X301742857Y-112285714D01*
X301885714Y-112357143D01*
X301957143Y-112428572D01*
X302028571Y-112571429D01*
X302028571Y-112714286D01*
X301957143Y-112857143D01*
X301885714Y-112928572D01*
X301742857Y-113000000D01*
X301457143Y-113071429D01*
X301100000Y-113071429D01*
X300814286Y-113000000D01*
X300671429Y-112928572D01*
X300600000Y-112857143D01*
X300528571Y-112714286D01*
X302028571Y-110428572D02*
X301028571Y-110428572D01*
X301171429Y-110428572D02*
X301100000Y-110357144D01*
X301028571Y-110214286D01*
X301028571Y-110000001D01*
X301100000Y-109857144D01*
X301242857Y-109785715D01*
X302028571Y-109785715D01*
X301242857Y-109785715D02*
X301100000Y-109714286D01*
X301028571Y-109571429D01*
X301028571Y-109357144D01*
X301100000Y-109214286D01*
X301242857Y-109142858D01*
X302028571Y-109142858D01*
X302028571Y-108428572D02*
X301028571Y-108428572D01*
X301171429Y-108428572D02*
X301100000Y-108357144D01*
X301028571Y-108214286D01*
X301028571Y-108000001D01*
X301100000Y-107857144D01*
X301242857Y-107785715D01*
X302028571Y-107785715D01*
X301242857Y-107785715D02*
X301100000Y-107714286D01*
X301028571Y-107571429D01*
X301028571Y-107357144D01*
X301100000Y-107214286D01*
X301242857Y-107142858D01*
X302028571Y-107142858D01*
X300000000Y-164000000D02*
X300000000Y-64000000D01*
X271000000Y-164000000D02*
X302700000Y-164000000D01*
X271000000Y-64000000D02*
X302700000Y-64000000D01*
X300000000Y-64000000D02*
X300586421Y-65126504D01*
X300000000Y-64000000D02*
X299413579Y-65126504D01*
X300000000Y-164000000D02*
X300586421Y-162873496D01*
X300000000Y-164000000D02*
X299413579Y-162873496D01*
D11*
X258800000Y-115000000D02*
X258300000Y-114500000D01*
X258800000Y-114000000D02*
X258800000Y-115000000D01*
X258300000Y-114500000D02*
X258800000Y-114000000D01*
X258982843Y-115650000D02*
G75*
G03X258982843Y-115650000I-282843J0D01*
G01*
X266725000Y-77425000D02*
X266725000Y-76825000D01*
X267075000Y-77425000D02*
X267075000Y-77375000D01*
X266775000Y-77125000D02*
X267075000Y-77425000D01*
X266825000Y-77075000D02*
X266775000Y-77125000D01*
X267075000Y-76825000D02*
X266825000Y-77075000D01*
X267075000Y-77375000D02*
X267075000Y-76825000D01*
X267125000Y-74225000D02*
X267125000Y-73675000D01*
X267125000Y-73675000D02*
X266875000Y-73925000D01*
X266875000Y-73925000D02*
X266825000Y-73975000D01*
X266825000Y-73975000D02*
X267125000Y-74275000D01*
X267125000Y-74275000D02*
X267125000Y-74225000D01*
X266775000Y-74275000D02*
X266775000Y-73675000D01*
X134800000Y-108300000D02*
X134800000Y-108900000D01*
X134450000Y-108300000D02*
X134450000Y-108350000D01*
X134750000Y-108600000D02*
X134450000Y-108300000D01*
X134700000Y-108650000D02*
X134750000Y-108600000D01*
X134450000Y-108900000D02*
X134700000Y-108650000D01*
X134450000Y-108350000D02*
X134450000Y-108900000D01*
X134450000Y-106400000D02*
X134450000Y-106950000D01*
X134450000Y-106950000D02*
X134700000Y-106700000D01*
X134700000Y-106700000D02*
X134750000Y-106650000D01*
X134750000Y-106650000D02*
X134450000Y-106350000D01*
X134450000Y-106350000D02*
X134450000Y-106400000D01*
X134800000Y-106350000D02*
X134800000Y-106950000D01*
X134800000Y-104350000D02*
X134800000Y-104950000D01*
X134450000Y-104350000D02*
X134450000Y-104400000D01*
X134750000Y-104650000D02*
X134450000Y-104350000D01*
X134700000Y-104700000D02*
X134750000Y-104650000D01*
X134450000Y-104950000D02*
X134700000Y-104700000D01*
X134450000Y-104400000D02*
X134450000Y-104950000D01*
D10*
X265700000Y-75852381D02*
X265700000Y-74852381D01*
X265938095Y-74852381D01*
X266080953Y-74900000D01*
X266176191Y-74995238D01*
X266223810Y-75090476D01*
X266271429Y-75280952D01*
X266271429Y-75423810D01*
X266223810Y-75614286D01*
X266176191Y-75709524D01*
X266080953Y-75804762D01*
X265938095Y-75852381D01*
X265700000Y-75852381D01*
X266700000Y-75471429D02*
X267461905Y-75471429D01*
X267080953Y-75852381D02*
X267080953Y-75090476D01*
X267842857Y-74852381D02*
X268461905Y-74852381D01*
X268128571Y-75233333D01*
X268271429Y-75233333D01*
X268366667Y-75280952D01*
X268414286Y-75328571D01*
X268461905Y-75423810D01*
X268461905Y-75661905D01*
X268414286Y-75757143D01*
X268366667Y-75804762D01*
X268271429Y-75852381D01*
X267985714Y-75852381D01*
X267890476Y-75804762D01*
X267842857Y-75757143D01*
X268890476Y-75757143D02*
X268938095Y-75804762D01*
X268890476Y-75852381D01*
X268842857Y-75804762D01*
X268890476Y-75757143D01*
X268890476Y-75852381D01*
X269271428Y-74852381D02*
X269890476Y-74852381D01*
X269557142Y-75233333D01*
X269700000Y-75233333D01*
X269795238Y-75280952D01*
X269842857Y-75328571D01*
X269890476Y-75423810D01*
X269890476Y-75661905D01*
X269842857Y-75757143D01*
X269795238Y-75804762D01*
X269700000Y-75852381D01*
X269414285Y-75852381D01*
X269319047Y-75804762D01*
X269271428Y-75757143D01*
X270176190Y-74852381D02*
X270509523Y-75852381D01*
X270842857Y-74852381D01*
X265735714Y-79052381D02*
X265735714Y-78052381D01*
X265973809Y-78052381D01*
X266116667Y-78100000D01*
X266211905Y-78195238D01*
X266259524Y-78290476D01*
X266307143Y-78480952D01*
X266307143Y-78623810D01*
X266259524Y-78814286D01*
X266211905Y-78909524D01*
X266116667Y-79004762D01*
X265973809Y-79052381D01*
X265735714Y-79052381D01*
X267069048Y-78528571D02*
X266735714Y-78528571D01*
X266735714Y-79052381D02*
X266735714Y-78052381D01*
X267211905Y-78052381D01*
X267592857Y-78052381D02*
X267592857Y-78861905D01*
X267640476Y-78957143D01*
X267688095Y-79004762D01*
X267783333Y-79052381D01*
X267973810Y-79052381D01*
X268069048Y-79004762D01*
X268116667Y-78957143D01*
X268164286Y-78861905D01*
X268164286Y-78052381D01*
D12*
X266750001Y-92671429D02*
X266821430Y-92600000D01*
X266964287Y-92528571D01*
X267321430Y-92528571D01*
X267464287Y-92600000D01*
X267535716Y-92671429D01*
X267607144Y-92814286D01*
X267607144Y-92957143D01*
X267535716Y-93171429D01*
X266678573Y-94028571D01*
X267607144Y-94028571D01*
X268250001Y-93885714D02*
X268321429Y-93957143D01*
X268250001Y-94028571D01*
X268178572Y-93957143D01*
X268250001Y-93885714D01*
X268250001Y-94028571D01*
X269250001Y-92528571D02*
X269392858Y-92528571D01*
X269535715Y-92600000D01*
X269607144Y-92671429D01*
X269678573Y-92814286D01*
X269750001Y-93100000D01*
X269750001Y-93457143D01*
X269678573Y-93742857D01*
X269607144Y-93885714D01*
X269535715Y-93957143D01*
X269392858Y-94028571D01*
X269250001Y-94028571D01*
X269107144Y-93957143D01*
X269035715Y-93885714D01*
X268964287Y-93742857D01*
X268892858Y-93457143D01*
X268892858Y-93100000D01*
X268964287Y-92814286D01*
X269035715Y-92671429D01*
X269107144Y-92600000D01*
X269250001Y-92528571D01*
X270678572Y-92528571D02*
X270821429Y-92528571D01*
X270964286Y-92600000D01*
X271035715Y-92671429D01*
X271107144Y-92814286D01*
X271178572Y-93100000D01*
X271178572Y-93457143D01*
X271107144Y-93742857D01*
X271035715Y-93885714D01*
X270964286Y-93957143D01*
X270821429Y-94028571D01*
X270678572Y-94028571D01*
X270535715Y-93957143D01*
X270464286Y-93885714D01*
X270392858Y-93742857D01*
X270321429Y-93457143D01*
X270321429Y-93100000D01*
X270392858Y-92814286D01*
X270464286Y-92671429D01*
X270535715Y-92600000D01*
X270678572Y-92528571D01*
X272107143Y-92528571D02*
X272250000Y-92528571D01*
X272392857Y-92600000D01*
X272464286Y-92671429D01*
X272535715Y-92814286D01*
X272607143Y-93100000D01*
X272607143Y-93457143D01*
X272535715Y-93742857D01*
X272464286Y-93885714D01*
X272392857Y-93957143D01*
X272250000Y-94028571D01*
X272107143Y-94028571D01*
X271964286Y-93957143D01*
X271892857Y-93885714D01*
X271821429Y-93742857D01*
X271750000Y-93457143D01*
X271750000Y-93100000D01*
X271821429Y-92814286D01*
X271892857Y-92671429D01*
X271964286Y-92600000D01*
X272107143Y-92528571D01*
X274392857Y-94028571D02*
X274392857Y-93028571D01*
X274392857Y-93171429D02*
X274464285Y-93100000D01*
X274607143Y-93028571D01*
X274821428Y-93028571D01*
X274964285Y-93100000D01*
X275035714Y-93242857D01*
X275035714Y-94028571D01*
X275035714Y-93242857D02*
X275107143Y-93100000D01*
X275250000Y-93028571D01*
X275464285Y-93028571D01*
X275607143Y-93100000D01*
X275678571Y-93242857D01*
X275678571Y-94028571D01*
X276392857Y-94028571D02*
X276392857Y-93028571D01*
X276392857Y-93171429D02*
X276464285Y-93100000D01*
X276607143Y-93028571D01*
X276821428Y-93028571D01*
X276964285Y-93100000D01*
X277035714Y-93242857D01*
X277035714Y-94028571D01*
X277035714Y-93242857D02*
X277107143Y-93100000D01*
X277250000Y-93028571D01*
X277464285Y-93028571D01*
X277607143Y-93100000D01*
X277678571Y-93242857D01*
X277678571Y-94028571D01*
X271250000Y-92000000D02*
X273250000Y-92000000D01*
X271250000Y-87250000D02*
X271250000Y-94700000D01*
X273250000Y-87250000D02*
X273250000Y-94700000D01*
X273250000Y-92000000D02*
X272123496Y-92586421D01*
X273250000Y-92000000D02*
X272123496Y-91413579D01*
X271250000Y-92000000D02*
X272376504Y-92586421D01*
X271250000Y-92000000D02*
X272376504Y-91413579D01*
X280421429Y-82089285D02*
X280350000Y-82017856D01*
X280278571Y-81874999D01*
X280278571Y-81517856D01*
X280350000Y-81374999D01*
X280421429Y-81303570D01*
X280564286Y-81232142D01*
X280707143Y-81232142D01*
X280921429Y-81303570D01*
X281778571Y-82160713D01*
X281778571Y-81232142D01*
X280421429Y-80660714D02*
X280350000Y-80589285D01*
X280278571Y-80446428D01*
X280278571Y-80089285D01*
X280350000Y-79946428D01*
X280421429Y-79874999D01*
X280564286Y-79803571D01*
X280707143Y-79803571D01*
X280921429Y-79874999D01*
X281778571Y-80732142D01*
X281778571Y-79803571D01*
X281635714Y-79160714D02*
X281707143Y-79089286D01*
X281778571Y-79160714D01*
X281707143Y-79232143D01*
X281635714Y-79160714D01*
X281778571Y-79160714D01*
X280278571Y-78589285D02*
X280278571Y-77589285D01*
X281778571Y-78232142D01*
X280278571Y-76303571D02*
X280278571Y-77017857D01*
X280992857Y-77089286D01*
X280921429Y-77017857D01*
X280850000Y-76875000D01*
X280850000Y-76517857D01*
X280921429Y-76375000D01*
X280992857Y-76303571D01*
X281135714Y-76232143D01*
X281492857Y-76232143D01*
X281635714Y-76303571D01*
X281707143Y-76375000D01*
X281778571Y-76517857D01*
X281778571Y-76875000D01*
X281707143Y-77017857D01*
X281635714Y-77089286D01*
X280278571Y-75303572D02*
X280278571Y-75160715D01*
X280350000Y-75017858D01*
X280421429Y-74946429D01*
X280564286Y-74875000D01*
X280850000Y-74803572D01*
X281207143Y-74803572D01*
X281492857Y-74875000D01*
X281635714Y-74946429D01*
X281707143Y-75017858D01*
X281778571Y-75160715D01*
X281778571Y-75303572D01*
X281707143Y-75446429D01*
X281635714Y-75517858D01*
X281492857Y-75589286D01*
X281207143Y-75660715D01*
X280850000Y-75660715D01*
X280564286Y-75589286D01*
X280421429Y-75517858D01*
X280350000Y-75446429D01*
X280278571Y-75303572D01*
X281778571Y-73017858D02*
X280778571Y-73017858D01*
X280921429Y-73017858D02*
X280850000Y-72946430D01*
X280778571Y-72803572D01*
X280778571Y-72589287D01*
X280850000Y-72446430D01*
X280992857Y-72375001D01*
X281778571Y-72375001D01*
X280992857Y-72375001D02*
X280850000Y-72303572D01*
X280778571Y-72160715D01*
X280778571Y-71946430D01*
X280850000Y-71803572D01*
X280992857Y-71732144D01*
X281778571Y-71732144D01*
X281778571Y-71017858D02*
X280778571Y-71017858D01*
X280921429Y-71017858D02*
X280850000Y-70946430D01*
X280778571Y-70803572D01*
X280778571Y-70589287D01*
X280850000Y-70446430D01*
X280992857Y-70375001D01*
X281778571Y-70375001D01*
X280992857Y-70375001D02*
X280850000Y-70303572D01*
X280778571Y-70160715D01*
X280778571Y-69946430D01*
X280850000Y-69803572D01*
X280992857Y-69732144D01*
X281778571Y-69732144D01*
X279750000Y-87250000D02*
X279750000Y-64500000D01*
X260250000Y-87250000D02*
X282450000Y-87250000D01*
X260250000Y-64500000D02*
X282450000Y-64500000D01*
X279750000Y-64500000D02*
X280336421Y-65626504D01*
X279750000Y-64500000D02*
X279163579Y-65626504D01*
X279750000Y-87250000D02*
X280336421Y-86123496D01*
X279750000Y-87250000D02*
X279163579Y-86123496D01*
M02*
