G04 #@! TF.FileFunction,Paste,Top*
%FSLAX46Y46*%
G04 Gerber Fmt 4.6, Leading zero omitted, Abs format (unit mm)*
G04 Created by KiCad (PCBNEW 4.0.1-stable) date 2018/04/26 15:04:27*
%MOMM*%
G01*
G04 APERTURE LIST*
%ADD10C,0.150000*%
%ADD11R,2.000000X3.200000*%
%ADD12R,2.000000X1.000000*%
%ADD13R,1.200000X0.800000*%
%ADD14R,1.200000X1.500000*%
%ADD15R,0.250000X1.000000*%
%ADD16R,1.000000X0.250000*%
%ADD17R,0.900000X1.700000*%
%ADD18R,1.600000X3.500000*%
%ADD19R,3.800000X2.500000*%
%ADD20R,7.900000X2.300000*%
%ADD21R,1.000000X1.250000*%
%ADD22R,0.750000X0.800000*%
%ADD23R,1.250000X1.000000*%
%ADD24R,0.800000X0.750000*%
%ADD25R,0.600000X0.800000*%
%ADD26R,0.800000X0.600000*%
%ADD27R,0.500000X0.900000*%
%ADD28R,0.900000X0.500000*%
%ADD29R,1.700000X0.900000*%
%ADD30R,1.000000X2.500000*%
%ADD31R,1.500000X3.000000*%
%ADD32R,2.000000X0.530000*%
%ADD33R,1.200000X0.500000*%
%ADD34R,1.600000X1.000000*%
%ADD35R,0.800000X1.200000*%
%ADD36R,0.450000X1.650000*%
%ADD37R,4.320000X3.000000*%
%ADD38R,2.000000X0.800000*%
G04 APERTURE END LIST*
D10*
D11*
X253250000Y-73150000D03*
D12*
X259550000Y-73150000D03*
X259550000Y-70850000D03*
X259550000Y-75450000D03*
D13*
X237320000Y-103345000D03*
X237320000Y-100805000D03*
X230970000Y-102075000D03*
X230970000Y-100805000D03*
X230970000Y-103345000D03*
D14*
X253775000Y-106925000D03*
X253775000Y-102825000D03*
X250975000Y-102825000D03*
X250975000Y-106925000D03*
D15*
X257800000Y-114550000D03*
X257300000Y-114550000D03*
X256800000Y-114550000D03*
X256300000Y-114550000D03*
X255800000Y-114550000D03*
X255300000Y-114550000D03*
X254800000Y-114550000D03*
X254300000Y-114550000D03*
X253800000Y-114550000D03*
X253300000Y-114550000D03*
X252800000Y-114550000D03*
X252300000Y-114550000D03*
X251800000Y-114550000D03*
X251300000Y-114550000D03*
X250800000Y-114550000D03*
X250300000Y-114550000D03*
D16*
X248350000Y-116500000D03*
X248350000Y-117000000D03*
X248350000Y-117500000D03*
X248350000Y-118000000D03*
X248350000Y-118500000D03*
X248350000Y-119000000D03*
X248350000Y-119500000D03*
X248350000Y-120000000D03*
X248350000Y-120500000D03*
X248350000Y-121000000D03*
X248350000Y-121500000D03*
X248350000Y-122000000D03*
X248350000Y-122500000D03*
X248350000Y-123000000D03*
X248350000Y-123500000D03*
X248350000Y-124000000D03*
D15*
X250300000Y-125950000D03*
X250800000Y-125950000D03*
X251300000Y-125950000D03*
X251800000Y-125950000D03*
X252300000Y-125950000D03*
X252800000Y-125950000D03*
X253300000Y-125950000D03*
X253800000Y-125950000D03*
X254300000Y-125950000D03*
X254800000Y-125950000D03*
X255300000Y-125950000D03*
X255800000Y-125950000D03*
X256300000Y-125950000D03*
X256800000Y-125950000D03*
X257300000Y-125950000D03*
X257800000Y-125950000D03*
D16*
X259750000Y-124000000D03*
X259750000Y-123500000D03*
X259750000Y-123000000D03*
X259750000Y-122500000D03*
X259750000Y-122000000D03*
X259750000Y-121500000D03*
X259750000Y-121000000D03*
X259750000Y-120500000D03*
X259750000Y-120000000D03*
X259750000Y-119500000D03*
X259750000Y-119000000D03*
X259750000Y-118500000D03*
X259750000Y-118000000D03*
X259750000Y-117500000D03*
X259750000Y-117000000D03*
X259750000Y-116500000D03*
D17*
X239600000Y-67875000D03*
X242500000Y-67875000D03*
D13*
X237330000Y-79075000D03*
X237330000Y-76535000D03*
X230980000Y-77805000D03*
X230980000Y-76535000D03*
X230980000Y-79075000D03*
D11*
X189430000Y-134030000D03*
D12*
X183130000Y-134030000D03*
X183130000Y-136330000D03*
X183130000Y-131730000D03*
D18*
X165950000Y-132500000D03*
X165950000Y-127100000D03*
D19*
X155650000Y-133300000D03*
X159050000Y-136400000D03*
X159050000Y-140700000D03*
D20*
X153200000Y-143600000D03*
D19*
X145350000Y-136400000D03*
X145350000Y-140700000D03*
D18*
X218300000Y-78400000D03*
X218300000Y-73000000D03*
D21*
X235900000Y-135650000D03*
X237900000Y-135650000D03*
D22*
X147700000Y-95950000D03*
X147700000Y-94450000D03*
D21*
X138900000Y-79400000D03*
X140900000Y-79400000D03*
D18*
X161200000Y-78400000D03*
X161200000Y-73000000D03*
D21*
X145978000Y-93288000D03*
X143978000Y-93288000D03*
D22*
X153500000Y-96050000D03*
X153500000Y-94550000D03*
D21*
X143978000Y-91256000D03*
X145978000Y-91256000D03*
D23*
X155000000Y-97000000D03*
X155000000Y-99000000D03*
X177950000Y-144850000D03*
X177950000Y-142850000D03*
X259900000Y-69000000D03*
X259900000Y-67000000D03*
X193240000Y-138390000D03*
X193240000Y-136390000D03*
X252950000Y-76300000D03*
X252950000Y-78300000D03*
X177900000Y-137700000D03*
X177900000Y-139700000D03*
X193230000Y-143070000D03*
X193230000Y-141070000D03*
D24*
X244450000Y-125450000D03*
X245950000Y-125450000D03*
D22*
X258850000Y-130050000D03*
X258850000Y-128550000D03*
D24*
X251625000Y-108925000D03*
X253125000Y-108925000D03*
D23*
X269450000Y-107750000D03*
X269450000Y-109750000D03*
D24*
X253125000Y-101225000D03*
X251625000Y-101225000D03*
D21*
X260350000Y-107550000D03*
X258350000Y-107550000D03*
D24*
X256050000Y-105580000D03*
X257550000Y-105580000D03*
D21*
X260350000Y-109600000D03*
X258350000Y-109600000D03*
D23*
X248250000Y-114350000D03*
X248250000Y-112350000D03*
D21*
X237250000Y-117000000D03*
X239250000Y-117000000D03*
D23*
X260550000Y-126050000D03*
X260550000Y-128050000D03*
D24*
X255850000Y-99430000D03*
X257350000Y-99430000D03*
D23*
X248250000Y-126200000D03*
X248250000Y-128200000D03*
D21*
X257800000Y-112050000D03*
X259800000Y-112050000D03*
X167400000Y-136400000D03*
X169400000Y-136400000D03*
X203300000Y-121700000D03*
X205300000Y-121700000D03*
X258000000Y-135750000D03*
X256000000Y-135750000D03*
X263450000Y-135750000D03*
X261450000Y-135750000D03*
D23*
X232700000Y-117900000D03*
X232700000Y-115900000D03*
D21*
X246950000Y-135800000D03*
X244950000Y-135800000D03*
X198400000Y-121700000D03*
X200400000Y-121700000D03*
X237200000Y-124750000D03*
X239200000Y-124750000D03*
X216950000Y-140800000D03*
X214950000Y-140800000D03*
D22*
X175700000Y-95750000D03*
X175700000Y-94250000D03*
D23*
X199136000Y-138192000D03*
X199136000Y-140192000D03*
D22*
X204600000Y-96550000D03*
X204600000Y-95050000D03*
D21*
X168200000Y-79300000D03*
X170200000Y-79300000D03*
X196700000Y-79600000D03*
X198700000Y-79600000D03*
D18*
X189300000Y-78400000D03*
X189300000Y-73000000D03*
D21*
X207756000Y-136906000D03*
X205756000Y-136906000D03*
X173946000Y-92942000D03*
X171946000Y-92942000D03*
X203162000Y-93696000D03*
X201162000Y-93696000D03*
D22*
X181400000Y-95850000D03*
X181400000Y-94350000D03*
X210500000Y-96550000D03*
X210500000Y-95050000D03*
D21*
X171946000Y-91164000D03*
X173946000Y-91164000D03*
X201162000Y-91664000D03*
X203162000Y-91664000D03*
D23*
X183100000Y-96400000D03*
X183100000Y-98400000D03*
X212100000Y-96600000D03*
X212100000Y-98600000D03*
D21*
X252350000Y-135800000D03*
X250350000Y-135800000D03*
D25*
X267800000Y-73950000D03*
X266100000Y-73950000D03*
X133740000Y-106620000D03*
X135440000Y-106620000D03*
X133740000Y-104620000D03*
X135440000Y-104620000D03*
X133740000Y-108620000D03*
X135440000Y-108620000D03*
D26*
X241900000Y-154750000D03*
X241900000Y-156450000D03*
X256900000Y-154750000D03*
X256900000Y-156450000D03*
X211600000Y-153750000D03*
X211600000Y-155450000D03*
X226800000Y-154550000D03*
X226800000Y-156250000D03*
X181800000Y-154650000D03*
X181800000Y-156350000D03*
D27*
X259100000Y-105700000D03*
X260600000Y-105700000D03*
X246100000Y-124150000D03*
X244600000Y-124150000D03*
D28*
X244700000Y-156450000D03*
X244700000Y-154950000D03*
X259800000Y-156350000D03*
X259800000Y-154850000D03*
X214400000Y-153750000D03*
X214400000Y-155250000D03*
D29*
X228700000Y-136500000D03*
X228700000Y-133600000D03*
D28*
X229600000Y-154650000D03*
X229600000Y-156150000D03*
X184800000Y-154750000D03*
X184800000Y-156250000D03*
D27*
X268500000Y-130720000D03*
X267000000Y-130720000D03*
X268500000Y-129220000D03*
X267000000Y-129220000D03*
X268500000Y-127720000D03*
X267000000Y-127720000D03*
X268500000Y-126220000D03*
X267000000Y-126220000D03*
D28*
X257350000Y-130000000D03*
X257350000Y-128500000D03*
X255800000Y-130000000D03*
X255800000Y-128500000D03*
D27*
X138090000Y-106620000D03*
X139590000Y-106620000D03*
X139590000Y-104370000D03*
X138090000Y-104370000D03*
D28*
X149700000Y-150800000D03*
X149700000Y-152300000D03*
D27*
X266650000Y-105600000D03*
X265150000Y-105600000D03*
D28*
X239250000Y-114850000D03*
X239250000Y-113350000D03*
X239200000Y-110600000D03*
X239200000Y-112100000D03*
X149600000Y-95750000D03*
X149600000Y-94250000D03*
X228300000Y-105850000D03*
X228300000Y-107350000D03*
D29*
X145550000Y-78050000D03*
X145550000Y-75150000D03*
D28*
X206800000Y-123950000D03*
X206800000Y-125450000D03*
D29*
X153300000Y-78050000D03*
X153300000Y-75150000D03*
X268450000Y-141350000D03*
X268450000Y-144250000D03*
X242700000Y-150650000D03*
X242700000Y-147750000D03*
D28*
X239250000Y-123050000D03*
X239250000Y-121550000D03*
X239250000Y-118700000D03*
X239250000Y-120200000D03*
D17*
X239700000Y-90775000D03*
X242600000Y-90775000D03*
X239700000Y-86075000D03*
X242600000Y-86075000D03*
X239700000Y-82175000D03*
X242600000Y-82175000D03*
X239700000Y-76600000D03*
X242600000Y-76600000D03*
X239650000Y-71800000D03*
X242550000Y-71800000D03*
D28*
X214900000Y-134550000D03*
X214900000Y-136050000D03*
X214900000Y-138850000D03*
X214900000Y-137350000D03*
D27*
X202450000Y-136906000D03*
X203950000Y-136906000D03*
D28*
X226900000Y-81850000D03*
X226900000Y-83350000D03*
X177600000Y-95650000D03*
X177600000Y-94150000D03*
X226900000Y-67650000D03*
X226900000Y-69150000D03*
X206600000Y-96450000D03*
X206600000Y-94950000D03*
D29*
X179600000Y-94350000D03*
X179600000Y-97250000D03*
X208400000Y-95150000D03*
X208400000Y-98050000D03*
X173600000Y-77250000D03*
X173600000Y-74350000D03*
X202300000Y-77050000D03*
X202300000Y-74150000D03*
X181300000Y-77250000D03*
X181300000Y-74350000D03*
X210100000Y-77050000D03*
X210100000Y-74150000D03*
D30*
X266700000Y-108450000D03*
X266700000Y-113950000D03*
D31*
X269150000Y-102600000D03*
X266650000Y-102600000D03*
X264150000Y-102600000D03*
X264150000Y-98300000D03*
X266650000Y-98300000D03*
X269150000Y-98300000D03*
D32*
X236460000Y-122810000D03*
X236460000Y-121540000D03*
X236460000Y-120270000D03*
X236460000Y-119000000D03*
X232650000Y-119000000D03*
X232650000Y-120270000D03*
X232650000Y-121540000D03*
X232650000Y-122810000D03*
D33*
X202168000Y-139684000D03*
X202168000Y-138684000D03*
X202168000Y-140684000D03*
X204168000Y-140684000D03*
X204168000Y-139684000D03*
X204168000Y-138684000D03*
D24*
X260250000Y-95850000D03*
X261750000Y-95850000D03*
X258600000Y-95800000D03*
X257100000Y-95800000D03*
D34*
X256700000Y-103980000D03*
X256700000Y-100980000D03*
D32*
X236510000Y-114635000D03*
X236510000Y-113365000D03*
X236510000Y-112095000D03*
X236510000Y-110825000D03*
X232700000Y-110825000D03*
X232700000Y-112095000D03*
X232700000Y-113365000D03*
X232700000Y-114635000D03*
D35*
X231220000Y-139730000D03*
X228680000Y-139730000D03*
X229950000Y-146080000D03*
X228680000Y-146080000D03*
X231220000Y-146080000D03*
D13*
X237330000Y-93325000D03*
X237330000Y-90785000D03*
X230980000Y-92055000D03*
X230980000Y-90785000D03*
X230980000Y-93325000D03*
X237330000Y-88575000D03*
X237330000Y-86035000D03*
X230980000Y-87305000D03*
X230980000Y-86035000D03*
X230980000Y-88575000D03*
X237330000Y-74325000D03*
X237330000Y-71785000D03*
X230980000Y-73055000D03*
X230980000Y-71785000D03*
X230980000Y-74325000D03*
D35*
X234680000Y-146070000D03*
X237220000Y-146070000D03*
X235950000Y-139720000D03*
X237220000Y-139720000D03*
X234680000Y-139720000D03*
D36*
X173740000Y-88920000D03*
X174390000Y-88920000D03*
X175040000Y-88920000D03*
X175690000Y-88920000D03*
X176340000Y-88920000D03*
X176990000Y-88920000D03*
X177640000Y-88920000D03*
X178290000Y-88920000D03*
X178940000Y-88920000D03*
X179590000Y-88920000D03*
X180240000Y-88920000D03*
X180890000Y-88920000D03*
X180890000Y-82920000D03*
X180240000Y-82920000D03*
X179590000Y-82920000D03*
X178940000Y-82920000D03*
X178290000Y-82920000D03*
X177640000Y-82920000D03*
X176990000Y-82920000D03*
X176340000Y-82920000D03*
X175690000Y-82920000D03*
X175040000Y-82920000D03*
X174390000Y-82920000D03*
X173740000Y-82920000D03*
D37*
X177340000Y-85920000D03*
D36*
X202640000Y-89120000D03*
X203290000Y-89120000D03*
X203940000Y-89120000D03*
X204590000Y-89120000D03*
X205240000Y-89120000D03*
X205890000Y-89120000D03*
X206540000Y-89120000D03*
X207190000Y-89120000D03*
X207840000Y-89120000D03*
X208490000Y-89120000D03*
X209140000Y-89120000D03*
X209790000Y-89120000D03*
X209790000Y-83120000D03*
X209140000Y-83120000D03*
X208490000Y-83120000D03*
X207840000Y-83120000D03*
X207190000Y-83120000D03*
X206540000Y-83120000D03*
X205890000Y-83120000D03*
X205240000Y-83120000D03*
X204590000Y-83120000D03*
X203940000Y-83120000D03*
X203290000Y-83120000D03*
X202640000Y-83120000D03*
D37*
X206240000Y-86120000D03*
D36*
X145690000Y-88870000D03*
X146340000Y-88870000D03*
X146990000Y-88870000D03*
X147640000Y-88870000D03*
X148290000Y-88870000D03*
X148940000Y-88870000D03*
X149590000Y-88870000D03*
X150240000Y-88870000D03*
X150890000Y-88870000D03*
X151540000Y-88870000D03*
X152190000Y-88870000D03*
X152840000Y-88870000D03*
X152840000Y-82870000D03*
X152190000Y-82870000D03*
X151540000Y-82870000D03*
X150890000Y-82870000D03*
X150240000Y-82870000D03*
X149590000Y-82870000D03*
X148940000Y-82870000D03*
X148290000Y-82870000D03*
X147640000Y-82870000D03*
X146990000Y-82870000D03*
X146340000Y-82870000D03*
X145690000Y-82870000D03*
D37*
X149290000Y-85870000D03*
D29*
X151500000Y-94450000D03*
X151500000Y-97350000D03*
D11*
X189570000Y-144250000D03*
D12*
X183270000Y-144250000D03*
X183270000Y-146550000D03*
X183270000Y-141950000D03*
D25*
X267750000Y-77150000D03*
X266050000Y-77150000D03*
D27*
X264350000Y-77150000D03*
X262850000Y-77150000D03*
D35*
X256705000Y-145970000D03*
X259245000Y-145970000D03*
X257975000Y-139620000D03*
X259245000Y-139620000D03*
X256705000Y-139620000D03*
X262155000Y-146020000D03*
X264695000Y-146020000D03*
X263425000Y-139670000D03*
X264695000Y-139670000D03*
X262155000Y-139670000D03*
X245630000Y-146095000D03*
X248170000Y-146095000D03*
X246900000Y-139745000D03*
X248170000Y-139745000D03*
X245630000Y-139745000D03*
X251155000Y-145995000D03*
X253695000Y-145995000D03*
X252425000Y-139645000D03*
X253695000Y-139645000D03*
X251155000Y-139645000D03*
X240155000Y-146145000D03*
X242695000Y-146145000D03*
X241425000Y-139795000D03*
X242695000Y-139795000D03*
X240155000Y-139795000D03*
D27*
X264350000Y-73950000D03*
X262850000Y-73950000D03*
X138115000Y-108620000D03*
X139615000Y-108620000D03*
D28*
X200660000Y-137148000D03*
X200660000Y-135648000D03*
X234800000Y-149100000D03*
X234800000Y-147600000D03*
X251175000Y-149725000D03*
X251175000Y-148225000D03*
X245700000Y-149775000D03*
X245700000Y-148275000D03*
X262200000Y-149900000D03*
X262200000Y-148400000D03*
X256700000Y-149850000D03*
X256700000Y-148350000D03*
X230200000Y-110550000D03*
X230200000Y-112050000D03*
X230200000Y-114850000D03*
X230200000Y-113350000D03*
D10*
G36*
X203391000Y-125647000D02*
X203391000Y-124797000D01*
X203741000Y-124797000D01*
X203741000Y-125647000D01*
X203391000Y-125647000D01*
X203391000Y-125647000D01*
G37*
G36*
X204041000Y-125647000D02*
X204041000Y-124797000D01*
X204391000Y-124797000D01*
X204391000Y-125647000D01*
X204041000Y-125647000D01*
X204041000Y-125647000D01*
G37*
G36*
X204691000Y-125647000D02*
X204691000Y-124797000D01*
X205041000Y-124797000D01*
X205041000Y-125647000D01*
X204691000Y-125647000D01*
X204691000Y-125647000D01*
G37*
G36*
X204691000Y-127847000D02*
X204691000Y-126997000D01*
X205041000Y-126997000D01*
X205041000Y-127847000D01*
X204691000Y-127847000D01*
X204691000Y-127847000D01*
G37*
G36*
X204041000Y-127847000D02*
X204041000Y-126997000D01*
X204391000Y-126997000D01*
X204391000Y-127847000D01*
X204041000Y-127847000D01*
X204041000Y-127847000D01*
G37*
G36*
X203391000Y-127847000D02*
X203391000Y-126997000D01*
X203741000Y-126997000D01*
X203741000Y-127847000D01*
X203391000Y-127847000D01*
X203391000Y-127847000D01*
G37*
G36*
X198565000Y-125647000D02*
X198565000Y-124797000D01*
X198915000Y-124797000D01*
X198915000Y-125647000D01*
X198565000Y-125647000D01*
X198565000Y-125647000D01*
G37*
G36*
X199215000Y-125647000D02*
X199215000Y-124797000D01*
X199565000Y-124797000D01*
X199565000Y-125647000D01*
X199215000Y-125647000D01*
X199215000Y-125647000D01*
G37*
G36*
X199865000Y-125647000D02*
X199865000Y-124797000D01*
X200215000Y-124797000D01*
X200215000Y-125647000D01*
X199865000Y-125647000D01*
X199865000Y-125647000D01*
G37*
G36*
X199865000Y-127847000D02*
X199865000Y-126997000D01*
X200215000Y-126997000D01*
X200215000Y-127847000D01*
X199865000Y-127847000D01*
X199865000Y-127847000D01*
G37*
G36*
X199215000Y-127847000D02*
X199215000Y-126997000D01*
X199565000Y-126997000D01*
X199565000Y-127847000D01*
X199215000Y-127847000D01*
X199215000Y-127847000D01*
G37*
G36*
X198565000Y-127847000D02*
X198565000Y-126997000D01*
X198915000Y-126997000D01*
X198915000Y-127847000D01*
X198565000Y-127847000D01*
X198565000Y-127847000D01*
G37*
D23*
X191770000Y-127492000D03*
X191770000Y-125492000D03*
D17*
X239150000Y-95750000D03*
X242050000Y-95750000D03*
X239100000Y-100750000D03*
X242000000Y-100750000D03*
X239650000Y-106100000D03*
X242550000Y-106100000D03*
D10*
G36*
X193993000Y-125647000D02*
X193993000Y-124797000D01*
X194343000Y-124797000D01*
X194343000Y-125647000D01*
X193993000Y-125647000D01*
X193993000Y-125647000D01*
G37*
G36*
X194643000Y-125647000D02*
X194643000Y-124797000D01*
X194993000Y-124797000D01*
X194993000Y-125647000D01*
X194643000Y-125647000D01*
X194643000Y-125647000D01*
G37*
G36*
X195293000Y-125647000D02*
X195293000Y-124797000D01*
X195643000Y-124797000D01*
X195643000Y-125647000D01*
X195293000Y-125647000D01*
X195293000Y-125647000D01*
G37*
G36*
X195293000Y-127847000D02*
X195293000Y-126997000D01*
X195643000Y-126997000D01*
X195643000Y-127847000D01*
X195293000Y-127847000D01*
X195293000Y-127847000D01*
G37*
G36*
X194643000Y-127847000D02*
X194643000Y-126997000D01*
X194993000Y-126997000D01*
X194993000Y-127847000D01*
X194643000Y-127847000D01*
X194643000Y-127847000D01*
G37*
G36*
X193993000Y-127847000D02*
X193993000Y-126997000D01*
X194343000Y-126997000D01*
X194343000Y-127847000D01*
X193993000Y-127847000D01*
X193993000Y-127847000D01*
G37*
D13*
X237320000Y-98245000D03*
X237320000Y-95705000D03*
X230970000Y-96975000D03*
X230970000Y-95705000D03*
X230970000Y-98245000D03*
D21*
X259900000Y-78350000D03*
X257900000Y-78350000D03*
D38*
X237300000Y-82145000D03*
X230300000Y-82145000D03*
X237300000Y-83415000D03*
X230300000Y-83415000D03*
X237325000Y-67870000D03*
X230325000Y-67870000D03*
X237325000Y-69140000D03*
X230325000Y-69140000D03*
X237400000Y-106145000D03*
X230400000Y-106145000D03*
X237400000Y-107415000D03*
X230400000Y-107415000D03*
M02*
