M48
;DRILL file {KiCad 4.0.1-stable} date 2018/04/26 10:10:33
;FORMAT={-:-/ absolute / inch / decimal}
FMAT,2
INCH,TZ
T1C0.012
T2C0.013
T3C0.020
T4C0.020
T5C0.025
T6C0.026
T7C0.032
T8C0.035
T9C0.035
T10C0.039
T11C0.065
T12C0.091
%
G90
G05
M72
T1
X5.2319Y-4.1957
X5.4957Y-3.2331
X5.4957Y-3.2724
X5.4957Y-3.3079
X5.4957Y-3.3472
X5.4957Y-3.3827
X5.4957Y-3.422
X5.4957Y-3.4575
X5.4957Y-3.4929
X5.5272Y-3.2331
X5.5272Y-3.2724
X5.5272Y-3.3079
X5.5272Y-3.3472
X5.5272Y-3.3827
X5.5272Y-3.422
X5.5272Y-3.4575
X5.5272Y-3.4929
X5.55Y-4.2
X5.5665Y-3.2331
X5.5665Y-3.2724
X5.5665Y-3.3079
X5.5665Y-3.3472
X5.5665Y-3.3827
X5.5665Y-3.422
X5.5665Y-3.4575
X5.5665Y-3.4929
X5.5866Y-3.126
X5.6098Y-3.2331
X5.6098Y-3.2724
X5.6098Y-3.3079
X5.6098Y-3.3472
X5.6098Y-3.3827
X5.6098Y-3.422
X5.6098Y-3.4575
X5.6098Y-3.4929
X5.6492Y-3.2331
X5.6492Y-3.2724
X5.6492Y-3.3079
X5.6492Y-3.3472
X5.6492Y-3.3827
X5.6492Y-3.422
X5.6492Y-3.4575
X5.6492Y-3.4929
X5.6886Y-3.2331
X5.6886Y-3.2724
X5.6886Y-3.3079
X5.6886Y-3.3472
X5.6886Y-3.3827
X5.6886Y-3.422
X5.6886Y-3.4575
X5.6886Y-3.4929
X5.724Y-3.3472
X5.724Y-3.3827
X5.724Y-3.422
X5.7283Y-2.8858
X5.7283Y-2.9173
X5.7634Y-3.3472
X5.7634Y-3.3827
X5.7634Y-3.422
X5.811Y-3.122
X5.811Y-3.1496
X5.811Y-3.1772
X5.8185Y-3.3433
X5.8185Y-3.3827
X5.8185Y-3.422
X5.8543Y-3.6811
X5.8579Y-3.3433
X5.8579Y-3.3827
X5.8579Y-3.422
X5.8972Y-3.3433
X5.8972Y-3.3827
X5.8972Y-3.422
X5.9035Y-5.2638
X5.9055Y-5.3583
X5.9094Y-5.4587
X5.9114Y-5.5531
X5.9134Y-5.6535
X5.9134Y-5.7539
X5.9154Y-5.8484
X5.9366Y-3.3433
X5.9366Y-3.3827
X5.9366Y-3.422
X5.9409Y-3.122
X5.9409Y-3.1496
X5.9409Y-3.1772
X5.9823Y-5.2638
X5.9843Y-5.3583
X5.9878Y-3.3472
X5.9878Y-3.3827
X5.9878Y-3.422
X5.9882Y-5.4587
X5.9902Y-5.5531
X5.9921Y-5.6535
X5.9921Y-5.7539
X5.9941Y-5.8484
X6.0272Y-3.3472
X6.0272Y-3.3827
X6.0272Y-3.422
X6.0315Y-2.8819
X6.0315Y-2.9173
X6.0433Y-3.6811
X6.0551Y-5.3583
X6.0591Y-5.4587
X6.061Y-5.5531
X6.0665Y-3.2449
X6.0665Y-3.2843
X6.0665Y-3.3197
X6.0665Y-3.3591
X6.0665Y-3.3945
X6.0665Y-3.4339
X6.0665Y-3.4693
X6.0665Y-3.5087
X6.0665Y-3.5441
X6.0665Y-3.5795
X6.0665Y-3.6189
X6.0709Y-5.6535
X6.0748Y-5.7539
X6.0768Y-5.8484
X6.1059Y-3.2449
X6.1059Y-3.2843
X6.1059Y-3.3197
X6.1059Y-3.3591
X6.1059Y-3.3945
X6.1059Y-3.4339
X6.1059Y-3.4693
X6.1059Y-3.5087
X6.1059Y-3.5441
X6.1059Y-3.5795
X6.1059Y-3.6189
X6.1398Y-5.5531
X6.1453Y-3.2449
X6.1453Y-3.2843
X6.1453Y-3.3197
X6.1453Y-3.3591
X6.1453Y-3.3945
X6.1453Y-3.4339
X6.1453Y-3.4693
X6.1453Y-3.5087
X6.1453Y-3.5441
X6.1453Y-3.5795
X6.1453Y-3.6189
X6.1457Y-3.6811
X6.1496Y-5.6535
X6.1535Y-5.7539
X6.1555Y-5.8484
X6.1846Y-3.2449
X6.1846Y-3.2843
X6.1846Y-3.3197
X6.1846Y-3.3591
X6.1846Y-3.3945
X6.1846Y-3.4339
X6.1846Y-3.4693
X6.1846Y-3.5087
X6.1846Y-3.5441
X6.1846Y-3.5795
X6.1846Y-3.6189
X6.185Y-3.6811
X6.224Y-3.2449
X6.224Y-3.2843
X6.224Y-3.3197
X6.224Y-3.3591
X6.224Y-3.3945
X6.224Y-3.4339
X6.224Y-3.4693
X6.224Y-3.5087
X6.224Y-3.5441
X6.224Y-3.5795
X6.224Y-3.6189
X6.2244Y-3.6811
X6.2323Y-5.6535
X6.2362Y-5.7539
X6.2382Y-5.8484
X6.2634Y-3.2449
X6.2634Y-3.2843
X6.2634Y-3.3197
X6.2634Y-3.3591
X6.2634Y-3.3945
X6.2634Y-3.4339
X6.2634Y-3.4693
X6.2634Y-3.5087
X6.2634Y-3.5441
X6.2634Y-3.5795
X6.2634Y-3.6189
X6.2654Y-3.6622
X6.2654Y-3.6976
X6.2654Y-3.7331
X6.2654Y-3.7724
X6.2654Y-3.8079
X6.2654Y-3.8433
X6.2654Y-3.8827
X6.2654Y-3.9181
X6.2654Y-3.9496
X6.2654Y-3.985
X6.2654Y-4.0244
X6.289Y-2.6858
X6.289Y-2.7252
X6.289Y-2.7606
X6.3028Y-3.2449
X6.3028Y-3.2843
X6.3028Y-3.3197
X6.3028Y-3.3591
X6.3028Y-3.3945
X6.3028Y-3.4339
X6.3028Y-3.4693
X6.3028Y-3.5087
X6.3028Y-3.5441
X6.3028Y-3.5795
X6.3028Y-3.6189
X6.3047Y-3.6622
X6.3047Y-3.6976
X6.3047Y-3.7331
X6.3047Y-3.7724
X6.3047Y-3.8079
X6.3047Y-3.8433
X6.3047Y-3.8827
X6.3047Y-3.9181
X6.3047Y-3.9496
X6.3047Y-3.985
X6.3047Y-4.0244
X6.311Y-5.6535
X6.315Y-5.7539
X6.3169Y-5.8484
X6.3283Y-2.6858
X6.3283Y-2.7252
X6.3283Y-2.7606
X6.3421Y-3.2449
X6.3421Y-3.2843
X6.3421Y-3.3197
X6.3421Y-3.3591
X6.3421Y-3.3945
X6.3421Y-3.4339
X6.3421Y-3.4693
X6.3421Y-3.5087
X6.3421Y-3.5441
X6.3421Y-3.5795
X6.3421Y-3.6189
X6.3441Y-3.6622
X6.3441Y-3.6976
X6.3441Y-3.7331
X6.3441Y-3.7724
X6.3441Y-3.8079
X6.3441Y-3.8433
X6.3441Y-3.8827
X6.3441Y-3.9181
X6.3441Y-3.9496
X6.3441Y-3.985
X6.3441Y-4.0244
X6.3677Y-2.6858
X6.3677Y-2.7252
X6.3677Y-2.7606
X6.376Y-5.3327
X6.376Y-5.372
X6.376Y-5.4114
X6.3819Y-5.6535
X6.3854Y-3.2449
X6.3854Y-3.2843
X6.3854Y-3.3197
X6.3854Y-3.3591
X6.3854Y-3.3945
X6.3854Y-3.4339
X6.3854Y-3.4693
X6.3854Y-3.5087
X6.3854Y-3.5441
X6.3854Y-3.5795
X6.3854Y-3.6189
X6.3858Y-5.7539
X6.3874Y-3.6622
X6.3874Y-3.6976
X6.3874Y-3.7331
X6.3874Y-3.7724
X6.3874Y-3.8079
X6.3874Y-3.8433
X6.3874Y-3.8827
X6.3874Y-3.9181
X6.3874Y-3.9496
X6.3874Y-3.985
X6.3874Y-4.0244
X6.3878Y-5.8484
X6.4016Y-3.122
X6.4016Y-3.1496
X6.4071Y-2.6858
X6.4071Y-2.7252
X6.4071Y-2.7606
X6.4154Y-5.3327
X6.4154Y-5.372
X6.4154Y-5.4114
X6.4248Y-3.2843
X6.4248Y-3.3197
X6.4248Y-3.3591
X6.4248Y-3.3945
X6.4248Y-3.4339
X6.4248Y-3.4693
X6.4248Y-3.5087
X6.4248Y-3.5441
X6.4248Y-3.5795
X6.4248Y-3.6189
X6.4268Y-3.6622
X6.4268Y-3.6976
X6.4268Y-3.7331
X6.4268Y-3.7724
X6.4268Y-3.8079
X6.4268Y-3.8433
X6.4268Y-3.8827
X6.4268Y-3.9181
X6.4268Y-3.9496
X6.4268Y-3.985
X6.4268Y-4.0244
X6.4291Y-3.122
X6.4291Y-3.1496
X6.4547Y-5.3327
X6.4547Y-5.372
X6.4547Y-5.4114
X6.4567Y-3.122
X6.4567Y-3.1496
X6.4606Y-5.6535
X6.4646Y-5.7539
X6.4665Y-5.8484
X6.4941Y-5.3327
X6.4941Y-5.372
X6.4941Y-5.4114
X6.5335Y-5.3327
X6.5335Y-5.372
X6.5335Y-5.4114
X6.5394Y-5.6535
X6.5433Y-5.7539
X6.5453Y-5.8484
X6.6102Y-5.6535
X6.6142Y-5.7539
X6.6161Y-5.8484
X6.6787Y-3.2409
X6.6787Y-3.2803
X6.6787Y-3.3157
X6.6787Y-3.3551
X6.6787Y-3.3906
X6.6787Y-3.4299
X6.6787Y-3.4654
X6.689Y-5.6535
X6.6929Y-5.7539
X6.6949Y-5.8484
X6.7102Y-3.2409
X6.7102Y-3.2803
X6.7102Y-3.3157
X6.7102Y-3.3551
X6.7102Y-3.3906
X6.7102Y-3.4299
X6.7102Y-3.4654
X6.7323Y-3.126
X6.7496Y-3.2409
X6.7496Y-3.2803
X6.7496Y-3.3157
X6.7496Y-3.3551
X6.7496Y-3.3906
X6.7496Y-3.4299
X6.7496Y-3.4654
X6.789Y-3.2409
X6.789Y-3.2803
X6.789Y-3.3157
X6.789Y-3.3551
X6.789Y-3.3906
X6.789Y-3.4299
X6.789Y-3.4654
X6.8264Y-3.3472
X6.8264Y-3.3827
X6.8264Y-3.422
X6.8307Y-2.8425
X6.8307Y-2.8858
X6.8657Y-3.3472
X6.8657Y-3.3827
X6.8657Y-3.422
X6.9173Y-3.122
X6.9173Y-3.1496
X6.9173Y-3.1772
X6.9268Y-3.3453
X6.9268Y-3.3846
X6.9268Y-3.424
X6.9567Y-3.6772
X6.9661Y-3.3453
X6.9661Y-3.3846
X6.9661Y-3.424
X7.0055Y-3.3453
X7.0055Y-3.3846
X7.0055Y-3.424
X7.0413Y-5.3681
X7.0433Y-3.122
X7.0433Y-3.1496
X7.0433Y-3.1772
X7.0449Y-3.3453
X7.0449Y-3.3846
X7.0449Y-3.424
X7.0453Y-5.7717
X7.0941Y-3.3472
X7.0941Y-3.3827
X7.0941Y-3.422
X7.1335Y-3.3472
X7.1335Y-3.3827
X7.1335Y-3.422
X7.1417Y-2.8504
X7.1417Y-2.8898
X7.1417Y-3.6772
X7.1827Y-3.2409
X7.1827Y-3.2803
X7.1827Y-3.3157
X7.1827Y-3.3551
X7.1827Y-3.3906
X7.1827Y-3.4299
X7.1827Y-3.4654
X7.1827Y-3.5047
X7.1827Y-3.5402
X7.1827Y-3.5756
X7.1827Y-3.615
X7.222Y-3.2409
X7.222Y-3.2803
X7.222Y-3.3157
X7.222Y-3.3551
X7.222Y-3.3906
X7.222Y-3.4299
X7.222Y-3.4654
X7.222Y-3.5047
X7.222Y-3.5402
X7.222Y-3.5756
X7.222Y-3.615
X7.2614Y-3.2409
X7.2614Y-3.2803
X7.2614Y-3.3157
X7.2614Y-3.3551
X7.2614Y-3.3906
X7.2614Y-3.4299
X7.2614Y-3.4654
X7.2614Y-3.5047
X7.2614Y-3.5402
X7.2614Y-3.5756
X7.2614Y-3.615
X7.2638Y-3.6772
X7.2953Y-3.6772
X7.3008Y-3.2409
X7.3008Y-3.2803
X7.3008Y-3.3157
X7.3008Y-3.3551
X7.3008Y-3.3906
X7.3008Y-3.4299
X7.3008Y-3.4654
X7.3008Y-3.5047
X7.3008Y-3.5402
X7.3008Y-3.5756
X7.3008Y-3.615
X7.3268Y-3.6772
X7.3402Y-3.2409
X7.3402Y-3.2803
X7.3402Y-3.3157
X7.3402Y-3.3551
X7.3402Y-3.3906
X7.3402Y-3.4299
X7.3402Y-3.4654
X7.3402Y-3.5047
X7.3402Y-3.5402
X7.3402Y-3.5756
X7.3402Y-3.615
X7.3795Y-3.2409
X7.3795Y-3.2803
X7.3795Y-3.3157
X7.3795Y-3.3551
X7.3795Y-3.3906
X7.3795Y-3.4299
X7.3795Y-3.4654
X7.3795Y-3.5047
X7.3795Y-3.5402
X7.3795Y-3.5756
X7.3795Y-3.615
X7.3795Y-3.6504
X7.3795Y-3.6858
X7.3795Y-3.7252
X7.3795Y-3.7606
X7.3795Y-3.7961
X7.3795Y-3.8354
X7.3795Y-3.8709
X7.3795Y-3.9024
X7.3795Y-3.9378
X7.3795Y-3.9772
X7.3913Y-2.6937
X7.3913Y-2.7331
X7.3913Y-2.7685
X7.4189Y-3.2409
X7.4189Y-3.2803
X7.4189Y-3.3157
X7.4189Y-3.3551
X7.4189Y-3.3906
X7.4189Y-3.4299
X7.4189Y-3.4654
X7.4189Y-3.5047
X7.4189Y-3.5402
X7.4189Y-3.5756
X7.4189Y-3.615
X7.4189Y-3.6504
X7.4189Y-3.6858
X7.4189Y-3.7252
X7.4189Y-3.7606
X7.4189Y-3.7961
X7.4189Y-3.8354
X7.4189Y-3.8709
X7.4189Y-3.9024
X7.4189Y-3.9378
X7.4189Y-3.9772
X7.4307Y-2.6937
X7.4307Y-2.7331
X7.4307Y-2.7685
X7.4583Y-3.2409
X7.4583Y-3.2803
X7.4583Y-3.3157
X7.4583Y-3.3551
X7.4583Y-3.3906
X7.4583Y-3.4299
X7.4583Y-3.4654
X7.4583Y-3.5047
X7.4583Y-3.5402
X7.4583Y-3.5756
X7.4583Y-3.615
X7.4583Y-3.6504
X7.4583Y-3.6858
X7.4583Y-3.7252
X7.4583Y-3.7606
X7.4583Y-3.7961
X7.4583Y-3.8354
X7.4583Y-3.8709
X7.4583Y-3.9024
X7.4583Y-3.9378
X7.4583Y-3.9772
X7.4701Y-2.6937
X7.4701Y-2.7331
X7.4701Y-2.7685
X7.5079Y-3.126
X7.5079Y-3.1535
X7.5094Y-2.6937
X7.5094Y-2.7331
X7.5094Y-2.7685
X7.5354Y-3.126
X7.5354Y-3.1535
X7.5433Y-5.2323
X7.5433Y-5.2638
X7.5433Y-5.2953
X7.5433Y-5.3268
X7.563Y-3.126
X7.563Y-3.1535
X7.6457Y-5.0709
X7.6693Y-5.1181
X7.7772Y-3.2449
X7.7772Y-3.2843
X7.7772Y-3.3197
X7.7772Y-3.3591
X7.7772Y-3.3945
X7.7772Y-3.4339
X7.7772Y-3.4693
X7.811Y-4.7165
X7.8126Y-3.2449
X7.8126Y-3.2843
X7.8126Y-3.3197
X7.8126Y-3.3591
X7.8126Y-3.3945
X7.8126Y-3.4339
X7.8126Y-3.4693
X7.8228Y-5.0827
X7.848Y-3.2449
X7.848Y-3.2843
X7.848Y-3.3197
X7.848Y-3.3591
X7.848Y-3.3945
X7.848Y-3.4339
X7.848Y-3.4693
X7.8661Y-3.1339
X7.878Y-5.0866
X7.8874Y-3.2449
X7.8874Y-3.2843
X7.8874Y-3.3197
X7.8874Y-3.3591
X7.8874Y-3.3945
X7.8874Y-3.4339
X7.8874Y-3.4693
X7.9268Y-3.2449
X7.9268Y-3.2843
X7.9268Y-3.3197
X7.9268Y-3.3591
X7.9268Y-3.3945
X7.9268Y-3.4339
X7.9268Y-3.4693
X7.9642Y-3.3551
X7.9642Y-3.3906
X7.9642Y-3.4299
X7.9646Y-2.8425
X7.9646Y-2.8819
X7.97Y-5.64
X8.0035Y-3.3551
X8.0035Y-3.3906
X8.0035Y-3.4299
X8.0039Y-4.7165
X8.0118Y-5.0591
X8.03Y-5.34
X8.0394Y-5.0945
X8.04Y-5.64
X8.0551Y-3.122
X8.0551Y-3.1496
X8.0551Y-3.1772
X8.0606Y-3.3531
X8.0606Y-3.3925
X8.0606Y-3.4319
X8.0866Y-5.5
X8.0894Y-5.1835
X8.09Y-5.24
X8.0945Y-3.7047
X8.1Y-3.3531
X8.1Y-3.3925
X8.1Y-3.4319
X8.11Y-5.64
X8.1394Y-3.3531
X8.1394Y-3.3925
X8.1394Y-3.4319
X8.1417Y-4.8189
X8.16Y-5.24
X8.1602Y-5.1835
X8.1787Y-3.3531
X8.1787Y-3.3925
X8.1787Y-3.4319
X8.1831Y-3.122
X8.1831Y-3.1496
X8.1831Y-3.1772
X8.23Y-5.18
X8.23Y-5.24
X8.2358Y-3.3551
X8.2358Y-3.3906
X8.2358Y-3.4299
X8.2717Y-2.8425
X8.2717Y-2.878
X8.2752Y-3.3551
X8.2752Y-3.3906
X8.2752Y-3.4299
X8.2874Y-3.7047
X8.3126Y-3.2488
X8.3126Y-3.2882
X8.3126Y-3.3236
X8.3126Y-3.363
X8.3126Y-3.3984
X8.3126Y-3.4378
X8.3126Y-3.4732
X8.3126Y-3.5126
X8.3126Y-3.548
X8.3126Y-3.5835
X8.3126Y-3.6228
X8.352Y-3.2488
X8.352Y-3.2882
X8.352Y-3.3236
X8.352Y-3.363
X8.352Y-3.3984
X8.352Y-3.4378
X8.352Y-3.4732
X8.352Y-3.5126
X8.352Y-3.548
X8.352Y-3.5835
X8.352Y-3.6228
X8.3913Y-3.2488
X8.3913Y-3.2882
X8.3913Y-3.3236
X8.3913Y-3.363
X8.3913Y-3.3984
X8.3913Y-3.4378
X8.3913Y-3.4732
X8.3913Y-3.5126
X8.3913Y-3.548
X8.3913Y-3.5835
X8.3913Y-3.6228
X8.3913Y-3.6583
X8.4016Y-3.7047
X8.4307Y-3.2488
X8.4307Y-3.2882
X8.4307Y-3.3236
X8.4307Y-3.363
X8.4307Y-3.3984
X8.4307Y-3.4378
X8.4307Y-3.4732
X8.4307Y-3.5126
X8.4307Y-3.548
X8.4307Y-3.5835
X8.4307Y-3.6228
X8.4307Y-3.6583
X8.4331Y-3.7047
X8.4646Y-3.7047
X8.4701Y-3.2488
X8.4701Y-3.2882
X8.4701Y-3.3236
X8.4701Y-3.363
X8.4701Y-3.3984
X8.4701Y-3.4378
X8.4701Y-3.4732
X8.4701Y-3.5126
X8.4701Y-3.548
X8.4701Y-3.5835
X8.4701Y-3.6228
X8.4701Y-3.6583
X8.5039Y-5.7559
X8.5094Y-3.2488
X8.5094Y-3.2882
X8.5094Y-3.3236
X8.5094Y-3.363
X8.5094Y-3.3984
X8.5094Y-3.4378
X8.5094Y-3.4732
X8.5094Y-3.5126
X8.5094Y-3.548
X8.5094Y-3.5835
X8.5094Y-3.6228
X8.5094Y-3.6583
X8.5094Y-3.6976
X8.5094Y-3.737
X8.5094Y-3.7724
X8.5094Y-3.8118
X8.5094Y-3.8472
X8.5094Y-3.8827
X8.5094Y-3.922
X8.5094Y-3.9575
X8.5098Y-5.9331
X8.5291Y-2.6898
X8.5291Y-2.7291
X8.5291Y-2.7646
X8.5433Y-5.7953
X8.5488Y-3.2488
X8.5488Y-3.2882
X8.5488Y-3.3236
X8.5488Y-3.363
X8.5488Y-3.3984
X8.5488Y-3.4378
X8.5488Y-3.4732
X8.5488Y-3.5126
X8.5488Y-3.548
X8.5488Y-3.5835
X8.5488Y-3.6228
X8.5488Y-3.6583
X8.5488Y-3.6976
X8.5488Y-3.737
X8.5488Y-3.7724
X8.5488Y-3.8118
X8.5488Y-3.8472
X8.5488Y-3.8827
X8.5488Y-3.922
X8.5488Y-3.9575
X8.5492Y-5.9724
X8.5685Y-2.6898
X8.5685Y-2.7291
X8.5685Y-2.7646
X8.5827Y-5.7559
X8.5882Y-3.2488
X8.5882Y-3.2882
X8.5882Y-3.3236
X8.5882Y-3.363
X8.5882Y-3.3984
X8.5882Y-3.4378
X8.5882Y-3.4732
X8.5882Y-3.5126
X8.5882Y-3.548
X8.5882Y-3.5835
X8.5882Y-3.6228
X8.5882Y-3.6583
X8.5882Y-3.6976
X8.5882Y-3.737
X8.5882Y-3.7724
X8.5882Y-3.8118
X8.5882Y-3.8472
X8.5882Y-3.8827
X8.5882Y-3.922
X8.5882Y-3.9575
X8.5886Y-5.9331
X8.6079Y-2.6898
X8.6079Y-2.7291
X8.6079Y-2.7646
X8.622Y-5.7953
X8.628Y-5.9724
X8.6315Y-3.2488
X8.6315Y-3.2882
X8.6315Y-3.3236
X8.6315Y-3.363
X8.6315Y-3.3984
X8.6315Y-3.4378
X8.6315Y-3.4732
X8.6315Y-3.5126
X8.6315Y-3.548
X8.6315Y-3.5835
X8.6315Y-3.6228
X8.6315Y-3.6583
X8.6315Y-3.6976
X8.6315Y-3.737
X8.6315Y-3.7724
X8.6315Y-3.8118
X8.6315Y-3.8472
X8.6315Y-3.8827
X8.6315Y-3.922
X8.6315Y-3.9575
X8.6457Y-3.122
X8.6457Y-3.1496
X8.6472Y-2.6898
X8.6472Y-2.7291
X8.6472Y-2.7646
X8.6614Y-5.7559
X8.6673Y-5.9331
X8.6709Y-3.2488
X8.6709Y-3.2882
X8.6709Y-3.3236
X8.6709Y-3.363
X8.6709Y-3.3984
X8.6709Y-3.4378
X8.6709Y-3.4732
X8.6709Y-3.5126
X8.6709Y-3.548
X8.6709Y-3.5835
X8.6709Y-3.6228
X8.6709Y-3.6583
X8.6709Y-3.6976
X8.6709Y-3.737
X8.6709Y-3.7724
X8.6709Y-3.8118
X8.6709Y-3.8472
X8.6709Y-3.8827
X8.6709Y-3.922
X8.6709Y-3.9575
X8.6772Y-3.122
X8.6772Y-3.1496
X8.7008Y-5.7953
X8.7067Y-5.9724
X8.7087Y-3.122
X8.7087Y-3.1496
X8.7402Y-5.7559
X8.7461Y-5.9331
X8.7795Y-5.7953
X8.7854Y-5.9724
X8.8189Y-5.7559
X8.8248Y-5.9331
X8.8583Y-5.7953
X8.8642Y-5.9724
X8.9331Y-2.6378
X9.0079Y-5.5689
X9.0236Y-3.1811
X9.0315Y-2.9291
X9.0354Y-3.4882
X9.0354Y-3.6772
X9.0354Y-3.8701
X9.0394Y-4.0709
X9.0394Y-6.187
X9.063Y-4.3071
X9.063Y-4.5669
X9.0925Y-3.3478
X9.0925Y-3.5378
X9.0925Y-3.7378
X9.0925Y-3.9203
X9.1575Y-4.878
X9.1791Y-5.426
X9.2185Y-5.4043
X9.24Y-5.57
X9.3346Y-4.9685
X9.3425Y-4.0978
X9.374Y-4.685
X9.3917Y-5.4299
X9.4311Y-5.4083
X9.46Y-5.57
X9.4724Y-4.6063
X9.4724Y-4.6732
X9.4764Y-4.3543
X9.4764Y-4.5236
X9.5965Y-3.8967
X9.6004Y-5.4339
X9.6398Y-5.4122
X9.67Y-5.57
X9.7244Y-4.9685
X9.813Y-5.4299
X9.8228Y-4.5039
X9.8248Y-4.428
X9.8248Y-4.6051
X9.8504Y-2.8433
X9.8504Y-2.8827
X9.8504Y-2.9181
X9.8524Y-5.4083
X9.8602Y-4.2862
X9.8839Y-4.1287
X9.8898Y-2.8433
X9.8898Y-2.8827
X9.8898Y-2.9173
X9.89Y-5.57
X9.9213Y-4.1299
X9.9488Y-2.8433
X9.9488Y-2.8827
X9.9488Y-2.9181
X9.9528Y-4.5472
X9.9547Y-4.1287
X9.9882Y-2.8433
X9.9882Y-2.8827
X9.9882Y-2.9173
X9.9921Y-4.1299
X10.0256Y-5.4299
X10.065Y-5.4083
X10.0748Y-4.2087
X10.11Y-5.57
X10.1496Y-4.363
X10.1732Y-4.1929
X10.1811Y-4.626
X10.2008Y-4.111
X10.2126Y-4.9291
X10.2283Y-4.3622
X10.2441Y-6.3051
X10.2461Y-5.4299
X10.2461Y-6.376
X10.2584Y-5.0999
X10.2584Y-5.1393
X10.2657Y-4.6051
X10.2835Y-6.3445
X10.2854Y-5.4083
X10.2854Y-6.4154
X10.32Y-5.57
X10.3228Y-6.3051
X10.3248Y-6.376
X10.5039Y-5.7992
X10.5059Y-5.8701
X10.5433Y-5.8386
X10.5453Y-5.9094
X10.5531Y-5.3315
X10.5551Y-5.3906
X10.5551Y-5.4516
X10.5748Y-5.2047
X10.5827Y-4.8937
X10.5827Y-5.7992
X10.5846Y-5.8701
X10.5886Y-4.3768
X10.5886Y-4.4378
X10.5906Y-4.4969
X10.5906Y-4.5579
X10.5925Y-5.3098
X10.5925Y-5.3709
X10.5945Y-5.4299
X10.5984Y-3.0835
X10.5984Y-3.7606
X10.6102Y-5.2047
X10.6181Y-4.8937
X10.628Y-4.4161
X10.628Y-4.4772
X10.6299Y-4.5362
T2
X5.3819Y-3.9882
X5.7614Y-3.2102
X5.8386Y-3.5591
X5.9528Y-3.9961
X5.9528Y-4.5118
X5.9646Y-3.563
X5.9921Y-3.6102
X5.9921Y-3.9488
X5.9921Y-4.4213
X6.Y-3.1772
X6.1654Y-4.5945
X6.4567Y-3.2126
X6.4606Y-4.3819
X6.4764Y-3.1772
X6.4961Y-4.3701
X6.8228Y-5.8819
X6.8661Y-3.2087
X6.9567Y-3.5787
X7.0709Y-3.5787
X7.0945Y-3.185
X7.0945Y-3.9409
X7.0945Y-4.3346
X7.0984Y-3.6063
X7.2047Y-6.2008
X7.2677Y-4.5827
X7.5039Y-3.2087
X7.5118Y-4.3189
X7.5394Y-3.2047
X7.5512Y-4.2795
X7.6102Y-4.622
X7.6102Y-5.9291
X7.6339Y-5.6732
X7.64Y-4.97
X7.7087Y-4.8543
X7.7283Y-4.5906
X7.82Y-4.97
X7.8898Y-4.8425
X7.9685Y-4.5906
X8.0039Y-3.2126
X8.01Y-4.97
X8.0748Y-5.0591
X8.0787Y-3.5906
X8.0787Y-4.8425
X8.16Y-5.57
X8.2087Y-3.5906
X8.22Y-5.47
X8.2323Y-3.626
X8.2323Y-4.0197
X8.2323Y-4.1811
X8.2362Y-3.185
X8.28Y-5.41
X8.36Y-5.36
X8.3976Y-6.2638
X8.4016Y-4.5866
X8.5236Y-5.3583
X8.5236Y-5.4016
X8.6969Y-3.2205
X8.7008Y-4.2244
X8.7047Y-5.063
X8.7165Y-4.748
X8.7165Y-5.3583
X8.7165Y-5.4016
X8.7205Y-3.1929
X8.7244Y-4.248
X8.752Y-4.2244
X8.752Y-4.748
X8.7795Y-4.252
X8.7953Y-4.7874
X8.7992Y-4.1969
X8.8268Y-4.315
X8.8504Y-4.2756
X8.874Y-4.3465
X8.9055Y-4.4173
X8.9291Y-4.3701
X8.9528Y-4.3858
X8.9764Y-4.7126
X8.9882Y-4.8307
X9.0079Y-6.122
X9.0315Y-5.8858
X9.0354Y-6.2677
X9.0748Y-5.8346
X9.0984Y-4.7402
X9.0984Y-4.7835
X9.1024Y-5.128
X9.2638Y-6.0591
X9.2913Y-5.1555
X9.3394Y-5.9441
X9.3858Y-3.6732
X9.3898Y-2.9291
X9.3898Y-3.8701
X9.3898Y-4.0669
X9.3937Y-3.1142
X9.3937Y-3.4921
X9.4016Y-2.7205
X9.4055Y-3.2913
X9.4094Y-4.2323
X9.4094Y-5.9094
X9.4587Y-4.4134
X9.4587Y-4.4626
X9.4665Y-5.0138
X9.5098Y-5.1693
X9.5138Y-4.6535
X9.5157Y-4.4724
X9.5177Y-5.0571
X9.5394Y-4.4272
X9.5394Y-4.689
X9.563Y-4.2402
X9.563Y-6.2126
X9.5709Y-4.7717
X9.5945Y-4.0866
X9.6024Y-4.8189
X9.6299Y-3.878
X9.6535Y-3.689
X9.6614Y-4.7205
X9.6614Y-4.8425
X9.689Y-3.5
X9.7126Y-3.3031
X9.7126Y-4.5551
X9.7126Y-6.0472
X9.7165Y-4.7205
X9.7205Y-5.189
X9.7441Y-2.7283
X9.7717Y-2.9449
X9.7953Y-3.1299
X9.8228Y-5.1299
X9.8425Y-5.1516
X9.8524Y-4.5591
X9.8524Y-4.7224
X9.8602Y-5.1772
X9.874Y-4.4331
X9.8799Y-4.9134
X9.8799Y-5.0079
X9.8937Y-4.4567
X9.9035Y-4.7402
X9.9075Y-4.9114
X9.9114Y-5.0059
X9.9213Y-6.1142
X9.9252Y-6.1772
X9.939Y-5.0906
X9.9587Y-4.5866
X9.9803Y-5.0295
X10.0079Y-5.0453
X10.0512Y-4.561
X10.126Y-4.6969
X10.126Y-4.8425
X10.1299Y-4.9075
X10.1457Y-4.6634
X10.1496Y-4.8189
X10.1594Y-4.5886
X10.1732Y-4.7992
X10.2697Y-4.8839
X10.2736Y-4.7638
X10.2854Y-4.4075
X10.2854Y-4.8622
X10.3051Y-4.2028
X10.3071Y-4.1142
X10.3543Y-4.374
X10.3563Y-4.4331
X10.3602Y-4.4764
X10.4075Y-4.8406
X10.4154Y-4.5453
X10.4232Y-4.687
X10.4291Y-4.7933
X10.4291Y-4.876
X10.4626Y-4.9272
X10.4646Y-5.0551
T3
X6.1024Y-3.7283
X7.2087Y-3.7205
X8.3504Y-3.7402
T4
X7.2638Y-5.4882
X7.311Y-6.2402
X7.7087Y-5.4921
X8.5157Y-6.2244
X9.0394Y-6.187
X9.2441Y-5.9759
X9.6732Y-5.9488
X9.8858Y-5.9291
X10.1024Y-5.9252
X10.3189Y-5.9449
T5
X6.2244Y-4.5079
X7.1299Y-4.5157
X7.3268Y-4.5118
X8.4409Y-4.5118
T6
X10.5346Y-4.6346
X10.5346Y-4.6846
X10.5346Y-4.7346
X10.5346Y-4.7846
X10.5346Y-4.8346
X10.5846Y-4.6346
X10.5846Y-4.6846
X10.5846Y-4.7346
X10.5846Y-4.7846
X10.5846Y-4.8346
T7
X10.1673Y-3.3858
X10.1673Y-3.4858
X10.2461Y-3.3858
X10.2461Y-3.4858
T8
X5.4213Y-5.7453
T9
X6.4024Y-6.36
X6.5992Y-6.36
X7.4724Y-6.36
X7.6692Y-6.36
T10
X5.315Y-2.9134
X5.3474Y-6.0502
X5.8008Y-6.36
X5.8992Y-6.36
X6.5008Y-6.36
X6.9808Y-6.36
X7.0792Y-6.36
X7.5708Y-6.36
X8.1608Y-6.36
X8.2592Y-6.36
X8.7608Y-6.36
X8.8592Y-6.36
X9.3469Y-6.3642
X9.4453Y-6.3642
X9.9008Y-6.36
X9.9232Y-2.624
X9.9992Y-6.36
X10.5433Y-6.0768
T11
X5.4213Y-5.2776
X5.4213Y-5.4335
X5.4213Y-5.5894
X5.4213Y-5.7453
X5.648Y-2.6587
X5.8039Y-2.6587
X5.9598Y-2.6587
X6.1157Y-2.6587
X6.7504Y-2.6626
X6.9063Y-2.6626
X7.0622Y-2.6626
X7.2181Y-2.6626
X7.8858Y-2.6614
X8.0417Y-2.6614
X8.1976Y-2.6614
X8.3535Y-2.6614
T12
X10.3524Y-3.1996
X10.3524Y-3.672
T0
M30
