G04 #@! TF.FileFunction,Soldermask,Bot*
%FSLAX46Y46*%
G04 Gerber Fmt 4.6, Leading zero omitted, Abs format (unit mm)*
G04 Created by KiCad (PCBNEW 4.0.1-stable) date 2018/04/26 10:10:29*
%MOMM*%
G01*
G04 APERTURE LIST*
%ADD10C,0.150000*%
%ADD11C,1.000000*%
%ADD12C,0.400000*%
%ADD13C,1.900000*%
%ADD14R,1.900000X1.900000*%
%ADD15C,1.520000*%
%ADD16C,2.700000*%
%ADD17R,0.850000X0.850000*%
%ADD18C,3.200000*%
%ADD19R,1.700000X1.700000*%
%ADD20R,1.000000X1.000000*%
%ADD21O,1.000000X1.000000*%
%ADD22C,1.524000*%
%ADD23R,1.524000X1.524000*%
%ADD24C,0.254000*%
G04 APERTURE END LIST*
D10*
D11*
X265550000Y-160500000D02*
X268700000Y-160500000D01*
X265550000Y-159850000D02*
X265550000Y-160500000D01*
X268750000Y-159850000D02*
X265550000Y-159850000D01*
X268750000Y-160400000D02*
X268750000Y-159850000D01*
X268750000Y-161750000D02*
X268750000Y-160400000D01*
X265850000Y-161750000D02*
X268750000Y-161750000D01*
X265850000Y-159100000D02*
X265850000Y-161750000D01*
X269200000Y-159100000D02*
X265850000Y-159100000D01*
X269200000Y-162400000D02*
X269200000Y-159100000D01*
X265150000Y-162400000D02*
X269200000Y-162400000D01*
X265150000Y-158350000D02*
X265150000Y-162400000D01*
X269900000Y-158350000D02*
X265150000Y-158350000D01*
X269900000Y-163000000D02*
X269900000Y-158350000D01*
X264450000Y-163000000D02*
X269900000Y-163000000D01*
X264450000Y-157600000D02*
X264450000Y-163000000D01*
X270700000Y-157600000D02*
X264450000Y-157600000D01*
X270700000Y-163850000D02*
X270700000Y-157600000D01*
X263700000Y-163850000D02*
X270700000Y-163850000D01*
X263700000Y-156800000D02*
X263700000Y-163850000D01*
X270650000Y-156800000D02*
X263700000Y-156800000D01*
X270650000Y-163700000D02*
X270650000Y-156800000D01*
X268350000Y-68200000D02*
X266650000Y-68200000D01*
X268350000Y-68800000D02*
X268350000Y-68200000D01*
X266500000Y-68800000D02*
X268350000Y-68800000D01*
X266500000Y-67650000D02*
X266500000Y-68800000D01*
X268650000Y-67650000D02*
X266500000Y-67650000D01*
X268650000Y-69800000D02*
X268650000Y-67650000D01*
X265800000Y-69800000D02*
X268650000Y-69800000D01*
X265800000Y-67000000D02*
X265800000Y-69800000D01*
X269200000Y-67000000D02*
X265800000Y-67000000D01*
X269200000Y-70400000D02*
X269200000Y-67000000D01*
X265250000Y-70400000D02*
X269200000Y-70400000D01*
X265250000Y-66350000D02*
X265250000Y-70400000D01*
X269900000Y-66350000D02*
X265250000Y-66350000D01*
X269900000Y-71150000D02*
X269900000Y-66350000D01*
X264450000Y-71150000D02*
X269900000Y-71150000D01*
X264450000Y-65650000D02*
X264450000Y-71150000D01*
X270750000Y-65650000D02*
X264450000Y-65650000D01*
X270750000Y-64800000D02*
X270750000Y-65650000D01*
X263700000Y-64800000D02*
X270750000Y-64800000D01*
X263750000Y-71800000D02*
X263750000Y-64800000D01*
X270700000Y-71800000D02*
X263700000Y-71800000D01*
X270700000Y-64900000D02*
X270700000Y-71800000D01*
X136550000Y-160550000D02*
X134850000Y-160550000D01*
X136550000Y-160100000D02*
X136550000Y-160550000D01*
X134500000Y-160100000D02*
X136550000Y-160100000D01*
X134500000Y-161500000D02*
X134500000Y-160100000D01*
X137250000Y-161500000D02*
X134500000Y-161500000D01*
X137250000Y-159450000D02*
X137250000Y-161500000D01*
X134050000Y-159450000D02*
X137250000Y-159450000D01*
X134050000Y-162300000D02*
X134050000Y-159450000D01*
X137950000Y-162300000D02*
X134050000Y-162300000D01*
X137950000Y-158550000D02*
X137950000Y-162300000D01*
X133350000Y-158550000D02*
X137950000Y-158550000D01*
X133350000Y-163150000D02*
X133350000Y-158550000D01*
X138550000Y-163150000D02*
X133350000Y-163150000D01*
X138550000Y-157800000D02*
X138550000Y-163150000D01*
X132650000Y-157800000D02*
X138550000Y-157800000D01*
X132650000Y-163850000D02*
X132650000Y-157800000D01*
X139200000Y-163850000D02*
X132650000Y-163850000D01*
X139200000Y-156800000D02*
X139200000Y-163850000D01*
X132200000Y-156800000D02*
X139200000Y-156800000D01*
X132200000Y-163800000D02*
X132200000Y-156800000D01*
X136200000Y-68300000D02*
X138550000Y-65950000D01*
X136700000Y-68800000D02*
X136200000Y-68300000D01*
X135300000Y-68800000D02*
X136700000Y-68800000D01*
X135300000Y-67400000D02*
X135300000Y-68800000D01*
X136850000Y-67400000D02*
X135300000Y-67400000D01*
X136850000Y-69800000D02*
X136850000Y-67400000D01*
X134550000Y-69800000D02*
X136850000Y-69800000D01*
X134550000Y-66650000D02*
X134550000Y-69800000D01*
X137550000Y-66650000D02*
X134550000Y-66650000D01*
X137550000Y-70450000D02*
X137550000Y-66650000D01*
X133750000Y-70450000D02*
X137550000Y-70450000D01*
X133750000Y-65850000D02*
X133750000Y-70450000D01*
X138250000Y-65850000D02*
X133750000Y-65850000D01*
X138250000Y-71300000D02*
X138250000Y-65850000D01*
X133050000Y-71300000D02*
X138250000Y-71300000D01*
X133050000Y-65650000D02*
X133050000Y-71300000D01*
X139150000Y-65000000D02*
X132250000Y-65000000D01*
X139150000Y-72050000D02*
X139150000Y-65000000D01*
X132200000Y-72050000D02*
X139150000Y-72050000D01*
X132200000Y-65250000D02*
X132200000Y-72050000D01*
D12*
X145390000Y-85920000D03*
X146390000Y-85920000D03*
X145390000Y-86920000D03*
X146390000Y-86920000D03*
X145390000Y-85020000D03*
X146390000Y-85020000D03*
X197540000Y-82420000D03*
X197540000Y-83420000D03*
X197540000Y-85320000D03*
X197540000Y-84320000D03*
X197540000Y-88120000D03*
X197540000Y-87220000D03*
X197540000Y-86220000D03*
X198440000Y-86220000D03*
X198440000Y-87220000D03*
X198440000Y-88120000D03*
X198440000Y-84320000D03*
X198440000Y-85320000D03*
X198440000Y-83420000D03*
X198440000Y-82420000D03*
X169640000Y-82320000D03*
X169640000Y-83320000D03*
X169640000Y-85220000D03*
X169640000Y-84220000D03*
X169640000Y-88020000D03*
X169640000Y-87120000D03*
X169640000Y-86120000D03*
X210190000Y-85220000D03*
X209190000Y-85220000D03*
X210190000Y-87120000D03*
X209190000Y-87120000D03*
X210190000Y-86120000D03*
X209190000Y-86120000D03*
X202290000Y-86120000D03*
X203290000Y-86120000D03*
X202290000Y-87120000D03*
X203290000Y-87120000D03*
X202290000Y-85220000D03*
X203290000Y-85220000D03*
X181190000Y-85020000D03*
X180190000Y-85020000D03*
X181190000Y-86920000D03*
X180190000Y-86920000D03*
X181190000Y-85920000D03*
X180190000Y-85920000D03*
X153090000Y-85020000D03*
X152090000Y-85020000D03*
X153090000Y-86920000D03*
X152090000Y-86920000D03*
X153090000Y-85920000D03*
X152090000Y-85920000D03*
X173390000Y-85920000D03*
X174390000Y-85920000D03*
X173390000Y-86920000D03*
X174390000Y-86920000D03*
X173390000Y-85020000D03*
X174390000Y-85020000D03*
X144490000Y-88720000D03*
X143490000Y-88720000D03*
X142490000Y-88720000D03*
X140390000Y-88720000D03*
X141390000Y-88720000D03*
X139590000Y-88720000D03*
X139590000Y-82120000D03*
X139590000Y-83120000D03*
X139590000Y-85020000D03*
X139590000Y-84020000D03*
X139590000Y-87820000D03*
X139590000Y-86920000D03*
X139590000Y-85920000D03*
X140390000Y-85920000D03*
X141390000Y-85920000D03*
X140390000Y-86920000D03*
X141390000Y-86920000D03*
X141390000Y-87820000D03*
X140390000Y-87820000D03*
X140390000Y-84020000D03*
X141390000Y-84020000D03*
X140390000Y-85020000D03*
X141390000Y-85020000D03*
X141390000Y-83120000D03*
X140390000Y-83120000D03*
X141390000Y-82120000D03*
X140390000Y-82120000D03*
X210100000Y-73100000D03*
X210100000Y-72200000D03*
X202300000Y-72200000D03*
X202300000Y-73200000D03*
X181400000Y-73400000D03*
X181400000Y-72400000D03*
X173500000Y-72200000D03*
X173500000Y-73300000D03*
X153200000Y-74100000D03*
X153200000Y-73200000D03*
X145500000Y-73300000D03*
X145500000Y-74100000D03*
X159740000Y-70120000D03*
X160740000Y-70120000D03*
X161740000Y-70120000D03*
X162740000Y-70120000D03*
X162740000Y-69220000D03*
X161740000Y-69220000D03*
X160740000Y-69220000D03*
X159740000Y-69220000D03*
X162740000Y-68220000D03*
X161740000Y-68220000D03*
X160740000Y-68220000D03*
X159740000Y-68220000D03*
X187740000Y-68420000D03*
X188740000Y-68420000D03*
X189740000Y-68420000D03*
X190740000Y-68420000D03*
X187740000Y-69420000D03*
X188740000Y-69420000D03*
X189740000Y-69420000D03*
X190740000Y-69420000D03*
X190740000Y-70320000D03*
X189740000Y-70320000D03*
X188740000Y-70320000D03*
X187740000Y-70320000D03*
X216640000Y-70220000D03*
X217640000Y-70220000D03*
X218640000Y-70220000D03*
X219640000Y-70220000D03*
X219640000Y-69320000D03*
X218640000Y-69320000D03*
X217640000Y-69320000D03*
X216640000Y-69320000D03*
X219640000Y-68320000D03*
X218640000Y-68320000D03*
X217640000Y-68320000D03*
X216640000Y-68320000D03*
X182440000Y-85220000D03*
X240600000Y-117000000D03*
X240600000Y-118700000D03*
X234150000Y-137270000D03*
X233150000Y-137820000D03*
X238550000Y-137920000D03*
X239550000Y-137370000D03*
X244850000Y-137470000D03*
X243850000Y-138020000D03*
X249250000Y-137920000D03*
X250250000Y-137370000D03*
X254650000Y-137920000D03*
X255650000Y-137370000D03*
X261250000Y-137370000D03*
X260250000Y-137920000D03*
X268100000Y-136920000D03*
X269100000Y-137920000D03*
X268100000Y-138470000D03*
X268050000Y-135420000D03*
X269050000Y-136420000D03*
X269050000Y-134870000D03*
X259400000Y-125200000D03*
X194800000Y-130000000D03*
X237100000Y-126200000D03*
X247000000Y-126200000D03*
X249500000Y-114400000D03*
X249550000Y-116970000D03*
X257800000Y-110820000D03*
X260750000Y-116970000D03*
X252800000Y-115500000D03*
X249550000Y-112470000D03*
X250450000Y-108870000D03*
X259800000Y-110800000D03*
X258600000Y-117500000D03*
X259100000Y-104420000D03*
X255900000Y-106900000D03*
X258400000Y-106500000D03*
X252850000Y-104870000D03*
X253800000Y-104900000D03*
X268600000Y-132200000D03*
X269500000Y-132200000D03*
X269700000Y-124300000D03*
X268950000Y-111170000D03*
X269950000Y-112170000D03*
X269950000Y-113720000D03*
X268950000Y-112720000D03*
X269000000Y-115770000D03*
X270000000Y-115220000D03*
X269000000Y-114220000D03*
X269200000Y-95520000D03*
X252700000Y-72220000D03*
X253700000Y-72220000D03*
X253700000Y-74100000D03*
X252700000Y-73220000D03*
X253700000Y-73220000D03*
X252700000Y-74120000D03*
X250200000Y-74120000D03*
X240700000Y-110600000D03*
X240700000Y-114900000D03*
X232600000Y-123900000D03*
X230200000Y-116000000D03*
X230200000Y-109400000D03*
X194200000Y-128800000D03*
X206800000Y-122400000D03*
X205400000Y-139700000D03*
X198400000Y-119800000D03*
X203300000Y-119800000D03*
X226900000Y-67000000D03*
X229200000Y-80800000D03*
X229400000Y-74400000D03*
X229500000Y-88600000D03*
X229500000Y-93400000D03*
X229600000Y-103400000D03*
X229500000Y-98300000D03*
X203500000Y-128500000D03*
X198700000Y-129100000D03*
X191600000Y-134500000D03*
X191600000Y-135300000D03*
X191600000Y-133700000D03*
X171000000Y-79400000D03*
X141900000Y-79400000D03*
X147600000Y-79300000D03*
X189440000Y-91820000D03*
X188440000Y-91820000D03*
X187440000Y-91820000D03*
X187440000Y-92720000D03*
X188440000Y-92720000D03*
X189440000Y-92720000D03*
X189440000Y-94620000D03*
X188440000Y-94620000D03*
X187440000Y-94620000D03*
X189440000Y-93620000D03*
X188440000Y-93620000D03*
X187440000Y-93620000D03*
X187440000Y-96420000D03*
X188440000Y-96420000D03*
X189440000Y-96420000D03*
X187440000Y-97420000D03*
X188440000Y-97420000D03*
X189440000Y-97420000D03*
X189440000Y-95520000D03*
X188440000Y-95520000D03*
X187440000Y-95520000D03*
X187440000Y-98320000D03*
X188440000Y-98320000D03*
X189440000Y-98320000D03*
X187440000Y-99120000D03*
X188440000Y-99120000D03*
X189440000Y-99120000D03*
X189440000Y-101020000D03*
X188440000Y-101020000D03*
X187440000Y-101020000D03*
X189440000Y-100020000D03*
X188440000Y-100020000D03*
X187440000Y-100020000D03*
X162240000Y-100320000D03*
X163240000Y-100320000D03*
X163240000Y-102220000D03*
X162240000Y-102220000D03*
X163240000Y-101220000D03*
X162240000Y-101220000D03*
X159140000Y-101220000D03*
X160140000Y-101220000D03*
X161140000Y-101220000D03*
X159140000Y-102220000D03*
X160140000Y-102220000D03*
X161140000Y-102220000D03*
X161140000Y-100320000D03*
X160140000Y-100320000D03*
X159140000Y-100320000D03*
X162240000Y-99520000D03*
X163240000Y-99520000D03*
X161140000Y-99520000D03*
X160140000Y-99520000D03*
X159140000Y-99520000D03*
X159140000Y-96720000D03*
X160140000Y-96720000D03*
X161140000Y-96720000D03*
X161140000Y-98620000D03*
X160140000Y-98620000D03*
X159140000Y-98620000D03*
X161140000Y-97620000D03*
X160140000Y-97620000D03*
X159140000Y-97620000D03*
X162240000Y-97620000D03*
X163240000Y-97620000D03*
X162240000Y-98620000D03*
X163240000Y-98620000D03*
X163240000Y-96720000D03*
X162240000Y-96720000D03*
X162240000Y-93920000D03*
X163240000Y-93920000D03*
X163240000Y-95820000D03*
X162240000Y-95820000D03*
X163240000Y-94820000D03*
X162240000Y-94820000D03*
X159140000Y-94820000D03*
X160140000Y-94820000D03*
X161140000Y-94820000D03*
X159140000Y-95820000D03*
X160140000Y-95820000D03*
X161140000Y-95820000D03*
X161140000Y-93920000D03*
X160140000Y-93920000D03*
X159140000Y-93920000D03*
X216140000Y-93920000D03*
X217140000Y-93920000D03*
X218140000Y-93920000D03*
X216140000Y-94920000D03*
X217140000Y-94920000D03*
X218140000Y-94920000D03*
X218140000Y-96820000D03*
X217140000Y-96820000D03*
X216140000Y-96820000D03*
X218140000Y-95820000D03*
X217140000Y-95820000D03*
X216140000Y-95820000D03*
X219240000Y-95820000D03*
X220240000Y-95820000D03*
X219240000Y-96820000D03*
X220240000Y-96820000D03*
X220240000Y-94920000D03*
X219240000Y-94920000D03*
X220240000Y-93920000D03*
X219240000Y-93920000D03*
X219240000Y-97720000D03*
X220240000Y-97720000D03*
X220240000Y-99620000D03*
X219240000Y-99620000D03*
X220240000Y-98620000D03*
X219240000Y-98620000D03*
X216140000Y-98620000D03*
X217140000Y-98620000D03*
X218140000Y-98620000D03*
X216140000Y-99620000D03*
X217140000Y-99620000D03*
X218140000Y-99620000D03*
X218140000Y-97720000D03*
X217140000Y-97720000D03*
X216140000Y-97720000D03*
X216140000Y-100520000D03*
X217140000Y-100520000D03*
X218140000Y-100520000D03*
X220240000Y-100520000D03*
X219240000Y-100520000D03*
X162600000Y-80000000D03*
X162600000Y-79300000D03*
X163300000Y-79300000D03*
X163300000Y-80000000D03*
X164000000Y-80000000D03*
X164000000Y-79300000D03*
X220400000Y-80000000D03*
X220400000Y-79300000D03*
X192100000Y-79400000D03*
X192100000Y-80100000D03*
X191400000Y-80100000D03*
X191400000Y-79400000D03*
X207850000Y-80000000D03*
X207850000Y-79300000D03*
X207850000Y-80700000D03*
X221200000Y-80000000D03*
X221200000Y-79300000D03*
X190700000Y-79400000D03*
X190700000Y-80100000D03*
X204600000Y-80700000D03*
X204600000Y-79300000D03*
X204600000Y-80000000D03*
X219600000Y-80000000D03*
X219600000Y-79300000D03*
X178900000Y-80700000D03*
X178900000Y-79300000D03*
X178900000Y-80000000D03*
X175700000Y-80000000D03*
X175700000Y-79300000D03*
X175700000Y-80700000D03*
X150900000Y-80000000D03*
X150900000Y-79300000D03*
X150900000Y-80700000D03*
X147600000Y-80700000D03*
X199800000Y-79600000D03*
X147600000Y-80000000D03*
X148700000Y-93500000D03*
X153500000Y-93500000D03*
X156100000Y-93500000D03*
X158100000Y-93500000D03*
X157100000Y-93500000D03*
X215000000Y-94100000D03*
X214200000Y-94100000D03*
X213400000Y-94100000D03*
X210500000Y-94100000D03*
X205600000Y-94100000D03*
X176700000Y-93400000D03*
X181400000Y-93400000D03*
X184500000Y-93400000D03*
X185300000Y-93400000D03*
X186100000Y-93400000D03*
X142490000Y-82120000D03*
X143490000Y-82120000D03*
X144490000Y-82120000D03*
X142490000Y-83120000D03*
X143490000Y-83120000D03*
X144490000Y-83120000D03*
X144490000Y-85020000D03*
X143490000Y-85020000D03*
X142490000Y-85020000D03*
X144490000Y-84020000D03*
X143490000Y-84020000D03*
X142490000Y-84020000D03*
X142490000Y-87820000D03*
X143490000Y-87820000D03*
X144490000Y-87820000D03*
X144490000Y-86920000D03*
X143490000Y-86920000D03*
X142490000Y-86920000D03*
X144490000Y-85920000D03*
X143490000Y-85920000D03*
X142490000Y-85920000D03*
X154090000Y-90920000D03*
X155090000Y-90920000D03*
X156090000Y-90920000D03*
X157090000Y-90920000D03*
X154090000Y-91920000D03*
X155090000Y-91920000D03*
X156090000Y-91920000D03*
X157090000Y-91920000D03*
X157090000Y-90020000D03*
X156090000Y-90020000D03*
X155090000Y-90020000D03*
X154090000Y-90020000D03*
X158090000Y-90020000D03*
X159090000Y-90020000D03*
X160090000Y-90020000D03*
X161090000Y-90020000D03*
X161090000Y-91920000D03*
X160090000Y-91920000D03*
X159090000Y-91920000D03*
X158090000Y-91920000D03*
X161090000Y-90920000D03*
X160090000Y-90920000D03*
X159090000Y-90920000D03*
X158090000Y-90920000D03*
X162190000Y-90920000D03*
X163190000Y-90920000D03*
X162190000Y-91920000D03*
X163190000Y-91920000D03*
X163190000Y-90020000D03*
X162190000Y-90020000D03*
X162190000Y-86220000D03*
X163190000Y-86220000D03*
X162190000Y-87220000D03*
X163190000Y-87220000D03*
X163190000Y-89120000D03*
X162190000Y-89120000D03*
X163190000Y-88120000D03*
X162190000Y-88120000D03*
X162190000Y-84320000D03*
X163190000Y-84320000D03*
X162190000Y-85320000D03*
X163190000Y-85320000D03*
X163190000Y-83420000D03*
X162190000Y-83420000D03*
X162190000Y-82420000D03*
X158090000Y-82420000D03*
X159090000Y-82420000D03*
X160090000Y-82420000D03*
X161090000Y-82420000D03*
X158090000Y-83420000D03*
X159090000Y-83420000D03*
X160090000Y-83420000D03*
X161090000Y-83420000D03*
X161090000Y-85320000D03*
X160090000Y-85320000D03*
X159090000Y-85320000D03*
X158090000Y-85320000D03*
X161090000Y-84320000D03*
X160090000Y-84320000D03*
X159090000Y-84320000D03*
X158090000Y-84320000D03*
X158090000Y-88120000D03*
X159090000Y-88120000D03*
X160090000Y-88120000D03*
X161090000Y-88120000D03*
X158090000Y-89120000D03*
X159090000Y-89120000D03*
X160090000Y-89120000D03*
X161090000Y-89120000D03*
X161090000Y-87220000D03*
X160090000Y-87220000D03*
X159090000Y-87220000D03*
X158090000Y-87220000D03*
X161090000Y-86220000D03*
X160090000Y-86220000D03*
X159090000Y-86220000D03*
X158090000Y-86220000D03*
X154090000Y-86220000D03*
X155090000Y-86220000D03*
X156090000Y-86220000D03*
X157090000Y-86220000D03*
X154090000Y-87220000D03*
X155090000Y-87220000D03*
X156090000Y-87220000D03*
X157090000Y-87220000D03*
X157090000Y-89120000D03*
X156090000Y-89120000D03*
X155090000Y-89120000D03*
X154090000Y-89120000D03*
X157090000Y-88120000D03*
X156090000Y-88120000D03*
X155090000Y-88120000D03*
X154090000Y-88120000D03*
X154090000Y-84320000D03*
X155090000Y-84320000D03*
X156090000Y-84320000D03*
X157090000Y-84320000D03*
X154090000Y-85320000D03*
X155090000Y-85320000D03*
X156090000Y-85320000D03*
X157090000Y-85320000D03*
X157090000Y-83420000D03*
X156090000Y-83420000D03*
X155090000Y-83420000D03*
X154090000Y-83420000D03*
X157090000Y-82420000D03*
X156090000Y-82420000D03*
X155090000Y-82420000D03*
X154090000Y-82420000D03*
D13*
X155340000Y-67530000D03*
X151380000Y-67530000D03*
D14*
X143460000Y-67530000D03*
D13*
X147420000Y-67530000D03*
D12*
X170440000Y-86120000D03*
X171440000Y-86120000D03*
X172440000Y-86120000D03*
X170440000Y-87120000D03*
X171440000Y-87120000D03*
X172440000Y-87120000D03*
X172440000Y-88020000D03*
X171440000Y-88020000D03*
X170440000Y-88020000D03*
X170440000Y-84220000D03*
X171440000Y-84220000D03*
X172440000Y-84220000D03*
X170440000Y-85220000D03*
X171440000Y-85220000D03*
X172440000Y-85220000D03*
X172440000Y-83320000D03*
X171440000Y-83320000D03*
X170440000Y-83320000D03*
X172440000Y-82320000D03*
X171440000Y-82320000D03*
X170440000Y-82320000D03*
X182440000Y-82320000D03*
X183440000Y-82320000D03*
X184440000Y-82320000D03*
X185440000Y-82320000D03*
X182440000Y-83320000D03*
X183440000Y-83320000D03*
X184440000Y-83320000D03*
X185440000Y-83320000D03*
X185440000Y-85220000D03*
X184440000Y-85220000D03*
X183440000Y-85220000D03*
X185440000Y-84220000D03*
X184440000Y-84220000D03*
X183440000Y-84220000D03*
X182440000Y-84220000D03*
X182440000Y-88020000D03*
X183440000Y-88020000D03*
X184440000Y-88020000D03*
X185440000Y-88020000D03*
X182440000Y-89020000D03*
X183440000Y-89020000D03*
X184440000Y-89020000D03*
X185440000Y-89020000D03*
X185440000Y-87120000D03*
X184440000Y-87120000D03*
X183440000Y-87120000D03*
X182440000Y-87120000D03*
X185440000Y-86120000D03*
X184440000Y-86120000D03*
X183440000Y-86120000D03*
X182440000Y-86120000D03*
X186440000Y-86120000D03*
X187440000Y-86120000D03*
X188440000Y-86120000D03*
X189440000Y-86120000D03*
X186440000Y-87120000D03*
X187440000Y-87120000D03*
X188440000Y-87120000D03*
X189440000Y-87120000D03*
X189440000Y-89020000D03*
X188440000Y-89020000D03*
X187440000Y-89020000D03*
X186440000Y-89020000D03*
X189440000Y-88020000D03*
X188440000Y-88020000D03*
X187440000Y-88020000D03*
X186440000Y-88020000D03*
X186440000Y-84220000D03*
X187440000Y-84220000D03*
X188440000Y-84220000D03*
X189440000Y-84220000D03*
X186440000Y-85220000D03*
X187440000Y-85220000D03*
X188440000Y-85220000D03*
X189440000Y-85220000D03*
X189440000Y-83320000D03*
X188440000Y-83320000D03*
X187440000Y-83320000D03*
X186440000Y-83320000D03*
X189440000Y-82320000D03*
X188440000Y-82320000D03*
X187440000Y-82320000D03*
X186440000Y-82320000D03*
X163240000Y-93020000D03*
X162240000Y-93020000D03*
X186440000Y-90820000D03*
X187440000Y-90820000D03*
X188440000Y-90820000D03*
X189440000Y-90820000D03*
X186440000Y-91820000D03*
X159140000Y-93020000D03*
X160140000Y-93020000D03*
X161140000Y-93020000D03*
X189440000Y-89920000D03*
X188440000Y-89920000D03*
X187440000Y-89920000D03*
X186440000Y-89920000D03*
X182440000Y-89920000D03*
X183440000Y-89920000D03*
X184440000Y-89920000D03*
X185440000Y-89920000D03*
X185440000Y-91820000D03*
X184440000Y-91820000D03*
X183440000Y-91820000D03*
X182440000Y-91820000D03*
X185440000Y-90820000D03*
X184440000Y-90820000D03*
X183440000Y-90820000D03*
X182440000Y-90820000D03*
X199340000Y-82420000D03*
X200340000Y-82420000D03*
X201340000Y-82420000D03*
X199340000Y-83420000D03*
X200340000Y-83420000D03*
X201340000Y-83420000D03*
X201340000Y-85320000D03*
X200340000Y-85320000D03*
X199340000Y-85320000D03*
X201340000Y-84320000D03*
X200340000Y-84320000D03*
X199340000Y-84320000D03*
X199340000Y-88120000D03*
X200340000Y-88120000D03*
X201340000Y-88120000D03*
X201340000Y-87220000D03*
X200340000Y-87220000D03*
X199340000Y-87220000D03*
X201340000Y-86220000D03*
X200340000Y-86220000D03*
X199340000Y-86220000D03*
X219240000Y-92920000D03*
X220240000Y-92920000D03*
X218140000Y-92920000D03*
X217140000Y-92920000D03*
X216140000Y-92920000D03*
X215140000Y-92920000D03*
X213140000Y-92920000D03*
X214140000Y-92920000D03*
X211140000Y-91020000D03*
X212140000Y-91020000D03*
X213140000Y-91020000D03*
X214140000Y-91020000D03*
X211140000Y-92020000D03*
X212140000Y-92020000D03*
X213140000Y-92020000D03*
X214140000Y-92020000D03*
X214140000Y-90120000D03*
X213140000Y-90120000D03*
X212140000Y-90120000D03*
X211140000Y-90120000D03*
X215140000Y-90120000D03*
X216140000Y-90120000D03*
X217140000Y-90120000D03*
X218140000Y-90120000D03*
X218140000Y-92020000D03*
X217140000Y-92020000D03*
X216140000Y-92020000D03*
X215140000Y-92020000D03*
X218140000Y-91020000D03*
X217140000Y-91020000D03*
X216140000Y-91020000D03*
X215140000Y-91020000D03*
X219240000Y-91020000D03*
X220240000Y-91020000D03*
X219240000Y-92020000D03*
X220240000Y-92020000D03*
X220240000Y-90120000D03*
X219240000Y-90120000D03*
X219240000Y-86320000D03*
X220240000Y-86320000D03*
X219240000Y-87320000D03*
X220240000Y-87320000D03*
X220240000Y-89220000D03*
X219240000Y-89220000D03*
X220240000Y-88220000D03*
X219240000Y-88220000D03*
X219240000Y-84420000D03*
X220240000Y-84420000D03*
X219240000Y-85420000D03*
X220240000Y-85420000D03*
X220240000Y-83520000D03*
X219240000Y-83520000D03*
X220240000Y-82520000D03*
X219240000Y-82520000D03*
X215140000Y-82520000D03*
X216140000Y-82520000D03*
X217140000Y-82520000D03*
X218140000Y-82520000D03*
X215140000Y-83520000D03*
X216140000Y-83520000D03*
X217140000Y-83520000D03*
X218140000Y-83520000D03*
X218140000Y-85420000D03*
X217140000Y-85420000D03*
X216140000Y-85420000D03*
X215140000Y-85420000D03*
X218140000Y-84420000D03*
X217140000Y-84420000D03*
X216140000Y-84420000D03*
X215140000Y-84420000D03*
X215140000Y-88220000D03*
X216140000Y-88220000D03*
X217140000Y-88220000D03*
X218140000Y-88220000D03*
X215140000Y-89220000D03*
X216140000Y-89220000D03*
X217140000Y-89220000D03*
X218140000Y-89220000D03*
X218140000Y-87320000D03*
X217140000Y-87320000D03*
X216140000Y-87320000D03*
X215140000Y-87320000D03*
X218140000Y-86320000D03*
X217140000Y-86320000D03*
X216140000Y-86320000D03*
X215140000Y-86320000D03*
X211140000Y-86320000D03*
X212140000Y-86320000D03*
X213140000Y-86320000D03*
X214140000Y-86320000D03*
X211140000Y-87320000D03*
X212140000Y-87320000D03*
X213140000Y-87320000D03*
X214140000Y-87320000D03*
X214140000Y-89220000D03*
X213140000Y-89220000D03*
X212140000Y-89220000D03*
X211140000Y-89220000D03*
X214140000Y-88220000D03*
X213140000Y-88220000D03*
X212140000Y-88220000D03*
X211140000Y-88220000D03*
X211140000Y-84420000D03*
X212140000Y-84420000D03*
X213140000Y-84420000D03*
X214140000Y-84420000D03*
X211140000Y-85420000D03*
X212140000Y-85420000D03*
X213140000Y-85420000D03*
X214140000Y-85420000D03*
D15*
X258250000Y-88540000D03*
X258250000Y-86000000D03*
X260250000Y-86000000D03*
X260250000Y-88540000D03*
D16*
X262950000Y-93270000D03*
X262950000Y-81270000D03*
D12*
X260564000Y-129538000D03*
X260564000Y-130538000D03*
X205994000Y-143256000D03*
X204216000Y-143256000D03*
X202438000Y-143256000D03*
X205486000Y-133096000D03*
X205470000Y-131662000D03*
X207270000Y-131662000D03*
X209042000Y-131572000D03*
X207264000Y-133096000D03*
X209042000Y-133096000D03*
X238100000Y-119000000D03*
X245618000Y-141478000D03*
X234696000Y-141478000D03*
X240284000Y-141478000D03*
X251206000Y-141478000D03*
X256794000Y-141478000D03*
X228800000Y-141450000D03*
X268800000Y-124300000D03*
X262128000Y-141478000D03*
X140970000Y-106680000D03*
X161950000Y-135450000D03*
X162950000Y-135450000D03*
X161950000Y-136450000D03*
X162950000Y-136450000D03*
X161950000Y-137450000D03*
X162950000Y-137450000D03*
X154350000Y-148550000D03*
X156350000Y-148550000D03*
X156300000Y-146150000D03*
X154300000Y-146150000D03*
X150200000Y-146150000D03*
X152200000Y-146150000D03*
X152250000Y-148550000D03*
X150250000Y-148550000D03*
X168050000Y-148550000D03*
X170050000Y-148550000D03*
X170000000Y-146150000D03*
X168000000Y-146150000D03*
X169900000Y-143600000D03*
X167900000Y-143600000D03*
X166100000Y-143600000D03*
X166200000Y-146150000D03*
X166250000Y-148550000D03*
X158450000Y-148550000D03*
X160450000Y-148550000D03*
X160400000Y-146150000D03*
X158400000Y-146150000D03*
X160300000Y-143600000D03*
X158300000Y-143600000D03*
X162100000Y-143600000D03*
X164100000Y-143600000D03*
X162200000Y-146150000D03*
X164200000Y-146150000D03*
X164250000Y-148550000D03*
X162250000Y-148550000D03*
X153950000Y-141050000D03*
X155950000Y-141050000D03*
X153900000Y-138650000D03*
X153800000Y-136100000D03*
X150000000Y-136100000D03*
X152000000Y-136100000D03*
X151950000Y-133700000D03*
X149950000Y-133700000D03*
X150100000Y-138650000D03*
X152100000Y-138650000D03*
X152150000Y-141050000D03*
X150150000Y-141050000D03*
X230950000Y-94939000D03*
X200100000Y-129200000D03*
X252000000Y-104900000D03*
X251050000Y-104870000D03*
X237300000Y-104083000D03*
X266850000Y-149100000D03*
X268850000Y-149100000D03*
X267850000Y-150100000D03*
X267800000Y-148300000D03*
X268800000Y-147300000D03*
X266800000Y-147300000D03*
X260200000Y-160150000D03*
X262200000Y-160150000D03*
X261200000Y-161150000D03*
X261250000Y-162950000D03*
X262250000Y-161950000D03*
X260250000Y-161950000D03*
X225000000Y-147200000D03*
X223000000Y-147200000D03*
X221000000Y-147200000D03*
X219000000Y-147200000D03*
X217000000Y-147200000D03*
X224000000Y-146200000D03*
X222000000Y-146200000D03*
X220000000Y-146200000D03*
X218000000Y-146200000D03*
X216000000Y-146200000D03*
X204200000Y-129400000D03*
X191600000Y-132900000D03*
X203962000Y-135636000D03*
X156200000Y-143600000D03*
X154200000Y-143600000D03*
X152200000Y-143600000D03*
X150200000Y-143600000D03*
X230950000Y-85033000D03*
X230950000Y-89859000D03*
X230950000Y-99575000D03*
X216150000Y-150700000D03*
X218150000Y-150700000D03*
X220150000Y-150700000D03*
X222150000Y-150700000D03*
X224150000Y-150700000D03*
X217150000Y-151700000D03*
X219150000Y-151700000D03*
X221150000Y-151700000D03*
X223150000Y-151700000D03*
X225150000Y-151700000D03*
X251200000Y-73220000D03*
X250200000Y-73220000D03*
X251200000Y-74100000D03*
X251200000Y-72220000D03*
X250200000Y-72220000D03*
X269200000Y-78320000D03*
D13*
X137700000Y-145930000D03*
X137700000Y-141970000D03*
D14*
X137700000Y-134050000D03*
D13*
X137700000Y-138010000D03*
D12*
X165950000Y-137450000D03*
X164950000Y-137450000D03*
X163950000Y-137450000D03*
X132890000Y-106570000D03*
X165950000Y-136450000D03*
X164950000Y-136450000D03*
X163950000Y-136450000D03*
X178950000Y-146600000D03*
X178850000Y-136350000D03*
X229600000Y-157150000D03*
X165950000Y-135450000D03*
X164950000Y-135450000D03*
X163950000Y-135450000D03*
X214140000Y-83520000D03*
X213140000Y-83520000D03*
X212140000Y-83520000D03*
X211140000Y-83520000D03*
X214140000Y-82520000D03*
X213140000Y-82520000D03*
X212140000Y-82520000D03*
X211140000Y-82520000D03*
X243750000Y-98975000D03*
X207740000Y-87170000D03*
X206740000Y-87170000D03*
X205740000Y-87170000D03*
X204740000Y-87170000D03*
X178940000Y-86970000D03*
X177940000Y-86970000D03*
X176940000Y-86970000D03*
X175940000Y-86970000D03*
X150790000Y-86920000D03*
X149790000Y-86920000D03*
X148790000Y-86920000D03*
X147790000Y-86920000D03*
X207740000Y-86170000D03*
X206740000Y-86170000D03*
X205740000Y-86170000D03*
X204740000Y-86170000D03*
X178940000Y-85970000D03*
X177940000Y-85970000D03*
X176940000Y-85970000D03*
X175940000Y-85970000D03*
X150790000Y-85920000D03*
X149790000Y-85920000D03*
X148790000Y-85920000D03*
X147790000Y-85920000D03*
X207740000Y-85170000D03*
X206740000Y-85170000D03*
X205740000Y-85170000D03*
X204740000Y-85170000D03*
X178940000Y-84970000D03*
X177940000Y-84970000D03*
X176940000Y-84970000D03*
X175940000Y-84970000D03*
X150790000Y-84920000D03*
X149790000Y-84920000D03*
X148790000Y-84920000D03*
D17*
X155000000Y-94700000D03*
X183100000Y-94500000D03*
X212100000Y-95000000D03*
D13*
X183340000Y-67630000D03*
X179380000Y-67630000D03*
D14*
X171460000Y-67630000D03*
D13*
X175420000Y-67630000D03*
X212180000Y-67600000D03*
X208220000Y-67600000D03*
D14*
X200300000Y-67600000D03*
D13*
X204260000Y-67600000D03*
D12*
X147790000Y-84920000D03*
D18*
X135810000Y-68630000D03*
X135750000Y-160300000D03*
X266950000Y-68820000D03*
X267100000Y-160400000D03*
D19*
X135000000Y-74000000D03*
X135825000Y-153675000D03*
X267800000Y-154350000D03*
X252050000Y-66650000D03*
D20*
X268850000Y-122800000D03*
D21*
X267580000Y-122800000D03*
X268850000Y-121530000D03*
X267580000Y-121530000D03*
X268850000Y-120260000D03*
X267580000Y-120260000D03*
X268850000Y-118990000D03*
X267580000Y-118990000D03*
X268850000Y-117720000D03*
X267580000Y-117720000D03*
D22*
X189798000Y-161544000D03*
D23*
X194798000Y-161544000D03*
D22*
X192298000Y-161544000D03*
X162620000Y-161544000D03*
D23*
X167620000Y-161544000D03*
D22*
X165120000Y-161544000D03*
D23*
X179812000Y-161544000D03*
D22*
X177312000Y-161544000D03*
D23*
X225024000Y-161544000D03*
D22*
X222524000Y-161544000D03*
D23*
X209784000Y-161544000D03*
D22*
X207284000Y-161544000D03*
D23*
X239910000Y-161650000D03*
D22*
X237410000Y-161650000D03*
D23*
X149840000Y-161544000D03*
D22*
X147340000Y-161544000D03*
D23*
X253980000Y-161544000D03*
D22*
X251480000Y-161544000D03*
D24*
G36*
X156873000Y-87873000D02*
X142127000Y-87873000D01*
X142127000Y-84127000D01*
X156873000Y-84127000D01*
X156873000Y-87873000D01*
X156873000Y-87873000D01*
G37*
X156873000Y-87873000D02*
X142127000Y-87873000D01*
X142127000Y-84127000D01*
X156873000Y-84127000D01*
X156873000Y-87873000D01*
G36*
X184873000Y-87873000D02*
X170127000Y-87873000D01*
X170127000Y-84127000D01*
X184873000Y-84127000D01*
X184873000Y-87873000D01*
X184873000Y-87873000D01*
G37*
X184873000Y-87873000D02*
X170127000Y-87873000D01*
X170127000Y-84127000D01*
X184873000Y-84127000D01*
X184873000Y-87873000D01*
G36*
X213873000Y-87873000D02*
X198127000Y-87873000D01*
X198127000Y-84127000D01*
X213873000Y-84127000D01*
X213873000Y-87873000D01*
X213873000Y-87873000D01*
G37*
X213873000Y-87873000D02*
X198127000Y-87873000D01*
X198127000Y-84127000D01*
X213873000Y-84127000D01*
X213873000Y-87873000D01*
M02*
