G04 #@! TF.FileFunction,Soldermask,Top*
%FSLAX46Y46*%
G04 Gerber Fmt 4.6, Leading zero omitted, Abs format (unit mm)*
G04 Created by KiCad (PCBNEW 4.0.1-stable) date 2018/05/19 11:17:56*
%MOMM*%
G01*
G04 APERTURE LIST*
%ADD10C,0.150000*%
%ADD11C,0.400000*%
%ADD12C,1.900000*%
%ADD13R,1.900000X1.900000*%
%ADD14R,2.000000X3.200000*%
%ADD15R,2.000000X1.000000*%
%ADD16R,1.200000X0.800000*%
%ADD17R,1.200000X1.500000*%
%ADD18R,0.250000X1.000000*%
%ADD19R,1.000000X0.250000*%
%ADD20C,1.520000*%
%ADD21C,2.700000*%
%ADD22R,0.900000X1.700000*%
%ADD23R,1.600000X3.500000*%
%ADD24R,3.800000X2.500000*%
%ADD25R,7.900000X2.300000*%
%ADD26R,1.000000X1.250000*%
%ADD27R,0.750000X0.800000*%
%ADD28R,1.250000X1.000000*%
%ADD29R,0.850000X0.850000*%
%ADD30R,0.800000X0.750000*%
%ADD31R,0.500000X0.900000*%
%ADD32R,0.900000X0.500000*%
%ADD33R,1.700000X0.900000*%
%ADD34R,1.000000X2.500000*%
%ADD35R,1.500000X3.000000*%
%ADD36R,2.000000X0.530000*%
%ADD37R,1.200000X0.500000*%
%ADD38R,1.600000X1.000000*%
%ADD39R,0.800000X1.200000*%
%ADD40R,0.450000X1.650000*%
%ADD41R,4.320000X3.000000*%
%ADD42C,3.200000*%
%ADD43R,1.700000X1.700000*%
%ADD44R,1.000000X1.000000*%
%ADD45O,1.000000X1.000000*%
%ADD46C,1.524000*%
%ADD47R,1.524000X1.524000*%
%ADD48R,2.000000X0.800000*%
%ADD49R,0.450000X1.450000*%
%ADD50R,0.800000X0.900000*%
%ADD51R,0.900000X0.800000*%
G04 APERTURE END LIST*
D10*
D11*
X266475000Y-116120000D03*
X219070000Y-86320000D03*
X220070000Y-86320000D03*
X219070000Y-87320000D03*
X220070000Y-87320000D03*
X220070000Y-89220000D03*
X219070000Y-89220000D03*
X220070000Y-88220000D03*
X219070000Y-88220000D03*
X219070000Y-84420000D03*
X220070000Y-84420000D03*
X219070000Y-85420000D03*
X220070000Y-85420000D03*
X220070000Y-83520000D03*
X219070000Y-83520000D03*
X220070000Y-82520000D03*
X219070000Y-82520000D03*
X219070000Y-91020000D03*
X220070000Y-91020000D03*
X219070000Y-92020000D03*
X220070000Y-92020000D03*
X220070000Y-90120000D03*
X219070000Y-90120000D03*
X219070000Y-92920000D03*
X220070000Y-92920000D03*
X220070000Y-100520000D03*
X219070000Y-100520000D03*
X219070000Y-97720000D03*
X220070000Y-97720000D03*
X220070000Y-99620000D03*
X219070000Y-99620000D03*
X220070000Y-98620000D03*
X219070000Y-98620000D03*
X219070000Y-95820000D03*
X220070000Y-95820000D03*
X219070000Y-96820000D03*
X220070000Y-96820000D03*
X220070000Y-94920000D03*
X219070000Y-94920000D03*
X220070000Y-93920000D03*
X219070000Y-93920000D03*
X190320000Y-89920000D03*
X190320000Y-90820000D03*
X190320000Y-82320000D03*
X190320000Y-83320000D03*
X190320000Y-85220000D03*
X190320000Y-84220000D03*
X190320000Y-88020000D03*
X190320000Y-89020000D03*
X190320000Y-87120000D03*
X190320000Y-86120000D03*
X190320000Y-100020000D03*
X190320000Y-101020000D03*
X190320000Y-99120000D03*
X190320000Y-98320000D03*
X190320000Y-95520000D03*
X190320000Y-97420000D03*
X190320000Y-96420000D03*
X190320000Y-93620000D03*
X190320000Y-94620000D03*
X190320000Y-92720000D03*
X190320000Y-91820000D03*
X198520000Y-119560000D03*
X197540000Y-82420000D03*
X197540000Y-83420000D03*
X197540000Y-85320000D03*
X197540000Y-84320000D03*
X197540000Y-88120000D03*
X197540000Y-87220000D03*
X197540000Y-86220000D03*
X198440000Y-86220000D03*
X198440000Y-87220000D03*
X198440000Y-88120000D03*
X198440000Y-84320000D03*
X198440000Y-85320000D03*
X198440000Y-83420000D03*
X198440000Y-82420000D03*
X169640000Y-82320000D03*
X169640000Y-83320000D03*
X169640000Y-85220000D03*
X169640000Y-84220000D03*
X169640000Y-88020000D03*
X169640000Y-87120000D03*
X169640000Y-86120000D03*
X210190000Y-85220000D03*
X209190000Y-85220000D03*
X210190000Y-87120000D03*
X209190000Y-87120000D03*
X210190000Y-86120000D03*
X209190000Y-86120000D03*
X202290000Y-86120000D03*
X203290000Y-86120000D03*
X202290000Y-87120000D03*
X203290000Y-87120000D03*
X202290000Y-85220000D03*
X203290000Y-85220000D03*
X181190000Y-85020000D03*
X180190000Y-85020000D03*
X181190000Y-86920000D03*
X180190000Y-86920000D03*
X181190000Y-85920000D03*
X180190000Y-85920000D03*
X153090000Y-85020000D03*
X152090000Y-85020000D03*
X153090000Y-86920000D03*
X152090000Y-86920000D03*
X153090000Y-85920000D03*
X152090000Y-85920000D03*
X173390000Y-85920000D03*
X174390000Y-85920000D03*
X173390000Y-86920000D03*
X174390000Y-86920000D03*
X173390000Y-85020000D03*
X174390000Y-85020000D03*
X144490000Y-88720000D03*
X143490000Y-88720000D03*
X142490000Y-88720000D03*
X140390000Y-88720000D03*
X141390000Y-88720000D03*
X139590000Y-88720000D03*
X139590000Y-82120000D03*
X139590000Y-83120000D03*
X139590000Y-85020000D03*
X139590000Y-84020000D03*
X139590000Y-87820000D03*
X139590000Y-86920000D03*
X139590000Y-85920000D03*
X140390000Y-85920000D03*
X141390000Y-85920000D03*
X140390000Y-86920000D03*
X141390000Y-86920000D03*
X141390000Y-87820000D03*
X140390000Y-87820000D03*
X140390000Y-84020000D03*
X141390000Y-84020000D03*
X140390000Y-85020000D03*
X141390000Y-85020000D03*
X141390000Y-83120000D03*
X140390000Y-83120000D03*
X141390000Y-82120000D03*
X140390000Y-82120000D03*
X210100000Y-73100000D03*
X210100000Y-72200000D03*
X202300000Y-72200000D03*
X202300000Y-73200000D03*
X181400000Y-73400000D03*
X181400000Y-72400000D03*
X173500000Y-72200000D03*
X173500000Y-73300000D03*
X153200000Y-74100000D03*
X153200000Y-73200000D03*
X145500000Y-73300000D03*
X145500000Y-74100000D03*
X159740000Y-70120000D03*
X160740000Y-70120000D03*
X161740000Y-70120000D03*
X162740000Y-70120000D03*
X162740000Y-69220000D03*
X161740000Y-69220000D03*
X160740000Y-69220000D03*
X159740000Y-69220000D03*
X162740000Y-68220000D03*
X161740000Y-68220000D03*
X160740000Y-68220000D03*
X159740000Y-68220000D03*
X187740000Y-68420000D03*
X188740000Y-68420000D03*
X189740000Y-68420000D03*
X190740000Y-68420000D03*
X187740000Y-69420000D03*
X188740000Y-69420000D03*
X189740000Y-69420000D03*
X190740000Y-69420000D03*
X190740000Y-70320000D03*
X189740000Y-70320000D03*
X188740000Y-70320000D03*
X187740000Y-70320000D03*
X216640000Y-70220000D03*
X217640000Y-70220000D03*
X218640000Y-70220000D03*
X219640000Y-70220000D03*
X219640000Y-69320000D03*
X218640000Y-69320000D03*
X217640000Y-69320000D03*
X216640000Y-69320000D03*
X219640000Y-68320000D03*
X218640000Y-68320000D03*
X217640000Y-68320000D03*
X216640000Y-68320000D03*
X182440000Y-85220000D03*
X240600000Y-117000000D03*
X240600000Y-118700000D03*
X234150000Y-137270000D03*
X233150000Y-137820000D03*
X238550000Y-137920000D03*
X239550000Y-137370000D03*
X244850000Y-137470000D03*
X243850000Y-138020000D03*
X249250000Y-137920000D03*
X250250000Y-137370000D03*
X254650000Y-137920000D03*
X255650000Y-137370000D03*
X261250000Y-137370000D03*
X260250000Y-137920000D03*
X268100000Y-136920000D03*
X269100000Y-137920000D03*
X268100000Y-138470000D03*
X268050000Y-135420000D03*
X269050000Y-136420000D03*
X269050000Y-134870000D03*
X259400000Y-125200000D03*
X237100000Y-126200000D03*
X247000000Y-126200000D03*
X249500000Y-114400000D03*
X249550000Y-116970000D03*
X257800000Y-110820000D03*
X260750000Y-116970000D03*
X252800000Y-115500000D03*
X249550000Y-112470000D03*
X250450000Y-108870000D03*
X259800000Y-110800000D03*
X258600000Y-117500000D03*
X259100000Y-104420000D03*
X255900000Y-106900000D03*
X258400000Y-106500000D03*
X252850000Y-104870000D03*
X253800000Y-104900000D03*
X268600000Y-132200000D03*
X269500000Y-132200000D03*
X269700000Y-124300000D03*
X268950000Y-111170000D03*
X269950000Y-112170000D03*
X269950000Y-113720000D03*
X268950000Y-112720000D03*
X269000000Y-115770000D03*
X270000000Y-115220000D03*
X269000000Y-114220000D03*
X269200000Y-95520000D03*
X252700000Y-72220000D03*
X253700000Y-72220000D03*
X253700000Y-74100000D03*
X252700000Y-73220000D03*
X253700000Y-73220000D03*
X252700000Y-74120000D03*
X250200000Y-74120000D03*
X240700000Y-110600000D03*
X240700000Y-114900000D03*
X232600000Y-123900000D03*
X230200000Y-116000000D03*
X230200000Y-109400000D03*
X205400000Y-139700000D03*
X226900000Y-67000000D03*
X229200000Y-80800000D03*
X229400000Y-74400000D03*
X229500000Y-88600000D03*
X229500000Y-93400000D03*
X229600000Y-103400000D03*
X229500000Y-98300000D03*
X191600000Y-134500000D03*
X191600000Y-135300000D03*
X191600000Y-133700000D03*
X171000000Y-79400000D03*
X141900000Y-79400000D03*
X147600000Y-79300000D03*
X189440000Y-91820000D03*
X188440000Y-91820000D03*
X187440000Y-91820000D03*
X187440000Y-92720000D03*
X188440000Y-92720000D03*
X189440000Y-92720000D03*
X189440000Y-94620000D03*
X188440000Y-94620000D03*
X187440000Y-94620000D03*
X189440000Y-93620000D03*
X188440000Y-93620000D03*
X187440000Y-93620000D03*
X187440000Y-96420000D03*
X188440000Y-96420000D03*
X189440000Y-96420000D03*
X187440000Y-97420000D03*
X188440000Y-97420000D03*
X189440000Y-97420000D03*
X189440000Y-95520000D03*
X188440000Y-95520000D03*
X187440000Y-95520000D03*
X187440000Y-98320000D03*
X188440000Y-98320000D03*
X189440000Y-98320000D03*
X187440000Y-99120000D03*
X188440000Y-99120000D03*
X189440000Y-99120000D03*
X189440000Y-101020000D03*
X188440000Y-101020000D03*
X187440000Y-101020000D03*
X189440000Y-100020000D03*
X188440000Y-100020000D03*
X187440000Y-100020000D03*
X162240000Y-100320000D03*
X162240000Y-102220000D03*
X162240000Y-101220000D03*
X159140000Y-101220000D03*
X160140000Y-101220000D03*
X161140000Y-101220000D03*
X159140000Y-102220000D03*
X160140000Y-102220000D03*
X161140000Y-102220000D03*
X161140000Y-100320000D03*
X160140000Y-100320000D03*
X159140000Y-100320000D03*
X162240000Y-99520000D03*
X161140000Y-99520000D03*
X160140000Y-99520000D03*
X159140000Y-99520000D03*
X159140000Y-96720000D03*
X160140000Y-96720000D03*
X161140000Y-96720000D03*
X161140000Y-98620000D03*
X160140000Y-98620000D03*
X159140000Y-98620000D03*
X161140000Y-97620000D03*
X160140000Y-97620000D03*
X159140000Y-97620000D03*
X162240000Y-97620000D03*
X162240000Y-98620000D03*
X162240000Y-96720000D03*
X162240000Y-93920000D03*
X162240000Y-95820000D03*
X162240000Y-94820000D03*
X159140000Y-94820000D03*
X160140000Y-94820000D03*
X161140000Y-94820000D03*
X159140000Y-95820000D03*
X160140000Y-95820000D03*
X161140000Y-95820000D03*
X161140000Y-93920000D03*
X160140000Y-93920000D03*
X159140000Y-93920000D03*
X216140000Y-93920000D03*
X217140000Y-93920000D03*
X218140000Y-93920000D03*
X216140000Y-94920000D03*
X217140000Y-94920000D03*
X218140000Y-94920000D03*
X218140000Y-96820000D03*
X217140000Y-96820000D03*
X216140000Y-96820000D03*
X218140000Y-95820000D03*
X217140000Y-95820000D03*
X216140000Y-95820000D03*
X216140000Y-98620000D03*
X217140000Y-98620000D03*
X218140000Y-98620000D03*
X216140000Y-99620000D03*
X217140000Y-99620000D03*
X218140000Y-99620000D03*
X218140000Y-97720000D03*
X217140000Y-97720000D03*
X216140000Y-97720000D03*
X216140000Y-100520000D03*
X217140000Y-100520000D03*
X218140000Y-100520000D03*
X162600000Y-80000000D03*
X162600000Y-79300000D03*
X163300000Y-79300000D03*
X163300000Y-80000000D03*
X164000000Y-80000000D03*
X164000000Y-79300000D03*
X220400000Y-80000000D03*
X220400000Y-79300000D03*
X192100000Y-79400000D03*
X192100000Y-80100000D03*
X191400000Y-80100000D03*
X191400000Y-79400000D03*
X207850000Y-80000000D03*
X207850000Y-79300000D03*
X207850000Y-80700000D03*
X221200000Y-80000000D03*
X221200000Y-79300000D03*
X190700000Y-79400000D03*
X190700000Y-80100000D03*
X204600000Y-80700000D03*
X204600000Y-79300000D03*
X204600000Y-80000000D03*
X219600000Y-80000000D03*
X219600000Y-79300000D03*
X178900000Y-80700000D03*
X178900000Y-79300000D03*
X178900000Y-80000000D03*
X175700000Y-80000000D03*
X175700000Y-79300000D03*
X175700000Y-80700000D03*
X150900000Y-80000000D03*
X150900000Y-79300000D03*
X150900000Y-80700000D03*
X147600000Y-80700000D03*
X199800000Y-79600000D03*
X147600000Y-80000000D03*
X148700000Y-93500000D03*
X153500000Y-93500000D03*
X156100000Y-93500000D03*
X158100000Y-93500000D03*
X157100000Y-93500000D03*
X215000000Y-94100000D03*
X214200000Y-94100000D03*
X213400000Y-94100000D03*
X210500000Y-94100000D03*
X205600000Y-94100000D03*
X176700000Y-93400000D03*
X181400000Y-93400000D03*
X184500000Y-93400000D03*
X185300000Y-93400000D03*
X186100000Y-93400000D03*
X142490000Y-82120000D03*
X143490000Y-82120000D03*
X144490000Y-82120000D03*
X142490000Y-83120000D03*
X143490000Y-83120000D03*
X144490000Y-83120000D03*
X144490000Y-85020000D03*
X143490000Y-85020000D03*
X142490000Y-85020000D03*
X144490000Y-84020000D03*
X143490000Y-84020000D03*
X142490000Y-84020000D03*
X142490000Y-87820000D03*
X143490000Y-87820000D03*
X144490000Y-87820000D03*
X144490000Y-86920000D03*
X143490000Y-86920000D03*
X142490000Y-86920000D03*
X144490000Y-85920000D03*
X143490000Y-85920000D03*
X142490000Y-85920000D03*
X154090000Y-90920000D03*
X155090000Y-90920000D03*
X156090000Y-90920000D03*
X157090000Y-90920000D03*
X154090000Y-91920000D03*
X155090000Y-91920000D03*
X156090000Y-91920000D03*
X157090000Y-91920000D03*
X157090000Y-90020000D03*
X156090000Y-90020000D03*
X155090000Y-90020000D03*
X154090000Y-90020000D03*
X158090000Y-90020000D03*
X159090000Y-90020000D03*
X160090000Y-90020000D03*
X161090000Y-90020000D03*
X161090000Y-91920000D03*
X160090000Y-91920000D03*
X159090000Y-91920000D03*
X158090000Y-91920000D03*
X161090000Y-90920000D03*
X160090000Y-90920000D03*
X159090000Y-90920000D03*
X158090000Y-90920000D03*
X162190000Y-90920000D03*
X162190000Y-91920000D03*
X162190000Y-90020000D03*
X162190000Y-86220000D03*
X162190000Y-87220000D03*
X162190000Y-89120000D03*
X162190000Y-88120000D03*
X162190000Y-84320000D03*
X162190000Y-85320000D03*
X162190000Y-83420000D03*
X162190000Y-82420000D03*
X158090000Y-82420000D03*
X159090000Y-82420000D03*
X160090000Y-82420000D03*
X161090000Y-82420000D03*
X158090000Y-83420000D03*
X159090000Y-83420000D03*
X160090000Y-83420000D03*
X161090000Y-83420000D03*
X161090000Y-85320000D03*
X160090000Y-85320000D03*
X159090000Y-85320000D03*
X158090000Y-85320000D03*
X161090000Y-84320000D03*
X160090000Y-84320000D03*
X159090000Y-84320000D03*
X158090000Y-84320000D03*
X158090000Y-88120000D03*
X159090000Y-88120000D03*
X160090000Y-88120000D03*
X161090000Y-88120000D03*
X158090000Y-89120000D03*
X159090000Y-89120000D03*
X160090000Y-89120000D03*
X161090000Y-89120000D03*
X161090000Y-87220000D03*
X160090000Y-87220000D03*
X159090000Y-87220000D03*
X158090000Y-87220000D03*
X161090000Y-86220000D03*
X160090000Y-86220000D03*
X159090000Y-86220000D03*
X158090000Y-86220000D03*
X154090000Y-86220000D03*
X155090000Y-86220000D03*
X156090000Y-86220000D03*
X157090000Y-86220000D03*
X154090000Y-87220000D03*
X155090000Y-87220000D03*
X156090000Y-87220000D03*
X157090000Y-87220000D03*
X157090000Y-89120000D03*
X156090000Y-89120000D03*
X155090000Y-89120000D03*
X154090000Y-89120000D03*
X157090000Y-88120000D03*
X156090000Y-88120000D03*
X155090000Y-88120000D03*
X154090000Y-88120000D03*
X154090000Y-84320000D03*
X155090000Y-84320000D03*
X156090000Y-84320000D03*
X157090000Y-84320000D03*
X154090000Y-85320000D03*
X155090000Y-85320000D03*
X156090000Y-85320000D03*
X157090000Y-85320000D03*
X157090000Y-83420000D03*
X156090000Y-83420000D03*
X155090000Y-83420000D03*
X154090000Y-83420000D03*
X157090000Y-82420000D03*
X156090000Y-82420000D03*
X155090000Y-82420000D03*
X154090000Y-82420000D03*
D12*
X155340000Y-67530000D03*
X151380000Y-67530000D03*
D13*
X143460000Y-67530000D03*
D12*
X147420000Y-67530000D03*
D11*
X170440000Y-86120000D03*
X171440000Y-86120000D03*
X172440000Y-86120000D03*
X170440000Y-87120000D03*
X171440000Y-87120000D03*
X172440000Y-87120000D03*
X172440000Y-88020000D03*
X171440000Y-88020000D03*
X170440000Y-88020000D03*
X170440000Y-84220000D03*
X171440000Y-84220000D03*
X172440000Y-84220000D03*
X170440000Y-85220000D03*
X171440000Y-85220000D03*
X172440000Y-85220000D03*
X172440000Y-83320000D03*
X171440000Y-83320000D03*
X170440000Y-83320000D03*
X172440000Y-82320000D03*
X171440000Y-82320000D03*
X170440000Y-82320000D03*
X182440000Y-82320000D03*
X183440000Y-82320000D03*
X184440000Y-82320000D03*
X185440000Y-82320000D03*
X182440000Y-83320000D03*
X183440000Y-83320000D03*
X184440000Y-83320000D03*
X185440000Y-83320000D03*
X185440000Y-85220000D03*
X184440000Y-85220000D03*
X183440000Y-85220000D03*
X185440000Y-84220000D03*
X184440000Y-84220000D03*
X183440000Y-84220000D03*
X182440000Y-84220000D03*
X182440000Y-88020000D03*
X183440000Y-88020000D03*
X184440000Y-88020000D03*
X185440000Y-88020000D03*
X182440000Y-89020000D03*
X183440000Y-89020000D03*
X184440000Y-89020000D03*
X185440000Y-89020000D03*
X185440000Y-87120000D03*
X184440000Y-87120000D03*
X183440000Y-87120000D03*
X182440000Y-87120000D03*
X185440000Y-86120000D03*
X184440000Y-86120000D03*
X183440000Y-86120000D03*
X182440000Y-86120000D03*
X186440000Y-86120000D03*
X187440000Y-86120000D03*
X188440000Y-86120000D03*
X189440000Y-86120000D03*
X186440000Y-87120000D03*
X187440000Y-87120000D03*
X188440000Y-87120000D03*
X189440000Y-87120000D03*
X189440000Y-89020000D03*
X188440000Y-89020000D03*
X187440000Y-89020000D03*
X186440000Y-89020000D03*
X189440000Y-88020000D03*
X188440000Y-88020000D03*
X187440000Y-88020000D03*
X186440000Y-88020000D03*
X186440000Y-84220000D03*
X187440000Y-84220000D03*
X188440000Y-84220000D03*
X189440000Y-84220000D03*
X186440000Y-85220000D03*
X187440000Y-85220000D03*
X188440000Y-85220000D03*
X189440000Y-85220000D03*
X189440000Y-83320000D03*
X188440000Y-83320000D03*
X187440000Y-83320000D03*
X186440000Y-83320000D03*
X189440000Y-82320000D03*
X188440000Y-82320000D03*
X187440000Y-82320000D03*
X186440000Y-82320000D03*
X162240000Y-93020000D03*
X186440000Y-90820000D03*
X187440000Y-90820000D03*
X188440000Y-90820000D03*
X189440000Y-90820000D03*
X186440000Y-91820000D03*
X159140000Y-93020000D03*
X160140000Y-93020000D03*
X161140000Y-93020000D03*
X189440000Y-89920000D03*
X188440000Y-89920000D03*
X187440000Y-89920000D03*
X186440000Y-89920000D03*
X182440000Y-89920000D03*
X183440000Y-89920000D03*
X184440000Y-89920000D03*
X185440000Y-89920000D03*
X185440000Y-91820000D03*
X184440000Y-91820000D03*
X183440000Y-91820000D03*
X182440000Y-91820000D03*
X185440000Y-90820000D03*
X184440000Y-90820000D03*
X183440000Y-90820000D03*
X182440000Y-90820000D03*
X199340000Y-82420000D03*
X200340000Y-82420000D03*
X201340000Y-82420000D03*
X199340000Y-83420000D03*
X200340000Y-83420000D03*
X201340000Y-83420000D03*
X201340000Y-85320000D03*
X200340000Y-85320000D03*
X199340000Y-85320000D03*
X201340000Y-84320000D03*
X200340000Y-84320000D03*
X199340000Y-84320000D03*
X199340000Y-88120000D03*
X200340000Y-88120000D03*
X201340000Y-88120000D03*
X201340000Y-87220000D03*
X200340000Y-87220000D03*
X199340000Y-87220000D03*
X201340000Y-86220000D03*
X200340000Y-86220000D03*
X199340000Y-86220000D03*
X218140000Y-92920000D03*
X217140000Y-92920000D03*
X216140000Y-92920000D03*
X215140000Y-92920000D03*
X213140000Y-92920000D03*
X214140000Y-92920000D03*
X211140000Y-91020000D03*
X212140000Y-91020000D03*
X213140000Y-91020000D03*
X214140000Y-91020000D03*
X211140000Y-92020000D03*
X212140000Y-92020000D03*
X213140000Y-92020000D03*
X214140000Y-92020000D03*
X214140000Y-90120000D03*
X213140000Y-90120000D03*
X212140000Y-90120000D03*
X211140000Y-90120000D03*
X215140000Y-90120000D03*
X216140000Y-90120000D03*
X217140000Y-90120000D03*
X218140000Y-90120000D03*
X218140000Y-92020000D03*
X217140000Y-92020000D03*
X216140000Y-92020000D03*
X215140000Y-92020000D03*
X218140000Y-91020000D03*
X217140000Y-91020000D03*
X216140000Y-91020000D03*
X215140000Y-91020000D03*
X215140000Y-82520000D03*
X216140000Y-82520000D03*
X217140000Y-82520000D03*
X218140000Y-82520000D03*
X215140000Y-83520000D03*
X216140000Y-83520000D03*
X217140000Y-83520000D03*
X218140000Y-83520000D03*
X218140000Y-85420000D03*
X217140000Y-85420000D03*
X216140000Y-85420000D03*
X215140000Y-85420000D03*
X218140000Y-84420000D03*
X217140000Y-84420000D03*
X216140000Y-84420000D03*
X215140000Y-84420000D03*
X215140000Y-88220000D03*
X216140000Y-88220000D03*
X217140000Y-88220000D03*
X218140000Y-88220000D03*
X215140000Y-89220000D03*
X216140000Y-89220000D03*
X217140000Y-89220000D03*
X218140000Y-89220000D03*
X218140000Y-87320000D03*
X217140000Y-87320000D03*
X216140000Y-87320000D03*
X215140000Y-87320000D03*
X218140000Y-86320000D03*
X217140000Y-86320000D03*
X216140000Y-86320000D03*
X215140000Y-86320000D03*
X211140000Y-86320000D03*
X212140000Y-86320000D03*
X213140000Y-86320000D03*
X214140000Y-86320000D03*
X211140000Y-87320000D03*
X212140000Y-87320000D03*
X213140000Y-87320000D03*
X214140000Y-87320000D03*
X214140000Y-89220000D03*
X213140000Y-89220000D03*
X212140000Y-89220000D03*
X211140000Y-89220000D03*
X214140000Y-88220000D03*
X213140000Y-88220000D03*
X212140000Y-88220000D03*
X211140000Y-88220000D03*
X211140000Y-84420000D03*
X212140000Y-84420000D03*
X213140000Y-84420000D03*
X214140000Y-84420000D03*
X211140000Y-85420000D03*
X212140000Y-85420000D03*
X213140000Y-85420000D03*
X214140000Y-85420000D03*
D14*
X253250000Y-73150000D03*
D15*
X259550000Y-73150000D03*
X259550000Y-70850000D03*
X259550000Y-75450000D03*
D16*
X237320000Y-103345000D03*
X237320000Y-100805000D03*
X230970000Y-102075000D03*
X230970000Y-100805000D03*
X230970000Y-103345000D03*
D17*
X253775000Y-106925000D03*
X253775000Y-102825000D03*
X250975000Y-102825000D03*
X250975000Y-106925000D03*
D18*
X257800000Y-114550000D03*
X257300000Y-114550000D03*
X256800000Y-114550000D03*
X256300000Y-114550000D03*
X255800000Y-114550000D03*
X255300000Y-114550000D03*
X254800000Y-114550000D03*
X254300000Y-114550000D03*
X253800000Y-114550000D03*
X253300000Y-114550000D03*
X252800000Y-114550000D03*
X252300000Y-114550000D03*
X251800000Y-114550000D03*
X251300000Y-114550000D03*
X250800000Y-114550000D03*
X250300000Y-114550000D03*
D19*
X248350000Y-116500000D03*
X248350000Y-117000000D03*
X248350000Y-117500000D03*
X248350000Y-118000000D03*
X248350000Y-118500000D03*
X248350000Y-119000000D03*
X248350000Y-119500000D03*
X248350000Y-120000000D03*
X248350000Y-120500000D03*
X248350000Y-121000000D03*
X248350000Y-121500000D03*
X248350000Y-122000000D03*
X248350000Y-122500000D03*
X248350000Y-123000000D03*
X248350000Y-123500000D03*
X248350000Y-124000000D03*
D18*
X250300000Y-125950000D03*
X250800000Y-125950000D03*
X251300000Y-125950000D03*
X251800000Y-125950000D03*
X252300000Y-125950000D03*
X252800000Y-125950000D03*
X253300000Y-125950000D03*
X253800000Y-125950000D03*
X254300000Y-125950000D03*
X254800000Y-125950000D03*
X255300000Y-125950000D03*
X255800000Y-125950000D03*
X256300000Y-125950000D03*
X256800000Y-125950000D03*
X257300000Y-125950000D03*
X257800000Y-125950000D03*
D19*
X259750000Y-124000000D03*
X259750000Y-123500000D03*
X259750000Y-123000000D03*
X259750000Y-122500000D03*
X259750000Y-122000000D03*
X259750000Y-121500000D03*
X259750000Y-121000000D03*
X259750000Y-120500000D03*
X259750000Y-120000000D03*
X259750000Y-119500000D03*
X259750000Y-119000000D03*
X259750000Y-118500000D03*
X259750000Y-118000000D03*
X259750000Y-117500000D03*
X259750000Y-117000000D03*
X259750000Y-116500000D03*
D20*
X258250000Y-88540000D03*
X258250000Y-86000000D03*
X260250000Y-86000000D03*
X260250000Y-88540000D03*
D21*
X262950000Y-93270000D03*
X262950000Y-81270000D03*
D11*
X260564000Y-129538000D03*
X260564000Y-130538000D03*
X205994000Y-143256000D03*
X204216000Y-143256000D03*
X202438000Y-143256000D03*
X238100000Y-119000000D03*
X245618000Y-141478000D03*
X234696000Y-141478000D03*
X240284000Y-141478000D03*
X251206000Y-141478000D03*
X256794000Y-141478000D03*
X228800000Y-141450000D03*
X268800000Y-124300000D03*
X262128000Y-141478000D03*
D22*
X239600000Y-67875000D03*
X242500000Y-67875000D03*
D16*
X237330000Y-79075000D03*
X237330000Y-76535000D03*
X230980000Y-77805000D03*
X230980000Y-76535000D03*
X230980000Y-79075000D03*
D14*
X189430000Y-134030000D03*
D15*
X183130000Y-134030000D03*
X183130000Y-136330000D03*
X183130000Y-131730000D03*
D11*
X140970000Y-106680000D03*
D23*
X165950000Y-132500000D03*
X165950000Y-127100000D03*
D11*
X161950000Y-135450000D03*
X162950000Y-135450000D03*
X161950000Y-136450000D03*
X162950000Y-136450000D03*
X161950000Y-137450000D03*
X162950000Y-137450000D03*
X154350000Y-148550000D03*
X156350000Y-148550000D03*
X156300000Y-146150000D03*
X154300000Y-146150000D03*
X150200000Y-146150000D03*
X152200000Y-146150000D03*
X152250000Y-148550000D03*
X150250000Y-148550000D03*
X168050000Y-148550000D03*
X170050000Y-148550000D03*
X170000000Y-146150000D03*
X168000000Y-146150000D03*
X169900000Y-143600000D03*
X167900000Y-143600000D03*
X166100000Y-143600000D03*
X166200000Y-146150000D03*
X166250000Y-148550000D03*
X158450000Y-148550000D03*
X160450000Y-148550000D03*
X160400000Y-146150000D03*
X158400000Y-146150000D03*
X160300000Y-143600000D03*
X158300000Y-143600000D03*
X162100000Y-143600000D03*
X164100000Y-143600000D03*
X162200000Y-146150000D03*
X164200000Y-146150000D03*
X164250000Y-148550000D03*
X162250000Y-148550000D03*
X153950000Y-141050000D03*
X155950000Y-141050000D03*
X153900000Y-138650000D03*
X153800000Y-136100000D03*
X150000000Y-136100000D03*
X152000000Y-136100000D03*
X151950000Y-133700000D03*
X149950000Y-133700000D03*
X150100000Y-138650000D03*
X152100000Y-138650000D03*
X152150000Y-141050000D03*
X150150000Y-141050000D03*
D24*
X155650000Y-133300000D03*
X159050000Y-136400000D03*
X159050000Y-140700000D03*
D25*
X153200000Y-143600000D03*
D24*
X145350000Y-136400000D03*
X145350000Y-140700000D03*
D11*
X230950000Y-94939000D03*
D23*
X218300000Y-78400000D03*
X218300000Y-73000000D03*
D11*
X252000000Y-104900000D03*
X251050000Y-104870000D03*
X237300000Y-104083000D03*
X266850000Y-149100000D03*
X268850000Y-149100000D03*
X267850000Y-150100000D03*
X267800000Y-148300000D03*
X268800000Y-147300000D03*
X266800000Y-147300000D03*
X260200000Y-160150000D03*
X262200000Y-160150000D03*
X261200000Y-161150000D03*
X261250000Y-162950000D03*
X262250000Y-161950000D03*
X260250000Y-161950000D03*
X225000000Y-147200000D03*
X223000000Y-147200000D03*
X221000000Y-147200000D03*
X219000000Y-147200000D03*
X217000000Y-147200000D03*
X224000000Y-146200000D03*
X222000000Y-146200000D03*
X220000000Y-146200000D03*
X218000000Y-146200000D03*
X216000000Y-146200000D03*
X191600000Y-132900000D03*
X203962000Y-135636000D03*
X156200000Y-143600000D03*
X154200000Y-143600000D03*
X152200000Y-143600000D03*
X150200000Y-143600000D03*
X230950000Y-85033000D03*
X230950000Y-89859000D03*
X230950000Y-99575000D03*
X216150000Y-150700000D03*
X218150000Y-150700000D03*
X220150000Y-150700000D03*
X222150000Y-150700000D03*
X224150000Y-150700000D03*
X217150000Y-151700000D03*
X219150000Y-151700000D03*
X221150000Y-151700000D03*
X223150000Y-151700000D03*
X225150000Y-151700000D03*
X251200000Y-73220000D03*
X250200000Y-73220000D03*
X251200000Y-74100000D03*
X251200000Y-72220000D03*
X250200000Y-72220000D03*
X269200000Y-78320000D03*
D12*
X137700000Y-145930000D03*
X137700000Y-141970000D03*
D13*
X137700000Y-134050000D03*
D12*
X137700000Y-138010000D03*
D11*
X165950000Y-137450000D03*
X164950000Y-137450000D03*
X163950000Y-137450000D03*
X132890000Y-106570000D03*
X165950000Y-136450000D03*
X164950000Y-136450000D03*
X163950000Y-136450000D03*
X178950000Y-146600000D03*
X178850000Y-136350000D03*
X229600000Y-157150000D03*
X165950000Y-135450000D03*
X164950000Y-135450000D03*
X163950000Y-135450000D03*
X214140000Y-83520000D03*
X213140000Y-83520000D03*
X212140000Y-83520000D03*
X211140000Y-83520000D03*
X214140000Y-82520000D03*
X213140000Y-82520000D03*
X212140000Y-82520000D03*
X211140000Y-82520000D03*
X243750000Y-98975000D03*
X207740000Y-87170000D03*
X206740000Y-87170000D03*
X205740000Y-87170000D03*
X204740000Y-87170000D03*
X178940000Y-86970000D03*
X177940000Y-86970000D03*
X176940000Y-86970000D03*
X175940000Y-86970000D03*
X150790000Y-86920000D03*
X149790000Y-86920000D03*
X148790000Y-86920000D03*
X147790000Y-86920000D03*
X207740000Y-86170000D03*
X206740000Y-86170000D03*
X205740000Y-86170000D03*
X204740000Y-86170000D03*
X178940000Y-85970000D03*
X177940000Y-85970000D03*
X176940000Y-85970000D03*
X175940000Y-85970000D03*
X150790000Y-85920000D03*
X149790000Y-85920000D03*
X148790000Y-85920000D03*
X147790000Y-85920000D03*
X207740000Y-85170000D03*
X206740000Y-85170000D03*
X205740000Y-85170000D03*
X204740000Y-85170000D03*
X178940000Y-84970000D03*
X177940000Y-84970000D03*
X176940000Y-84970000D03*
X175940000Y-84970000D03*
X150790000Y-84920000D03*
X149790000Y-84920000D03*
X148790000Y-84920000D03*
D26*
X235900000Y-135650000D03*
X237900000Y-135650000D03*
D27*
X147700000Y-95950000D03*
X147700000Y-94450000D03*
D26*
X138900000Y-79400000D03*
X140900000Y-79400000D03*
D23*
X161200000Y-78400000D03*
X161200000Y-73000000D03*
D26*
X145978000Y-93288000D03*
X143978000Y-93288000D03*
D27*
X153500000Y-96050000D03*
X153500000Y-94550000D03*
D26*
X143978000Y-91256000D03*
X145978000Y-91256000D03*
D28*
X155000000Y-97000000D03*
X155000000Y-99000000D03*
D29*
X155000000Y-94700000D03*
D28*
X177950000Y-144850000D03*
X177950000Y-142850000D03*
X259900000Y-69000000D03*
X259900000Y-67000000D03*
X193240000Y-138390000D03*
X193240000Y-136390000D03*
X252950000Y-76300000D03*
X252950000Y-78300000D03*
X177900000Y-137700000D03*
X177900000Y-139700000D03*
X193230000Y-143070000D03*
X193230000Y-141070000D03*
D30*
X244450000Y-125450000D03*
X245950000Y-125450000D03*
D27*
X258850000Y-130050000D03*
X258850000Y-128550000D03*
D30*
X251625000Y-108925000D03*
X253125000Y-108925000D03*
D28*
X269450000Y-107750000D03*
X269450000Y-109750000D03*
D30*
X253125000Y-101225000D03*
X251625000Y-101225000D03*
D26*
X260350000Y-107550000D03*
X258350000Y-107550000D03*
D30*
X256050000Y-105580000D03*
X257550000Y-105580000D03*
D26*
X260350000Y-109600000D03*
X258350000Y-109600000D03*
D28*
X248250000Y-114350000D03*
X248250000Y-112350000D03*
D26*
X237250000Y-117000000D03*
X239250000Y-117000000D03*
D28*
X260550000Y-126050000D03*
X260550000Y-128050000D03*
D30*
X255850000Y-99430000D03*
X257350000Y-99430000D03*
D28*
X248250000Y-126200000D03*
X248250000Y-128200000D03*
D26*
X257800000Y-112050000D03*
X259800000Y-112050000D03*
X167400000Y-136400000D03*
X169400000Y-136400000D03*
D28*
X206170000Y-122860000D03*
X206170000Y-120860000D03*
D26*
X258000000Y-135750000D03*
X256000000Y-135750000D03*
X263450000Y-135750000D03*
X261450000Y-135750000D03*
D28*
X232700000Y-117900000D03*
X232700000Y-115900000D03*
D26*
X246950000Y-135800000D03*
X244950000Y-135800000D03*
X237200000Y-124750000D03*
X239200000Y-124750000D03*
X216950000Y-140800000D03*
X214950000Y-140800000D03*
D27*
X175700000Y-95750000D03*
X175700000Y-94250000D03*
D28*
X199136000Y-138192000D03*
X199136000Y-140192000D03*
D27*
X204600000Y-96550000D03*
X204600000Y-95050000D03*
D26*
X168200000Y-79300000D03*
X170200000Y-79300000D03*
X196700000Y-79600000D03*
X198700000Y-79600000D03*
D23*
X189300000Y-78400000D03*
X189300000Y-73000000D03*
D26*
X207756000Y-136906000D03*
X205756000Y-136906000D03*
X173946000Y-92942000D03*
X171946000Y-92942000D03*
X203162000Y-93696000D03*
X201162000Y-93696000D03*
D27*
X181400000Y-95850000D03*
X181400000Y-94350000D03*
X210500000Y-96550000D03*
X210500000Y-95050000D03*
D26*
X171946000Y-91164000D03*
X173946000Y-91164000D03*
X201162000Y-91664000D03*
X203162000Y-91664000D03*
D28*
X183100000Y-96400000D03*
X183100000Y-98400000D03*
X212100000Y-96600000D03*
X212100000Y-98600000D03*
D26*
X252350000Y-135800000D03*
X250350000Y-135800000D03*
D29*
X183100000Y-94500000D03*
X212100000Y-95000000D03*
D31*
X259100000Y-105700000D03*
X260600000Y-105700000D03*
X246100000Y-124150000D03*
X244600000Y-124150000D03*
D32*
X244700000Y-156450000D03*
X244700000Y-154950000D03*
X259800000Y-156350000D03*
X259800000Y-154850000D03*
X214400000Y-153750000D03*
X214400000Y-155250000D03*
D33*
X228700000Y-136500000D03*
X228700000Y-133600000D03*
D32*
X229600000Y-154650000D03*
X229600000Y-156150000D03*
X184800000Y-154750000D03*
X184800000Y-156250000D03*
D31*
X268500000Y-130720000D03*
X267000000Y-130720000D03*
X268500000Y-129220000D03*
X267000000Y-129220000D03*
X268500000Y-127720000D03*
X267000000Y-127720000D03*
X268500000Y-126220000D03*
X267000000Y-126220000D03*
D32*
X257350000Y-130000000D03*
X257350000Y-128500000D03*
X255800000Y-130000000D03*
X255800000Y-128500000D03*
D31*
X138090000Y-106620000D03*
X139590000Y-106620000D03*
X139590000Y-104370000D03*
X138090000Y-104370000D03*
D32*
X149700000Y-150800000D03*
X149700000Y-152300000D03*
D31*
X266650000Y-105600000D03*
X265150000Y-105600000D03*
D32*
X239250000Y-114850000D03*
X239250000Y-113350000D03*
X239200000Y-110600000D03*
X239200000Y-112100000D03*
X149600000Y-95750000D03*
X149600000Y-94250000D03*
X228300000Y-105850000D03*
X228300000Y-107350000D03*
D33*
X145550000Y-78050000D03*
X145550000Y-75150000D03*
D31*
X193310000Y-131140000D03*
X194810000Y-131140000D03*
D33*
X153300000Y-78050000D03*
X153300000Y-75150000D03*
X268450000Y-141350000D03*
X268450000Y-144250000D03*
X242700000Y-150650000D03*
X242700000Y-147750000D03*
D32*
X239250000Y-123050000D03*
X239250000Y-121550000D03*
X239250000Y-118700000D03*
X239250000Y-120200000D03*
D22*
X239700000Y-90775000D03*
X242600000Y-90775000D03*
X239700000Y-86075000D03*
X242600000Y-86075000D03*
X239700000Y-82175000D03*
X242600000Y-82175000D03*
X239700000Y-76600000D03*
X242600000Y-76600000D03*
X239650000Y-71800000D03*
X242550000Y-71800000D03*
D32*
X214900000Y-134550000D03*
X214900000Y-136050000D03*
X214900000Y-138850000D03*
X214900000Y-137350000D03*
D31*
X202450000Y-136906000D03*
X203950000Y-136906000D03*
D32*
X226900000Y-81850000D03*
X226900000Y-83350000D03*
X177600000Y-95650000D03*
X177600000Y-94150000D03*
X226900000Y-67650000D03*
X226900000Y-69150000D03*
X206600000Y-96450000D03*
X206600000Y-94950000D03*
D33*
X179600000Y-94350000D03*
X179600000Y-97250000D03*
X208400000Y-95150000D03*
X208400000Y-98050000D03*
X173600000Y-77250000D03*
X173600000Y-74350000D03*
X202300000Y-77050000D03*
X202300000Y-74150000D03*
X181300000Y-77250000D03*
X181300000Y-74350000D03*
X210100000Y-77050000D03*
X210100000Y-74150000D03*
D34*
X265400000Y-108550000D03*
X265400000Y-114050000D03*
D35*
X269150000Y-102600000D03*
X266650000Y-102600000D03*
X264150000Y-102600000D03*
X264150000Y-98300000D03*
X266650000Y-98300000D03*
X269150000Y-98300000D03*
D36*
X236460000Y-122810000D03*
X236460000Y-121540000D03*
X236460000Y-120270000D03*
X236460000Y-119000000D03*
X232650000Y-119000000D03*
X232650000Y-120270000D03*
X232650000Y-121540000D03*
X232650000Y-122810000D03*
D37*
X202168000Y-139684000D03*
X202168000Y-138684000D03*
X202168000Y-140684000D03*
X204168000Y-140684000D03*
X204168000Y-139684000D03*
X204168000Y-138684000D03*
D30*
X260250000Y-95850000D03*
X261750000Y-95850000D03*
X258600000Y-95800000D03*
X257100000Y-95800000D03*
D38*
X256700000Y-103980000D03*
X256700000Y-100980000D03*
D36*
X236510000Y-114635000D03*
X236510000Y-113365000D03*
X236510000Y-112095000D03*
X236510000Y-110825000D03*
X232700000Y-110825000D03*
X232700000Y-112095000D03*
X232700000Y-113365000D03*
X232700000Y-114635000D03*
D12*
X183340000Y-67630000D03*
X179380000Y-67630000D03*
D13*
X171460000Y-67630000D03*
D12*
X175420000Y-67630000D03*
X212180000Y-67600000D03*
X208220000Y-67600000D03*
D13*
X200300000Y-67600000D03*
D12*
X204260000Y-67600000D03*
D39*
X231220000Y-139730000D03*
X228680000Y-139730000D03*
X229950000Y-146080000D03*
X228680000Y-146080000D03*
X231220000Y-146080000D03*
D16*
X237330000Y-93325000D03*
X237330000Y-90785000D03*
X230980000Y-92055000D03*
X230980000Y-90785000D03*
X230980000Y-93325000D03*
X237330000Y-88575000D03*
X237330000Y-86035000D03*
X230980000Y-87305000D03*
X230980000Y-86035000D03*
X230980000Y-88575000D03*
X237330000Y-74325000D03*
X237330000Y-71785000D03*
X230980000Y-73055000D03*
X230980000Y-71785000D03*
X230980000Y-74325000D03*
D39*
X234680000Y-146070000D03*
X237220000Y-146070000D03*
X235950000Y-139720000D03*
X237220000Y-139720000D03*
X234680000Y-139720000D03*
D40*
X173740000Y-88920000D03*
X174390000Y-88920000D03*
X175040000Y-88920000D03*
X175690000Y-88920000D03*
X176340000Y-88920000D03*
X176990000Y-88920000D03*
X177640000Y-88920000D03*
X178290000Y-88920000D03*
X178940000Y-88920000D03*
X179590000Y-88920000D03*
X180240000Y-88920000D03*
X180890000Y-88920000D03*
X180890000Y-82920000D03*
X180240000Y-82920000D03*
X179590000Y-82920000D03*
X178940000Y-82920000D03*
X178290000Y-82920000D03*
X177640000Y-82920000D03*
X176990000Y-82920000D03*
X176340000Y-82920000D03*
X175690000Y-82920000D03*
X175040000Y-82920000D03*
X174390000Y-82920000D03*
X173740000Y-82920000D03*
D41*
X177340000Y-85920000D03*
D40*
X202640000Y-89120000D03*
X203290000Y-89120000D03*
X203940000Y-89120000D03*
X204590000Y-89120000D03*
X205240000Y-89120000D03*
X205890000Y-89120000D03*
X206540000Y-89120000D03*
X207190000Y-89120000D03*
X207840000Y-89120000D03*
X208490000Y-89120000D03*
X209140000Y-89120000D03*
X209790000Y-89120000D03*
X209790000Y-83120000D03*
X209140000Y-83120000D03*
X208490000Y-83120000D03*
X207840000Y-83120000D03*
X207190000Y-83120000D03*
X206540000Y-83120000D03*
X205890000Y-83120000D03*
X205240000Y-83120000D03*
X204590000Y-83120000D03*
X203940000Y-83120000D03*
X203290000Y-83120000D03*
X202640000Y-83120000D03*
D41*
X206240000Y-86120000D03*
D40*
X145690000Y-88870000D03*
X146340000Y-88870000D03*
X146990000Y-88870000D03*
X147640000Y-88870000D03*
X148290000Y-88870000D03*
X148940000Y-88870000D03*
X149590000Y-88870000D03*
X150240000Y-88870000D03*
X150890000Y-88870000D03*
X151540000Y-88870000D03*
X152190000Y-88870000D03*
X152840000Y-88870000D03*
X152840000Y-82870000D03*
X152190000Y-82870000D03*
X151540000Y-82870000D03*
X150890000Y-82870000D03*
X150240000Y-82870000D03*
X149590000Y-82870000D03*
X148940000Y-82870000D03*
X148290000Y-82870000D03*
X147640000Y-82870000D03*
X146990000Y-82870000D03*
X146340000Y-82870000D03*
X145690000Y-82870000D03*
D41*
X149290000Y-85870000D03*
D11*
X147790000Y-84920000D03*
D42*
X135810000Y-68630000D03*
X135750000Y-160300000D03*
X266950000Y-68820000D03*
X267100000Y-160400000D03*
D33*
X151500000Y-94450000D03*
X151500000Y-97350000D03*
D14*
X189570000Y-144250000D03*
D15*
X183270000Y-144250000D03*
X183270000Y-146550000D03*
X183270000Y-141950000D03*
D31*
X264350000Y-77150000D03*
X262850000Y-77150000D03*
D39*
X256705000Y-145970000D03*
X259245000Y-145970000D03*
X257975000Y-139620000D03*
X259245000Y-139620000D03*
X256705000Y-139620000D03*
X262155000Y-146020000D03*
X264695000Y-146020000D03*
X263425000Y-139670000D03*
X264695000Y-139670000D03*
X262155000Y-139670000D03*
X245630000Y-146095000D03*
X248170000Y-146095000D03*
X246900000Y-139745000D03*
X248170000Y-139745000D03*
X245630000Y-139745000D03*
X251155000Y-145995000D03*
X253695000Y-145995000D03*
X252425000Y-139645000D03*
X253695000Y-139645000D03*
X251155000Y-139645000D03*
X240155000Y-146145000D03*
X242695000Y-146145000D03*
X241425000Y-139795000D03*
X242695000Y-139795000D03*
X240155000Y-139795000D03*
D31*
X264350000Y-73950000D03*
X262850000Y-73950000D03*
X138115000Y-108620000D03*
X139615000Y-108620000D03*
D32*
X200660000Y-137148000D03*
X200660000Y-135648000D03*
X234800000Y-149100000D03*
X234800000Y-147600000D03*
X251175000Y-149725000D03*
X251175000Y-148225000D03*
X245700000Y-149775000D03*
X245700000Y-148275000D03*
X262200000Y-149900000D03*
X262200000Y-148400000D03*
X256700000Y-149850000D03*
X256700000Y-148350000D03*
X230200000Y-110550000D03*
X230200000Y-112050000D03*
X230200000Y-114850000D03*
X230200000Y-113350000D03*
D43*
X135000000Y-74000000D03*
X135825000Y-153675000D03*
X267800000Y-154350000D03*
X252050000Y-66650000D03*
D44*
X268850000Y-122800000D03*
D45*
X267580000Y-122800000D03*
X268850000Y-121530000D03*
X267580000Y-121530000D03*
X268850000Y-120260000D03*
X267580000Y-120260000D03*
X268850000Y-118990000D03*
X267580000Y-118990000D03*
X268850000Y-117720000D03*
X267580000Y-117720000D03*
D46*
X189798000Y-161544000D03*
D47*
X194798000Y-161544000D03*
D46*
X192298000Y-161544000D03*
X162620000Y-161544000D03*
D47*
X167620000Y-161544000D03*
D46*
X165120000Y-161544000D03*
D47*
X179812000Y-161544000D03*
D46*
X177312000Y-161544000D03*
D47*
X225024000Y-161544000D03*
D46*
X222524000Y-161544000D03*
D47*
X209784000Y-161544000D03*
D46*
X207284000Y-161544000D03*
D47*
X239910000Y-161650000D03*
D46*
X237410000Y-161650000D03*
D47*
X149840000Y-161544000D03*
D46*
X147340000Y-161544000D03*
D47*
X253980000Y-161544000D03*
D46*
X251480000Y-161544000D03*
D22*
X239150000Y-95750000D03*
X242050000Y-95750000D03*
X239100000Y-100750000D03*
X242000000Y-100750000D03*
X239650000Y-106100000D03*
X242550000Y-106100000D03*
D16*
X237320000Y-98245000D03*
X237320000Y-95705000D03*
X230970000Y-96975000D03*
X230970000Y-95705000D03*
X230970000Y-98245000D03*
D48*
X237300000Y-82145000D03*
X230300000Y-82145000D03*
X237300000Y-83415000D03*
X230300000Y-83415000D03*
X237325000Y-67870000D03*
X230325000Y-67870000D03*
X237325000Y-69140000D03*
X230325000Y-69140000D03*
X237400000Y-106145000D03*
X230400000Y-106145000D03*
X237400000Y-107415000D03*
X230400000Y-107415000D03*
D31*
X198470000Y-117500000D03*
X199970000Y-117500000D03*
D49*
X196595000Y-127020000D03*
X197245000Y-127020000D03*
X197895000Y-127020000D03*
X198545000Y-127020000D03*
X199195000Y-127020000D03*
X199845000Y-127020000D03*
X200495000Y-127020000D03*
X201145000Y-127020000D03*
X201795000Y-127020000D03*
X202445000Y-127020000D03*
X202445000Y-121120000D03*
X201795000Y-121120000D03*
X201145000Y-121120000D03*
X200495000Y-121120000D03*
X199845000Y-121120000D03*
X199195000Y-121120000D03*
X198545000Y-121120000D03*
X197895000Y-121120000D03*
X197245000Y-121120000D03*
X196595000Y-121120000D03*
D30*
X258150000Y-78350000D03*
X259650000Y-78350000D03*
D50*
X267975000Y-77125000D03*
X265875000Y-77125000D03*
X267925000Y-73925000D03*
X265825000Y-73925000D03*
X133850000Y-106600000D03*
X135950000Y-106600000D03*
X133850000Y-104725000D03*
X135950000Y-104725000D03*
X133825000Y-108575000D03*
X135925000Y-108575000D03*
D51*
X241900000Y-154550000D03*
X241900000Y-156650000D03*
X256925000Y-154750000D03*
X256925000Y-156850000D03*
X211600000Y-153775000D03*
X211600000Y-155875000D03*
X226775000Y-154525000D03*
X226775000Y-156625000D03*
X181900000Y-154775000D03*
X181900000Y-156875000D03*
M02*
