M48
;DRILL file {KiCad 4.0.1-stable} date 2018/02/20 17:04:29
;FORMAT={-:-/ absolute / inch / decimal}
FMAT,2
INCH,TZ
T1C0.012
T2C0.013
T3C0.020
T4C0.032
T5C0.035
T6C0.065
T7C0.091
%
G90
G05
M72
T1
X5.2264Y-4.9311
X5.3484Y-4.1299
X5.3484Y-4.1693
X5.3484Y-4.2087
X5.3878Y-4.1299
X5.3878Y-4.1693
X5.3878Y-4.2087
X5.4272Y-4.1299
X5.4272Y-4.1693
X5.4272Y-4.2087
X5.4665Y-4.1299
X5.4665Y-4.1693
X5.4665Y-4.2087
X5.5925Y-5.7539
X5.5925Y-5.8445
X5.626Y-4.4055
X5.6319Y-5.7933
X5.6319Y-5.8839
X5.6713Y-5.7539
X5.6713Y-5.8445
X5.6752Y-4.126
X5.6752Y-4.1654
X5.6752Y-4.2047
X5.687Y-4.8602
X5.687Y-4.9508
X5.689Y-5.0315
X5.7106Y-5.7933
X5.7106Y-5.8839
X5.7146Y-4.126
X5.7146Y-4.1654
X5.7146Y-4.2047
X5.7264Y-4.8996
X5.7264Y-4.9902
X5.7283Y-5.0709
X5.75Y-5.7539
X5.75Y-5.8445
X5.7539Y-4.126
X5.7539Y-4.1654
X5.7539Y-4.2047
X5.7657Y-4.8602
X5.7657Y-4.9508
X5.7677Y-5.0315
X5.7933Y-4.126
X5.7933Y-4.1654
X5.7933Y-4.2047
X5.8051Y-4.8996
X5.8051Y-4.9902
X5.8071Y-5.0709
X5.8445Y-4.8602
X5.8445Y-4.9508
X5.8465Y-5.0315
X5.8839Y-4.5217
X5.8839Y-4.8996
X5.8839Y-4.9902
X5.8858Y-5.0709
X5.8898Y-4.1319
X5.8898Y-4.1713
X5.9035Y-5.2638
X5.9055Y-5.3583
X5.9094Y-5.4587
X5.9114Y-5.5531
X5.9134Y-5.6535
X5.9134Y-5.7539
X5.9154Y-5.8484
X5.9232Y-4.4823
X5.9232Y-4.8602
X5.9232Y-4.9508
X5.9252Y-5.0315
X5.9291Y-4.1319
X5.9291Y-4.1713
X5.9626Y-4.5217
X5.9626Y-4.8996
X5.9626Y-4.9902
X5.9646Y-5.0709
X5.9685Y-4.1319
X5.9685Y-4.1713
X5.9823Y-5.2638
X5.9843Y-5.3583
X5.9882Y-5.4587
X5.9902Y-5.5531
X5.9921Y-5.6535
X5.9921Y-5.7539
X5.9941Y-5.8484
X6.002Y-4.4823
X6.0079Y-4.1319
X6.0079Y-4.1713
X6.0098Y-4.8602
X6.0098Y-4.9508
X6.0118Y-5.0315
X6.0413Y-4.5217
X6.0492Y-4.8996
X6.0492Y-4.9902
X6.0512Y-5.0709
X6.0551Y-5.3583
X6.0591Y-5.4587
X6.061Y-5.5531
X6.0709Y-5.6535
X6.0748Y-5.7539
X6.0768Y-5.8484
X6.0807Y-4.4823
X6.0886Y-4.8602
X6.0886Y-4.9508
X6.0906Y-5.0315
X6.1201Y-4.5217
X6.128Y-4.8996
X6.128Y-4.9902
X6.1299Y-5.0709
X6.1398Y-5.5531
X6.1496Y-5.6535
X6.1535Y-5.7539
X6.1555Y-5.8484
X6.1673Y-4.8602
X6.1673Y-4.9508
X6.1693Y-5.0315
X6.189Y-3.4823
X6.2067Y-4.8996
X6.2067Y-4.9902
X6.2087Y-5.0709
X6.2283Y-3.4823
X6.2323Y-5.6535
X6.2362Y-5.7539
X6.2382Y-5.8484
X6.2461Y-4.8602
X6.2461Y-4.9508
X6.248Y-5.0315
X6.2677Y-3.4823
X6.2854Y-4.8996
X6.2854Y-4.9902
X6.2874Y-5.0709
X6.311Y-5.6535
X6.315Y-5.7539
X6.3169Y-3.8602
X6.3169Y-3.8996
X6.3169Y-5.8484
X6.3248Y-4.8602
X6.3248Y-4.9508
X6.3268Y-5.0315
X6.3563Y-3.8602
X6.3563Y-3.8996
X6.376Y-5.3327
X6.376Y-5.372
X6.376Y-5.4114
X6.3819Y-5.6535
X6.3858Y-5.7539
X6.3878Y-5.8484
X6.4114Y-3.4823
X6.4154Y-5.3327
X6.4154Y-5.372
X6.4154Y-5.4114
X6.437Y-4.1476
X6.437Y-4.187
X6.437Y-4.2264
X6.4508Y-3.4823
X6.4547Y-5.3327
X6.4547Y-5.372
X6.4547Y-5.4114
X6.4606Y-5.6535
X6.4646Y-5.7539
X6.4665Y-5.8484
X6.4764Y-4.1476
X6.4764Y-4.187
X6.4764Y-4.2264
X6.4902Y-3.4823
X6.4941Y-5.3327
X6.4941Y-5.372
X6.4941Y-5.4114
X6.5138Y-4.0217
X6.5157Y-4.1476
X6.5157Y-4.187
X6.5157Y-4.2264
X6.5335Y-5.3327
X6.5335Y-5.372
X6.5335Y-5.4114
X6.5394Y-4.4331
X6.5394Y-5.6535
X6.5433Y-5.7539
X6.5453Y-5.8484
X6.5709Y-4.8661
X6.6024Y-4.1516
X6.6024Y-4.1909
X6.6024Y-4.2303
X6.6102Y-4.9055
X6.6102Y-5.6535
X6.6142Y-5.7539
X6.6161Y-5.8484
X6.6417Y-4.1516
X6.6417Y-4.1909
X6.6417Y-4.2303
X6.6437Y-4.8661
X6.6811Y-4.1516
X6.6811Y-4.1909
X6.6811Y-4.2303
X6.6831Y-4.9055
X6.689Y-5.6535
X6.6929Y-5.7539
X6.6949Y-5.8484
X6.7185Y-4.9528
X6.7185Y-5.0315
X6.7205Y-4.1516
X6.7205Y-4.1909
X6.7205Y-4.2303
X6.7224Y-4.8661
X6.7579Y-4.9921
X6.7579Y-5.0709
X6.7618Y-4.9055
X6.7894Y-4.1457
X6.7894Y-4.185
X6.7894Y-4.2244
X6.7972Y-4.9528
X6.7972Y-5.0315
X6.8012Y-4.8661
X6.8287Y-4.1457
X6.8287Y-4.185
X6.8287Y-4.2244
X6.8366Y-4.9921
X6.8366Y-5.0709
X6.8406Y-4.9055
X6.8681Y-4.1457
X6.8681Y-4.185
X6.8681Y-4.2244
X6.876Y-4.9528
X6.876Y-5.0315
X6.8799Y-4.8661
X6.9075Y-4.1457
X6.9075Y-4.185
X6.9075Y-4.2244
X6.9154Y-4.9921
X6.9154Y-5.0709
X6.9193Y-4.9055
X6.9547Y-4.9528
X6.9547Y-5.0315
X6.9587Y-4.8661
X6.9941Y-4.9921
X6.9941Y-5.0709
X6.998Y-4.9055
X7.0335Y-4.9528
X7.0335Y-5.0315
X7.0374Y-4.8661
X7.0413Y-5.3681
X7.0453Y-5.7717
X7.0728Y-4.9921
X7.0728Y-5.0709
X7.0768Y-4.9055
X7.1122Y-4.8622
X7.1122Y-4.9528
X7.1122Y-5.0315
X7.1516Y-4.9016
X7.1516Y-4.9921
X7.1516Y-5.0709
X7.185Y-4.8622
X7.185Y-4.9528
X7.185Y-5.0315
X7.2244Y-4.9016
X7.2244Y-4.9921
X7.2244Y-5.0709
X7.2579Y-4.3406
X7.2598Y-4.6043
X7.2638Y-4.8622
X7.2638Y-4.9528
X7.2638Y-5.0315
X7.2972Y-4.3799
X7.2992Y-4.6437
X7.3031Y-4.9016
X7.3031Y-4.9921
X7.3031Y-5.0709
X7.3366Y-3.878
X7.3366Y-3.9173
X7.3366Y-4.3406
X7.3366Y-4.4311
X7.3425Y-4.8622
X7.3425Y-4.9528
X7.3425Y-5.0315
X7.376Y-3.878
X7.376Y-3.9173
X7.376Y-4.1358
X7.376Y-4.1752
X7.376Y-4.2146
X7.376Y-4.3799
X7.376Y-4.4705
X7.3819Y-4.9016
X7.3819Y-4.9921
X7.3819Y-5.0709
X7.4154Y-4.1358
X7.4154Y-4.1752
X7.4154Y-4.2146
X7.4154Y-4.3406
X7.4154Y-4.4311
X7.4173Y-4.5138
X7.4213Y-4.8622
X7.4213Y-4.9528
X7.4213Y-5.0315
X7.4547Y-4.1358
X7.4547Y-4.1752
X7.4547Y-4.2146
X7.4606Y-4.9016
X7.4606Y-4.9921
X7.4606Y-5.0709
X7.4941Y-4.1358
X7.4941Y-4.1752
X7.4941Y-4.2146
X7.5Y-4.8622
X7.5Y-4.9528
X7.5Y-5.0315
X7.5394Y-4.9016
X7.5394Y-4.9921
X7.5394Y-5.0709
X7.5787Y-4.9528
X7.5787Y-5.0315
X7.5866Y-4.5295
X7.6181Y-4.9921
X7.6181Y-5.0709
X7.626Y-4.1398
X7.626Y-4.1791
X7.626Y-4.2185
X7.6654Y-4.1398
X7.6654Y-4.1791
X7.6654Y-4.2185
X7.7047Y-4.1398
X7.7047Y-4.1791
X7.7047Y-4.2185
X7.7362Y-5.0394
X7.7441Y-4.1398
X7.7441Y-4.1791
X7.7441Y-4.2185
X7.8386Y-4.1496
X7.8386Y-4.189
X7.8543Y-4.9232
X7.878Y-4.1496
X7.878Y-4.189
X7.8839Y-4.0571
X7.8996Y-4.4843
X7.9173Y-4.1496
X7.9173Y-4.189
X7.9193Y-5.
X7.9232Y-4.0571
X7.939Y-4.5236
X7.9449Y-5.3583
X7.9567Y-4.1496
X7.9567Y-4.189
X7.9626Y-4.0571
X7.9783Y-4.4843
X8.002Y-4.0571
X8.0079Y-4.7677
X8.0177Y-4.5236
X8.0413Y-4.0571
X8.0472Y-4.8071
X8.0866Y-4.7677
X8.0886Y-5.1063
X8.1122Y-4.622
X8.1122Y-4.7126
X8.126Y-4.8071
X8.1378Y-5.0197
X8.1516Y-4.6614
X8.1654Y-4.7677
X8.1673Y-5.1063
X8.185Y-4.2953
X8.1909Y-4.622
X8.1909Y-4.7126
X8.1949Y-3.4862
X8.2047Y-4.8071
X8.2067Y-5.1457
X8.2146Y-4.9134
X8.2146Y-4.9803
X8.2244Y-4.3346
X8.2303Y-4.6614
X8.2343Y-3.4862
X8.2441Y-4.7677
X8.2638Y-4.2953
X8.2697Y-4.622
X8.2697Y-4.7126
X8.2736Y-3.4862
X8.2835Y-4.8071
X8.3031Y-4.3346
X8.3091Y-4.6614
X8.313Y-3.4862
X8.3228Y-4.7677
X8.3228Y-5.063
X8.3425Y-4.2953
X8.3484Y-4.622
X8.3484Y-4.7126
X8.3622Y-4.8071
X8.3622Y-5.1024
X8.3819Y-4.3346
X8.3976Y-3.8642
X8.3976Y-3.9035
X8.4016Y-5.063
X8.4035Y-4.9114
X8.4213Y-4.2953
X8.437Y-3.8642
X8.437Y-3.9035
X8.4409Y-5.1024
X8.498Y-3.4882
X8.5039Y-5.7559
X8.5098Y-5.9331
X8.5374Y-3.4882
X8.5433Y-5.7953
X8.5492Y-5.9724
X8.5512Y-5.2736
X8.5768Y-3.4882
X8.5827Y-5.7559
X8.5886Y-5.9331
X8.622Y-5.7953
X8.628Y-5.9724
X8.6614Y-5.7559
X8.6673Y-5.9331
X8.7008Y-5.2736
X8.7008Y-5.7953
X8.7067Y-5.9724
X8.7402Y-5.7559
X8.7461Y-5.9331
X8.7618Y-5.4665
X8.7638Y-5.2421
X8.7795Y-5.7953
X8.7854Y-5.9724
X8.7913Y-3.8189
X8.8189Y-5.7559
X8.8248Y-5.9331
X8.8406Y-3.9035
X8.8583Y-5.7953
X8.8642Y-5.9724
X8.8799Y-3.9429
X8.9193Y-3.9035
X8.9291Y-5.4213
X8.9587Y-3.9429
X8.9606Y-3.8189
X8.9685Y-5.3819
X8.9941Y-3.9035
X9.0079Y-5.4213
X9.0335Y-3.9429
X9.0394Y-6.187
X9.0492Y-5.2264
X9.0689Y-4.1732
X9.0984Y-4.8169
X9.1083Y-4.2126
X9.1476Y-4.1732
X9.2382Y-5.4311
X9.3189Y-4.6831
X9.3366Y-4.4606
X9.3543Y-4.6772
X9.3602Y-4.1083
X9.3917Y-5.0728
X9.3937Y-5.1319
X9.3937Y-5.1929
X9.3957Y-5.2618
X9.3976Y-4.0886
X9.4311Y-5.1122
X9.4331Y-5.1713
X9.4331Y-5.2323
X9.4547Y-5.4331
X9.4665Y-5.8465
X9.5059Y-5.8858
X9.5453Y-5.8465
X9.5709Y-4.8898
X9.5709Y-4.9508
X9.5728Y-5.0098
X9.5728Y-5.0709
X9.5846Y-5.8858
X9.6102Y-4.9291
X9.6102Y-4.9902
X9.6122Y-5.0492
X9.6122Y-5.1102
X9.6516Y-4.0374
X9.6594Y-5.4331
X9.7106Y-4.626
X9.8051Y-3.9311
X9.8051Y-3.9685
X9.8602Y-4.8248
X9.878Y-5.4311
X9.8996Y-4.8642
X9.9409Y-4.9016
X9.9547Y-4.0394
X9.9803Y-4.9409
X9.9941Y-4.0787
X10.0217Y-4.9803
X10.0335Y-4.0394
X10.061Y-5.0197
X10.0945Y-5.4291
X10.1496Y-3.5315
X10.1496Y-3.5709
X10.1594Y-4.872
X10.189Y-3.5315
X10.189Y-3.5709
X10.1988Y-4.9114
X10.2283Y-3.5315
X10.2283Y-3.5709
X10.2382Y-4.8642
X10.2441Y-6.3051
X10.2461Y-6.376
X10.25Y-4.9626
X10.2776Y-4.9035
X10.2835Y-6.3445
X10.2854Y-6.4154
X10.2894Y-5.002
X10.311Y-5.4291
X10.3228Y-6.3051
X10.3248Y-6.376
X10.3287Y-4.9547
X10.3327Y-5.0413
X10.3681Y-4.9941
X10.372Y-5.0807
X10.3976Y-4.9528
X10.3976Y-5.0374
X10.437Y-4.9921
X10.437Y-5.0768
X10.4449Y-5.1654
X10.4449Y-5.25
X10.4469Y-5.3307
X10.4469Y-5.4154
X10.4764Y-4.9528
X10.4764Y-5.0374
X10.4843Y-5.126
X10.4843Y-5.2106
X10.4862Y-5.2913
X10.4862Y-5.376
X10.5039Y-5.7992
X10.5059Y-5.8701
X10.5157Y-4.9921
X10.5157Y-5.0768
X10.5236Y-5.1654
X10.5236Y-5.25
X10.5256Y-5.3307
X10.5256Y-5.4154
X10.5433Y-5.8386
X10.5453Y-5.9094
X10.5551Y-4.9528
X10.5551Y-5.0374
X10.563Y-5.126
X10.563Y-5.2106
X10.565Y-5.2913
X10.565Y-5.376
X10.5827Y-5.7992
X10.5846Y-5.8701
X10.5945Y-4.9921
X10.5945Y-5.0768
X10.6024Y-5.1654
X10.6024Y-5.25
X10.6043Y-5.3307
X10.6043Y-5.4154
T2
X5.4469Y-3.9469
X5.6228Y-4.7156
X5.6988Y-3.9902
X5.7402Y-4.3543
X5.7405Y-4.695
X5.7697Y-4.3346
X5.7726Y-3.9931
X5.7854Y-4.4035
X5.8195Y-4.7706
X5.844Y-4.1683
X5.8482Y-3.968
X5.874Y-4.6772
X5.8829Y-3.9154
X5.9705Y-4.6752
X6.2264Y-4.5236
X6.2835Y-4.4823
X6.3106Y-4.2664
X6.4252Y-3.9469
X6.4803Y-4.0512
X6.5197Y-6.2618
X6.5768Y-3.9469
X6.6593Y-4.3765
X6.7077Y-3.9452
X6.7693Y-4.3909
X6.7771Y-4.3584
X6.7838Y-3.9722
X6.89Y-3.9722
X7.0472Y-4.5217
X7.1378Y-4.4291
X7.2836Y-5.9332
X7.5098Y-3.9823
X7.5153Y-5.7245
X7.5492Y-5.3327
X7.5691Y-4.1187
X7.5754Y-5.9332
X7.6175Y-6.0588
X7.6437Y-4.0039
X7.6693Y-4.363
X7.6995Y-4.3447
X7.7069Y-4.3706
X7.7224Y-4.0138
X7.7935Y-4.3776
X7.8091Y-4.0098
X7.8643Y-4.6079
X7.9035Y-3.9656
X7.9783Y-5.1831
X7.9826Y-5.4478
X8.0151Y-5.2798
X8.0315Y-5.1988
X8.0737Y-5.2701
X8.1146Y-5.5531
X8.248Y-4.0276
X8.3844Y-6.1478
X8.4487Y-3.9722
X8.452Y-5.4358
X8.4528Y-4.7579
X8.4569Y-4.9399
X8.4951Y-5.358
X8.8143Y-5.3311
X8.8587Y-5.365
X8.9409Y-5.7224
X8.9782Y-6.1359
X9.0505Y-5.1304
X9.0512Y-5.7894
X9.0693Y-5.2819
X9.0716Y-4.6295
X9.0845Y-4.5835
X9.0922Y-5.0881
X9.2216Y-4.2656
X9.2347Y-3.7536
X9.2401Y-4.3228
X9.2734Y-4.9809
X9.3184Y-4.378
X9.3335Y-4.2291
X9.3686Y-4.7576
X9.4179Y-4.6471
X9.4377Y-4.6311
X9.4479Y-5.7028
X9.4535Y-3.6579
X9.4635Y-4.5432
X9.4783Y-4.1129
X9.5059Y-5.3966
X9.5072Y-4.0906
X9.542Y-4.3547
X9.5453Y-3.8853
X9.5611Y-6.1684
X9.6531Y-4.2722
X9.6715Y-4.4409
X9.6828Y-5.1877
X9.6855Y-4.2593
X9.6972Y-4.3644
X9.762Y-4.5374
X9.7672Y-4.3794
X9.7685Y-4.4063
X9.8337Y-3.8858
X9.9089Y-5.1553
X9.935Y-5.8071
X10.0641Y-5.1573
X10.1555Y-5.7356
T3
X5.3465Y-3.8268
X5.3524Y-5.9961
X6.1831Y-4.3839
X7.1378Y-4.4291
X8.1063Y-4.4291
X9.7126Y-3.5157
X9.7126Y-3.5551
X9.752Y-3.5157
X9.752Y-3.5551
X9.7913Y-3.5157
X9.7913Y-3.5551
X9.8307Y-3.5157
X9.8307Y-3.5551
X9.8701Y-3.5157
X9.8701Y-3.5551
X10.5118Y-3.9862
X10.5472Y-6.0256
T4
X10.0866Y-4.2835
X10.0866Y-4.3835
X10.1654Y-4.2835
X10.1654Y-4.3835
T5
X5.4213Y-5.7453
T6
X5.4213Y-5.2776
X5.4213Y-5.4335
X5.4213Y-5.5894
X5.4213Y-5.7453
X5.6181Y-3.5551
X5.774Y-3.5551
X5.9299Y-3.5551
X6.0858Y-3.5551
X6.6024Y-3.5551
X6.7583Y-3.5551
X6.9142Y-3.5551
X7.0701Y-3.5551
X7.6063Y-3.5551
X7.7622Y-3.5551
X7.9181Y-3.5551
X8.074Y-3.5551
T7
X10.2717Y-4.0972
X10.2717Y-4.5697
T0
M30
