G04 #@! TF.FileFunction,Soldermask,Bot*
%FSLAX46Y46*%
G04 Gerber Fmt 4.6, Leading zero omitted, Abs format (unit mm)*
G04 Created by KiCad (PCBNEW 4.0.1-stable) date 2018/02/20 17:04:27*
%MOMM*%
G01*
G04 APERTURE LIST*
%ADD10C,0.150000*%
%ADD11C,1.000000*%
%ADD12C,0.400000*%
%ADD13C,1.900000*%
%ADD14R,1.900000X1.900000*%
%ADD15R,0.850000X0.850000*%
%ADD16O,0.850000X0.850000*%
%ADD17C,1.520000*%
%ADD18C,2.700000*%
%ADD19C,3.200000*%
G04 APERTURE END LIST*
D10*
D11*
X265550000Y-160500000D02*
X268700000Y-160500000D01*
X265550000Y-159850000D02*
X265550000Y-160500000D01*
X268750000Y-159850000D02*
X265550000Y-159850000D01*
X268750000Y-160400000D02*
X268750000Y-159850000D01*
X268750000Y-161750000D02*
X268750000Y-160400000D01*
X265850000Y-161750000D02*
X268750000Y-161750000D01*
X265850000Y-159100000D02*
X265850000Y-161750000D01*
X269200000Y-159100000D02*
X265850000Y-159100000D01*
X269200000Y-162400000D02*
X269200000Y-159100000D01*
X265150000Y-162400000D02*
X269200000Y-162400000D01*
X265150000Y-158350000D02*
X265150000Y-162400000D01*
X269900000Y-158350000D02*
X265150000Y-158350000D01*
X269900000Y-163000000D02*
X269900000Y-158350000D01*
X264450000Y-163000000D02*
X269900000Y-163000000D01*
X264450000Y-157600000D02*
X264450000Y-163000000D01*
X270700000Y-157600000D02*
X264450000Y-157600000D01*
X270700000Y-163850000D02*
X270700000Y-157600000D01*
X263700000Y-163850000D02*
X270700000Y-163850000D01*
X263700000Y-156800000D02*
X263700000Y-163850000D01*
X270650000Y-156800000D02*
X263700000Y-156800000D01*
X270650000Y-163700000D02*
X270650000Y-156800000D01*
X268350000Y-91200000D02*
X266650000Y-91200000D01*
X268350000Y-91800000D02*
X268350000Y-91200000D01*
X266500000Y-91800000D02*
X268350000Y-91800000D01*
X266500000Y-90650000D02*
X266500000Y-91800000D01*
X268650000Y-90650000D02*
X266500000Y-90650000D01*
X268650000Y-92800000D02*
X268650000Y-90650000D01*
X265800000Y-92800000D02*
X268650000Y-92800000D01*
X265800000Y-90000000D02*
X265800000Y-92800000D01*
X269200000Y-90000000D02*
X265800000Y-90000000D01*
X269200000Y-93400000D02*
X269200000Y-90000000D01*
X265250000Y-93400000D02*
X269200000Y-93400000D01*
X265250000Y-89350000D02*
X265250000Y-93400000D01*
X269900000Y-89350000D02*
X265250000Y-89350000D01*
X269900000Y-94150000D02*
X269900000Y-89350000D01*
X264450000Y-94150000D02*
X269900000Y-94150000D01*
X264450000Y-88650000D02*
X264450000Y-94150000D01*
X270750000Y-88650000D02*
X264450000Y-88650000D01*
X270750000Y-87800000D02*
X270750000Y-88650000D01*
X263700000Y-87800000D02*
X270750000Y-87800000D01*
X263700000Y-94800000D02*
X263700000Y-87800000D01*
X270700000Y-94800000D02*
X263700000Y-94800000D01*
X270700000Y-87900000D02*
X270700000Y-94800000D01*
X136550000Y-160550000D02*
X134850000Y-160550000D01*
X136550000Y-160100000D02*
X136550000Y-160550000D01*
X134500000Y-160100000D02*
X136550000Y-160100000D01*
X134500000Y-161500000D02*
X134500000Y-160100000D01*
X137250000Y-161500000D02*
X134500000Y-161500000D01*
X137250000Y-159450000D02*
X137250000Y-161500000D01*
X134050000Y-159450000D02*
X137250000Y-159450000D01*
X134050000Y-162300000D02*
X134050000Y-159450000D01*
X137950000Y-162300000D02*
X134050000Y-162300000D01*
X137950000Y-158550000D02*
X137950000Y-162300000D01*
X133350000Y-158550000D02*
X137950000Y-158550000D01*
X133350000Y-163150000D02*
X133350000Y-158550000D01*
X138550000Y-163150000D02*
X133350000Y-163150000D01*
X138550000Y-157800000D02*
X138550000Y-163150000D01*
X132650000Y-157800000D02*
X138550000Y-157800000D01*
X132650000Y-163850000D02*
X132650000Y-157800000D01*
X139200000Y-163850000D02*
X132650000Y-163850000D01*
X139200000Y-156800000D02*
X139200000Y-163850000D01*
X132200000Y-156800000D02*
X139200000Y-156800000D01*
X132200000Y-163800000D02*
X132200000Y-156800000D01*
X136200000Y-91050000D02*
X138550000Y-88700000D01*
X136700000Y-91550000D02*
X136200000Y-91050000D01*
X135300000Y-91550000D02*
X136700000Y-91550000D01*
X135300000Y-90150000D02*
X135300000Y-91550000D01*
X136850000Y-90150000D02*
X135300000Y-90150000D01*
X136850000Y-92550000D02*
X136850000Y-90150000D01*
X134550000Y-92550000D02*
X136850000Y-92550000D01*
X134550000Y-89400000D02*
X134550000Y-92550000D01*
X137550000Y-89400000D02*
X134550000Y-89400000D01*
X137550000Y-93200000D02*
X137550000Y-89400000D01*
X133750000Y-93200000D02*
X137550000Y-93200000D01*
X133750000Y-88600000D02*
X133750000Y-93200000D01*
X138250000Y-88600000D02*
X133750000Y-88600000D01*
X138250000Y-94050000D02*
X138250000Y-88600000D01*
X133050000Y-94050000D02*
X138250000Y-94050000D01*
X133050000Y-88400000D02*
X133050000Y-94050000D01*
X139150000Y-87750000D02*
X132250000Y-87750000D01*
X139150000Y-94800000D02*
X139150000Y-87750000D01*
X132200000Y-94800000D02*
X139150000Y-94800000D01*
X132200000Y-88000000D02*
X132200000Y-94800000D01*
D12*
X201150000Y-127000000D03*
X196500000Y-128000000D03*
X199500000Y-125050000D03*
X161950000Y-135450000D03*
X162950000Y-135450000D03*
X161950000Y-136450000D03*
X162950000Y-136450000D03*
X161950000Y-137450000D03*
X162950000Y-137450000D03*
X154350000Y-148550000D03*
X156350000Y-148550000D03*
X156300000Y-146150000D03*
X154300000Y-146150000D03*
X150200000Y-146150000D03*
X152200000Y-146150000D03*
X152250000Y-148550000D03*
X150250000Y-148550000D03*
X168050000Y-148550000D03*
X170050000Y-148550000D03*
X170000000Y-146150000D03*
X168000000Y-146150000D03*
X169900000Y-143600000D03*
X167900000Y-143600000D03*
X166100000Y-143600000D03*
X166200000Y-146150000D03*
X166250000Y-148550000D03*
X158450000Y-148550000D03*
X160450000Y-148550000D03*
X160400000Y-146150000D03*
X158400000Y-146150000D03*
X160300000Y-143600000D03*
X158300000Y-143600000D03*
X162100000Y-143600000D03*
X164100000Y-143600000D03*
X162200000Y-146150000D03*
X164200000Y-146150000D03*
X164250000Y-148550000D03*
X162250000Y-148550000D03*
X153950000Y-141050000D03*
X155950000Y-141050000D03*
X153900000Y-138650000D03*
X153800000Y-136100000D03*
X150000000Y-136100000D03*
X152000000Y-136100000D03*
X151950000Y-133700000D03*
X149950000Y-133700000D03*
X150100000Y-138650000D03*
X152100000Y-138650000D03*
X152150000Y-141050000D03*
X150150000Y-141050000D03*
X243450000Y-149500000D03*
X241450000Y-149500000D03*
X242450000Y-148500000D03*
X240450000Y-148500000D03*
X159700000Y-128800000D03*
X157700000Y-128800000D03*
X155700000Y-128800000D03*
X153700000Y-128800000D03*
X160700000Y-127800000D03*
X158700000Y-127800000D03*
X156700000Y-127800000D03*
X154700000Y-127800000D03*
X152700000Y-127800000D03*
X144500000Y-127800000D03*
X146500000Y-127800000D03*
X148500000Y-127800000D03*
X150500000Y-127800000D03*
X145500000Y-128800000D03*
X147500000Y-128800000D03*
X149500000Y-128800000D03*
X151500000Y-128800000D03*
X165450000Y-102150000D03*
X217200000Y-133950000D03*
X262350000Y-125850000D03*
X263350000Y-126850000D03*
X261350000Y-127050000D03*
X260350000Y-126050000D03*
X258050000Y-123750000D03*
X259050000Y-124750000D03*
X159200000Y-88450000D03*
X158200000Y-88450000D03*
X157200000Y-88450000D03*
X162850000Y-88450000D03*
X163850000Y-88450000D03*
X164850000Y-88450000D03*
X217850000Y-88600000D03*
X216850000Y-88600000D03*
X215850000Y-88600000D03*
X208150000Y-88550000D03*
X209150000Y-88550000D03*
X210150000Y-88550000D03*
X211150000Y-88550000D03*
X238650000Y-133650000D03*
X239550000Y-129850000D03*
X238550000Y-128850000D03*
X238600000Y-131900000D03*
X239600000Y-132900000D03*
X239600000Y-131350000D03*
X238600000Y-130350000D03*
X243150000Y-127250000D03*
X244150000Y-128250000D03*
X244150000Y-129800000D03*
X243150000Y-128800000D03*
X243100000Y-125750000D03*
X244100000Y-126750000D03*
X254550000Y-126500000D03*
X255550000Y-127500000D03*
X253500000Y-125500000D03*
X252500000Y-124500000D03*
X250450000Y-122550000D03*
X251450000Y-123550000D03*
X266350000Y-136550000D03*
X268350000Y-136550000D03*
X265350000Y-137550000D03*
X267350000Y-137550000D03*
X269350000Y-137550000D03*
X269350000Y-135400000D03*
X267350000Y-135400000D03*
X265350000Y-135400000D03*
X268350000Y-134400000D03*
X266350000Y-134400000D03*
X266300000Y-130200000D03*
X268300000Y-130200000D03*
X265300000Y-131200000D03*
X267300000Y-131200000D03*
X269300000Y-131200000D03*
X269300000Y-133350000D03*
X267300000Y-133350000D03*
X265300000Y-133350000D03*
X268300000Y-132350000D03*
X266300000Y-132350000D03*
X261050000Y-124550000D03*
X244100000Y-125200000D03*
X260050000Y-123550000D03*
X243100000Y-124200000D03*
X230350000Y-106000000D03*
X232350000Y-106000000D03*
X231350000Y-107000000D03*
X228450000Y-99150000D03*
X229450000Y-100150000D03*
X227550000Y-100150000D03*
X225550000Y-100150000D03*
X226550000Y-99150000D03*
X224550000Y-99150000D03*
X237150000Y-113300000D03*
X263450000Y-129050000D03*
X262450000Y-128050000D03*
X227800000Y-136700000D03*
X226800000Y-137700000D03*
X228800000Y-137700000D03*
X264100000Y-127950000D03*
X266100000Y-127950000D03*
X268100000Y-127950000D03*
X265100000Y-128950000D03*
X267100000Y-128950000D03*
X269100000Y-128950000D03*
X249050000Y-100800000D03*
X249050000Y-99850000D03*
X252850000Y-102600000D03*
X254850000Y-102600000D03*
X253850000Y-103600000D03*
X238700000Y-103850000D03*
X193500000Y-128800000D03*
X191500000Y-128800000D03*
X189500000Y-128800000D03*
X187500000Y-128800000D03*
X185500000Y-128800000D03*
X183500000Y-128800000D03*
X192500000Y-127800000D03*
X190500000Y-127800000D03*
X188500000Y-127800000D03*
X186500000Y-127800000D03*
X184500000Y-127800000D03*
X182500000Y-127800000D03*
X170650000Y-127800000D03*
X172650000Y-127800000D03*
X174650000Y-127800000D03*
X176650000Y-127800000D03*
X178650000Y-127800000D03*
X180650000Y-127800000D03*
X171650000Y-128800000D03*
X173650000Y-128800000D03*
X175650000Y-128800000D03*
X177650000Y-128800000D03*
X179650000Y-128800000D03*
X181650000Y-128800000D03*
X168750000Y-123600000D03*
X170750000Y-123600000D03*
X172750000Y-123600000D03*
X174750000Y-123600000D03*
X176750000Y-123600000D03*
X178750000Y-123600000D03*
X169750000Y-124600000D03*
X171750000Y-124600000D03*
X173750000Y-124600000D03*
X175750000Y-124600000D03*
X177750000Y-124600000D03*
X179750000Y-124600000D03*
X167900000Y-124600000D03*
X166900000Y-123600000D03*
X213450000Y-124750000D03*
X208650000Y-124800000D03*
X208650000Y-126500000D03*
X208450000Y-130700000D03*
X201800000Y-136100000D03*
X207450000Y-129700000D03*
X205450000Y-129700000D03*
X211400000Y-128600000D03*
X213400000Y-128600000D03*
X212400000Y-129600000D03*
X214400000Y-129600000D03*
X203650000Y-114900000D03*
X201650000Y-114900000D03*
X202650000Y-113900000D03*
X200650000Y-113900000D03*
X207900000Y-109100000D03*
X209900000Y-109100000D03*
X211900000Y-109100000D03*
X213900000Y-109100000D03*
X208900000Y-110100000D03*
X210900000Y-110100000D03*
X212900000Y-110100000D03*
X266850000Y-149100000D03*
X268850000Y-149100000D03*
X267850000Y-150100000D03*
X267800000Y-148300000D03*
X268800000Y-147300000D03*
X266800000Y-147300000D03*
X260200000Y-160150000D03*
X262200000Y-160150000D03*
X261200000Y-161150000D03*
X261250000Y-162950000D03*
X262250000Y-161950000D03*
X260250000Y-161950000D03*
X225000000Y-147200000D03*
X223000000Y-147200000D03*
X221000000Y-147200000D03*
X219000000Y-147200000D03*
X217000000Y-147200000D03*
X224000000Y-146200000D03*
X222000000Y-146200000D03*
X220000000Y-146200000D03*
X218000000Y-146200000D03*
X216000000Y-146200000D03*
X212400000Y-122100000D03*
X210400000Y-122100000D03*
X208400000Y-122100000D03*
X206400000Y-122100000D03*
X204400000Y-122100000D03*
X211400000Y-121100000D03*
X209400000Y-121100000D03*
X207400000Y-121100000D03*
X205400000Y-121100000D03*
X203400000Y-121100000D03*
X206050000Y-119700000D03*
X208050000Y-119700000D03*
X210050000Y-119700000D03*
X212050000Y-119700000D03*
X211050000Y-118400000D03*
X209050000Y-118400000D03*
X207050000Y-118400000D03*
X212050000Y-117400000D03*
X210050000Y-117400000D03*
X208050000Y-117400000D03*
X206050000Y-117400000D03*
X144450000Y-123450000D03*
X146450000Y-123450000D03*
X148450000Y-123450000D03*
X150450000Y-123450000D03*
X145450000Y-124450000D03*
X147450000Y-124450000D03*
X149450000Y-124450000D03*
X151450000Y-124450000D03*
X151450000Y-126750000D03*
X149450000Y-126750000D03*
X147450000Y-126750000D03*
X145450000Y-126750000D03*
X150450000Y-125750000D03*
X148450000Y-125750000D03*
X146450000Y-125750000D03*
X144450000Y-125750000D03*
X156200000Y-143600000D03*
X154200000Y-143600000D03*
X152200000Y-143600000D03*
X150200000Y-143600000D03*
X142050000Y-148450000D03*
X144050000Y-148450000D03*
X146050000Y-148450000D03*
X143050000Y-149450000D03*
X145050000Y-149450000D03*
X145050000Y-147150000D03*
X143050000Y-147150000D03*
X146050000Y-146150000D03*
X144050000Y-146150000D03*
X142050000Y-146150000D03*
X152650000Y-125750000D03*
X154650000Y-125750000D03*
X156650000Y-125750000D03*
X158650000Y-125750000D03*
X160650000Y-125750000D03*
X153650000Y-126750000D03*
X155650000Y-126750000D03*
X157650000Y-126750000D03*
X159650000Y-126750000D03*
X159650000Y-124450000D03*
X157650000Y-124450000D03*
X155650000Y-124450000D03*
X153650000Y-124450000D03*
X160650000Y-123450000D03*
X158650000Y-123450000D03*
X156650000Y-123450000D03*
X154650000Y-123450000D03*
X152650000Y-123450000D03*
X184350000Y-110250000D03*
X186350000Y-110250000D03*
X188350000Y-110250000D03*
X185350000Y-111250000D03*
X187350000Y-111250000D03*
X187350000Y-113550000D03*
X188350000Y-112550000D03*
X186350000Y-112550000D03*
X184400000Y-116950000D03*
X185400000Y-117950000D03*
X188400000Y-114650000D03*
X216150000Y-150700000D03*
X218150000Y-150700000D03*
X220150000Y-150700000D03*
X222150000Y-150700000D03*
X224150000Y-150700000D03*
X180650000Y-123500000D03*
X217150000Y-151700000D03*
X219150000Y-151700000D03*
X221150000Y-151700000D03*
X223150000Y-151700000D03*
X225150000Y-151700000D03*
X181650000Y-124500000D03*
X181650000Y-126800000D03*
X179650000Y-126800000D03*
X177650000Y-126800000D03*
X175650000Y-126800000D03*
X173650000Y-126800000D03*
X171650000Y-126800000D03*
X180650000Y-125800000D03*
X178650000Y-125800000D03*
X176650000Y-125800000D03*
X174650000Y-125800000D03*
X172650000Y-125800000D03*
X170650000Y-125800000D03*
X182500000Y-125800000D03*
X184500000Y-125800000D03*
X186500000Y-125800000D03*
X188500000Y-125800000D03*
X190500000Y-125800000D03*
X192500000Y-125800000D03*
X183500000Y-126800000D03*
X185500000Y-126800000D03*
X187500000Y-126800000D03*
X189500000Y-126800000D03*
X191500000Y-126800000D03*
X193500000Y-126800000D03*
X151450000Y-114850000D03*
X191500000Y-124500000D03*
X189500000Y-124500000D03*
X187500000Y-124500000D03*
X185500000Y-124500000D03*
X183500000Y-124500000D03*
X155450000Y-114850000D03*
X153450000Y-114850000D03*
X149450000Y-114850000D03*
X190500000Y-123500000D03*
X188500000Y-123500000D03*
X186500000Y-123500000D03*
X184500000Y-123500000D03*
X182500000Y-123500000D03*
X154450000Y-113850000D03*
X152450000Y-113850000D03*
X150450000Y-113850000D03*
X259800000Y-90700000D03*
X258800000Y-90700000D03*
X257800000Y-90700000D03*
X246650000Y-117500000D03*
X245150000Y-102550000D03*
X229850000Y-132750000D03*
X222600000Y-133150000D03*
X261900000Y-137900000D03*
X250900000Y-137950000D03*
X259800000Y-89700000D03*
X258800000Y-89700000D03*
X257800000Y-89700000D03*
X237600000Y-118800000D03*
X231100000Y-122350000D03*
X237750000Y-104350000D03*
X227600000Y-97000000D03*
X223300000Y-97000000D03*
X222550000Y-138850000D03*
X256400000Y-137900000D03*
X245350000Y-138000000D03*
X240150000Y-138000000D03*
X234650000Y-137950000D03*
X221000000Y-133950000D03*
X236700000Y-118950000D03*
X269100000Y-126800000D03*
X267100000Y-126800000D03*
X265100000Y-126800000D03*
X268100000Y-125800000D03*
X266100000Y-125800000D03*
D13*
X137700000Y-145930000D03*
X137700000Y-141970000D03*
D14*
X137700000Y-134050000D03*
D13*
X137700000Y-138010000D03*
D12*
X187350000Y-99500000D03*
X186350000Y-99500000D03*
X214300000Y-99150000D03*
X213300000Y-99150000D03*
X165950000Y-137450000D03*
X164950000Y-137450000D03*
X163950000Y-137450000D03*
X132750000Y-125250000D03*
X161450000Y-99050000D03*
X160450000Y-99050000D03*
X187350000Y-98500000D03*
X186350000Y-98500000D03*
X214300000Y-98150000D03*
X213300000Y-98150000D03*
X165950000Y-136450000D03*
X164950000Y-136450000D03*
X163950000Y-136450000D03*
X142900000Y-111900000D03*
X166100000Y-112600000D03*
X192700000Y-115050000D03*
X161450000Y-98050000D03*
X160450000Y-98050000D03*
X178950000Y-146600000D03*
X206700000Y-127500000D03*
X178850000Y-136350000D03*
X229600000Y-157150000D03*
X165950000Y-135450000D03*
X164950000Y-135450000D03*
X163950000Y-135450000D03*
X202100000Y-106400000D03*
X201100000Y-106400000D03*
X200100000Y-106400000D03*
X199100000Y-106400000D03*
X190350000Y-107050000D03*
X189350000Y-107050000D03*
X188350000Y-107050000D03*
X187350000Y-107050000D03*
X175450000Y-107300000D03*
X174450000Y-107300000D03*
X173450000Y-107300000D03*
X172450000Y-107300000D03*
X165500000Y-107350000D03*
X164500000Y-107350000D03*
X163500000Y-107350000D03*
X204250000Y-103050000D03*
X203250000Y-103050000D03*
X202250000Y-103050000D03*
X201250000Y-103050000D03*
X200250000Y-103050000D03*
X202100000Y-105400000D03*
X201100000Y-105400000D03*
X200100000Y-105400000D03*
X199100000Y-105400000D03*
X190350000Y-106050000D03*
X189350000Y-106050000D03*
X188350000Y-106050000D03*
X187350000Y-106050000D03*
X175450000Y-106300000D03*
X174450000Y-106300000D03*
X173450000Y-106300000D03*
X172450000Y-106300000D03*
X165500000Y-106350000D03*
X164500000Y-106350000D03*
X163500000Y-106350000D03*
X264100000Y-125800000D03*
X190350000Y-105050000D03*
X189350000Y-105050000D03*
X188350000Y-105050000D03*
X187350000Y-105050000D03*
X175450000Y-105300000D03*
X174450000Y-105300000D03*
X173450000Y-105300000D03*
X172450000Y-105300000D03*
X165500000Y-105350000D03*
X164500000Y-105350000D03*
X163500000Y-105350000D03*
X138850000Y-106900000D03*
X137850000Y-106900000D03*
X136850000Y-106900000D03*
X135850000Y-106900000D03*
X196700000Y-107150000D03*
X195700000Y-107150000D03*
X194700000Y-107150000D03*
X193700000Y-107150000D03*
X170700000Y-107450000D03*
X169700000Y-107450000D03*
X168700000Y-107450000D03*
X167700000Y-107450000D03*
X147150000Y-106800000D03*
X146150000Y-106800000D03*
X145150000Y-106800000D03*
X144150000Y-106800000D03*
X152600000Y-105950000D03*
X151600000Y-105950000D03*
X150600000Y-105950000D03*
X149600000Y-105950000D03*
X138850000Y-105900000D03*
X137850000Y-105900000D03*
X136850000Y-105900000D03*
X135850000Y-105900000D03*
X196700000Y-106150000D03*
X195700000Y-106150000D03*
X194700000Y-106150000D03*
X193700000Y-106150000D03*
X170700000Y-106450000D03*
X169700000Y-106450000D03*
X168700000Y-106450000D03*
X167700000Y-106450000D03*
X147150000Y-105800000D03*
X146150000Y-105800000D03*
X145150000Y-105800000D03*
X144150000Y-105800000D03*
X152600000Y-104950000D03*
X151600000Y-104950000D03*
X150600000Y-104950000D03*
X149600000Y-104950000D03*
X138850000Y-104900000D03*
X137850000Y-104900000D03*
X136850000Y-104900000D03*
X135850000Y-104900000D03*
X196700000Y-105150000D03*
X195700000Y-105150000D03*
X194700000Y-105150000D03*
X193700000Y-105150000D03*
X170700000Y-105450000D03*
X169700000Y-105450000D03*
X168700000Y-105450000D03*
X167700000Y-105450000D03*
X147150000Y-104800000D03*
X146150000Y-104800000D03*
X145150000Y-104800000D03*
D15*
X157050000Y-111350000D03*
X135800000Y-97200000D03*
X135950000Y-152300000D03*
X267900000Y-153050000D03*
X267000000Y-101250000D03*
X250700000Y-89300000D03*
D16*
X250700000Y-90300000D03*
X249700000Y-89300000D03*
X249700000Y-90300000D03*
X248700000Y-89300000D03*
X248700000Y-90300000D03*
X247700000Y-89300000D03*
X247700000Y-90300000D03*
X246700000Y-89300000D03*
X246700000Y-90300000D03*
D15*
X181300000Y-112500000D03*
X205900000Y-112500000D03*
D13*
X179580000Y-90300000D03*
X175620000Y-90300000D03*
D14*
X167700000Y-90300000D03*
D13*
X171660000Y-90300000D03*
X205080000Y-90300000D03*
X201120000Y-90300000D03*
D14*
X193200000Y-90300000D03*
D13*
X197160000Y-90300000D03*
X154580000Y-90300000D03*
X150620000Y-90300000D03*
D14*
X142700000Y-90300000D03*
D13*
X146660000Y-90300000D03*
D17*
X256200000Y-111340000D03*
X256200000Y-108800000D03*
X258200000Y-108800000D03*
X258200000Y-111340000D03*
D18*
X260900000Y-116070000D03*
X260900000Y-104070000D03*
D12*
X144150000Y-104800000D03*
D19*
X135750000Y-91400000D03*
X135750000Y-160300000D03*
X267200000Y-91550000D03*
X267100000Y-160400000D03*
M02*
