G04 #@! TF.FileFunction,Soldermask,Top*
%FSLAX46Y46*%
G04 Gerber Fmt 4.6, Leading zero omitted, Abs format (unit mm)*
G04 Created by KiCad (PCBNEW 4.0.1-stable) date 2018/04/09 16:51:16*
%MOMM*%
G01*
G04 APERTURE LIST*
%ADD10C,0.150000*%
%ADD11C,0.400000*%
%ADD12R,1.600000X3.500000*%
%ADD13R,3.800000X2.500000*%
%ADD14R,7.900000X2.300000*%
%ADD15C,1.900000*%
%ADD16R,1.900000X1.900000*%
%ADD17R,1.000000X1.250000*%
%ADD18R,0.800000X0.750000*%
%ADD19R,1.250000X1.000000*%
%ADD20R,0.750000X0.800000*%
%ADD21R,0.850000X0.850000*%
%ADD22R,0.800000X0.600000*%
%ADD23R,0.600000X0.800000*%
%ADD24O,0.850000X0.850000*%
%ADD25R,0.900000X0.500000*%
%ADD26R,1.700000X0.900000*%
%ADD27R,0.500000X0.900000*%
%ADD28R,0.900000X1.700000*%
%ADD29R,2.500000X1.000000*%
%ADD30R,3.000000X1.500000*%
%ADD31R,1.000000X0.250000*%
%ADD32R,0.250000X1.000000*%
%ADD33R,2.000000X0.530000*%
%ADD34R,1.200000X0.500000*%
%ADD35R,1.200000X1.500000*%
%ADD36R,1.600000X1.000000*%
%ADD37R,1.800000X3.900000*%
%ADD38R,1.300000X4.500000*%
%ADD39R,0.800000X1.200000*%
%ADD40R,1.200000X0.800000*%
%ADD41C,1.520000*%
%ADD42C,2.700000*%
%ADD43R,0.450000X1.650000*%
%ADD44R,4.320000X3.000000*%
%ADD45C,3.200000*%
%ADD46R,2.000000X3.200000*%
%ADD47R,2.000000X1.000000*%
%ADD48R,3.200000X2.000000*%
%ADD49R,1.000000X2.000000*%
%ADD50R,1.700000X1.700000*%
G04 APERTURE END LIST*
D10*
D11*
X201150000Y-127000000D03*
X196500000Y-128000000D03*
X199500000Y-125050000D03*
D12*
X165950000Y-132500000D03*
X165950000Y-127100000D03*
D11*
X161950000Y-135450000D03*
X162950000Y-135450000D03*
X161950000Y-136450000D03*
X162950000Y-136450000D03*
X161950000Y-137450000D03*
X162950000Y-137450000D03*
X154350000Y-148550000D03*
X156350000Y-148550000D03*
X156300000Y-146150000D03*
X154300000Y-146150000D03*
X150200000Y-146150000D03*
X152200000Y-146150000D03*
X152250000Y-148550000D03*
X150250000Y-148550000D03*
X168050000Y-148550000D03*
X170050000Y-148550000D03*
X170000000Y-146150000D03*
X168000000Y-146150000D03*
X169900000Y-143600000D03*
X167900000Y-143600000D03*
X166100000Y-143600000D03*
X166200000Y-146150000D03*
X166250000Y-148550000D03*
X158450000Y-148550000D03*
X160450000Y-148550000D03*
X160400000Y-146150000D03*
X158400000Y-146150000D03*
X160300000Y-143600000D03*
X158300000Y-143600000D03*
X162100000Y-143600000D03*
X164100000Y-143600000D03*
X162200000Y-146150000D03*
X164200000Y-146150000D03*
X164250000Y-148550000D03*
X162250000Y-148550000D03*
X153950000Y-141050000D03*
X155950000Y-141050000D03*
X153900000Y-138650000D03*
X153800000Y-136100000D03*
X150000000Y-136100000D03*
X152000000Y-136100000D03*
X151950000Y-133700000D03*
X149950000Y-133700000D03*
X150100000Y-138650000D03*
X152100000Y-138650000D03*
X152150000Y-141050000D03*
X150150000Y-141050000D03*
D13*
X155650000Y-133300000D03*
X159050000Y-136400000D03*
X159050000Y-140700000D03*
D14*
X153200000Y-143600000D03*
D13*
X145350000Y-136400000D03*
X145350000Y-140700000D03*
D11*
X243450000Y-149500000D03*
X241450000Y-149500000D03*
X242450000Y-148500000D03*
X240450000Y-148500000D03*
X159700000Y-128800000D03*
X157700000Y-128800000D03*
X155700000Y-128800000D03*
X153700000Y-128800000D03*
X160700000Y-127800000D03*
X158700000Y-127800000D03*
X156700000Y-127800000D03*
X154700000Y-127800000D03*
X152700000Y-127800000D03*
X144500000Y-127800000D03*
X146500000Y-127800000D03*
X148500000Y-127800000D03*
X150500000Y-127800000D03*
X145500000Y-128800000D03*
X147500000Y-128800000D03*
X149500000Y-128800000D03*
X151500000Y-128800000D03*
X165450000Y-102150000D03*
X217200000Y-133950000D03*
X262350000Y-125850000D03*
X263350000Y-126850000D03*
X261350000Y-127050000D03*
X260350000Y-126050000D03*
X258050000Y-123750000D03*
X259050000Y-124750000D03*
X159200000Y-88450000D03*
X158200000Y-88450000D03*
X157200000Y-88450000D03*
X162850000Y-88450000D03*
X163850000Y-88450000D03*
X164850000Y-88450000D03*
X217850000Y-88600000D03*
X216850000Y-88600000D03*
X215850000Y-88600000D03*
X208150000Y-88550000D03*
X209150000Y-88550000D03*
X210150000Y-88550000D03*
X211150000Y-88550000D03*
D12*
X213750000Y-95500000D03*
X213750000Y-90100000D03*
D11*
X238650000Y-133650000D03*
X239550000Y-129850000D03*
X238550000Y-128850000D03*
X238600000Y-131900000D03*
X239600000Y-132900000D03*
X239600000Y-131350000D03*
X238600000Y-130350000D03*
X243150000Y-127250000D03*
X244150000Y-128250000D03*
X244150000Y-129800000D03*
X243150000Y-128800000D03*
X243100000Y-125750000D03*
X244100000Y-126750000D03*
X254550000Y-126500000D03*
X255550000Y-127500000D03*
X253500000Y-125500000D03*
X252500000Y-124500000D03*
X250450000Y-122550000D03*
X251450000Y-123550000D03*
X266350000Y-136550000D03*
X268350000Y-136550000D03*
X265350000Y-137550000D03*
X267350000Y-137550000D03*
X269350000Y-137550000D03*
X269350000Y-135400000D03*
X267350000Y-135400000D03*
X265350000Y-135400000D03*
X268350000Y-134400000D03*
X266350000Y-134400000D03*
X266300000Y-130200000D03*
X268300000Y-130200000D03*
X265300000Y-131200000D03*
X267300000Y-131200000D03*
X269300000Y-131200000D03*
X269300000Y-133350000D03*
X267300000Y-133350000D03*
X265300000Y-133350000D03*
X268300000Y-132350000D03*
X266300000Y-132350000D03*
X261050000Y-124550000D03*
X244100000Y-125200000D03*
X260050000Y-123550000D03*
X243100000Y-124200000D03*
X230350000Y-106000000D03*
X232350000Y-106000000D03*
X231350000Y-107000000D03*
X229450000Y-100150000D03*
X237150000Y-113300000D03*
X263450000Y-129050000D03*
X262450000Y-128050000D03*
X227800000Y-136700000D03*
X226800000Y-137700000D03*
X228800000Y-137700000D03*
X264100000Y-127950000D03*
X266100000Y-127950000D03*
X268100000Y-127950000D03*
X265100000Y-128950000D03*
X267100000Y-128950000D03*
X269100000Y-128950000D03*
X249050000Y-100800000D03*
X249050000Y-99850000D03*
X252850000Y-102600000D03*
X254850000Y-102600000D03*
X253850000Y-103600000D03*
X238700000Y-103850000D03*
X193500000Y-128800000D03*
X191500000Y-128800000D03*
X189500000Y-128800000D03*
X187500000Y-128800000D03*
X185500000Y-128800000D03*
X183500000Y-128800000D03*
X192500000Y-127800000D03*
X190500000Y-127800000D03*
X188500000Y-127800000D03*
X186500000Y-127800000D03*
X184500000Y-127800000D03*
X182500000Y-127800000D03*
X170650000Y-127800000D03*
X172650000Y-127800000D03*
X174650000Y-127800000D03*
X176650000Y-127800000D03*
X178650000Y-127800000D03*
X180650000Y-127800000D03*
X171650000Y-128800000D03*
X173650000Y-128800000D03*
X175650000Y-128800000D03*
X177650000Y-128800000D03*
X179650000Y-128800000D03*
X181650000Y-128800000D03*
X168750000Y-123600000D03*
X170750000Y-123600000D03*
X172750000Y-123600000D03*
X174750000Y-123600000D03*
X176750000Y-123600000D03*
X178750000Y-123600000D03*
X169750000Y-124600000D03*
X171750000Y-124600000D03*
X173750000Y-124600000D03*
X175750000Y-124600000D03*
X177750000Y-124600000D03*
X179750000Y-124600000D03*
X167900000Y-124600000D03*
X166900000Y-123600000D03*
X213450000Y-124750000D03*
X208650000Y-124800000D03*
X208650000Y-126500000D03*
X208450000Y-130700000D03*
X201800000Y-136100000D03*
X207450000Y-129700000D03*
X205450000Y-129700000D03*
X211400000Y-128600000D03*
X213400000Y-128600000D03*
X212400000Y-129600000D03*
X214400000Y-129600000D03*
X203650000Y-114900000D03*
X201650000Y-114900000D03*
X202650000Y-113900000D03*
X200650000Y-113900000D03*
X207900000Y-109100000D03*
X209900000Y-109100000D03*
X211900000Y-109100000D03*
X213900000Y-109100000D03*
X208900000Y-110100000D03*
X210900000Y-110100000D03*
X212900000Y-110100000D03*
X266850000Y-149100000D03*
X268850000Y-149100000D03*
X267850000Y-150100000D03*
X267800000Y-148300000D03*
X268800000Y-147300000D03*
X266800000Y-147300000D03*
X260200000Y-160150000D03*
X262200000Y-160150000D03*
X261200000Y-161150000D03*
X261250000Y-162950000D03*
X262250000Y-161950000D03*
X260250000Y-161950000D03*
X225000000Y-147200000D03*
X223000000Y-147200000D03*
X221000000Y-147200000D03*
X219000000Y-147200000D03*
X217000000Y-147200000D03*
X224000000Y-146200000D03*
X222000000Y-146200000D03*
X220000000Y-146200000D03*
X218000000Y-146200000D03*
X216000000Y-146200000D03*
X212400000Y-122100000D03*
X210400000Y-122100000D03*
X208400000Y-122100000D03*
X206400000Y-122100000D03*
X204400000Y-122100000D03*
X211400000Y-121100000D03*
X209400000Y-121100000D03*
X207400000Y-121100000D03*
X205400000Y-121100000D03*
X203400000Y-121100000D03*
X206050000Y-119700000D03*
X208050000Y-119700000D03*
X210050000Y-119700000D03*
X212050000Y-119700000D03*
X211050000Y-118400000D03*
X209050000Y-118400000D03*
X207050000Y-118400000D03*
X212050000Y-117400000D03*
X210050000Y-117400000D03*
X208050000Y-117400000D03*
X206050000Y-117400000D03*
X144450000Y-123450000D03*
X146450000Y-123450000D03*
X148450000Y-123450000D03*
X150450000Y-123450000D03*
X145450000Y-124450000D03*
X147450000Y-124450000D03*
X149450000Y-124450000D03*
X151450000Y-124450000D03*
X151450000Y-126750000D03*
X149450000Y-126750000D03*
X147450000Y-126750000D03*
X145450000Y-126750000D03*
X150450000Y-125750000D03*
X148450000Y-125750000D03*
X146450000Y-125750000D03*
X144450000Y-125750000D03*
X156200000Y-143600000D03*
X154200000Y-143600000D03*
X152200000Y-143600000D03*
X150200000Y-143600000D03*
X142050000Y-148450000D03*
X144050000Y-148450000D03*
X146050000Y-148450000D03*
X143050000Y-149450000D03*
X145050000Y-149450000D03*
X145050000Y-147150000D03*
X143050000Y-147150000D03*
X146050000Y-146150000D03*
X144050000Y-146150000D03*
X142050000Y-146150000D03*
X152650000Y-125750000D03*
X154650000Y-125750000D03*
X156650000Y-125750000D03*
X158650000Y-125750000D03*
X160650000Y-125750000D03*
X153650000Y-126750000D03*
X155650000Y-126750000D03*
X157650000Y-126750000D03*
X159650000Y-126750000D03*
X159650000Y-124450000D03*
X157650000Y-124450000D03*
X155650000Y-124450000D03*
X153650000Y-124450000D03*
X160650000Y-123450000D03*
X158650000Y-123450000D03*
X156650000Y-123450000D03*
X154650000Y-123450000D03*
X152650000Y-123450000D03*
X184350000Y-110250000D03*
X186350000Y-110250000D03*
X188350000Y-110250000D03*
X185350000Y-111250000D03*
X187350000Y-111250000D03*
X187350000Y-113550000D03*
X188350000Y-112550000D03*
X186350000Y-112550000D03*
X184400000Y-116950000D03*
X185400000Y-117950000D03*
X188400000Y-114650000D03*
X216150000Y-150700000D03*
X218150000Y-150700000D03*
X220150000Y-150700000D03*
X222150000Y-150700000D03*
X224150000Y-150700000D03*
X180650000Y-123500000D03*
X217150000Y-151700000D03*
X219150000Y-151700000D03*
X221150000Y-151700000D03*
X223150000Y-151700000D03*
X225150000Y-151700000D03*
X181650000Y-124500000D03*
X181650000Y-126800000D03*
X179650000Y-126800000D03*
X177650000Y-126800000D03*
X175650000Y-126800000D03*
X173650000Y-126800000D03*
X171650000Y-126800000D03*
X180650000Y-125800000D03*
X178650000Y-125800000D03*
X176650000Y-125800000D03*
X174650000Y-125800000D03*
X172650000Y-125800000D03*
X170650000Y-125800000D03*
X182500000Y-125800000D03*
X184500000Y-125800000D03*
X186500000Y-125800000D03*
X188500000Y-125800000D03*
X190500000Y-125800000D03*
X192500000Y-125800000D03*
X183500000Y-126800000D03*
X185500000Y-126800000D03*
X187500000Y-126800000D03*
X189500000Y-126800000D03*
X191500000Y-126800000D03*
X193500000Y-126800000D03*
X151450000Y-114850000D03*
X191500000Y-124500000D03*
X189500000Y-124500000D03*
X187500000Y-124500000D03*
X185500000Y-124500000D03*
X183500000Y-124500000D03*
X155450000Y-114850000D03*
X153450000Y-114850000D03*
X149450000Y-114850000D03*
X190500000Y-123500000D03*
X188500000Y-123500000D03*
X186500000Y-123500000D03*
X184500000Y-123500000D03*
X182500000Y-123500000D03*
X154450000Y-113850000D03*
X152450000Y-113850000D03*
X150450000Y-113850000D03*
X259800000Y-90700000D03*
X258800000Y-90700000D03*
X257800000Y-90700000D03*
X246650000Y-117500000D03*
X245150000Y-102550000D03*
X229850000Y-132750000D03*
X222600000Y-133150000D03*
X261900000Y-137900000D03*
X250900000Y-137950000D03*
X259800000Y-89700000D03*
X258800000Y-89700000D03*
X257800000Y-89700000D03*
X237600000Y-118800000D03*
X231100000Y-122350000D03*
X237750000Y-104350000D03*
X227600000Y-97000000D03*
X223300000Y-97000000D03*
X222550000Y-138850000D03*
X256400000Y-137900000D03*
X245350000Y-138000000D03*
X240150000Y-138000000D03*
X234650000Y-137950000D03*
X221000000Y-133950000D03*
X236700000Y-118950000D03*
X269100000Y-126800000D03*
X267100000Y-126800000D03*
X265100000Y-126800000D03*
X268100000Y-125800000D03*
X266100000Y-125800000D03*
D15*
X137700000Y-145930000D03*
X137700000Y-141970000D03*
D16*
X137700000Y-134050000D03*
D15*
X137700000Y-138010000D03*
D11*
X187350000Y-99500000D03*
X186350000Y-99500000D03*
X214300000Y-99150000D03*
X213300000Y-99150000D03*
X165950000Y-137450000D03*
X164950000Y-137450000D03*
X163950000Y-137450000D03*
X132750000Y-125250000D03*
X161450000Y-99050000D03*
X160450000Y-99050000D03*
X187350000Y-98500000D03*
X186350000Y-98500000D03*
X214300000Y-98150000D03*
X213300000Y-98150000D03*
X165950000Y-136450000D03*
X164950000Y-136450000D03*
X163950000Y-136450000D03*
X142900000Y-111900000D03*
X166100000Y-112600000D03*
X192700000Y-115050000D03*
X161450000Y-98050000D03*
X160450000Y-98050000D03*
X178950000Y-146600000D03*
X206700000Y-127500000D03*
X178850000Y-136350000D03*
X229600000Y-157150000D03*
X165950000Y-135450000D03*
X164950000Y-135450000D03*
X163950000Y-135450000D03*
X202100000Y-106400000D03*
X201100000Y-106400000D03*
X200100000Y-106400000D03*
X199100000Y-106400000D03*
X190350000Y-107050000D03*
X189350000Y-107050000D03*
X188350000Y-107050000D03*
X187350000Y-107050000D03*
X175450000Y-107300000D03*
X174450000Y-107300000D03*
X173450000Y-107300000D03*
X172450000Y-107300000D03*
X165500000Y-107350000D03*
X164500000Y-107350000D03*
X163500000Y-107350000D03*
X204250000Y-103050000D03*
X203250000Y-103050000D03*
X202250000Y-103050000D03*
X201250000Y-103050000D03*
X200250000Y-103050000D03*
X202100000Y-105400000D03*
X201100000Y-105400000D03*
X200100000Y-105400000D03*
X199100000Y-105400000D03*
X190350000Y-106050000D03*
X189350000Y-106050000D03*
X188350000Y-106050000D03*
X187350000Y-106050000D03*
X175450000Y-106300000D03*
X174450000Y-106300000D03*
X173450000Y-106300000D03*
X172450000Y-106300000D03*
X165500000Y-106350000D03*
X164500000Y-106350000D03*
X163500000Y-106350000D03*
X264100000Y-125800000D03*
X190350000Y-105050000D03*
X189350000Y-105050000D03*
X188350000Y-105050000D03*
X187350000Y-105050000D03*
X175450000Y-105300000D03*
X174450000Y-105300000D03*
X173450000Y-105300000D03*
X172450000Y-105300000D03*
X165500000Y-105350000D03*
X164500000Y-105350000D03*
X163500000Y-105350000D03*
X138850000Y-106900000D03*
X137850000Y-106900000D03*
X136850000Y-106900000D03*
X135850000Y-106900000D03*
X196700000Y-107150000D03*
X195700000Y-107150000D03*
X194700000Y-107150000D03*
X193700000Y-107150000D03*
X170700000Y-107450000D03*
X169700000Y-107450000D03*
X168700000Y-107450000D03*
X167700000Y-107450000D03*
X147150000Y-106800000D03*
X146150000Y-106800000D03*
X145150000Y-106800000D03*
X144150000Y-106800000D03*
X152600000Y-105950000D03*
X151600000Y-105950000D03*
X150600000Y-105950000D03*
X149600000Y-105950000D03*
X138850000Y-105900000D03*
X137850000Y-105900000D03*
X136850000Y-105900000D03*
X135850000Y-105900000D03*
X196700000Y-106150000D03*
X195700000Y-106150000D03*
X194700000Y-106150000D03*
X193700000Y-106150000D03*
X170700000Y-106450000D03*
X169700000Y-106450000D03*
X168700000Y-106450000D03*
X167700000Y-106450000D03*
X147150000Y-105800000D03*
X146150000Y-105800000D03*
X145150000Y-105800000D03*
X144150000Y-105800000D03*
X152600000Y-104950000D03*
X151600000Y-104950000D03*
X150600000Y-104950000D03*
X149600000Y-104950000D03*
X138850000Y-104900000D03*
X137850000Y-104900000D03*
X136850000Y-104900000D03*
X135850000Y-104900000D03*
X196700000Y-105150000D03*
X195700000Y-105150000D03*
X194700000Y-105150000D03*
X193700000Y-105150000D03*
X170700000Y-105450000D03*
X169700000Y-105450000D03*
X168700000Y-105450000D03*
X167700000Y-105450000D03*
X147150000Y-104800000D03*
X146150000Y-104800000D03*
X145150000Y-104800000D03*
D17*
X236200000Y-132250000D03*
X234200000Y-132250000D03*
D18*
X153550000Y-111200000D03*
X152050000Y-111200000D03*
D17*
X158400000Y-100350000D03*
X156400000Y-100350000D03*
D12*
X161000000Y-95100000D03*
X161000000Y-89700000D03*
D19*
X142900000Y-110900000D03*
X142900000Y-112900000D03*
D20*
X150350000Y-118150000D03*
X150350000Y-119650000D03*
D19*
X140850000Y-110950000D03*
X140850000Y-112950000D03*
X157000000Y-113900000D03*
X157000000Y-115900000D03*
D21*
X157050000Y-111350000D03*
D19*
X177950000Y-144850000D03*
X177950000Y-142850000D03*
D17*
X260200000Y-100300000D03*
X262200000Y-100300000D03*
D18*
X251950000Y-106300000D03*
X253450000Y-106300000D03*
D19*
X192550000Y-143050000D03*
X192550000Y-145050000D03*
D17*
X257200000Y-100300000D03*
X255200000Y-100300000D03*
D19*
X177900000Y-137700000D03*
X177900000Y-139700000D03*
X193200000Y-132050000D03*
X193200000Y-134050000D03*
D20*
X245600000Y-120450000D03*
X245600000Y-118950000D03*
D18*
X247700000Y-101000000D03*
X246200000Y-101000000D03*
X240950000Y-97900000D03*
X242450000Y-97900000D03*
D17*
X264400000Y-119850000D03*
X266400000Y-119850000D03*
D18*
X242400000Y-89650000D03*
X240900000Y-89650000D03*
D19*
X231950000Y-112450000D03*
X231950000Y-114450000D03*
D18*
X236650000Y-89600000D03*
X235150000Y-89600000D03*
D19*
X231950000Y-118100000D03*
X231950000Y-116100000D03*
D17*
X234450000Y-103150000D03*
X232450000Y-103150000D03*
X223900000Y-133150000D03*
X225900000Y-133150000D03*
X234450000Y-100700000D03*
X232450000Y-100700000D03*
D18*
X236850000Y-95750000D03*
X235350000Y-95750000D03*
D17*
X246300000Y-102550000D03*
X248300000Y-102550000D03*
D19*
X247950000Y-118700000D03*
X247950000Y-120700000D03*
D17*
X167400000Y-136400000D03*
X169400000Y-136400000D03*
D19*
X199550000Y-133850000D03*
X199550000Y-135850000D03*
D17*
X256150000Y-132000000D03*
X258150000Y-132000000D03*
X263300000Y-132000000D03*
X261300000Y-132000000D03*
X212700000Y-126800000D03*
X210700000Y-126800000D03*
X246850000Y-131950000D03*
X244850000Y-131950000D03*
D19*
X199550000Y-138850000D03*
X199550000Y-140850000D03*
D17*
X221450000Y-140800000D03*
X223450000Y-140800000D03*
X216950000Y-140800000D03*
X214950000Y-140800000D03*
D18*
X163850000Y-118150000D03*
X165350000Y-118150000D03*
D17*
X203500000Y-125150000D03*
X201500000Y-125150000D03*
D18*
X192650000Y-118300000D03*
X194150000Y-118300000D03*
D19*
X182600000Y-96400000D03*
X182600000Y-98400000D03*
X209000000Y-95150000D03*
X209000000Y-97150000D03*
D12*
X186850000Y-95400000D03*
X186850000Y-90000000D03*
D19*
X205900000Y-107800000D03*
X205900000Y-109800000D03*
X166100000Y-111600000D03*
X166100000Y-113600000D03*
X192700000Y-111600000D03*
X192700000Y-113600000D03*
D18*
X176400000Y-111550000D03*
X174900000Y-111550000D03*
X201850000Y-112200000D03*
X200350000Y-112200000D03*
D19*
X163050000Y-111650000D03*
X163050000Y-113650000D03*
X190600000Y-113600000D03*
X190600000Y-111600000D03*
X181300000Y-114950000D03*
X181300000Y-116950000D03*
D17*
X207650000Y-112500000D03*
X209650000Y-112500000D03*
X252450000Y-131900000D03*
X250450000Y-131900000D03*
D22*
X269700000Y-97650000D03*
X269700000Y-95950000D03*
D23*
X133600000Y-125300000D03*
X135300000Y-125300000D03*
X133600000Y-123300000D03*
X135300000Y-123300000D03*
X133600000Y-127300000D03*
X135300000Y-127300000D03*
D22*
X241900000Y-154750000D03*
X241900000Y-156450000D03*
X256900000Y-154750000D03*
X256900000Y-156450000D03*
X211600000Y-153750000D03*
X211600000Y-155450000D03*
X226800000Y-154550000D03*
X226800000Y-156250000D03*
X181800000Y-154650000D03*
X181800000Y-156350000D03*
D21*
X250700000Y-89300000D03*
D24*
X250700000Y-90300000D03*
X249700000Y-89300000D03*
X249700000Y-90300000D03*
X248700000Y-89300000D03*
X248700000Y-90300000D03*
X247700000Y-89300000D03*
X247700000Y-90300000D03*
X246700000Y-89300000D03*
X246700000Y-90300000D03*
D21*
X181300000Y-112500000D03*
X205900000Y-112500000D03*
D25*
X231100000Y-121400000D03*
X231100000Y-119900000D03*
X237700000Y-122200000D03*
X237700000Y-123700000D03*
X244700000Y-156450000D03*
X244700000Y-154950000D03*
X259800000Y-156350000D03*
X259800000Y-154850000D03*
X214400000Y-155250000D03*
X214400000Y-153750000D03*
D26*
X231200000Y-137900000D03*
X231200000Y-135000000D03*
D25*
X229600000Y-154650000D03*
X229600000Y-156150000D03*
X184800000Y-154750000D03*
X184800000Y-156250000D03*
D27*
X252450000Y-98800000D03*
X250950000Y-98800000D03*
X252450000Y-97300000D03*
X250950000Y-97300000D03*
X252450000Y-95800000D03*
X250950000Y-95800000D03*
X252450000Y-94300000D03*
X250950000Y-94300000D03*
X251450000Y-109800000D03*
X249950000Y-109800000D03*
X251450000Y-112800000D03*
X249950000Y-112800000D03*
X137950000Y-125300000D03*
X139450000Y-125300000D03*
X139450000Y-123050000D03*
X137950000Y-123050000D03*
D25*
X149700000Y-150800000D03*
X149700000Y-152300000D03*
D27*
X230000000Y-93050000D03*
X231500000Y-93050000D03*
D25*
X232500000Y-132800000D03*
X232500000Y-131300000D03*
X230800000Y-132750000D03*
X230800000Y-131250000D03*
X141850000Y-119650000D03*
X141850000Y-118150000D03*
X144600000Y-119650000D03*
X144600000Y-118150000D03*
D28*
X137400000Y-100300000D03*
X134500000Y-100300000D03*
D27*
X209200000Y-140050000D03*
X207700000Y-140050000D03*
D28*
X150275000Y-99425000D03*
X153175000Y-99425000D03*
D26*
X268450000Y-141350000D03*
X268450000Y-144250000D03*
D28*
X189750000Y-151700000D03*
X186850000Y-151700000D03*
D25*
X223500000Y-138850000D03*
X223500000Y-137350000D03*
X223500000Y-134550000D03*
X223500000Y-136050000D03*
D28*
X225650000Y-126850000D03*
X228550000Y-126850000D03*
X225400000Y-121950000D03*
X228300000Y-121950000D03*
X225400000Y-117350000D03*
X228300000Y-117350000D03*
X225400000Y-112600000D03*
X228300000Y-112600000D03*
X225400000Y-107900000D03*
X228300000Y-107900000D03*
X225400000Y-103050000D03*
X228300000Y-103050000D03*
D25*
X214900000Y-134550000D03*
X214900000Y-136050000D03*
X214900000Y-138850000D03*
X214900000Y-137350000D03*
D27*
X205150000Y-125150000D03*
X206650000Y-125150000D03*
D25*
X169100000Y-120150000D03*
X169100000Y-118650000D03*
X167100000Y-120150000D03*
X167100000Y-118650000D03*
X195600000Y-120250000D03*
X195600000Y-118750000D03*
X197500000Y-120450000D03*
X197500000Y-118950000D03*
D28*
X172600000Y-117950000D03*
X175500000Y-117950000D03*
D26*
X201400000Y-117450000D03*
X201400000Y-120350000D03*
X161000000Y-100850000D03*
X161000000Y-103750000D03*
D28*
X188400000Y-102700000D03*
X185500000Y-102700000D03*
X173550000Y-100600000D03*
X176450000Y-100600000D03*
X201650000Y-100725000D03*
X204550000Y-100725000D03*
D29*
X262900000Y-122500000D03*
X268400000Y-122500000D03*
D30*
X223300000Y-95550000D03*
X223300000Y-93050000D03*
X223300000Y-90550000D03*
X227600000Y-90550000D03*
X227600000Y-93050000D03*
X227600000Y-95550000D03*
D31*
X235800000Y-107300000D03*
X235800000Y-107800000D03*
X235800000Y-108300000D03*
X235800000Y-108800000D03*
X235800000Y-109300000D03*
X235800000Y-109800000D03*
X235800000Y-110300000D03*
X235800000Y-110800000D03*
X235800000Y-111300000D03*
X235800000Y-111800000D03*
X235800000Y-112300000D03*
X235800000Y-112800000D03*
X235800000Y-113300000D03*
X235800000Y-113800000D03*
X235800000Y-114300000D03*
X235800000Y-114800000D03*
D32*
X237750000Y-116750000D03*
X238250000Y-116750000D03*
X238750000Y-116750000D03*
X239250000Y-116750000D03*
X239750000Y-116750000D03*
X240250000Y-116750000D03*
X240750000Y-116750000D03*
X241250000Y-116750000D03*
X241750000Y-116750000D03*
X242250000Y-116750000D03*
X242750000Y-116750000D03*
X243250000Y-116750000D03*
X243750000Y-116750000D03*
X244250000Y-116750000D03*
X244750000Y-116750000D03*
X245250000Y-116750000D03*
D31*
X247200000Y-114800000D03*
X247200000Y-114300000D03*
X247200000Y-113800000D03*
X247200000Y-113300000D03*
X247200000Y-112800000D03*
X247200000Y-112300000D03*
X247200000Y-111800000D03*
X247200000Y-111300000D03*
X247200000Y-110800000D03*
X247200000Y-110300000D03*
X247200000Y-109800000D03*
X247200000Y-109300000D03*
X247200000Y-108800000D03*
X247200000Y-108300000D03*
X247200000Y-107800000D03*
X247200000Y-107300000D03*
D32*
X245250000Y-105350000D03*
X244750000Y-105350000D03*
X244250000Y-105350000D03*
X243750000Y-105350000D03*
X243250000Y-105350000D03*
X242750000Y-105350000D03*
X242250000Y-105350000D03*
X241750000Y-105350000D03*
X241250000Y-105350000D03*
X240750000Y-105350000D03*
X240250000Y-105350000D03*
X239750000Y-105350000D03*
X239250000Y-105350000D03*
X238750000Y-105350000D03*
X238250000Y-105350000D03*
X237750000Y-105350000D03*
D33*
X221010000Y-138610000D03*
X221010000Y-137340000D03*
X221010000Y-136070000D03*
X221010000Y-134800000D03*
X217200000Y-134800000D03*
X217200000Y-136070000D03*
X217200000Y-137340000D03*
X217200000Y-138610000D03*
D34*
X197900000Y-128000000D03*
X197900000Y-127000000D03*
X197900000Y-129000000D03*
X199900000Y-129000000D03*
X199900000Y-128000000D03*
X199900000Y-127000000D03*
D18*
X251450000Y-108050000D03*
X249950000Y-108050000D03*
X251450000Y-115800000D03*
X249950000Y-115800000D03*
D35*
X243100000Y-95850000D03*
X243100000Y-91750000D03*
X240300000Y-91750000D03*
X240300000Y-95850000D03*
D36*
X236000000Y-91200000D03*
X236000000Y-94200000D03*
D37*
X153000000Y-162300000D03*
D38*
X149850000Y-155600000D03*
X147350000Y-155600000D03*
X144850000Y-155600000D03*
D37*
X141700000Y-162300000D03*
X243000000Y-162300000D03*
D38*
X239850000Y-155600000D03*
X237350000Y-155600000D03*
X234850000Y-155600000D03*
D37*
X231700000Y-162300000D03*
X198000000Y-162300000D03*
D38*
X194850000Y-155600000D03*
X192350000Y-155600000D03*
X189850000Y-155600000D03*
D37*
X186700000Y-162300000D03*
X258000000Y-162300000D03*
D38*
X254850000Y-155600000D03*
X252350000Y-155600000D03*
X249850000Y-155600000D03*
D37*
X246700000Y-162300000D03*
X213000000Y-162300000D03*
D38*
X209850000Y-155600000D03*
X207350000Y-155600000D03*
X204850000Y-155600000D03*
D37*
X201700000Y-162300000D03*
X228000000Y-162300000D03*
D38*
X224850000Y-155600000D03*
X222350000Y-155600000D03*
X219850000Y-155600000D03*
D37*
X216700000Y-162300000D03*
X183000000Y-162300000D03*
D38*
X179850000Y-155600000D03*
X177350000Y-155600000D03*
X174850000Y-155600000D03*
D37*
X171700000Y-162300000D03*
X168000000Y-162300000D03*
D38*
X164850000Y-155600000D03*
X162350000Y-155600000D03*
X159850000Y-155600000D03*
D37*
X156700000Y-162300000D03*
D33*
X221010000Y-133110000D03*
X221010000Y-131840000D03*
X221010000Y-130570000D03*
X221010000Y-129300000D03*
X217200000Y-129300000D03*
X217200000Y-130570000D03*
X217200000Y-131840000D03*
X217200000Y-133110000D03*
D15*
X179580000Y-90300000D03*
X175620000Y-90300000D03*
D16*
X167700000Y-90300000D03*
D15*
X171660000Y-90300000D03*
X205080000Y-90300000D03*
X201120000Y-90300000D03*
D16*
X193200000Y-90300000D03*
D15*
X197160000Y-90300000D03*
X154580000Y-90300000D03*
X150620000Y-90300000D03*
D16*
X142700000Y-90300000D03*
D15*
X146660000Y-90300000D03*
D39*
X231220000Y-139730000D03*
X228680000Y-139730000D03*
X229950000Y-146080000D03*
X228680000Y-146080000D03*
X231220000Y-146080000D03*
D40*
X222220000Y-126820000D03*
X222220000Y-124280000D03*
X215870000Y-125550000D03*
X215870000Y-124280000D03*
X215870000Y-126820000D03*
X222220000Y-122070000D03*
X222220000Y-119530000D03*
X215870000Y-120800000D03*
X215870000Y-119530000D03*
X215870000Y-122070000D03*
X222220000Y-117320000D03*
X222220000Y-114780000D03*
X215870000Y-116050000D03*
X215870000Y-114780000D03*
X215870000Y-117320000D03*
X222220000Y-112570000D03*
X222220000Y-110030000D03*
X215870000Y-111300000D03*
X215870000Y-110030000D03*
X215870000Y-112570000D03*
X222220000Y-107820000D03*
X222220000Y-105280000D03*
X215870000Y-106550000D03*
X215870000Y-105280000D03*
X215870000Y-107820000D03*
X222220000Y-103070000D03*
X222220000Y-100530000D03*
X215870000Y-101800000D03*
X215870000Y-100530000D03*
X215870000Y-103070000D03*
D39*
X234680000Y-146070000D03*
X237220000Y-146070000D03*
X235950000Y-139720000D03*
X237220000Y-139720000D03*
X234680000Y-139720000D03*
D41*
X256200000Y-111340000D03*
X256200000Y-108800000D03*
X258200000Y-108800000D03*
X258200000Y-111340000D03*
D42*
X260900000Y-116070000D03*
X260900000Y-104070000D03*
D43*
X165500000Y-109400000D03*
X166150000Y-109400000D03*
X166800000Y-109400000D03*
X167450000Y-109400000D03*
X168100000Y-109400000D03*
X168750000Y-109400000D03*
X169400000Y-109400000D03*
X170050000Y-109400000D03*
X170700000Y-109400000D03*
X171350000Y-109400000D03*
X172000000Y-109400000D03*
X172650000Y-109400000D03*
X172650000Y-103400000D03*
X172000000Y-103400000D03*
X171350000Y-103400000D03*
X170700000Y-103400000D03*
X170050000Y-103400000D03*
X169400000Y-103400000D03*
X168750000Y-103400000D03*
X168100000Y-103400000D03*
X167450000Y-103400000D03*
X166800000Y-103400000D03*
X166150000Y-103400000D03*
X165500000Y-103400000D03*
D44*
X169100000Y-106400000D03*
D43*
X191600000Y-109100000D03*
X192250000Y-109100000D03*
X192900000Y-109100000D03*
X193550000Y-109100000D03*
X194200000Y-109100000D03*
X194850000Y-109100000D03*
X195500000Y-109100000D03*
X196150000Y-109100000D03*
X196800000Y-109100000D03*
X197450000Y-109100000D03*
X198100000Y-109100000D03*
X198750000Y-109100000D03*
X198750000Y-103100000D03*
X198100000Y-103100000D03*
X197450000Y-103100000D03*
X196800000Y-103100000D03*
X196150000Y-103100000D03*
X195500000Y-103100000D03*
X194850000Y-103100000D03*
X194200000Y-103100000D03*
X193550000Y-103100000D03*
X192900000Y-103100000D03*
X192250000Y-103100000D03*
X191600000Y-103100000D03*
D44*
X195200000Y-106100000D03*
D43*
X142050000Y-108750000D03*
X142700000Y-108750000D03*
X143350000Y-108750000D03*
X144000000Y-108750000D03*
X144650000Y-108750000D03*
X145300000Y-108750000D03*
X145950000Y-108750000D03*
X146600000Y-108750000D03*
X147250000Y-108750000D03*
X147900000Y-108750000D03*
X148550000Y-108750000D03*
X149200000Y-108750000D03*
X149200000Y-102750000D03*
X148550000Y-102750000D03*
X147900000Y-102750000D03*
X147250000Y-102750000D03*
X146600000Y-102750000D03*
X145950000Y-102750000D03*
X145300000Y-102750000D03*
X144650000Y-102750000D03*
X144000000Y-102750000D03*
X143350000Y-102750000D03*
X142700000Y-102750000D03*
X142050000Y-102750000D03*
D44*
X145650000Y-105750000D03*
D11*
X144150000Y-104800000D03*
D45*
X135750000Y-91400000D03*
X135750000Y-160300000D03*
X267200000Y-91550000D03*
X267100000Y-160400000D03*
D28*
X146400000Y-116850000D03*
X149300000Y-116850000D03*
D46*
X189500000Y-144250000D03*
D47*
X183200000Y-144250000D03*
X183200000Y-146550000D03*
X183200000Y-141950000D03*
D48*
X258750000Y-90200000D03*
D49*
X258750000Y-96500000D03*
X261050000Y-96500000D03*
X256450000Y-96500000D03*
D46*
X189350000Y-134050000D03*
D47*
X183050000Y-134050000D03*
X183050000Y-136350000D03*
X183050000Y-131750000D03*
D23*
X223875000Y-98675000D03*
X225575000Y-98675000D03*
D27*
X227750000Y-98675000D03*
X229250000Y-98675000D03*
D39*
X256705000Y-145970000D03*
X259245000Y-145970000D03*
X257975000Y-139620000D03*
X259245000Y-139620000D03*
X256705000Y-139620000D03*
X262155000Y-146020000D03*
X264695000Y-146020000D03*
X263425000Y-139670000D03*
X264695000Y-139670000D03*
X262155000Y-139670000D03*
X245630000Y-146095000D03*
X248170000Y-146095000D03*
X246900000Y-139745000D03*
X248170000Y-139745000D03*
X245630000Y-139745000D03*
X251155000Y-145995000D03*
X253695000Y-145995000D03*
X252425000Y-139645000D03*
X253695000Y-139645000D03*
X251155000Y-139645000D03*
X240155000Y-146145000D03*
X242695000Y-146145000D03*
X241425000Y-139795000D03*
X242695000Y-139795000D03*
X240155000Y-139795000D03*
D27*
X267625000Y-96775000D03*
X266125000Y-96775000D03*
X137975000Y-127300000D03*
X139475000Y-127300000D03*
X203725000Y-127500000D03*
X205225000Y-127500000D03*
D25*
X234800000Y-149100000D03*
X234800000Y-147600000D03*
X251175000Y-149725000D03*
X251175000Y-148225000D03*
X245700000Y-149775000D03*
X245700000Y-148275000D03*
X262200000Y-149900000D03*
X262200000Y-148400000D03*
X256700000Y-149850000D03*
X256700000Y-148350000D03*
D27*
X256425000Y-136500000D03*
X257925000Y-136500000D03*
X261875000Y-136600000D03*
X263375000Y-136600000D03*
X245350000Y-136425000D03*
X246850000Y-136425000D03*
X250900000Y-136525000D03*
X252400000Y-136525000D03*
X234425000Y-136225000D03*
X235925000Y-136225000D03*
X239950000Y-136225000D03*
X241450000Y-136225000D03*
D25*
X207500000Y-132175000D03*
X207500000Y-133675000D03*
D27*
X206550000Y-143450000D03*
X205050000Y-143450000D03*
D10*
G36*
X204600000Y-139925000D02*
X205450000Y-139925000D01*
X205450000Y-140275000D01*
X204600000Y-140275000D01*
X204600000Y-139925000D01*
X204600000Y-139925000D01*
G37*
G36*
X204600000Y-140575000D02*
X205450000Y-140575000D01*
X205450000Y-140925000D01*
X204600000Y-140925000D01*
X204600000Y-140575000D01*
X204600000Y-140575000D01*
G37*
G36*
X204600000Y-141225000D02*
X205450000Y-141225000D01*
X205450000Y-141575000D01*
X204600000Y-141575000D01*
X204600000Y-141225000D01*
X204600000Y-141225000D01*
G37*
G36*
X202400000Y-141225000D02*
X203250000Y-141225000D01*
X203250000Y-141575000D01*
X202400000Y-141575000D01*
X202400000Y-141225000D01*
X202400000Y-141225000D01*
G37*
G36*
X202400000Y-140575000D02*
X203250000Y-140575000D01*
X203250000Y-140925000D01*
X202400000Y-140925000D01*
X202400000Y-140575000D01*
X202400000Y-140575000D01*
G37*
G36*
X202400000Y-139925000D02*
X203250000Y-139925000D01*
X203250000Y-140275000D01*
X202400000Y-140275000D01*
X202400000Y-139925000D01*
X202400000Y-139925000D01*
G37*
G36*
X204575000Y-134925000D02*
X205425000Y-134925000D01*
X205425000Y-135275000D01*
X204575000Y-135275000D01*
X204575000Y-134925000D01*
X204575000Y-134925000D01*
G37*
G36*
X204575000Y-135575000D02*
X205425000Y-135575000D01*
X205425000Y-135925000D01*
X204575000Y-135925000D01*
X204575000Y-135575000D01*
X204575000Y-135575000D01*
G37*
G36*
X204575000Y-136225000D02*
X205425000Y-136225000D01*
X205425000Y-136575000D01*
X204575000Y-136575000D01*
X204575000Y-136225000D01*
X204575000Y-136225000D01*
G37*
G36*
X202375000Y-136225000D02*
X203225000Y-136225000D01*
X203225000Y-136575000D01*
X202375000Y-136575000D01*
X202375000Y-136225000D01*
X202375000Y-136225000D01*
G37*
G36*
X202375000Y-135575000D02*
X203225000Y-135575000D01*
X203225000Y-135925000D01*
X202375000Y-135925000D01*
X202375000Y-135575000D01*
X202375000Y-135575000D01*
G37*
G36*
X202375000Y-134925000D02*
X203225000Y-134925000D01*
X203225000Y-135275000D01*
X202375000Y-135275000D01*
X202375000Y-134925000D01*
X202375000Y-134925000D01*
G37*
D50*
X136025000Y-96775000D03*
X135825000Y-153675000D03*
X267800000Y-154350000D03*
X266875000Y-101550000D03*
M02*
