G04 #@! TF.FileFunction,Copper,L2,Inr,Signal*
%FSLAX46Y46*%
G04 Gerber Fmt 4.6, Leading zero omitted, Abs format (unit mm)*
G04 Created by KiCad (PCBNEW 4.0.1-stable) date 2018/04/09 16:51:16*
%MOMM*%
G01*
G04 APERTURE LIST*
%ADD10C,0.150000*%
%ADD11C,0.400000*%
%ADD12C,1.900000*%
%ADD13R,1.900000X1.900000*%
%ADD14R,0.850000X0.850000*%
%ADD15O,0.850000X0.850000*%
%ADD16C,1.520000*%
%ADD17C,2.700000*%
%ADD18R,1.700000X1.700000*%
%ADD19C,0.500400*%
%ADD20C,0.500380*%
%ADD21C,1.143000*%
%ADD22C,0.254000*%
G04 APERTURE END LIST*
D10*
D11*
X201150000Y-127000000D03*
X196500000Y-128000000D03*
X199500000Y-125050000D03*
X161950000Y-135450000D03*
X162950000Y-135450000D03*
X161950000Y-136450000D03*
X162950000Y-136450000D03*
X161950000Y-137450000D03*
X162950000Y-137450000D03*
X154350000Y-148550000D03*
X156350000Y-148550000D03*
X156300000Y-146150000D03*
X154300000Y-146150000D03*
X150200000Y-146150000D03*
X152200000Y-146150000D03*
X152250000Y-148550000D03*
X150250000Y-148550000D03*
X168050000Y-148550000D03*
X170050000Y-148550000D03*
X170000000Y-146150000D03*
X168000000Y-146150000D03*
X169900000Y-143600000D03*
X167900000Y-143600000D03*
X166100000Y-143600000D03*
X166200000Y-146150000D03*
X166250000Y-148550000D03*
X158450000Y-148550000D03*
X160450000Y-148550000D03*
X160400000Y-146150000D03*
X158400000Y-146150000D03*
X160300000Y-143600000D03*
X158300000Y-143600000D03*
X162100000Y-143600000D03*
X164100000Y-143600000D03*
X162200000Y-146150000D03*
X164200000Y-146150000D03*
X164250000Y-148550000D03*
X162250000Y-148550000D03*
X153950000Y-141050000D03*
X155950000Y-141050000D03*
X153900000Y-138650000D03*
X153800000Y-136100000D03*
X150000000Y-136100000D03*
X152000000Y-136100000D03*
X151950000Y-133700000D03*
X149950000Y-133700000D03*
X150100000Y-138650000D03*
X152100000Y-138650000D03*
X152150000Y-141050000D03*
X150150000Y-141050000D03*
X243450000Y-149500000D03*
X241450000Y-149500000D03*
X242450000Y-148500000D03*
X240450000Y-148500000D03*
X159700000Y-128800000D03*
X157700000Y-128800000D03*
X155700000Y-128800000D03*
X153700000Y-128800000D03*
X160700000Y-127800000D03*
X158700000Y-127800000D03*
X156700000Y-127800000D03*
X154700000Y-127800000D03*
X152700000Y-127800000D03*
X144500000Y-127800000D03*
X146500000Y-127800000D03*
X148500000Y-127800000D03*
X150500000Y-127800000D03*
X145500000Y-128800000D03*
X147500000Y-128800000D03*
X149500000Y-128800000D03*
X151500000Y-128800000D03*
X165450000Y-102150000D03*
X217200000Y-133950000D03*
X262350000Y-125850000D03*
X263350000Y-126850000D03*
X261350000Y-127050000D03*
X260350000Y-126050000D03*
X258050000Y-123750000D03*
X259050000Y-124750000D03*
X159200000Y-88450000D03*
X158200000Y-88450000D03*
X157200000Y-88450000D03*
X162850000Y-88450000D03*
X163850000Y-88450000D03*
X164850000Y-88450000D03*
X217850000Y-88600000D03*
X216850000Y-88600000D03*
X215850000Y-88600000D03*
X208150000Y-88550000D03*
X209150000Y-88550000D03*
X210150000Y-88550000D03*
X211150000Y-88550000D03*
X238650000Y-133650000D03*
X239550000Y-129850000D03*
X238550000Y-128850000D03*
X238600000Y-131900000D03*
X239600000Y-132900000D03*
X239600000Y-131350000D03*
X238600000Y-130350000D03*
X243150000Y-127250000D03*
X244150000Y-128250000D03*
X244150000Y-129800000D03*
X243150000Y-128800000D03*
X243100000Y-125750000D03*
X244100000Y-126750000D03*
X254550000Y-126500000D03*
X255550000Y-127500000D03*
X253500000Y-125500000D03*
X252500000Y-124500000D03*
X250450000Y-122550000D03*
X251450000Y-123550000D03*
X266350000Y-136550000D03*
X268350000Y-136550000D03*
X265350000Y-137550000D03*
X267350000Y-137550000D03*
X269350000Y-137550000D03*
X269350000Y-135400000D03*
X267350000Y-135400000D03*
X265350000Y-135400000D03*
X268350000Y-134400000D03*
X266350000Y-134400000D03*
X266300000Y-130200000D03*
X268300000Y-130200000D03*
X265300000Y-131200000D03*
X267300000Y-131200000D03*
X269300000Y-131200000D03*
X269300000Y-133350000D03*
X267300000Y-133350000D03*
X265300000Y-133350000D03*
X268300000Y-132350000D03*
X266300000Y-132350000D03*
X261050000Y-124550000D03*
X244100000Y-125200000D03*
X260050000Y-123550000D03*
X243100000Y-124200000D03*
X230350000Y-106000000D03*
X232350000Y-106000000D03*
X231350000Y-107000000D03*
X229450000Y-100150000D03*
X237150000Y-113300000D03*
X263450000Y-129050000D03*
X262450000Y-128050000D03*
X227800000Y-136700000D03*
X226800000Y-137700000D03*
X228800000Y-137700000D03*
X264100000Y-127950000D03*
X266100000Y-127950000D03*
X268100000Y-127950000D03*
X265100000Y-128950000D03*
X267100000Y-128950000D03*
X269100000Y-128950000D03*
X249050000Y-100800000D03*
X249050000Y-99850000D03*
X252850000Y-102600000D03*
X254850000Y-102600000D03*
X253850000Y-103600000D03*
X238700000Y-103850000D03*
X193500000Y-128800000D03*
X191500000Y-128800000D03*
X189500000Y-128800000D03*
X187500000Y-128800000D03*
X185500000Y-128800000D03*
X183500000Y-128800000D03*
X192500000Y-127800000D03*
X190500000Y-127800000D03*
X188500000Y-127800000D03*
X186500000Y-127800000D03*
X184500000Y-127800000D03*
X182500000Y-127800000D03*
X170650000Y-127800000D03*
X172650000Y-127800000D03*
X174650000Y-127800000D03*
X176650000Y-127800000D03*
X178650000Y-127800000D03*
X180650000Y-127800000D03*
X171650000Y-128800000D03*
X173650000Y-128800000D03*
X175650000Y-128800000D03*
X177650000Y-128800000D03*
X179650000Y-128800000D03*
X181650000Y-128800000D03*
X168750000Y-123600000D03*
X170750000Y-123600000D03*
X172750000Y-123600000D03*
X174750000Y-123600000D03*
X176750000Y-123600000D03*
X178750000Y-123600000D03*
X169750000Y-124600000D03*
X171750000Y-124600000D03*
X173750000Y-124600000D03*
X175750000Y-124600000D03*
X177750000Y-124600000D03*
X179750000Y-124600000D03*
X167900000Y-124600000D03*
X166900000Y-123600000D03*
X213450000Y-124750000D03*
X208650000Y-124800000D03*
X208650000Y-126500000D03*
X208450000Y-130700000D03*
X201800000Y-136100000D03*
X207450000Y-129700000D03*
X205450000Y-129700000D03*
X211400000Y-128600000D03*
X213400000Y-128600000D03*
X212400000Y-129600000D03*
X214400000Y-129600000D03*
X203650000Y-114900000D03*
X201650000Y-114900000D03*
X202650000Y-113900000D03*
X200650000Y-113900000D03*
X207900000Y-109100000D03*
X209900000Y-109100000D03*
X211900000Y-109100000D03*
X213900000Y-109100000D03*
X208900000Y-110100000D03*
X210900000Y-110100000D03*
X212900000Y-110100000D03*
X266850000Y-149100000D03*
X268850000Y-149100000D03*
X267850000Y-150100000D03*
X267800000Y-148300000D03*
X268800000Y-147300000D03*
X266800000Y-147300000D03*
X260200000Y-160150000D03*
X262200000Y-160150000D03*
X261200000Y-161150000D03*
X261250000Y-162950000D03*
X262250000Y-161950000D03*
X260250000Y-161950000D03*
X225000000Y-147200000D03*
X223000000Y-147200000D03*
X221000000Y-147200000D03*
X219000000Y-147200000D03*
X217000000Y-147200000D03*
X224000000Y-146200000D03*
X222000000Y-146200000D03*
X220000000Y-146200000D03*
X218000000Y-146200000D03*
X216000000Y-146200000D03*
X212400000Y-122100000D03*
X210400000Y-122100000D03*
X208400000Y-122100000D03*
X206400000Y-122100000D03*
X204400000Y-122100000D03*
X211400000Y-121100000D03*
X209400000Y-121100000D03*
X207400000Y-121100000D03*
X205400000Y-121100000D03*
X203400000Y-121100000D03*
X206050000Y-119700000D03*
X208050000Y-119700000D03*
X210050000Y-119700000D03*
X212050000Y-119700000D03*
X211050000Y-118400000D03*
X209050000Y-118400000D03*
X207050000Y-118400000D03*
X212050000Y-117400000D03*
X210050000Y-117400000D03*
X208050000Y-117400000D03*
X206050000Y-117400000D03*
X144450000Y-123450000D03*
X146450000Y-123450000D03*
X148450000Y-123450000D03*
X150450000Y-123450000D03*
X145450000Y-124450000D03*
X147450000Y-124450000D03*
X149450000Y-124450000D03*
X151450000Y-124450000D03*
X151450000Y-126750000D03*
X149450000Y-126750000D03*
X147450000Y-126750000D03*
X145450000Y-126750000D03*
X150450000Y-125750000D03*
X148450000Y-125750000D03*
X146450000Y-125750000D03*
X144450000Y-125750000D03*
X156200000Y-143600000D03*
X154200000Y-143600000D03*
X152200000Y-143600000D03*
X150200000Y-143600000D03*
X142050000Y-148450000D03*
X144050000Y-148450000D03*
X146050000Y-148450000D03*
X143050000Y-149450000D03*
X145050000Y-149450000D03*
X145050000Y-147150000D03*
X143050000Y-147150000D03*
X146050000Y-146150000D03*
X144050000Y-146150000D03*
X142050000Y-146150000D03*
X152650000Y-125750000D03*
X154650000Y-125750000D03*
X156650000Y-125750000D03*
X158650000Y-125750000D03*
X160650000Y-125750000D03*
X153650000Y-126750000D03*
X155650000Y-126750000D03*
X157650000Y-126750000D03*
X159650000Y-126750000D03*
X159650000Y-124450000D03*
X157650000Y-124450000D03*
X155650000Y-124450000D03*
X153650000Y-124450000D03*
X160650000Y-123450000D03*
X158650000Y-123450000D03*
X156650000Y-123450000D03*
X154650000Y-123450000D03*
X152650000Y-123450000D03*
X184350000Y-110250000D03*
X186350000Y-110250000D03*
X188350000Y-110250000D03*
X185350000Y-111250000D03*
X187350000Y-111250000D03*
X187350000Y-113550000D03*
X188350000Y-112550000D03*
X186350000Y-112550000D03*
X184400000Y-116950000D03*
X185400000Y-117950000D03*
X188400000Y-114650000D03*
X216150000Y-150700000D03*
X218150000Y-150700000D03*
X220150000Y-150700000D03*
X222150000Y-150700000D03*
X224150000Y-150700000D03*
X180650000Y-123500000D03*
X217150000Y-151700000D03*
X219150000Y-151700000D03*
X221150000Y-151700000D03*
X223150000Y-151700000D03*
X225150000Y-151700000D03*
X181650000Y-124500000D03*
X181650000Y-126800000D03*
X179650000Y-126800000D03*
X177650000Y-126800000D03*
X175650000Y-126800000D03*
X173650000Y-126800000D03*
X171650000Y-126800000D03*
X180650000Y-125800000D03*
X178650000Y-125800000D03*
X176650000Y-125800000D03*
X174650000Y-125800000D03*
X172650000Y-125800000D03*
X170650000Y-125800000D03*
X182500000Y-125800000D03*
X184500000Y-125800000D03*
X186500000Y-125800000D03*
X188500000Y-125800000D03*
X190500000Y-125800000D03*
X192500000Y-125800000D03*
X183500000Y-126800000D03*
X185500000Y-126800000D03*
X187500000Y-126800000D03*
X189500000Y-126800000D03*
X191500000Y-126800000D03*
X193500000Y-126800000D03*
X151450000Y-114850000D03*
X191500000Y-124500000D03*
X189500000Y-124500000D03*
X187500000Y-124500000D03*
X185500000Y-124500000D03*
X183500000Y-124500000D03*
X155450000Y-114850000D03*
X153450000Y-114850000D03*
X149450000Y-114850000D03*
X190500000Y-123500000D03*
X188500000Y-123500000D03*
X186500000Y-123500000D03*
X184500000Y-123500000D03*
X182500000Y-123500000D03*
X154450000Y-113850000D03*
X152450000Y-113850000D03*
X150450000Y-113850000D03*
X259800000Y-90700000D03*
X258800000Y-90700000D03*
X257800000Y-90700000D03*
X246650000Y-117500000D03*
X245150000Y-102550000D03*
X229850000Y-132750000D03*
X222600000Y-133150000D03*
X261900000Y-137900000D03*
X250900000Y-137950000D03*
X259800000Y-89700000D03*
X258800000Y-89700000D03*
X257800000Y-89700000D03*
X237600000Y-118800000D03*
X231100000Y-122350000D03*
X237750000Y-104350000D03*
X227600000Y-97000000D03*
X223300000Y-97000000D03*
X222550000Y-138850000D03*
X256400000Y-137900000D03*
X245350000Y-138000000D03*
X240150000Y-138000000D03*
X234650000Y-137950000D03*
X221000000Y-133950000D03*
X236700000Y-118950000D03*
X269100000Y-126800000D03*
X267100000Y-126800000D03*
X265100000Y-126800000D03*
X268100000Y-125800000D03*
X266100000Y-125800000D03*
D12*
X137700000Y-145930000D03*
X137700000Y-141970000D03*
D13*
X137700000Y-134050000D03*
D12*
X137700000Y-138010000D03*
D11*
X187350000Y-99500000D03*
X186350000Y-99500000D03*
X214300000Y-99150000D03*
X213300000Y-99150000D03*
X165950000Y-137450000D03*
X164950000Y-137450000D03*
X163950000Y-137450000D03*
X132750000Y-125250000D03*
X161450000Y-99050000D03*
X160450000Y-99050000D03*
X187350000Y-98500000D03*
X186350000Y-98500000D03*
X214300000Y-98150000D03*
X213300000Y-98150000D03*
X165950000Y-136450000D03*
X164950000Y-136450000D03*
X163950000Y-136450000D03*
X142900000Y-111900000D03*
X166100000Y-112600000D03*
X192700000Y-115050000D03*
X161450000Y-98050000D03*
X160450000Y-98050000D03*
X178950000Y-146600000D03*
X206700000Y-127500000D03*
X178850000Y-136350000D03*
X229600000Y-157150000D03*
X165950000Y-135450000D03*
X164950000Y-135450000D03*
X163950000Y-135450000D03*
X202100000Y-106400000D03*
X201100000Y-106400000D03*
X200100000Y-106400000D03*
X199100000Y-106400000D03*
X190350000Y-107050000D03*
X189350000Y-107050000D03*
X188350000Y-107050000D03*
X187350000Y-107050000D03*
X175450000Y-107300000D03*
X174450000Y-107300000D03*
X173450000Y-107300000D03*
X172450000Y-107300000D03*
X165500000Y-107350000D03*
X164500000Y-107350000D03*
X163500000Y-107350000D03*
X204250000Y-103050000D03*
X203250000Y-103050000D03*
X202250000Y-103050000D03*
X201250000Y-103050000D03*
X200250000Y-103050000D03*
X202100000Y-105400000D03*
X201100000Y-105400000D03*
X200100000Y-105400000D03*
X199100000Y-105400000D03*
X190350000Y-106050000D03*
X189350000Y-106050000D03*
X188350000Y-106050000D03*
X187350000Y-106050000D03*
X175450000Y-106300000D03*
X174450000Y-106300000D03*
X173450000Y-106300000D03*
X172450000Y-106300000D03*
X165500000Y-106350000D03*
X164500000Y-106350000D03*
X163500000Y-106350000D03*
X264100000Y-125800000D03*
X190350000Y-105050000D03*
X189350000Y-105050000D03*
X188350000Y-105050000D03*
X187350000Y-105050000D03*
X175450000Y-105300000D03*
X174450000Y-105300000D03*
X173450000Y-105300000D03*
X172450000Y-105300000D03*
X165500000Y-105350000D03*
X164500000Y-105350000D03*
X163500000Y-105350000D03*
X138850000Y-106900000D03*
X137850000Y-106900000D03*
X136850000Y-106900000D03*
X135850000Y-106900000D03*
X196700000Y-107150000D03*
X195700000Y-107150000D03*
X194700000Y-107150000D03*
X193700000Y-107150000D03*
X170700000Y-107450000D03*
X169700000Y-107450000D03*
X168700000Y-107450000D03*
X167700000Y-107450000D03*
X147150000Y-106800000D03*
X146150000Y-106800000D03*
X145150000Y-106800000D03*
X144150000Y-106800000D03*
X152600000Y-105950000D03*
X151600000Y-105950000D03*
X150600000Y-105950000D03*
X149600000Y-105950000D03*
X138850000Y-105900000D03*
X137850000Y-105900000D03*
X136850000Y-105900000D03*
X135850000Y-105900000D03*
X196700000Y-106150000D03*
X195700000Y-106150000D03*
X194700000Y-106150000D03*
X193700000Y-106150000D03*
X170700000Y-106450000D03*
X169700000Y-106450000D03*
X168700000Y-106450000D03*
X167700000Y-106450000D03*
X147150000Y-105800000D03*
X146150000Y-105800000D03*
X145150000Y-105800000D03*
X144150000Y-105800000D03*
X152600000Y-104950000D03*
X151600000Y-104950000D03*
X150600000Y-104950000D03*
X149600000Y-104950000D03*
X138850000Y-104900000D03*
X137850000Y-104900000D03*
X136850000Y-104900000D03*
X135850000Y-104900000D03*
X196700000Y-105150000D03*
X195700000Y-105150000D03*
X194700000Y-105150000D03*
X193700000Y-105150000D03*
X170700000Y-105450000D03*
X169700000Y-105450000D03*
X168700000Y-105450000D03*
X167700000Y-105450000D03*
X147150000Y-104800000D03*
X146150000Y-104800000D03*
X145150000Y-104800000D03*
D14*
X157050000Y-111350000D03*
X250700000Y-89300000D03*
D15*
X250700000Y-90300000D03*
X249700000Y-89300000D03*
X249700000Y-90300000D03*
X248700000Y-89300000D03*
X248700000Y-90300000D03*
X247700000Y-89300000D03*
X247700000Y-90300000D03*
X246700000Y-89300000D03*
X246700000Y-90300000D03*
D14*
X181300000Y-112500000D03*
X205900000Y-112500000D03*
D12*
X179580000Y-90300000D03*
X175620000Y-90300000D03*
D13*
X167700000Y-90300000D03*
D12*
X171660000Y-90300000D03*
X205080000Y-90300000D03*
X201120000Y-90300000D03*
D13*
X193200000Y-90300000D03*
D12*
X197160000Y-90300000D03*
X154580000Y-90300000D03*
X150620000Y-90300000D03*
D13*
X142700000Y-90300000D03*
D12*
X146660000Y-90300000D03*
D16*
X256200000Y-111340000D03*
X256200000Y-108800000D03*
X258200000Y-108800000D03*
X258200000Y-111340000D03*
D17*
X260900000Y-116070000D03*
X260900000Y-104070000D03*
D11*
X144150000Y-104800000D03*
D18*
X136025000Y-96775000D03*
X135825000Y-153675000D03*
X267800000Y-154350000D03*
X266875000Y-101550000D03*
D19*
X248121100Y-111919200D03*
X230359100Y-134159100D03*
X234227800Y-108347000D03*
X234562400Y-95340600D03*
X242450000Y-98685800D03*
X237071500Y-107418500D03*
X234699800Y-109800000D03*
X240119500Y-92910600D03*
X242367200Y-110609400D03*
X229882100Y-130311400D03*
X240750000Y-104467900D03*
X246309300Y-110856400D03*
X223884300Y-135408900D03*
X230941200Y-129236900D03*
X241482200Y-103901200D03*
X248085800Y-111236700D03*
X225010800Y-136270700D03*
X246012700Y-108187400D03*
X245189900Y-108514400D03*
X249775500Y-98699800D03*
X247954300Y-115250000D03*
X241450000Y-137072500D03*
X255628800Y-130995800D03*
X240371900Y-115397800D03*
X206111400Y-141050000D03*
X230745600Y-116419700D03*
X236688100Y-111201500D03*
X245655600Y-112800000D03*
X230418600Y-117588200D03*
X245942100Y-131767000D03*
X239213900Y-118036800D03*
X251686800Y-130943700D03*
X239718500Y-117629900D03*
D20*
X181300000Y-112500000D03*
X158150000Y-114900000D03*
X179000000Y-114850000D03*
D19*
X203582800Y-134107500D03*
X235543700Y-126514600D03*
X237961900Y-120843400D03*
X185003700Y-150702800D03*
X192414800Y-150702800D03*
X145800000Y-110600000D03*
X195567600Y-110355700D03*
X197954100Y-111191800D03*
X142819300Y-119777300D03*
X145809100Y-119252100D03*
X190887500Y-145402100D03*
X193483800Y-153894200D03*
X171940500Y-111528000D03*
X169146800Y-111163300D03*
D20*
X227100000Y-145350000D03*
X191750000Y-135450000D03*
D19*
X242853000Y-156676200D03*
X257950000Y-145684200D03*
D20*
X239977800Y-144850000D03*
D19*
X212962600Y-156152900D03*
D20*
X252350000Y-147500000D03*
D19*
X228046700Y-155852900D03*
D21*
X137700000Y-145930000D03*
D20*
X165600000Y-159050000D03*
X229900000Y-147050000D03*
X230000000Y-98225000D03*
X230000000Y-95075000D03*
D19*
X148436500Y-105875600D03*
X147815600Y-121172200D03*
D20*
X149200000Y-118800000D03*
X151650000Y-118750000D03*
X164600000Y-102900000D03*
X159600000Y-113850000D03*
X146950000Y-111850000D03*
X146550000Y-110100000D03*
D19*
X202757000Y-138373700D03*
X205072400Y-133859600D03*
D20*
X138350000Y-100250000D03*
X144750000Y-101350000D03*
X149425000Y-99450000D03*
X146625000Y-101425000D03*
X202650000Y-131650000D03*
D19*
X215775000Y-136093400D03*
D20*
X214680600Y-138069400D03*
X204000000Y-132050000D03*
D19*
X214597600Y-100894800D03*
X194800000Y-110819100D03*
X192256400Y-104615200D03*
X199753500Y-117041200D03*
X195756200Y-111013300D03*
D20*
X167050000Y-100250000D03*
X163200000Y-100250000D03*
X194150000Y-101700000D03*
X190750000Y-101150000D03*
D19*
X175005000Y-100894800D03*
X170375000Y-100208700D03*
D20*
X200750000Y-100725000D03*
X196150000Y-101950000D03*
D19*
X214806500Y-125474600D03*
X172138900Y-110704200D03*
X160289100Y-108366000D03*
D20*
X214700000Y-120850000D03*
D19*
X148545000Y-100787300D03*
X172307600Y-100894800D03*
D20*
X198350000Y-101850000D03*
X209500000Y-102300000D03*
D22*
G36*
X270515000Y-142173000D02*
X219577000Y-142173000D01*
X219577000Y-139015363D01*
X221714855Y-139015363D01*
X221841708Y-139322372D01*
X222076393Y-139557466D01*
X222383179Y-139684855D01*
X222715363Y-139685145D01*
X223022372Y-139558292D01*
X223257466Y-139323607D01*
X223384855Y-139016821D01*
X223385145Y-138684637D01*
X223258292Y-138377628D01*
X223023607Y-138142534D01*
X222958173Y-138115363D01*
X233814855Y-138115363D01*
X233941708Y-138422372D01*
X234176393Y-138657466D01*
X234483179Y-138784855D01*
X234815363Y-138785145D01*
X235122372Y-138658292D01*
X235357466Y-138423607D01*
X235464698Y-138165363D01*
X239314855Y-138165363D01*
X239441708Y-138472372D01*
X239676393Y-138707466D01*
X239983179Y-138834855D01*
X240315363Y-138835145D01*
X240622372Y-138708292D01*
X240857466Y-138473607D01*
X240984855Y-138166821D01*
X240984856Y-138165363D01*
X244514855Y-138165363D01*
X244641708Y-138472372D01*
X244876393Y-138707466D01*
X245183179Y-138834855D01*
X245515363Y-138835145D01*
X245822372Y-138708292D01*
X246057466Y-138473607D01*
X246184855Y-138166821D01*
X246184899Y-138115363D01*
X250064855Y-138115363D01*
X250191708Y-138422372D01*
X250426393Y-138657466D01*
X250733179Y-138784855D01*
X251065363Y-138785145D01*
X251372372Y-138658292D01*
X251607466Y-138423607D01*
X251734855Y-138116821D01*
X251734899Y-138065363D01*
X255564855Y-138065363D01*
X255691708Y-138372372D01*
X255926393Y-138607466D01*
X256233179Y-138734855D01*
X256565363Y-138735145D01*
X256872372Y-138608292D01*
X257107466Y-138373607D01*
X257234855Y-138066821D01*
X257234856Y-138065363D01*
X261064855Y-138065363D01*
X261191708Y-138372372D01*
X261426393Y-138607466D01*
X261733179Y-138734855D01*
X262065363Y-138735145D01*
X262372372Y-138608292D01*
X262607466Y-138373607D01*
X262734855Y-138066821D01*
X262735145Y-137734637D01*
X262608292Y-137427628D01*
X262373607Y-137192534D01*
X262066821Y-137065145D01*
X261734637Y-137064855D01*
X261427628Y-137191708D01*
X261192534Y-137426393D01*
X261065145Y-137733179D01*
X261064855Y-138065363D01*
X257234856Y-138065363D01*
X257235145Y-137734637D01*
X257108292Y-137427628D01*
X256873607Y-137192534D01*
X256566821Y-137065145D01*
X256234637Y-137064855D01*
X255927628Y-137191708D01*
X255692534Y-137426393D01*
X255565145Y-137733179D01*
X255564855Y-138065363D01*
X251734899Y-138065363D01*
X251735145Y-137784637D01*
X251608292Y-137477628D01*
X251373607Y-137242534D01*
X251066821Y-137115145D01*
X250734637Y-137114855D01*
X250427628Y-137241708D01*
X250192534Y-137476393D01*
X250065145Y-137783179D01*
X250064855Y-138115363D01*
X246184899Y-138115363D01*
X246185145Y-137834637D01*
X246058292Y-137527628D01*
X245823607Y-137292534D01*
X245516821Y-137165145D01*
X245184637Y-137164855D01*
X244877628Y-137291708D01*
X244642534Y-137526393D01*
X244515145Y-137833179D01*
X244514855Y-138165363D01*
X240984856Y-138165363D01*
X240985142Y-137837954D01*
X241273150Y-137957546D01*
X241625305Y-137957853D01*
X241950770Y-137823374D01*
X242199998Y-137574580D01*
X242335046Y-137249350D01*
X242335353Y-136897195D01*
X242200874Y-136571730D01*
X241952080Y-136322502D01*
X241626850Y-136187454D01*
X241274695Y-136187147D01*
X240949230Y-136321626D01*
X240700002Y-136570420D01*
X240564954Y-136895650D01*
X240564647Y-137247805D01*
X240574745Y-137272245D01*
X240316821Y-137165145D01*
X239984637Y-137164855D01*
X239677628Y-137291708D01*
X239442534Y-137526393D01*
X239315145Y-137833179D01*
X239314855Y-138165363D01*
X235464698Y-138165363D01*
X235484855Y-138116821D01*
X235485145Y-137784637D01*
X235358292Y-137477628D01*
X235123607Y-137242534D01*
X234816821Y-137115145D01*
X234484637Y-137114855D01*
X234177628Y-137241708D01*
X233942534Y-137476393D01*
X233815145Y-137783179D01*
X233814855Y-138115363D01*
X222958173Y-138115363D01*
X222716821Y-138015145D01*
X222384637Y-138014855D01*
X222077628Y-138141708D01*
X221842534Y-138376393D01*
X221715145Y-138683179D01*
X221714855Y-139015363D01*
X219577000Y-139015363D01*
X219577000Y-135584205D01*
X222998947Y-135584205D01*
X223133426Y-135909670D01*
X223382220Y-136158898D01*
X223707450Y-136293946D01*
X224059605Y-136294253D01*
X224125603Y-136266983D01*
X224125447Y-136446005D01*
X224259926Y-136771470D01*
X224508720Y-137020698D01*
X224833950Y-137155746D01*
X225186105Y-137156053D01*
X225511570Y-137021574D01*
X225760798Y-136772780D01*
X225895846Y-136447550D01*
X225896153Y-136095395D01*
X225761674Y-135769930D01*
X225512880Y-135520702D01*
X225187650Y-135385654D01*
X224835495Y-135385347D01*
X224769497Y-135412617D01*
X224769653Y-135233595D01*
X224635174Y-134908130D01*
X224386380Y-134658902D01*
X224061150Y-134523854D01*
X223708995Y-134523547D01*
X223383530Y-134658026D01*
X223134302Y-134906820D01*
X222999254Y-135232050D01*
X222998947Y-135584205D01*
X219577000Y-135584205D01*
X219577000Y-133315363D01*
X221764855Y-133315363D01*
X221891708Y-133622372D01*
X222126393Y-133857466D01*
X222433179Y-133984855D01*
X222765363Y-133985145D01*
X223072372Y-133858292D01*
X223307466Y-133623607D01*
X223434855Y-133316821D01*
X223435145Y-132984637D01*
X223406522Y-132915363D01*
X229014855Y-132915363D01*
X229141708Y-133222372D01*
X229376393Y-133457466D01*
X229681918Y-133584331D01*
X229609102Y-133657020D01*
X229474054Y-133982250D01*
X229473747Y-134334405D01*
X229608226Y-134659870D01*
X229857020Y-134909098D01*
X230182250Y-135044146D01*
X230534405Y-135044453D01*
X230859870Y-134909974D01*
X231109098Y-134661180D01*
X231244146Y-134335950D01*
X231244453Y-133983795D01*
X231109974Y-133658330D01*
X230861180Y-133409102D01*
X230535950Y-133274054D01*
X230506956Y-133274029D01*
X230557466Y-133223607D01*
X230684855Y-132916821D01*
X230685145Y-132584637D01*
X230558292Y-132277628D01*
X230323607Y-132042534D01*
X230082230Y-131942305D01*
X245056747Y-131942305D01*
X245191226Y-132267770D01*
X245440020Y-132516998D01*
X245765250Y-132652046D01*
X246117405Y-132652353D01*
X246442870Y-132517874D01*
X246692098Y-132269080D01*
X246827146Y-131943850D01*
X246827453Y-131591695D01*
X246692974Y-131266230D01*
X246546006Y-131119005D01*
X250801447Y-131119005D01*
X250935926Y-131444470D01*
X251184720Y-131693698D01*
X251509950Y-131828746D01*
X251862105Y-131829053D01*
X252187570Y-131694574D01*
X252436798Y-131445780D01*
X252550853Y-131171105D01*
X254743447Y-131171105D01*
X254877926Y-131496570D01*
X255126720Y-131745798D01*
X255451950Y-131880846D01*
X255804105Y-131881153D01*
X256129570Y-131746674D01*
X256378798Y-131497880D01*
X256513846Y-131172650D01*
X256514153Y-130820495D01*
X256379674Y-130495030D01*
X256130880Y-130245802D01*
X255805650Y-130110754D01*
X255453495Y-130110447D01*
X255128030Y-130244926D01*
X254878802Y-130493720D01*
X254743754Y-130818950D01*
X254743447Y-131171105D01*
X252550853Y-131171105D01*
X252571846Y-131120550D01*
X252572153Y-130768395D01*
X252437674Y-130442930D01*
X252188880Y-130193702D01*
X251863650Y-130058654D01*
X251511495Y-130058347D01*
X251186030Y-130192826D01*
X250936802Y-130441620D01*
X250801754Y-130766850D01*
X250801447Y-131119005D01*
X246546006Y-131119005D01*
X246444180Y-131017002D01*
X246118950Y-130881954D01*
X245766795Y-130881647D01*
X245441330Y-131016126D01*
X245192102Y-131264920D01*
X245057054Y-131590150D01*
X245056747Y-131942305D01*
X230082230Y-131942305D01*
X230016821Y-131915145D01*
X229684637Y-131914855D01*
X229377628Y-132041708D01*
X229142534Y-132276393D01*
X229015145Y-132583179D01*
X229014855Y-132915363D01*
X223406522Y-132915363D01*
X223308292Y-132677628D01*
X223073607Y-132442534D01*
X222766821Y-132315145D01*
X222434637Y-132314855D01*
X222127628Y-132441708D01*
X221892534Y-132676393D01*
X221765145Y-132983179D01*
X221764855Y-133315363D01*
X219577000Y-133315363D01*
X219577000Y-130486705D01*
X228996747Y-130486705D01*
X229131226Y-130812170D01*
X229380020Y-131061398D01*
X229705250Y-131196446D01*
X230057405Y-131196753D01*
X230382870Y-131062274D01*
X230632098Y-130813480D01*
X230767146Y-130488250D01*
X230767453Y-130136095D01*
X230761039Y-130120571D01*
X230764350Y-130121946D01*
X231116505Y-130122253D01*
X231441970Y-129987774D01*
X231691198Y-129738980D01*
X231826246Y-129413750D01*
X231826553Y-129061595D01*
X231692074Y-128736130D01*
X231443280Y-128486902D01*
X231118050Y-128351854D01*
X230765895Y-128351547D01*
X230440430Y-128486026D01*
X230191202Y-128734820D01*
X230056154Y-129060050D01*
X230055847Y-129412205D01*
X230062261Y-129427729D01*
X230058950Y-129426354D01*
X229706795Y-129426047D01*
X229381330Y-129560526D01*
X229132102Y-129809320D01*
X228997054Y-130134550D01*
X228996747Y-130486705D01*
X219577000Y-130486705D01*
X219577000Y-126689905D01*
X234658347Y-126689905D01*
X234792826Y-127015370D01*
X235041620Y-127264598D01*
X235366850Y-127399646D01*
X235719005Y-127399953D01*
X236044470Y-127265474D01*
X236293698Y-127016680D01*
X236428746Y-126691450D01*
X236429053Y-126339295D01*
X236294574Y-126013830D01*
X236045780Y-125764602D01*
X235720550Y-125629554D01*
X235368395Y-125629247D01*
X235042930Y-125763726D01*
X234793702Y-126012520D01*
X234658654Y-126337750D01*
X234658347Y-126689905D01*
X219577000Y-126689905D01*
X219577000Y-122515363D01*
X230264855Y-122515363D01*
X230391708Y-122822372D01*
X230626393Y-123057466D01*
X230933179Y-123184855D01*
X231265363Y-123185145D01*
X231572372Y-123058292D01*
X231807466Y-122823607D01*
X231934855Y-122516821D01*
X231935145Y-122184637D01*
X231808292Y-121877628D01*
X231573607Y-121642534D01*
X231266821Y-121515145D01*
X230934637Y-121514855D01*
X230627628Y-121641708D01*
X230392534Y-121876393D01*
X230265145Y-122183179D01*
X230264855Y-122515363D01*
X219577000Y-122515363D01*
X219577000Y-121018705D01*
X237076547Y-121018705D01*
X237211026Y-121344170D01*
X237459820Y-121593398D01*
X237785050Y-121728446D01*
X238137205Y-121728753D01*
X238462670Y-121594274D01*
X238711898Y-121345480D01*
X238846946Y-121020250D01*
X238847253Y-120668095D01*
X238712774Y-120342630D01*
X238463980Y-120093402D01*
X238138750Y-119958354D01*
X237786595Y-119958047D01*
X237461130Y-120092526D01*
X237211902Y-120341320D01*
X237076854Y-120666550D01*
X237076547Y-121018705D01*
X219577000Y-121018705D01*
X219577000Y-118965363D01*
X236764855Y-118965363D01*
X236891708Y-119272372D01*
X237126393Y-119507466D01*
X237433179Y-119634855D01*
X237765363Y-119635145D01*
X238072372Y-119508292D01*
X238307466Y-119273607D01*
X238434855Y-118966821D01*
X238435145Y-118634637D01*
X238308292Y-118327628D01*
X238192970Y-118212105D01*
X238328547Y-118212105D01*
X238463026Y-118537570D01*
X238711820Y-118786798D01*
X239037050Y-118921846D01*
X239389205Y-118922153D01*
X239714670Y-118787674D01*
X239963898Y-118538880D01*
X239990257Y-118475400D01*
X240219270Y-118380774D01*
X240468498Y-118131980D01*
X240603546Y-117806750D01*
X240603669Y-117665363D01*
X245814855Y-117665363D01*
X245941708Y-117972372D01*
X246176393Y-118207466D01*
X246483179Y-118334855D01*
X246815363Y-118335145D01*
X247122372Y-118208292D01*
X247357466Y-117973607D01*
X247484855Y-117666821D01*
X247485021Y-117475593D01*
X259674012Y-117475593D01*
X259815478Y-117778782D01*
X260551955Y-118063737D01*
X261341418Y-118045164D01*
X261984522Y-117778782D01*
X262125988Y-117475593D01*
X260900000Y-116249605D01*
X259674012Y-117475593D01*
X247485021Y-117475593D01*
X247485145Y-117334637D01*
X247358292Y-117027628D01*
X247123607Y-116792534D01*
X246816821Y-116665145D01*
X246484637Y-116664855D01*
X246177628Y-116791708D01*
X245942534Y-117026393D01*
X245815145Y-117333179D01*
X245814855Y-117665363D01*
X240603669Y-117665363D01*
X240603853Y-117454595D01*
X240469374Y-117129130D01*
X240220580Y-116879902D01*
X239895350Y-116744854D01*
X239543195Y-116744547D01*
X239217730Y-116879026D01*
X238968502Y-117127820D01*
X238942143Y-117191300D01*
X238713130Y-117285926D01*
X238463902Y-117534720D01*
X238328854Y-117859950D01*
X238328547Y-118212105D01*
X238192970Y-118212105D01*
X238073607Y-118092534D01*
X237766821Y-117965145D01*
X237434637Y-117964855D01*
X237127628Y-118091708D01*
X236892534Y-118326393D01*
X236765145Y-118633179D01*
X236764855Y-118965363D01*
X219577000Y-118965363D01*
X219577000Y-117763505D01*
X229533247Y-117763505D01*
X229667726Y-118088970D01*
X229916520Y-118338198D01*
X230241750Y-118473246D01*
X230593905Y-118473553D01*
X230919370Y-118339074D01*
X231168598Y-118090280D01*
X231303646Y-117765050D01*
X231303953Y-117412895D01*
X231210032Y-117185588D01*
X231246370Y-117170574D01*
X231495598Y-116921780D01*
X231630646Y-116596550D01*
X231630953Y-116244395D01*
X231496474Y-115918930D01*
X231247680Y-115669702D01*
X231015050Y-115573105D01*
X239486547Y-115573105D01*
X239621026Y-115898570D01*
X239869820Y-116147798D01*
X240195050Y-116282846D01*
X240547205Y-116283153D01*
X240872670Y-116148674D01*
X241121898Y-115899880D01*
X241256946Y-115574650D01*
X241257076Y-115425305D01*
X247068947Y-115425305D01*
X247203426Y-115750770D01*
X247452220Y-115999998D01*
X247777450Y-116135046D01*
X248129605Y-116135353D01*
X248455070Y-116000874D01*
X248704298Y-115752080D01*
X248716807Y-115721955D01*
X258906263Y-115721955D01*
X258924836Y-116511418D01*
X259191218Y-117154522D01*
X259494407Y-117295988D01*
X260720395Y-116070000D01*
X261079605Y-116070000D01*
X262305593Y-117295988D01*
X262608782Y-117154522D01*
X262893737Y-116418045D01*
X262875164Y-115628582D01*
X262608782Y-114985478D01*
X262305593Y-114844012D01*
X261079605Y-116070000D01*
X260720395Y-116070000D01*
X259494407Y-114844012D01*
X259191218Y-114985478D01*
X258906263Y-115721955D01*
X248716807Y-115721955D01*
X248839346Y-115426850D01*
X248839653Y-115074695D01*
X248705174Y-114749230D01*
X248620499Y-114664407D01*
X259674012Y-114664407D01*
X260900000Y-115890395D01*
X262125988Y-114664407D01*
X261984522Y-114361218D01*
X261248045Y-114076263D01*
X260458582Y-114094836D01*
X259815478Y-114361218D01*
X259674012Y-114664407D01*
X248620499Y-114664407D01*
X248456380Y-114500002D01*
X248131150Y-114364954D01*
X247778995Y-114364647D01*
X247453530Y-114499126D01*
X247204302Y-114747920D01*
X247069254Y-115073150D01*
X247068947Y-115425305D01*
X241257076Y-115425305D01*
X241257253Y-115222495D01*
X241122774Y-114897030D01*
X240873980Y-114647802D01*
X240548750Y-114512754D01*
X240196595Y-114512447D01*
X239871130Y-114646926D01*
X239621902Y-114895720D01*
X239486854Y-115220950D01*
X239486547Y-115573105D01*
X231015050Y-115573105D01*
X230922450Y-115534654D01*
X230570295Y-115534347D01*
X230244830Y-115668826D01*
X229995602Y-115917620D01*
X229860554Y-116242850D01*
X229860247Y-116595005D01*
X229954168Y-116822312D01*
X229917830Y-116837326D01*
X229668602Y-117086120D01*
X229533554Y-117411350D01*
X229533247Y-117763505D01*
X219577000Y-117763505D01*
X219577000Y-112975305D01*
X244770247Y-112975305D01*
X244904726Y-113300770D01*
X245153520Y-113549998D01*
X245478750Y-113685046D01*
X245830905Y-113685353D01*
X246156370Y-113550874D01*
X246405598Y-113302080D01*
X246540646Y-112976850D01*
X246540953Y-112624695D01*
X246406474Y-112299230D01*
X246157680Y-112050002D01*
X245832450Y-111914954D01*
X245480295Y-111914647D01*
X245154830Y-112049126D01*
X244905602Y-112297920D01*
X244770554Y-112623150D01*
X244770247Y-112975305D01*
X219577000Y-112975305D01*
X219577000Y-111376805D01*
X235802747Y-111376805D01*
X235937226Y-111702270D01*
X236186020Y-111951498D01*
X236511250Y-112086546D01*
X236863405Y-112086853D01*
X237188870Y-111952374D01*
X237438098Y-111703580D01*
X237573146Y-111378350D01*
X237573453Y-111026195D01*
X237473672Y-110784705D01*
X241481847Y-110784705D01*
X241616326Y-111110170D01*
X241865120Y-111359398D01*
X242190350Y-111494446D01*
X242542505Y-111494753D01*
X242867970Y-111360274D01*
X243117198Y-111111480D01*
X243150323Y-111031705D01*
X245423947Y-111031705D01*
X245558426Y-111357170D01*
X245807220Y-111606398D01*
X246132450Y-111741446D01*
X246484605Y-111741753D01*
X246810070Y-111607274D01*
X247005679Y-111412005D01*
X247200447Y-111412005D01*
X247286623Y-111620567D01*
X247236054Y-111742350D01*
X247235747Y-112094505D01*
X247370226Y-112419970D01*
X247619020Y-112669198D01*
X247944250Y-112804246D01*
X248296405Y-112804553D01*
X248621870Y-112670074D01*
X248871098Y-112421280D01*
X249006146Y-112096050D01*
X249006453Y-111743895D01*
X248920277Y-111535333D01*
X248970846Y-111413550D01*
X248971153Y-111061395D01*
X248836674Y-110735930D01*
X248587880Y-110486702D01*
X248262650Y-110351654D01*
X247910495Y-110351347D01*
X247585030Y-110485826D01*
X247335802Y-110734620D01*
X247200754Y-111059850D01*
X247200447Y-111412005D01*
X247005679Y-111412005D01*
X247059298Y-111358480D01*
X247194346Y-111033250D01*
X247194653Y-110681095D01*
X247060174Y-110355630D01*
X246811380Y-110106402D01*
X246486150Y-109971354D01*
X246133995Y-109971047D01*
X245808530Y-110105526D01*
X245559302Y-110354320D01*
X245424254Y-110679550D01*
X245423947Y-111031705D01*
X243150323Y-111031705D01*
X243252246Y-110786250D01*
X243252553Y-110434095D01*
X243118074Y-110108630D01*
X242869280Y-109859402D01*
X242544050Y-109724354D01*
X242191895Y-109724047D01*
X241866430Y-109858526D01*
X241617202Y-110107320D01*
X241482154Y-110432550D01*
X241481847Y-110784705D01*
X237473672Y-110784705D01*
X237438974Y-110700730D01*
X237190180Y-110451502D01*
X236864950Y-110316454D01*
X236512795Y-110316147D01*
X236187330Y-110450626D01*
X235938102Y-110699420D01*
X235803054Y-111024650D01*
X235802747Y-111376805D01*
X219577000Y-111376805D01*
X219577000Y-108522305D01*
X233342447Y-108522305D01*
X233476926Y-108847770D01*
X233725720Y-109096998D01*
X234026119Y-109221735D01*
X233949802Y-109297920D01*
X233814754Y-109623150D01*
X233814447Y-109975305D01*
X233948926Y-110300770D01*
X234197720Y-110549998D01*
X234522950Y-110685046D01*
X234875105Y-110685353D01*
X235200570Y-110550874D01*
X235449798Y-110302080D01*
X235584846Y-109976850D01*
X235585153Y-109624695D01*
X235450674Y-109299230D01*
X235201880Y-109050002D01*
X234901481Y-108925265D01*
X234977798Y-108849080D01*
X235043976Y-108689705D01*
X244304547Y-108689705D01*
X244439026Y-109015170D01*
X244687820Y-109264398D01*
X245013050Y-109399446D01*
X245365205Y-109399753D01*
X245690670Y-109265274D01*
X245880009Y-109076265D01*
X254804758Y-109076265D01*
X255016687Y-109589172D01*
X255408764Y-109981934D01*
X255620738Y-110069954D01*
X255410828Y-110156687D01*
X255018066Y-110548764D01*
X254805242Y-111061300D01*
X254804758Y-111616265D01*
X255016687Y-112129172D01*
X255408764Y-112521934D01*
X255921300Y-112734758D01*
X256476265Y-112735242D01*
X256989172Y-112523313D01*
X257200024Y-112312829D01*
X257408764Y-112521934D01*
X257921300Y-112734758D01*
X258476265Y-112735242D01*
X258989172Y-112523313D01*
X259381934Y-112131236D01*
X259594758Y-111618700D01*
X259595242Y-111063735D01*
X259383313Y-110550828D01*
X258991236Y-110158066D01*
X258795066Y-110076609D01*
X258929941Y-110020742D01*
X258999159Y-109778764D01*
X258200000Y-108979605D01*
X257400841Y-109778764D01*
X257470059Y-110020742D01*
X257614862Y-110072382D01*
X257410828Y-110156687D01*
X257199976Y-110367171D01*
X256991236Y-110158066D01*
X256779262Y-110070046D01*
X256989172Y-109983313D01*
X257381934Y-109591236D01*
X257490419Y-109329976D01*
X258020395Y-108800000D01*
X258379605Y-108800000D01*
X259178764Y-109599159D01*
X259420742Y-109529941D01*
X259607155Y-109007220D01*
X259579341Y-108452951D01*
X259420742Y-108070059D01*
X259178764Y-108000841D01*
X258379605Y-108800000D01*
X258020395Y-108800000D01*
X257490405Y-108270010D01*
X257383313Y-108010828D01*
X257194052Y-107821236D01*
X257400841Y-107821236D01*
X258200000Y-108620395D01*
X258999159Y-107821236D01*
X258929941Y-107579258D01*
X258407220Y-107392845D01*
X257852951Y-107420659D01*
X257470059Y-107579258D01*
X257400841Y-107821236D01*
X257194052Y-107821236D01*
X256991236Y-107618066D01*
X256478700Y-107405242D01*
X255923735Y-107404758D01*
X255410828Y-107616687D01*
X255018066Y-108008764D01*
X254805242Y-108521300D01*
X254804758Y-109076265D01*
X245880009Y-109076265D01*
X245883793Y-109072488D01*
X246188005Y-109072753D01*
X246513470Y-108938274D01*
X246762698Y-108689480D01*
X246897746Y-108364250D01*
X246898053Y-108012095D01*
X246763574Y-107686630D01*
X246514780Y-107437402D01*
X246189550Y-107302354D01*
X245837395Y-107302047D01*
X245511930Y-107436526D01*
X245318807Y-107629312D01*
X245014595Y-107629047D01*
X244689130Y-107763526D01*
X244439902Y-108012320D01*
X244304854Y-108337550D01*
X244304547Y-108689705D01*
X235043976Y-108689705D01*
X235112846Y-108523850D01*
X235113153Y-108171695D01*
X234978674Y-107846230D01*
X234729880Y-107597002D01*
X234722181Y-107593805D01*
X236186147Y-107593805D01*
X236320626Y-107919270D01*
X236569420Y-108168498D01*
X236894650Y-108303546D01*
X237246805Y-108303853D01*
X237572270Y-108169374D01*
X237821498Y-107920580D01*
X237956546Y-107595350D01*
X237956853Y-107243195D01*
X237822374Y-106917730D01*
X237573580Y-106668502D01*
X237248350Y-106533454D01*
X236896195Y-106533147D01*
X236570730Y-106667626D01*
X236321502Y-106916420D01*
X236186454Y-107241650D01*
X236186147Y-107593805D01*
X234722181Y-107593805D01*
X234404650Y-107461954D01*
X234052495Y-107461647D01*
X233727030Y-107596126D01*
X233477802Y-107844920D01*
X233342754Y-108170150D01*
X233342447Y-108522305D01*
X219577000Y-108522305D01*
X219577000Y-105475593D01*
X259674012Y-105475593D01*
X259815478Y-105778782D01*
X260551955Y-106063737D01*
X261341418Y-106045164D01*
X261984522Y-105778782D01*
X262125988Y-105475593D01*
X260900000Y-104249605D01*
X259674012Y-105475593D01*
X219577000Y-105475593D01*
X219577000Y-104515363D01*
X236914855Y-104515363D01*
X237041708Y-104822372D01*
X237276393Y-105057466D01*
X237583179Y-105184855D01*
X237915363Y-105185145D01*
X238222372Y-105058292D01*
X238457466Y-104823607D01*
X238532375Y-104643205D01*
X239864647Y-104643205D01*
X239999126Y-104968670D01*
X240247920Y-105217898D01*
X240573150Y-105352946D01*
X240925305Y-105353253D01*
X241250770Y-105218774D01*
X241499998Y-104969980D01*
X241576193Y-104786482D01*
X241657505Y-104786553D01*
X241982970Y-104652074D01*
X242232198Y-104403280D01*
X242367246Y-104078050D01*
X242367553Y-103725895D01*
X242365926Y-103721955D01*
X258906263Y-103721955D01*
X258924836Y-104511418D01*
X259191218Y-105154522D01*
X259494407Y-105295988D01*
X260720395Y-104070000D01*
X261079605Y-104070000D01*
X262305593Y-105295988D01*
X262608782Y-105154522D01*
X262893737Y-104418045D01*
X262875164Y-103628582D01*
X262608782Y-102985478D01*
X262305593Y-102844012D01*
X261079605Y-104070000D01*
X260720395Y-104070000D01*
X259494407Y-102844012D01*
X259191218Y-102985478D01*
X258906263Y-103721955D01*
X242365926Y-103721955D01*
X242233074Y-103400430D01*
X241984280Y-103151202D01*
X241659050Y-103016154D01*
X241306895Y-103015847D01*
X240981430Y-103150326D01*
X240732202Y-103399120D01*
X240656007Y-103582618D01*
X240574695Y-103582547D01*
X240249230Y-103717026D01*
X240000002Y-103965820D01*
X239864954Y-104291050D01*
X239864647Y-104643205D01*
X238532375Y-104643205D01*
X238584855Y-104516821D01*
X238585145Y-104184637D01*
X238458292Y-103877628D01*
X238223607Y-103642534D01*
X237916821Y-103515145D01*
X237584637Y-103514855D01*
X237277628Y-103641708D01*
X237042534Y-103876393D01*
X236915145Y-104183179D01*
X236914855Y-104515363D01*
X219577000Y-104515363D01*
X219577000Y-102715363D01*
X244314855Y-102715363D01*
X244441708Y-103022372D01*
X244676393Y-103257466D01*
X244983179Y-103384855D01*
X245315363Y-103385145D01*
X245622372Y-103258292D01*
X245857466Y-103023607D01*
X245984855Y-102716821D01*
X245984900Y-102664407D01*
X259674012Y-102664407D01*
X260900000Y-103890395D01*
X262125988Y-102664407D01*
X261984522Y-102361218D01*
X261248045Y-102076263D01*
X260458582Y-102094836D01*
X259815478Y-102361218D01*
X259674012Y-102664407D01*
X245984900Y-102664407D01*
X245985145Y-102384637D01*
X245858292Y-102077628D01*
X245623607Y-101842534D01*
X245607270Y-101835750D01*
X265390000Y-101835750D01*
X265390000Y-102526310D01*
X265486673Y-102759699D01*
X265665302Y-102938327D01*
X265898691Y-103035000D01*
X266589250Y-103035000D01*
X266748000Y-102876250D01*
X266748000Y-101677000D01*
X267002000Y-101677000D01*
X267002000Y-102876250D01*
X267160750Y-103035000D01*
X267851309Y-103035000D01*
X268084698Y-102938327D01*
X268263327Y-102759699D01*
X268360000Y-102526310D01*
X268360000Y-101835750D01*
X268201250Y-101677000D01*
X267002000Y-101677000D01*
X266748000Y-101677000D01*
X265548750Y-101677000D01*
X265390000Y-101835750D01*
X245607270Y-101835750D01*
X245316821Y-101715145D01*
X244984637Y-101714855D01*
X244677628Y-101841708D01*
X244442534Y-102076393D01*
X244315145Y-102383179D01*
X244314855Y-102715363D01*
X219577000Y-102715363D01*
X219577000Y-100573690D01*
X265390000Y-100573690D01*
X265390000Y-101264250D01*
X265548750Y-101423000D01*
X266748000Y-101423000D01*
X266748000Y-100223750D01*
X267002000Y-100223750D01*
X267002000Y-101423000D01*
X268201250Y-101423000D01*
X268360000Y-101264250D01*
X268360000Y-100573690D01*
X268263327Y-100340301D01*
X268084698Y-100161673D01*
X267851309Y-100065000D01*
X267160750Y-100065000D01*
X267002000Y-100223750D01*
X266748000Y-100223750D01*
X266589250Y-100065000D01*
X265898691Y-100065000D01*
X265665302Y-100161673D01*
X265486673Y-100340301D01*
X265390000Y-100573690D01*
X219577000Y-100573690D01*
X219577000Y-98400303D01*
X229114657Y-98400303D01*
X229249135Y-98725765D01*
X229497925Y-98974990D01*
X229823152Y-99110036D01*
X230175303Y-99110343D01*
X230500765Y-98975865D01*
X230615725Y-98861105D01*
X241564647Y-98861105D01*
X241699126Y-99186570D01*
X241947920Y-99435798D01*
X242273150Y-99570846D01*
X242625305Y-99571153D01*
X242950770Y-99436674D01*
X243199998Y-99187880D01*
X243329874Y-98875105D01*
X248890147Y-98875105D01*
X249024626Y-99200570D01*
X249273420Y-99449798D01*
X249598650Y-99584846D01*
X249950805Y-99585153D01*
X250276270Y-99450674D01*
X250525498Y-99201880D01*
X250660546Y-98876650D01*
X250660853Y-98524495D01*
X250526374Y-98199030D01*
X250277580Y-97949802D01*
X249952350Y-97814754D01*
X249600195Y-97814447D01*
X249274730Y-97948926D01*
X249025502Y-98197720D01*
X248890454Y-98522950D01*
X248890147Y-98875105D01*
X243329874Y-98875105D01*
X243335046Y-98862650D01*
X243335353Y-98510495D01*
X243200874Y-98185030D01*
X242952080Y-97935802D01*
X242626850Y-97800754D01*
X242274695Y-97800447D01*
X241949230Y-97934926D01*
X241700002Y-98183720D01*
X241564954Y-98508950D01*
X241564647Y-98861105D01*
X230615725Y-98861105D01*
X230749990Y-98727075D01*
X230885036Y-98401848D01*
X230885343Y-98049697D01*
X230750865Y-97724235D01*
X230502075Y-97475010D01*
X230176848Y-97339964D01*
X229824697Y-97339657D01*
X229499235Y-97474135D01*
X229250010Y-97722925D01*
X229114964Y-98048152D01*
X229114657Y-98400303D01*
X219577000Y-98400303D01*
X219577000Y-97165363D01*
X222464855Y-97165363D01*
X222591708Y-97472372D01*
X222826393Y-97707466D01*
X223133179Y-97834855D01*
X223465363Y-97835145D01*
X223772372Y-97708292D01*
X224007466Y-97473607D01*
X224134855Y-97166821D01*
X224134856Y-97165363D01*
X226764855Y-97165363D01*
X226891708Y-97472372D01*
X227126393Y-97707466D01*
X227433179Y-97834855D01*
X227765363Y-97835145D01*
X228072372Y-97708292D01*
X228307466Y-97473607D01*
X228434855Y-97166821D01*
X228435145Y-96834637D01*
X228308292Y-96527628D01*
X228073607Y-96292534D01*
X227766821Y-96165145D01*
X227434637Y-96164855D01*
X227127628Y-96291708D01*
X226892534Y-96526393D01*
X226765145Y-96833179D01*
X226764855Y-97165363D01*
X224134856Y-97165363D01*
X224135145Y-96834637D01*
X224008292Y-96527628D01*
X223773607Y-96292534D01*
X223466821Y-96165145D01*
X223134637Y-96164855D01*
X222827628Y-96291708D01*
X222592534Y-96526393D01*
X222465145Y-96833179D01*
X222464855Y-97165363D01*
X219577000Y-97165363D01*
X219577000Y-95250303D01*
X229114657Y-95250303D01*
X229249135Y-95575765D01*
X229497925Y-95824990D01*
X229823152Y-95960036D01*
X230175303Y-95960343D01*
X230500765Y-95825865D01*
X230749990Y-95577075D01*
X230775389Y-95515905D01*
X233677047Y-95515905D01*
X233811526Y-95841370D01*
X234060320Y-96090598D01*
X234385550Y-96225646D01*
X234737705Y-96225953D01*
X235063170Y-96091474D01*
X235312398Y-95842680D01*
X235447446Y-95517450D01*
X235447753Y-95165295D01*
X235313274Y-94839830D01*
X235064480Y-94590602D01*
X234739250Y-94455554D01*
X234387095Y-94455247D01*
X234061630Y-94589726D01*
X233812402Y-94838520D01*
X233677354Y-95163750D01*
X233677047Y-95515905D01*
X230775389Y-95515905D01*
X230885036Y-95251848D01*
X230885343Y-94899697D01*
X230750865Y-94574235D01*
X230502075Y-94325010D01*
X230176848Y-94189964D01*
X229824697Y-94189657D01*
X229499235Y-94324135D01*
X229250010Y-94572925D01*
X229114964Y-94898152D01*
X229114657Y-95250303D01*
X219577000Y-95250303D01*
X219577000Y-93085905D01*
X239234147Y-93085905D01*
X239368626Y-93411370D01*
X239617420Y-93660598D01*
X239942650Y-93795646D01*
X240294805Y-93795953D01*
X240620270Y-93661474D01*
X240869498Y-93412680D01*
X241004546Y-93087450D01*
X241004853Y-92735295D01*
X240870374Y-92409830D01*
X240621580Y-92160602D01*
X240296350Y-92025554D01*
X239944195Y-92025247D01*
X239618730Y-92159726D01*
X239369502Y-92408520D01*
X239234454Y-92733750D01*
X239234147Y-93085905D01*
X219577000Y-93085905D01*
X219577000Y-91992619D01*
X264964613Y-91992619D01*
X265304155Y-92814372D01*
X265932321Y-93443636D01*
X266753481Y-93784611D01*
X267642619Y-93785387D01*
X268464372Y-93445845D01*
X269093636Y-92817679D01*
X269434611Y-91996519D01*
X269435387Y-91107381D01*
X269095845Y-90285628D01*
X268467679Y-89656364D01*
X267646519Y-89315389D01*
X266757381Y-89314613D01*
X265935628Y-89654155D01*
X265306364Y-90282321D01*
X264965389Y-91103481D01*
X264964613Y-91992619D01*
X219577000Y-91992619D01*
X219577000Y-90279233D01*
X245640000Y-90279233D01*
X245640000Y-90320767D01*
X245720688Y-90726411D01*
X245950467Y-91070300D01*
X246294356Y-91300079D01*
X246700000Y-91380767D01*
X247105644Y-91300079D01*
X247200000Y-91237032D01*
X247294356Y-91300079D01*
X247700000Y-91380767D01*
X248105644Y-91300079D01*
X248200000Y-91237032D01*
X248294356Y-91300079D01*
X248700000Y-91380767D01*
X249105644Y-91300079D01*
X249200000Y-91237032D01*
X249294356Y-91300079D01*
X249700000Y-91380767D01*
X250105644Y-91300079D01*
X250200000Y-91237032D01*
X250294356Y-91300079D01*
X250700000Y-91380767D01*
X251105644Y-91300079D01*
X251449533Y-91070300D01*
X251679312Y-90726411D01*
X251760000Y-90320767D01*
X251760000Y-90279233D01*
X251704724Y-90001342D01*
X251721431Y-89976890D01*
X251744015Y-89865363D01*
X256964855Y-89865363D01*
X257091708Y-90172372D01*
X257119131Y-90199843D01*
X257092534Y-90226393D01*
X256965145Y-90533179D01*
X256964855Y-90865363D01*
X257091708Y-91172372D01*
X257326393Y-91407466D01*
X257633179Y-91534855D01*
X257965363Y-91535145D01*
X258272372Y-91408292D01*
X258299843Y-91380869D01*
X258326393Y-91407466D01*
X258633179Y-91534855D01*
X258965363Y-91535145D01*
X259272372Y-91408292D01*
X259299843Y-91380869D01*
X259326393Y-91407466D01*
X259633179Y-91534855D01*
X259965363Y-91535145D01*
X260272372Y-91408292D01*
X260507466Y-91173607D01*
X260634855Y-90866821D01*
X260635145Y-90534637D01*
X260508292Y-90227628D01*
X260480869Y-90200157D01*
X260507466Y-90173607D01*
X260634855Y-89866821D01*
X260635145Y-89534637D01*
X260508292Y-89227628D01*
X260273607Y-88992534D01*
X259966821Y-88865145D01*
X259634637Y-88864855D01*
X259327628Y-88991708D01*
X259300157Y-89019131D01*
X259273607Y-88992534D01*
X258966821Y-88865145D01*
X258634637Y-88864855D01*
X258327628Y-88991708D01*
X258300157Y-89019131D01*
X258273607Y-88992534D01*
X257966821Y-88865145D01*
X257634637Y-88864855D01*
X257327628Y-88991708D01*
X257092534Y-89226393D01*
X256965145Y-89533179D01*
X256964855Y-89865363D01*
X251744015Y-89865363D01*
X251772440Y-89725000D01*
X251772440Y-88875000D01*
X251728162Y-88639683D01*
X251589090Y-88423559D01*
X251376890Y-88278569D01*
X251125000Y-88227560D01*
X250275000Y-88227560D01*
X250039683Y-88271838D01*
X250012100Y-88289587D01*
X249990062Y-88280460D01*
X249827000Y-88407743D01*
X249827000Y-88408696D01*
X249823559Y-88410910D01*
X249678569Y-88623110D01*
X249634033Y-88843036D01*
X249573000Y-88723927D01*
X249573000Y-88407743D01*
X249409938Y-88280460D01*
X249200000Y-88367405D01*
X248990062Y-88280460D01*
X248827000Y-88407743D01*
X248827000Y-88723927D01*
X248699166Y-88973402D01*
X248679312Y-88873589D01*
X248573000Y-88714482D01*
X248573000Y-88407743D01*
X248409938Y-88280460D01*
X248204100Y-88365707D01*
X248105644Y-88299921D01*
X247700000Y-88219233D01*
X247294356Y-88299921D01*
X247195900Y-88365707D01*
X246990062Y-88280460D01*
X246827000Y-88407743D01*
X246827000Y-88714482D01*
X246720688Y-88873589D01*
X246649955Y-89229188D01*
X246294356Y-89299921D01*
X246104169Y-89427000D01*
X245806372Y-89427000D01*
X245680446Y-89590065D01*
X245780137Y-89784617D01*
X245720688Y-89873589D01*
X245640000Y-90279233D01*
X219577000Y-90279233D01*
X219577000Y-89009935D01*
X245680446Y-89009935D01*
X245806372Y-89173000D01*
X246573000Y-89173000D01*
X246573000Y-88407743D01*
X246409938Y-88280460D01*
X246184174Y-88373959D01*
X245869058Y-88641848D01*
X245680446Y-89009935D01*
X219577000Y-89009935D01*
X219577000Y-87985000D01*
X270515000Y-87985000D01*
X270515000Y-142173000D01*
X270515000Y-142173000D01*
G37*
X270515000Y-142173000D02*
X219577000Y-142173000D01*
X219577000Y-139015363D01*
X221714855Y-139015363D01*
X221841708Y-139322372D01*
X222076393Y-139557466D01*
X222383179Y-139684855D01*
X222715363Y-139685145D01*
X223022372Y-139558292D01*
X223257466Y-139323607D01*
X223384855Y-139016821D01*
X223385145Y-138684637D01*
X223258292Y-138377628D01*
X223023607Y-138142534D01*
X222958173Y-138115363D01*
X233814855Y-138115363D01*
X233941708Y-138422372D01*
X234176393Y-138657466D01*
X234483179Y-138784855D01*
X234815363Y-138785145D01*
X235122372Y-138658292D01*
X235357466Y-138423607D01*
X235464698Y-138165363D01*
X239314855Y-138165363D01*
X239441708Y-138472372D01*
X239676393Y-138707466D01*
X239983179Y-138834855D01*
X240315363Y-138835145D01*
X240622372Y-138708292D01*
X240857466Y-138473607D01*
X240984855Y-138166821D01*
X240984856Y-138165363D01*
X244514855Y-138165363D01*
X244641708Y-138472372D01*
X244876393Y-138707466D01*
X245183179Y-138834855D01*
X245515363Y-138835145D01*
X245822372Y-138708292D01*
X246057466Y-138473607D01*
X246184855Y-138166821D01*
X246184899Y-138115363D01*
X250064855Y-138115363D01*
X250191708Y-138422372D01*
X250426393Y-138657466D01*
X250733179Y-138784855D01*
X251065363Y-138785145D01*
X251372372Y-138658292D01*
X251607466Y-138423607D01*
X251734855Y-138116821D01*
X251734899Y-138065363D01*
X255564855Y-138065363D01*
X255691708Y-138372372D01*
X255926393Y-138607466D01*
X256233179Y-138734855D01*
X256565363Y-138735145D01*
X256872372Y-138608292D01*
X257107466Y-138373607D01*
X257234855Y-138066821D01*
X257234856Y-138065363D01*
X261064855Y-138065363D01*
X261191708Y-138372372D01*
X261426393Y-138607466D01*
X261733179Y-138734855D01*
X262065363Y-138735145D01*
X262372372Y-138608292D01*
X262607466Y-138373607D01*
X262734855Y-138066821D01*
X262735145Y-137734637D01*
X262608292Y-137427628D01*
X262373607Y-137192534D01*
X262066821Y-137065145D01*
X261734637Y-137064855D01*
X261427628Y-137191708D01*
X261192534Y-137426393D01*
X261065145Y-137733179D01*
X261064855Y-138065363D01*
X257234856Y-138065363D01*
X257235145Y-137734637D01*
X257108292Y-137427628D01*
X256873607Y-137192534D01*
X256566821Y-137065145D01*
X256234637Y-137064855D01*
X255927628Y-137191708D01*
X255692534Y-137426393D01*
X255565145Y-137733179D01*
X255564855Y-138065363D01*
X251734899Y-138065363D01*
X251735145Y-137784637D01*
X251608292Y-137477628D01*
X251373607Y-137242534D01*
X251066821Y-137115145D01*
X250734637Y-137114855D01*
X250427628Y-137241708D01*
X250192534Y-137476393D01*
X250065145Y-137783179D01*
X250064855Y-138115363D01*
X246184899Y-138115363D01*
X246185145Y-137834637D01*
X246058292Y-137527628D01*
X245823607Y-137292534D01*
X245516821Y-137165145D01*
X245184637Y-137164855D01*
X244877628Y-137291708D01*
X244642534Y-137526393D01*
X244515145Y-137833179D01*
X244514855Y-138165363D01*
X240984856Y-138165363D01*
X240985142Y-137837954D01*
X241273150Y-137957546D01*
X241625305Y-137957853D01*
X241950770Y-137823374D01*
X242199998Y-137574580D01*
X242335046Y-137249350D01*
X242335353Y-136897195D01*
X242200874Y-136571730D01*
X241952080Y-136322502D01*
X241626850Y-136187454D01*
X241274695Y-136187147D01*
X240949230Y-136321626D01*
X240700002Y-136570420D01*
X240564954Y-136895650D01*
X240564647Y-137247805D01*
X240574745Y-137272245D01*
X240316821Y-137165145D01*
X239984637Y-137164855D01*
X239677628Y-137291708D01*
X239442534Y-137526393D01*
X239315145Y-137833179D01*
X239314855Y-138165363D01*
X235464698Y-138165363D01*
X235484855Y-138116821D01*
X235485145Y-137784637D01*
X235358292Y-137477628D01*
X235123607Y-137242534D01*
X234816821Y-137115145D01*
X234484637Y-137114855D01*
X234177628Y-137241708D01*
X233942534Y-137476393D01*
X233815145Y-137783179D01*
X233814855Y-138115363D01*
X222958173Y-138115363D01*
X222716821Y-138015145D01*
X222384637Y-138014855D01*
X222077628Y-138141708D01*
X221842534Y-138376393D01*
X221715145Y-138683179D01*
X221714855Y-139015363D01*
X219577000Y-139015363D01*
X219577000Y-135584205D01*
X222998947Y-135584205D01*
X223133426Y-135909670D01*
X223382220Y-136158898D01*
X223707450Y-136293946D01*
X224059605Y-136294253D01*
X224125603Y-136266983D01*
X224125447Y-136446005D01*
X224259926Y-136771470D01*
X224508720Y-137020698D01*
X224833950Y-137155746D01*
X225186105Y-137156053D01*
X225511570Y-137021574D01*
X225760798Y-136772780D01*
X225895846Y-136447550D01*
X225896153Y-136095395D01*
X225761674Y-135769930D01*
X225512880Y-135520702D01*
X225187650Y-135385654D01*
X224835495Y-135385347D01*
X224769497Y-135412617D01*
X224769653Y-135233595D01*
X224635174Y-134908130D01*
X224386380Y-134658902D01*
X224061150Y-134523854D01*
X223708995Y-134523547D01*
X223383530Y-134658026D01*
X223134302Y-134906820D01*
X222999254Y-135232050D01*
X222998947Y-135584205D01*
X219577000Y-135584205D01*
X219577000Y-133315363D01*
X221764855Y-133315363D01*
X221891708Y-133622372D01*
X222126393Y-133857466D01*
X222433179Y-133984855D01*
X222765363Y-133985145D01*
X223072372Y-133858292D01*
X223307466Y-133623607D01*
X223434855Y-133316821D01*
X223435145Y-132984637D01*
X223406522Y-132915363D01*
X229014855Y-132915363D01*
X229141708Y-133222372D01*
X229376393Y-133457466D01*
X229681918Y-133584331D01*
X229609102Y-133657020D01*
X229474054Y-133982250D01*
X229473747Y-134334405D01*
X229608226Y-134659870D01*
X229857020Y-134909098D01*
X230182250Y-135044146D01*
X230534405Y-135044453D01*
X230859870Y-134909974D01*
X231109098Y-134661180D01*
X231244146Y-134335950D01*
X231244453Y-133983795D01*
X231109974Y-133658330D01*
X230861180Y-133409102D01*
X230535950Y-133274054D01*
X230506956Y-133274029D01*
X230557466Y-133223607D01*
X230684855Y-132916821D01*
X230685145Y-132584637D01*
X230558292Y-132277628D01*
X230323607Y-132042534D01*
X230082230Y-131942305D01*
X245056747Y-131942305D01*
X245191226Y-132267770D01*
X245440020Y-132516998D01*
X245765250Y-132652046D01*
X246117405Y-132652353D01*
X246442870Y-132517874D01*
X246692098Y-132269080D01*
X246827146Y-131943850D01*
X246827453Y-131591695D01*
X246692974Y-131266230D01*
X246546006Y-131119005D01*
X250801447Y-131119005D01*
X250935926Y-131444470D01*
X251184720Y-131693698D01*
X251509950Y-131828746D01*
X251862105Y-131829053D01*
X252187570Y-131694574D01*
X252436798Y-131445780D01*
X252550853Y-131171105D01*
X254743447Y-131171105D01*
X254877926Y-131496570D01*
X255126720Y-131745798D01*
X255451950Y-131880846D01*
X255804105Y-131881153D01*
X256129570Y-131746674D01*
X256378798Y-131497880D01*
X256513846Y-131172650D01*
X256514153Y-130820495D01*
X256379674Y-130495030D01*
X256130880Y-130245802D01*
X255805650Y-130110754D01*
X255453495Y-130110447D01*
X255128030Y-130244926D01*
X254878802Y-130493720D01*
X254743754Y-130818950D01*
X254743447Y-131171105D01*
X252550853Y-131171105D01*
X252571846Y-131120550D01*
X252572153Y-130768395D01*
X252437674Y-130442930D01*
X252188880Y-130193702D01*
X251863650Y-130058654D01*
X251511495Y-130058347D01*
X251186030Y-130192826D01*
X250936802Y-130441620D01*
X250801754Y-130766850D01*
X250801447Y-131119005D01*
X246546006Y-131119005D01*
X246444180Y-131017002D01*
X246118950Y-130881954D01*
X245766795Y-130881647D01*
X245441330Y-131016126D01*
X245192102Y-131264920D01*
X245057054Y-131590150D01*
X245056747Y-131942305D01*
X230082230Y-131942305D01*
X230016821Y-131915145D01*
X229684637Y-131914855D01*
X229377628Y-132041708D01*
X229142534Y-132276393D01*
X229015145Y-132583179D01*
X229014855Y-132915363D01*
X223406522Y-132915363D01*
X223308292Y-132677628D01*
X223073607Y-132442534D01*
X222766821Y-132315145D01*
X222434637Y-132314855D01*
X222127628Y-132441708D01*
X221892534Y-132676393D01*
X221765145Y-132983179D01*
X221764855Y-133315363D01*
X219577000Y-133315363D01*
X219577000Y-130486705D01*
X228996747Y-130486705D01*
X229131226Y-130812170D01*
X229380020Y-131061398D01*
X229705250Y-131196446D01*
X230057405Y-131196753D01*
X230382870Y-131062274D01*
X230632098Y-130813480D01*
X230767146Y-130488250D01*
X230767453Y-130136095D01*
X230761039Y-130120571D01*
X230764350Y-130121946D01*
X231116505Y-130122253D01*
X231441970Y-129987774D01*
X231691198Y-129738980D01*
X231826246Y-129413750D01*
X231826553Y-129061595D01*
X231692074Y-128736130D01*
X231443280Y-128486902D01*
X231118050Y-128351854D01*
X230765895Y-128351547D01*
X230440430Y-128486026D01*
X230191202Y-128734820D01*
X230056154Y-129060050D01*
X230055847Y-129412205D01*
X230062261Y-129427729D01*
X230058950Y-129426354D01*
X229706795Y-129426047D01*
X229381330Y-129560526D01*
X229132102Y-129809320D01*
X228997054Y-130134550D01*
X228996747Y-130486705D01*
X219577000Y-130486705D01*
X219577000Y-126689905D01*
X234658347Y-126689905D01*
X234792826Y-127015370D01*
X235041620Y-127264598D01*
X235366850Y-127399646D01*
X235719005Y-127399953D01*
X236044470Y-127265474D01*
X236293698Y-127016680D01*
X236428746Y-126691450D01*
X236429053Y-126339295D01*
X236294574Y-126013830D01*
X236045780Y-125764602D01*
X235720550Y-125629554D01*
X235368395Y-125629247D01*
X235042930Y-125763726D01*
X234793702Y-126012520D01*
X234658654Y-126337750D01*
X234658347Y-126689905D01*
X219577000Y-126689905D01*
X219577000Y-122515363D01*
X230264855Y-122515363D01*
X230391708Y-122822372D01*
X230626393Y-123057466D01*
X230933179Y-123184855D01*
X231265363Y-123185145D01*
X231572372Y-123058292D01*
X231807466Y-122823607D01*
X231934855Y-122516821D01*
X231935145Y-122184637D01*
X231808292Y-121877628D01*
X231573607Y-121642534D01*
X231266821Y-121515145D01*
X230934637Y-121514855D01*
X230627628Y-121641708D01*
X230392534Y-121876393D01*
X230265145Y-122183179D01*
X230264855Y-122515363D01*
X219577000Y-122515363D01*
X219577000Y-121018705D01*
X237076547Y-121018705D01*
X237211026Y-121344170D01*
X237459820Y-121593398D01*
X237785050Y-121728446D01*
X238137205Y-121728753D01*
X238462670Y-121594274D01*
X238711898Y-121345480D01*
X238846946Y-121020250D01*
X238847253Y-120668095D01*
X238712774Y-120342630D01*
X238463980Y-120093402D01*
X238138750Y-119958354D01*
X237786595Y-119958047D01*
X237461130Y-120092526D01*
X237211902Y-120341320D01*
X237076854Y-120666550D01*
X237076547Y-121018705D01*
X219577000Y-121018705D01*
X219577000Y-118965363D01*
X236764855Y-118965363D01*
X236891708Y-119272372D01*
X237126393Y-119507466D01*
X237433179Y-119634855D01*
X237765363Y-119635145D01*
X238072372Y-119508292D01*
X238307466Y-119273607D01*
X238434855Y-118966821D01*
X238435145Y-118634637D01*
X238308292Y-118327628D01*
X238192970Y-118212105D01*
X238328547Y-118212105D01*
X238463026Y-118537570D01*
X238711820Y-118786798D01*
X239037050Y-118921846D01*
X239389205Y-118922153D01*
X239714670Y-118787674D01*
X239963898Y-118538880D01*
X239990257Y-118475400D01*
X240219270Y-118380774D01*
X240468498Y-118131980D01*
X240603546Y-117806750D01*
X240603669Y-117665363D01*
X245814855Y-117665363D01*
X245941708Y-117972372D01*
X246176393Y-118207466D01*
X246483179Y-118334855D01*
X246815363Y-118335145D01*
X247122372Y-118208292D01*
X247357466Y-117973607D01*
X247484855Y-117666821D01*
X247485021Y-117475593D01*
X259674012Y-117475593D01*
X259815478Y-117778782D01*
X260551955Y-118063737D01*
X261341418Y-118045164D01*
X261984522Y-117778782D01*
X262125988Y-117475593D01*
X260900000Y-116249605D01*
X259674012Y-117475593D01*
X247485021Y-117475593D01*
X247485145Y-117334637D01*
X247358292Y-117027628D01*
X247123607Y-116792534D01*
X246816821Y-116665145D01*
X246484637Y-116664855D01*
X246177628Y-116791708D01*
X245942534Y-117026393D01*
X245815145Y-117333179D01*
X245814855Y-117665363D01*
X240603669Y-117665363D01*
X240603853Y-117454595D01*
X240469374Y-117129130D01*
X240220580Y-116879902D01*
X239895350Y-116744854D01*
X239543195Y-116744547D01*
X239217730Y-116879026D01*
X238968502Y-117127820D01*
X238942143Y-117191300D01*
X238713130Y-117285926D01*
X238463902Y-117534720D01*
X238328854Y-117859950D01*
X238328547Y-118212105D01*
X238192970Y-118212105D01*
X238073607Y-118092534D01*
X237766821Y-117965145D01*
X237434637Y-117964855D01*
X237127628Y-118091708D01*
X236892534Y-118326393D01*
X236765145Y-118633179D01*
X236764855Y-118965363D01*
X219577000Y-118965363D01*
X219577000Y-117763505D01*
X229533247Y-117763505D01*
X229667726Y-118088970D01*
X229916520Y-118338198D01*
X230241750Y-118473246D01*
X230593905Y-118473553D01*
X230919370Y-118339074D01*
X231168598Y-118090280D01*
X231303646Y-117765050D01*
X231303953Y-117412895D01*
X231210032Y-117185588D01*
X231246370Y-117170574D01*
X231495598Y-116921780D01*
X231630646Y-116596550D01*
X231630953Y-116244395D01*
X231496474Y-115918930D01*
X231247680Y-115669702D01*
X231015050Y-115573105D01*
X239486547Y-115573105D01*
X239621026Y-115898570D01*
X239869820Y-116147798D01*
X240195050Y-116282846D01*
X240547205Y-116283153D01*
X240872670Y-116148674D01*
X241121898Y-115899880D01*
X241256946Y-115574650D01*
X241257076Y-115425305D01*
X247068947Y-115425305D01*
X247203426Y-115750770D01*
X247452220Y-115999998D01*
X247777450Y-116135046D01*
X248129605Y-116135353D01*
X248455070Y-116000874D01*
X248704298Y-115752080D01*
X248716807Y-115721955D01*
X258906263Y-115721955D01*
X258924836Y-116511418D01*
X259191218Y-117154522D01*
X259494407Y-117295988D01*
X260720395Y-116070000D01*
X261079605Y-116070000D01*
X262305593Y-117295988D01*
X262608782Y-117154522D01*
X262893737Y-116418045D01*
X262875164Y-115628582D01*
X262608782Y-114985478D01*
X262305593Y-114844012D01*
X261079605Y-116070000D01*
X260720395Y-116070000D01*
X259494407Y-114844012D01*
X259191218Y-114985478D01*
X258906263Y-115721955D01*
X248716807Y-115721955D01*
X248839346Y-115426850D01*
X248839653Y-115074695D01*
X248705174Y-114749230D01*
X248620499Y-114664407D01*
X259674012Y-114664407D01*
X260900000Y-115890395D01*
X262125988Y-114664407D01*
X261984522Y-114361218D01*
X261248045Y-114076263D01*
X260458582Y-114094836D01*
X259815478Y-114361218D01*
X259674012Y-114664407D01*
X248620499Y-114664407D01*
X248456380Y-114500002D01*
X248131150Y-114364954D01*
X247778995Y-114364647D01*
X247453530Y-114499126D01*
X247204302Y-114747920D01*
X247069254Y-115073150D01*
X247068947Y-115425305D01*
X241257076Y-115425305D01*
X241257253Y-115222495D01*
X241122774Y-114897030D01*
X240873980Y-114647802D01*
X240548750Y-114512754D01*
X240196595Y-114512447D01*
X239871130Y-114646926D01*
X239621902Y-114895720D01*
X239486854Y-115220950D01*
X239486547Y-115573105D01*
X231015050Y-115573105D01*
X230922450Y-115534654D01*
X230570295Y-115534347D01*
X230244830Y-115668826D01*
X229995602Y-115917620D01*
X229860554Y-116242850D01*
X229860247Y-116595005D01*
X229954168Y-116822312D01*
X229917830Y-116837326D01*
X229668602Y-117086120D01*
X229533554Y-117411350D01*
X229533247Y-117763505D01*
X219577000Y-117763505D01*
X219577000Y-112975305D01*
X244770247Y-112975305D01*
X244904726Y-113300770D01*
X245153520Y-113549998D01*
X245478750Y-113685046D01*
X245830905Y-113685353D01*
X246156370Y-113550874D01*
X246405598Y-113302080D01*
X246540646Y-112976850D01*
X246540953Y-112624695D01*
X246406474Y-112299230D01*
X246157680Y-112050002D01*
X245832450Y-111914954D01*
X245480295Y-111914647D01*
X245154830Y-112049126D01*
X244905602Y-112297920D01*
X244770554Y-112623150D01*
X244770247Y-112975305D01*
X219577000Y-112975305D01*
X219577000Y-111376805D01*
X235802747Y-111376805D01*
X235937226Y-111702270D01*
X236186020Y-111951498D01*
X236511250Y-112086546D01*
X236863405Y-112086853D01*
X237188870Y-111952374D01*
X237438098Y-111703580D01*
X237573146Y-111378350D01*
X237573453Y-111026195D01*
X237473672Y-110784705D01*
X241481847Y-110784705D01*
X241616326Y-111110170D01*
X241865120Y-111359398D01*
X242190350Y-111494446D01*
X242542505Y-111494753D01*
X242867970Y-111360274D01*
X243117198Y-111111480D01*
X243150323Y-111031705D01*
X245423947Y-111031705D01*
X245558426Y-111357170D01*
X245807220Y-111606398D01*
X246132450Y-111741446D01*
X246484605Y-111741753D01*
X246810070Y-111607274D01*
X247005679Y-111412005D01*
X247200447Y-111412005D01*
X247286623Y-111620567D01*
X247236054Y-111742350D01*
X247235747Y-112094505D01*
X247370226Y-112419970D01*
X247619020Y-112669198D01*
X247944250Y-112804246D01*
X248296405Y-112804553D01*
X248621870Y-112670074D01*
X248871098Y-112421280D01*
X249006146Y-112096050D01*
X249006453Y-111743895D01*
X248920277Y-111535333D01*
X248970846Y-111413550D01*
X248971153Y-111061395D01*
X248836674Y-110735930D01*
X248587880Y-110486702D01*
X248262650Y-110351654D01*
X247910495Y-110351347D01*
X247585030Y-110485826D01*
X247335802Y-110734620D01*
X247200754Y-111059850D01*
X247200447Y-111412005D01*
X247005679Y-111412005D01*
X247059298Y-111358480D01*
X247194346Y-111033250D01*
X247194653Y-110681095D01*
X247060174Y-110355630D01*
X246811380Y-110106402D01*
X246486150Y-109971354D01*
X246133995Y-109971047D01*
X245808530Y-110105526D01*
X245559302Y-110354320D01*
X245424254Y-110679550D01*
X245423947Y-111031705D01*
X243150323Y-111031705D01*
X243252246Y-110786250D01*
X243252553Y-110434095D01*
X243118074Y-110108630D01*
X242869280Y-109859402D01*
X242544050Y-109724354D01*
X242191895Y-109724047D01*
X241866430Y-109858526D01*
X241617202Y-110107320D01*
X241482154Y-110432550D01*
X241481847Y-110784705D01*
X237473672Y-110784705D01*
X237438974Y-110700730D01*
X237190180Y-110451502D01*
X236864950Y-110316454D01*
X236512795Y-110316147D01*
X236187330Y-110450626D01*
X235938102Y-110699420D01*
X235803054Y-111024650D01*
X235802747Y-111376805D01*
X219577000Y-111376805D01*
X219577000Y-108522305D01*
X233342447Y-108522305D01*
X233476926Y-108847770D01*
X233725720Y-109096998D01*
X234026119Y-109221735D01*
X233949802Y-109297920D01*
X233814754Y-109623150D01*
X233814447Y-109975305D01*
X233948926Y-110300770D01*
X234197720Y-110549998D01*
X234522950Y-110685046D01*
X234875105Y-110685353D01*
X235200570Y-110550874D01*
X235449798Y-110302080D01*
X235584846Y-109976850D01*
X235585153Y-109624695D01*
X235450674Y-109299230D01*
X235201880Y-109050002D01*
X234901481Y-108925265D01*
X234977798Y-108849080D01*
X235043976Y-108689705D01*
X244304547Y-108689705D01*
X244439026Y-109015170D01*
X244687820Y-109264398D01*
X245013050Y-109399446D01*
X245365205Y-109399753D01*
X245690670Y-109265274D01*
X245880009Y-109076265D01*
X254804758Y-109076265D01*
X255016687Y-109589172D01*
X255408764Y-109981934D01*
X255620738Y-110069954D01*
X255410828Y-110156687D01*
X255018066Y-110548764D01*
X254805242Y-111061300D01*
X254804758Y-111616265D01*
X255016687Y-112129172D01*
X255408764Y-112521934D01*
X255921300Y-112734758D01*
X256476265Y-112735242D01*
X256989172Y-112523313D01*
X257200024Y-112312829D01*
X257408764Y-112521934D01*
X257921300Y-112734758D01*
X258476265Y-112735242D01*
X258989172Y-112523313D01*
X259381934Y-112131236D01*
X259594758Y-111618700D01*
X259595242Y-111063735D01*
X259383313Y-110550828D01*
X258991236Y-110158066D01*
X258795066Y-110076609D01*
X258929941Y-110020742D01*
X258999159Y-109778764D01*
X258200000Y-108979605D01*
X257400841Y-109778764D01*
X257470059Y-110020742D01*
X257614862Y-110072382D01*
X257410828Y-110156687D01*
X257199976Y-110367171D01*
X256991236Y-110158066D01*
X256779262Y-110070046D01*
X256989172Y-109983313D01*
X257381934Y-109591236D01*
X257490419Y-109329976D01*
X258020395Y-108800000D01*
X258379605Y-108800000D01*
X259178764Y-109599159D01*
X259420742Y-109529941D01*
X259607155Y-109007220D01*
X259579341Y-108452951D01*
X259420742Y-108070059D01*
X259178764Y-108000841D01*
X258379605Y-108800000D01*
X258020395Y-108800000D01*
X257490405Y-108270010D01*
X257383313Y-108010828D01*
X257194052Y-107821236D01*
X257400841Y-107821236D01*
X258200000Y-108620395D01*
X258999159Y-107821236D01*
X258929941Y-107579258D01*
X258407220Y-107392845D01*
X257852951Y-107420659D01*
X257470059Y-107579258D01*
X257400841Y-107821236D01*
X257194052Y-107821236D01*
X256991236Y-107618066D01*
X256478700Y-107405242D01*
X255923735Y-107404758D01*
X255410828Y-107616687D01*
X255018066Y-108008764D01*
X254805242Y-108521300D01*
X254804758Y-109076265D01*
X245880009Y-109076265D01*
X245883793Y-109072488D01*
X246188005Y-109072753D01*
X246513470Y-108938274D01*
X246762698Y-108689480D01*
X246897746Y-108364250D01*
X246898053Y-108012095D01*
X246763574Y-107686630D01*
X246514780Y-107437402D01*
X246189550Y-107302354D01*
X245837395Y-107302047D01*
X245511930Y-107436526D01*
X245318807Y-107629312D01*
X245014595Y-107629047D01*
X244689130Y-107763526D01*
X244439902Y-108012320D01*
X244304854Y-108337550D01*
X244304547Y-108689705D01*
X235043976Y-108689705D01*
X235112846Y-108523850D01*
X235113153Y-108171695D01*
X234978674Y-107846230D01*
X234729880Y-107597002D01*
X234722181Y-107593805D01*
X236186147Y-107593805D01*
X236320626Y-107919270D01*
X236569420Y-108168498D01*
X236894650Y-108303546D01*
X237246805Y-108303853D01*
X237572270Y-108169374D01*
X237821498Y-107920580D01*
X237956546Y-107595350D01*
X237956853Y-107243195D01*
X237822374Y-106917730D01*
X237573580Y-106668502D01*
X237248350Y-106533454D01*
X236896195Y-106533147D01*
X236570730Y-106667626D01*
X236321502Y-106916420D01*
X236186454Y-107241650D01*
X236186147Y-107593805D01*
X234722181Y-107593805D01*
X234404650Y-107461954D01*
X234052495Y-107461647D01*
X233727030Y-107596126D01*
X233477802Y-107844920D01*
X233342754Y-108170150D01*
X233342447Y-108522305D01*
X219577000Y-108522305D01*
X219577000Y-105475593D01*
X259674012Y-105475593D01*
X259815478Y-105778782D01*
X260551955Y-106063737D01*
X261341418Y-106045164D01*
X261984522Y-105778782D01*
X262125988Y-105475593D01*
X260900000Y-104249605D01*
X259674012Y-105475593D01*
X219577000Y-105475593D01*
X219577000Y-104515363D01*
X236914855Y-104515363D01*
X237041708Y-104822372D01*
X237276393Y-105057466D01*
X237583179Y-105184855D01*
X237915363Y-105185145D01*
X238222372Y-105058292D01*
X238457466Y-104823607D01*
X238532375Y-104643205D01*
X239864647Y-104643205D01*
X239999126Y-104968670D01*
X240247920Y-105217898D01*
X240573150Y-105352946D01*
X240925305Y-105353253D01*
X241250770Y-105218774D01*
X241499998Y-104969980D01*
X241576193Y-104786482D01*
X241657505Y-104786553D01*
X241982970Y-104652074D01*
X242232198Y-104403280D01*
X242367246Y-104078050D01*
X242367553Y-103725895D01*
X242365926Y-103721955D01*
X258906263Y-103721955D01*
X258924836Y-104511418D01*
X259191218Y-105154522D01*
X259494407Y-105295988D01*
X260720395Y-104070000D01*
X261079605Y-104070000D01*
X262305593Y-105295988D01*
X262608782Y-105154522D01*
X262893737Y-104418045D01*
X262875164Y-103628582D01*
X262608782Y-102985478D01*
X262305593Y-102844012D01*
X261079605Y-104070000D01*
X260720395Y-104070000D01*
X259494407Y-102844012D01*
X259191218Y-102985478D01*
X258906263Y-103721955D01*
X242365926Y-103721955D01*
X242233074Y-103400430D01*
X241984280Y-103151202D01*
X241659050Y-103016154D01*
X241306895Y-103015847D01*
X240981430Y-103150326D01*
X240732202Y-103399120D01*
X240656007Y-103582618D01*
X240574695Y-103582547D01*
X240249230Y-103717026D01*
X240000002Y-103965820D01*
X239864954Y-104291050D01*
X239864647Y-104643205D01*
X238532375Y-104643205D01*
X238584855Y-104516821D01*
X238585145Y-104184637D01*
X238458292Y-103877628D01*
X238223607Y-103642534D01*
X237916821Y-103515145D01*
X237584637Y-103514855D01*
X237277628Y-103641708D01*
X237042534Y-103876393D01*
X236915145Y-104183179D01*
X236914855Y-104515363D01*
X219577000Y-104515363D01*
X219577000Y-102715363D01*
X244314855Y-102715363D01*
X244441708Y-103022372D01*
X244676393Y-103257466D01*
X244983179Y-103384855D01*
X245315363Y-103385145D01*
X245622372Y-103258292D01*
X245857466Y-103023607D01*
X245984855Y-102716821D01*
X245984900Y-102664407D01*
X259674012Y-102664407D01*
X260900000Y-103890395D01*
X262125988Y-102664407D01*
X261984522Y-102361218D01*
X261248045Y-102076263D01*
X260458582Y-102094836D01*
X259815478Y-102361218D01*
X259674012Y-102664407D01*
X245984900Y-102664407D01*
X245985145Y-102384637D01*
X245858292Y-102077628D01*
X245623607Y-101842534D01*
X245607270Y-101835750D01*
X265390000Y-101835750D01*
X265390000Y-102526310D01*
X265486673Y-102759699D01*
X265665302Y-102938327D01*
X265898691Y-103035000D01*
X266589250Y-103035000D01*
X266748000Y-102876250D01*
X266748000Y-101677000D01*
X267002000Y-101677000D01*
X267002000Y-102876250D01*
X267160750Y-103035000D01*
X267851309Y-103035000D01*
X268084698Y-102938327D01*
X268263327Y-102759699D01*
X268360000Y-102526310D01*
X268360000Y-101835750D01*
X268201250Y-101677000D01*
X267002000Y-101677000D01*
X266748000Y-101677000D01*
X265548750Y-101677000D01*
X265390000Y-101835750D01*
X245607270Y-101835750D01*
X245316821Y-101715145D01*
X244984637Y-101714855D01*
X244677628Y-101841708D01*
X244442534Y-102076393D01*
X244315145Y-102383179D01*
X244314855Y-102715363D01*
X219577000Y-102715363D01*
X219577000Y-100573690D01*
X265390000Y-100573690D01*
X265390000Y-101264250D01*
X265548750Y-101423000D01*
X266748000Y-101423000D01*
X266748000Y-100223750D01*
X267002000Y-100223750D01*
X267002000Y-101423000D01*
X268201250Y-101423000D01*
X268360000Y-101264250D01*
X268360000Y-100573690D01*
X268263327Y-100340301D01*
X268084698Y-100161673D01*
X267851309Y-100065000D01*
X267160750Y-100065000D01*
X267002000Y-100223750D01*
X266748000Y-100223750D01*
X266589250Y-100065000D01*
X265898691Y-100065000D01*
X265665302Y-100161673D01*
X265486673Y-100340301D01*
X265390000Y-100573690D01*
X219577000Y-100573690D01*
X219577000Y-98400303D01*
X229114657Y-98400303D01*
X229249135Y-98725765D01*
X229497925Y-98974990D01*
X229823152Y-99110036D01*
X230175303Y-99110343D01*
X230500765Y-98975865D01*
X230615725Y-98861105D01*
X241564647Y-98861105D01*
X241699126Y-99186570D01*
X241947920Y-99435798D01*
X242273150Y-99570846D01*
X242625305Y-99571153D01*
X242950770Y-99436674D01*
X243199998Y-99187880D01*
X243329874Y-98875105D01*
X248890147Y-98875105D01*
X249024626Y-99200570D01*
X249273420Y-99449798D01*
X249598650Y-99584846D01*
X249950805Y-99585153D01*
X250276270Y-99450674D01*
X250525498Y-99201880D01*
X250660546Y-98876650D01*
X250660853Y-98524495D01*
X250526374Y-98199030D01*
X250277580Y-97949802D01*
X249952350Y-97814754D01*
X249600195Y-97814447D01*
X249274730Y-97948926D01*
X249025502Y-98197720D01*
X248890454Y-98522950D01*
X248890147Y-98875105D01*
X243329874Y-98875105D01*
X243335046Y-98862650D01*
X243335353Y-98510495D01*
X243200874Y-98185030D01*
X242952080Y-97935802D01*
X242626850Y-97800754D01*
X242274695Y-97800447D01*
X241949230Y-97934926D01*
X241700002Y-98183720D01*
X241564954Y-98508950D01*
X241564647Y-98861105D01*
X230615725Y-98861105D01*
X230749990Y-98727075D01*
X230885036Y-98401848D01*
X230885343Y-98049697D01*
X230750865Y-97724235D01*
X230502075Y-97475010D01*
X230176848Y-97339964D01*
X229824697Y-97339657D01*
X229499235Y-97474135D01*
X229250010Y-97722925D01*
X229114964Y-98048152D01*
X229114657Y-98400303D01*
X219577000Y-98400303D01*
X219577000Y-97165363D01*
X222464855Y-97165363D01*
X222591708Y-97472372D01*
X222826393Y-97707466D01*
X223133179Y-97834855D01*
X223465363Y-97835145D01*
X223772372Y-97708292D01*
X224007466Y-97473607D01*
X224134855Y-97166821D01*
X224134856Y-97165363D01*
X226764855Y-97165363D01*
X226891708Y-97472372D01*
X227126393Y-97707466D01*
X227433179Y-97834855D01*
X227765363Y-97835145D01*
X228072372Y-97708292D01*
X228307466Y-97473607D01*
X228434855Y-97166821D01*
X228435145Y-96834637D01*
X228308292Y-96527628D01*
X228073607Y-96292534D01*
X227766821Y-96165145D01*
X227434637Y-96164855D01*
X227127628Y-96291708D01*
X226892534Y-96526393D01*
X226765145Y-96833179D01*
X226764855Y-97165363D01*
X224134856Y-97165363D01*
X224135145Y-96834637D01*
X224008292Y-96527628D01*
X223773607Y-96292534D01*
X223466821Y-96165145D01*
X223134637Y-96164855D01*
X222827628Y-96291708D01*
X222592534Y-96526393D01*
X222465145Y-96833179D01*
X222464855Y-97165363D01*
X219577000Y-97165363D01*
X219577000Y-95250303D01*
X229114657Y-95250303D01*
X229249135Y-95575765D01*
X229497925Y-95824990D01*
X229823152Y-95960036D01*
X230175303Y-95960343D01*
X230500765Y-95825865D01*
X230749990Y-95577075D01*
X230775389Y-95515905D01*
X233677047Y-95515905D01*
X233811526Y-95841370D01*
X234060320Y-96090598D01*
X234385550Y-96225646D01*
X234737705Y-96225953D01*
X235063170Y-96091474D01*
X235312398Y-95842680D01*
X235447446Y-95517450D01*
X235447753Y-95165295D01*
X235313274Y-94839830D01*
X235064480Y-94590602D01*
X234739250Y-94455554D01*
X234387095Y-94455247D01*
X234061630Y-94589726D01*
X233812402Y-94838520D01*
X233677354Y-95163750D01*
X233677047Y-95515905D01*
X230775389Y-95515905D01*
X230885036Y-95251848D01*
X230885343Y-94899697D01*
X230750865Y-94574235D01*
X230502075Y-94325010D01*
X230176848Y-94189964D01*
X229824697Y-94189657D01*
X229499235Y-94324135D01*
X229250010Y-94572925D01*
X229114964Y-94898152D01*
X229114657Y-95250303D01*
X219577000Y-95250303D01*
X219577000Y-93085905D01*
X239234147Y-93085905D01*
X239368626Y-93411370D01*
X239617420Y-93660598D01*
X239942650Y-93795646D01*
X240294805Y-93795953D01*
X240620270Y-93661474D01*
X240869498Y-93412680D01*
X241004546Y-93087450D01*
X241004853Y-92735295D01*
X240870374Y-92409830D01*
X240621580Y-92160602D01*
X240296350Y-92025554D01*
X239944195Y-92025247D01*
X239618730Y-92159726D01*
X239369502Y-92408520D01*
X239234454Y-92733750D01*
X239234147Y-93085905D01*
X219577000Y-93085905D01*
X219577000Y-91992619D01*
X264964613Y-91992619D01*
X265304155Y-92814372D01*
X265932321Y-93443636D01*
X266753481Y-93784611D01*
X267642619Y-93785387D01*
X268464372Y-93445845D01*
X269093636Y-92817679D01*
X269434611Y-91996519D01*
X269435387Y-91107381D01*
X269095845Y-90285628D01*
X268467679Y-89656364D01*
X267646519Y-89315389D01*
X266757381Y-89314613D01*
X265935628Y-89654155D01*
X265306364Y-90282321D01*
X264965389Y-91103481D01*
X264964613Y-91992619D01*
X219577000Y-91992619D01*
X219577000Y-90279233D01*
X245640000Y-90279233D01*
X245640000Y-90320767D01*
X245720688Y-90726411D01*
X245950467Y-91070300D01*
X246294356Y-91300079D01*
X246700000Y-91380767D01*
X247105644Y-91300079D01*
X247200000Y-91237032D01*
X247294356Y-91300079D01*
X247700000Y-91380767D01*
X248105644Y-91300079D01*
X248200000Y-91237032D01*
X248294356Y-91300079D01*
X248700000Y-91380767D01*
X249105644Y-91300079D01*
X249200000Y-91237032D01*
X249294356Y-91300079D01*
X249700000Y-91380767D01*
X250105644Y-91300079D01*
X250200000Y-91237032D01*
X250294356Y-91300079D01*
X250700000Y-91380767D01*
X251105644Y-91300079D01*
X251449533Y-91070300D01*
X251679312Y-90726411D01*
X251760000Y-90320767D01*
X251760000Y-90279233D01*
X251704724Y-90001342D01*
X251721431Y-89976890D01*
X251744015Y-89865363D01*
X256964855Y-89865363D01*
X257091708Y-90172372D01*
X257119131Y-90199843D01*
X257092534Y-90226393D01*
X256965145Y-90533179D01*
X256964855Y-90865363D01*
X257091708Y-91172372D01*
X257326393Y-91407466D01*
X257633179Y-91534855D01*
X257965363Y-91535145D01*
X258272372Y-91408292D01*
X258299843Y-91380869D01*
X258326393Y-91407466D01*
X258633179Y-91534855D01*
X258965363Y-91535145D01*
X259272372Y-91408292D01*
X259299843Y-91380869D01*
X259326393Y-91407466D01*
X259633179Y-91534855D01*
X259965363Y-91535145D01*
X260272372Y-91408292D01*
X260507466Y-91173607D01*
X260634855Y-90866821D01*
X260635145Y-90534637D01*
X260508292Y-90227628D01*
X260480869Y-90200157D01*
X260507466Y-90173607D01*
X260634855Y-89866821D01*
X260635145Y-89534637D01*
X260508292Y-89227628D01*
X260273607Y-88992534D01*
X259966821Y-88865145D01*
X259634637Y-88864855D01*
X259327628Y-88991708D01*
X259300157Y-89019131D01*
X259273607Y-88992534D01*
X258966821Y-88865145D01*
X258634637Y-88864855D01*
X258327628Y-88991708D01*
X258300157Y-89019131D01*
X258273607Y-88992534D01*
X257966821Y-88865145D01*
X257634637Y-88864855D01*
X257327628Y-88991708D01*
X257092534Y-89226393D01*
X256965145Y-89533179D01*
X256964855Y-89865363D01*
X251744015Y-89865363D01*
X251772440Y-89725000D01*
X251772440Y-88875000D01*
X251728162Y-88639683D01*
X251589090Y-88423559D01*
X251376890Y-88278569D01*
X251125000Y-88227560D01*
X250275000Y-88227560D01*
X250039683Y-88271838D01*
X250012100Y-88289587D01*
X249990062Y-88280460D01*
X249827000Y-88407743D01*
X249827000Y-88408696D01*
X249823559Y-88410910D01*
X249678569Y-88623110D01*
X249634033Y-88843036D01*
X249573000Y-88723927D01*
X249573000Y-88407743D01*
X249409938Y-88280460D01*
X249200000Y-88367405D01*
X248990062Y-88280460D01*
X248827000Y-88407743D01*
X248827000Y-88723927D01*
X248699166Y-88973402D01*
X248679312Y-88873589D01*
X248573000Y-88714482D01*
X248573000Y-88407743D01*
X248409938Y-88280460D01*
X248204100Y-88365707D01*
X248105644Y-88299921D01*
X247700000Y-88219233D01*
X247294356Y-88299921D01*
X247195900Y-88365707D01*
X246990062Y-88280460D01*
X246827000Y-88407743D01*
X246827000Y-88714482D01*
X246720688Y-88873589D01*
X246649955Y-89229188D01*
X246294356Y-89299921D01*
X246104169Y-89427000D01*
X245806372Y-89427000D01*
X245680446Y-89590065D01*
X245780137Y-89784617D01*
X245720688Y-89873589D01*
X245640000Y-90279233D01*
X219577000Y-90279233D01*
X219577000Y-89009935D01*
X245680446Y-89009935D01*
X245806372Y-89173000D01*
X246573000Y-89173000D01*
X246573000Y-88407743D01*
X246409938Y-88280460D01*
X246184174Y-88373959D01*
X245869058Y-88641848D01*
X245680446Y-89009935D01*
X219577000Y-89009935D01*
X219577000Y-87985000D01*
X270515000Y-87985000D01*
X270515000Y-142173000D01*
G36*
X218573000Y-143300000D02*
X218583006Y-143349410D01*
X218611447Y-143391035D01*
X218653841Y-143418315D01*
X218700000Y-143427000D01*
X270515000Y-143427000D01*
X270515000Y-163615000D01*
X132385000Y-163615000D01*
X132385000Y-160742619D01*
X133514613Y-160742619D01*
X133854155Y-161564372D01*
X134482321Y-162193636D01*
X135303481Y-162534611D01*
X136192619Y-162535387D01*
X137014372Y-162195845D01*
X137643636Y-161567679D01*
X137944706Y-160842619D01*
X264864613Y-160842619D01*
X265204155Y-161664372D01*
X265832321Y-162293636D01*
X266653481Y-162634611D01*
X267542619Y-162635387D01*
X268364372Y-162295845D01*
X268993636Y-161667679D01*
X269334611Y-160846519D01*
X269335387Y-159957381D01*
X268995845Y-159135628D01*
X268367679Y-158506364D01*
X267546519Y-158165389D01*
X266657381Y-158164613D01*
X265835628Y-158504155D01*
X265206364Y-159132321D01*
X264865389Y-159953481D01*
X264864613Y-160842619D01*
X137944706Y-160842619D01*
X137984611Y-160746519D01*
X137985387Y-159857381D01*
X137724218Y-159225303D01*
X164714657Y-159225303D01*
X164849135Y-159550765D01*
X165097925Y-159799990D01*
X165423152Y-159935036D01*
X165775303Y-159935343D01*
X166100765Y-159800865D01*
X166349990Y-159552075D01*
X166485036Y-159226848D01*
X166485343Y-158874697D01*
X166350865Y-158549235D01*
X166102075Y-158300010D01*
X165776848Y-158164964D01*
X165424697Y-158164657D01*
X165099235Y-158299135D01*
X164850010Y-158547925D01*
X164714964Y-158873152D01*
X164714657Y-159225303D01*
X137724218Y-159225303D01*
X137645845Y-159035628D01*
X137017679Y-158406364D01*
X136196519Y-158065389D01*
X135307381Y-158064613D01*
X134485628Y-158404155D01*
X133856364Y-159032321D01*
X133515389Y-159853481D01*
X133514613Y-160742619D01*
X132385000Y-160742619D01*
X132385000Y-157315363D01*
X228764855Y-157315363D01*
X228891708Y-157622372D01*
X229126393Y-157857466D01*
X229433179Y-157984855D01*
X229765363Y-157985145D01*
X230072372Y-157858292D01*
X230307466Y-157623607D01*
X230434855Y-157316821D01*
X230435145Y-156984637D01*
X230380137Y-156851505D01*
X241967647Y-156851505D01*
X242102126Y-157176970D01*
X242350920Y-157426198D01*
X242676150Y-157561246D01*
X243028305Y-157561553D01*
X243353770Y-157427074D01*
X243602998Y-157178280D01*
X243738046Y-156853050D01*
X243738353Y-156500895D01*
X243603874Y-156175430D01*
X243355080Y-155926202D01*
X243029850Y-155791154D01*
X242677695Y-155790847D01*
X242352230Y-155925326D01*
X242103002Y-156174120D01*
X241967954Y-156499350D01*
X241967647Y-156851505D01*
X230380137Y-156851505D01*
X230308292Y-156677628D01*
X230073607Y-156442534D01*
X229766821Y-156315145D01*
X229434637Y-156314855D01*
X229127628Y-156441708D01*
X228892534Y-156676393D01*
X228765145Y-156983179D01*
X228764855Y-157315363D01*
X132385000Y-157315363D01*
X132385000Y-156328205D01*
X212077247Y-156328205D01*
X212211726Y-156653670D01*
X212460520Y-156902898D01*
X212785750Y-157037946D01*
X213137905Y-157038253D01*
X213463370Y-156903774D01*
X213712598Y-156654980D01*
X213847646Y-156329750D01*
X213847908Y-156028205D01*
X227161347Y-156028205D01*
X227295826Y-156353670D01*
X227544620Y-156602898D01*
X227869850Y-156737946D01*
X228222005Y-156738253D01*
X228547470Y-156603774D01*
X228796698Y-156354980D01*
X228931746Y-156029750D01*
X228932053Y-155677595D01*
X228797574Y-155352130D01*
X228548780Y-155102902D01*
X228223550Y-154967854D01*
X227871395Y-154967547D01*
X227545930Y-155102026D01*
X227296702Y-155350820D01*
X227161654Y-155676050D01*
X227161347Y-156028205D01*
X213847908Y-156028205D01*
X213847953Y-155977595D01*
X213713474Y-155652130D01*
X213464680Y-155402902D01*
X213139450Y-155267854D01*
X212787295Y-155267547D01*
X212461830Y-155402026D01*
X212212602Y-155650820D01*
X212077554Y-155976050D01*
X212077247Y-156328205D01*
X132385000Y-156328205D01*
X132385000Y-153960750D01*
X134340000Y-153960750D01*
X134340000Y-154651310D01*
X134436673Y-154884699D01*
X134615302Y-155063327D01*
X134848691Y-155160000D01*
X135539250Y-155160000D01*
X135698000Y-155001250D01*
X135698000Y-153802000D01*
X135952000Y-153802000D01*
X135952000Y-155001250D01*
X136110750Y-155160000D01*
X136801309Y-155160000D01*
X137034698Y-155063327D01*
X137213327Y-154884699D01*
X137310000Y-154651310D01*
X137310000Y-154069505D01*
X192598447Y-154069505D01*
X192732926Y-154394970D01*
X192981720Y-154644198D01*
X193306950Y-154779246D01*
X193659105Y-154779553D01*
X193984570Y-154645074D01*
X193993910Y-154635750D01*
X266315000Y-154635750D01*
X266315000Y-155326310D01*
X266411673Y-155559699D01*
X266590302Y-155738327D01*
X266823691Y-155835000D01*
X267514250Y-155835000D01*
X267673000Y-155676250D01*
X267673000Y-154477000D01*
X267927000Y-154477000D01*
X267927000Y-155676250D01*
X268085750Y-155835000D01*
X268776309Y-155835000D01*
X269009698Y-155738327D01*
X269188327Y-155559699D01*
X269285000Y-155326310D01*
X269285000Y-154635750D01*
X269126250Y-154477000D01*
X267927000Y-154477000D01*
X267673000Y-154477000D01*
X266473750Y-154477000D01*
X266315000Y-154635750D01*
X193993910Y-154635750D01*
X194233798Y-154396280D01*
X194368846Y-154071050D01*
X194369153Y-153718895D01*
X194234674Y-153393430D01*
X194214969Y-153373690D01*
X266315000Y-153373690D01*
X266315000Y-154064250D01*
X266473750Y-154223000D01*
X267673000Y-154223000D01*
X267673000Y-153023750D01*
X267927000Y-153023750D01*
X267927000Y-154223000D01*
X269126250Y-154223000D01*
X269285000Y-154064250D01*
X269285000Y-153373690D01*
X269188327Y-153140301D01*
X269009698Y-152961673D01*
X268776309Y-152865000D01*
X268085750Y-152865000D01*
X267927000Y-153023750D01*
X267673000Y-153023750D01*
X267514250Y-152865000D01*
X266823691Y-152865000D01*
X266590302Y-152961673D01*
X266411673Y-153140301D01*
X266315000Y-153373690D01*
X194214969Y-153373690D01*
X193985880Y-153144202D01*
X193660650Y-153009154D01*
X193308495Y-153008847D01*
X192983030Y-153143326D01*
X192733802Y-153392120D01*
X192598754Y-153717350D01*
X192598447Y-154069505D01*
X137310000Y-154069505D01*
X137310000Y-153960750D01*
X137151250Y-153802000D01*
X135952000Y-153802000D01*
X135698000Y-153802000D01*
X134498750Y-153802000D01*
X134340000Y-153960750D01*
X132385000Y-153960750D01*
X132385000Y-152698690D01*
X134340000Y-152698690D01*
X134340000Y-153389250D01*
X134498750Y-153548000D01*
X135698000Y-153548000D01*
X135698000Y-152348750D01*
X135952000Y-152348750D01*
X135952000Y-153548000D01*
X137151250Y-153548000D01*
X137310000Y-153389250D01*
X137310000Y-152698690D01*
X137213327Y-152465301D01*
X137034698Y-152286673D01*
X136801309Y-152190000D01*
X136110750Y-152190000D01*
X135952000Y-152348750D01*
X135698000Y-152348750D01*
X135539250Y-152190000D01*
X134848691Y-152190000D01*
X134615302Y-152286673D01*
X134436673Y-152465301D01*
X134340000Y-152698690D01*
X132385000Y-152698690D01*
X132385000Y-150878105D01*
X184118347Y-150878105D01*
X184252826Y-151203570D01*
X184501620Y-151452798D01*
X184826850Y-151587846D01*
X185179005Y-151588153D01*
X185504470Y-151453674D01*
X185753698Y-151204880D01*
X185888746Y-150879650D01*
X185888747Y-150878105D01*
X191529447Y-150878105D01*
X191663926Y-151203570D01*
X191912720Y-151452798D01*
X192237950Y-151587846D01*
X192590105Y-151588153D01*
X192915570Y-151453674D01*
X193164798Y-151204880D01*
X193299846Y-150879650D01*
X193300153Y-150527495D01*
X193165674Y-150202030D01*
X192916880Y-149952802D01*
X192591650Y-149817754D01*
X192239495Y-149817447D01*
X191914030Y-149951926D01*
X191664802Y-150200720D01*
X191529754Y-150525950D01*
X191529447Y-150878105D01*
X185888747Y-150878105D01*
X185889053Y-150527495D01*
X185754574Y-150202030D01*
X185505780Y-149952802D01*
X185180550Y-149817754D01*
X184828395Y-149817447D01*
X184502930Y-149951926D01*
X184253702Y-150200720D01*
X184118654Y-150525950D01*
X184118347Y-150878105D01*
X132385000Y-150878105D01*
X132385000Y-146243893D01*
X136114725Y-146243893D01*
X136355519Y-146826657D01*
X136800997Y-147272914D01*
X137383341Y-147514724D01*
X138013893Y-147515275D01*
X138596657Y-147274481D01*
X139042914Y-146829003D01*
X139069339Y-146765363D01*
X178114855Y-146765363D01*
X178241708Y-147072372D01*
X178476393Y-147307466D01*
X178783179Y-147434855D01*
X179115363Y-147435145D01*
X179422372Y-147308292D01*
X179505505Y-147225303D01*
X229014657Y-147225303D01*
X229149135Y-147550765D01*
X229397925Y-147799990D01*
X229723152Y-147935036D01*
X230075303Y-147935343D01*
X230400765Y-147800865D01*
X230526546Y-147675303D01*
X251464657Y-147675303D01*
X251599135Y-148000765D01*
X251847925Y-148249990D01*
X252173152Y-148385036D01*
X252525303Y-148385343D01*
X252850765Y-148250865D01*
X253099990Y-148002075D01*
X253235036Y-147676848D01*
X253235343Y-147324697D01*
X253100865Y-146999235D01*
X252852075Y-146750010D01*
X252526848Y-146614964D01*
X252174697Y-146614657D01*
X251849235Y-146749135D01*
X251600010Y-146997925D01*
X251464964Y-147323152D01*
X251464657Y-147675303D01*
X230526546Y-147675303D01*
X230649990Y-147552075D01*
X230785036Y-147226848D01*
X230785343Y-146874697D01*
X230650865Y-146549235D01*
X230402075Y-146300010D01*
X230076848Y-146164964D01*
X229724697Y-146164657D01*
X229399235Y-146299135D01*
X229150010Y-146547925D01*
X229014964Y-146873152D01*
X229014657Y-147225303D01*
X179505505Y-147225303D01*
X179657466Y-147073607D01*
X179784855Y-146766821D01*
X179785145Y-146434637D01*
X179658292Y-146127628D01*
X179423607Y-145892534D01*
X179116821Y-145765145D01*
X178784637Y-145764855D01*
X178477628Y-145891708D01*
X178242534Y-146126393D01*
X178115145Y-146433179D01*
X178114855Y-146765363D01*
X139069339Y-146765363D01*
X139284724Y-146246659D01*
X139285275Y-145616107D01*
X139269284Y-145577405D01*
X190002147Y-145577405D01*
X190136626Y-145902870D01*
X190385420Y-146152098D01*
X190710650Y-146287146D01*
X191062805Y-146287453D01*
X191388270Y-146152974D01*
X191637498Y-145904180D01*
X191772546Y-145578950D01*
X191772592Y-145525303D01*
X226214657Y-145525303D01*
X226349135Y-145850765D01*
X226597925Y-146099990D01*
X226923152Y-146235036D01*
X227275303Y-146235343D01*
X227600765Y-146100865D01*
X227842547Y-145859505D01*
X257064647Y-145859505D01*
X257199126Y-146184970D01*
X257447920Y-146434198D01*
X257773150Y-146569246D01*
X258125305Y-146569553D01*
X258450770Y-146435074D01*
X258699998Y-146186280D01*
X258835046Y-145861050D01*
X258835353Y-145508895D01*
X258700874Y-145183430D01*
X258452080Y-144934202D01*
X258126850Y-144799154D01*
X257774695Y-144798847D01*
X257449230Y-144933326D01*
X257200002Y-145182120D01*
X257064954Y-145507350D01*
X257064647Y-145859505D01*
X227842547Y-145859505D01*
X227849990Y-145852075D01*
X227985036Y-145526848D01*
X227985343Y-145174697D01*
X227923615Y-145025303D01*
X239092457Y-145025303D01*
X239226935Y-145350765D01*
X239475725Y-145599990D01*
X239800952Y-145735036D01*
X240153103Y-145735343D01*
X240478565Y-145600865D01*
X240727790Y-145352075D01*
X240862836Y-145026848D01*
X240863143Y-144674697D01*
X240728665Y-144349235D01*
X240479875Y-144100010D01*
X240154648Y-143964964D01*
X239802497Y-143964657D01*
X239477035Y-144099135D01*
X239227810Y-144347925D01*
X239092764Y-144673152D01*
X239092457Y-145025303D01*
X227923615Y-145025303D01*
X227850865Y-144849235D01*
X227602075Y-144600010D01*
X227276848Y-144464964D01*
X226924697Y-144464657D01*
X226599235Y-144599135D01*
X226350010Y-144847925D01*
X226214964Y-145173152D01*
X226214657Y-145525303D01*
X191772592Y-145525303D01*
X191772853Y-145226795D01*
X191638374Y-144901330D01*
X191389580Y-144652102D01*
X191064350Y-144517054D01*
X190712195Y-144516747D01*
X190386730Y-144651226D01*
X190137502Y-144900020D01*
X190002454Y-145225250D01*
X190002147Y-145577405D01*
X139269284Y-145577405D01*
X139044481Y-145033343D01*
X138599003Y-144587086D01*
X138016659Y-144345276D01*
X137386107Y-144344725D01*
X136803343Y-144585519D01*
X136357086Y-145030997D01*
X136115276Y-145613341D01*
X136114725Y-146243893D01*
X132385000Y-146243893D01*
X132385000Y-142283893D01*
X136114725Y-142283893D01*
X136355519Y-142866657D01*
X136800997Y-143312914D01*
X137383341Y-143554724D01*
X138013893Y-143555275D01*
X138596657Y-143314481D01*
X139042914Y-142869003D01*
X139284724Y-142286659D01*
X139285275Y-141656107D01*
X139107271Y-141225305D01*
X205226047Y-141225305D01*
X205360526Y-141550770D01*
X205609320Y-141799998D01*
X205934550Y-141935046D01*
X206286705Y-141935353D01*
X206612170Y-141800874D01*
X206861398Y-141552080D01*
X206996446Y-141226850D01*
X206996753Y-140874695D01*
X206862274Y-140549230D01*
X206613480Y-140300002D01*
X206288250Y-140164954D01*
X205936095Y-140164647D01*
X205610630Y-140299126D01*
X205361402Y-140547920D01*
X205226354Y-140873150D01*
X205226047Y-141225305D01*
X139107271Y-141225305D01*
X139044481Y-141073343D01*
X138599003Y-140627086D01*
X138016659Y-140385276D01*
X137386107Y-140384725D01*
X136803343Y-140625519D01*
X136357086Y-141070997D01*
X136115276Y-141653341D01*
X136114725Y-142283893D01*
X132385000Y-142283893D01*
X132385000Y-138323893D01*
X136114725Y-138323893D01*
X136355519Y-138906657D01*
X136800997Y-139352914D01*
X137383341Y-139594724D01*
X138013893Y-139595275D01*
X138596657Y-139354481D01*
X139042914Y-138909003D01*
X139192398Y-138549005D01*
X201871647Y-138549005D01*
X202006126Y-138874470D01*
X202254920Y-139123698D01*
X202580150Y-139258746D01*
X202932305Y-139259053D01*
X203257770Y-139124574D01*
X203506998Y-138875780D01*
X203642046Y-138550550D01*
X203642312Y-138244703D01*
X213795257Y-138244703D01*
X213929735Y-138570165D01*
X214178525Y-138819390D01*
X214503752Y-138954436D01*
X214855903Y-138954743D01*
X215181365Y-138820265D01*
X215430590Y-138571475D01*
X215565636Y-138246248D01*
X215565943Y-137894097D01*
X215431465Y-137568635D01*
X215182675Y-137319410D01*
X214857448Y-137184364D01*
X214505297Y-137184057D01*
X214179835Y-137318535D01*
X213930610Y-137567325D01*
X213795564Y-137892552D01*
X213795257Y-138244703D01*
X203642312Y-138244703D01*
X203642353Y-138198395D01*
X203507874Y-137872930D01*
X203259080Y-137623702D01*
X202933850Y-137488654D01*
X202581695Y-137488347D01*
X202256230Y-137622826D01*
X202007002Y-137871620D01*
X201871954Y-138196850D01*
X201871647Y-138549005D01*
X139192398Y-138549005D01*
X139284724Y-138326659D01*
X139285275Y-137696107D01*
X139044481Y-137113343D01*
X138599003Y-136667086D01*
X138016659Y-136425276D01*
X137386107Y-136424725D01*
X136803343Y-136665519D01*
X136357086Y-137110997D01*
X136115276Y-137693341D01*
X136114725Y-138323893D01*
X132385000Y-138323893D01*
X132385000Y-133100000D01*
X136102560Y-133100000D01*
X136102560Y-135000000D01*
X136146838Y-135235317D01*
X136285910Y-135451441D01*
X136498110Y-135596431D01*
X136750000Y-135647440D01*
X138650000Y-135647440D01*
X138820474Y-135615363D01*
X161114855Y-135615363D01*
X161241708Y-135922372D01*
X161269131Y-135949843D01*
X161242534Y-135976393D01*
X161115145Y-136283179D01*
X161114855Y-136615363D01*
X161241708Y-136922372D01*
X161269131Y-136949843D01*
X161242534Y-136976393D01*
X161115145Y-137283179D01*
X161114855Y-137615363D01*
X161241708Y-137922372D01*
X161476393Y-138157466D01*
X161783179Y-138284855D01*
X162115363Y-138285145D01*
X162422372Y-138158292D01*
X162449843Y-138130869D01*
X162476393Y-138157466D01*
X162783179Y-138284855D01*
X163115363Y-138285145D01*
X163422372Y-138158292D01*
X163449843Y-138130869D01*
X163476393Y-138157466D01*
X163783179Y-138284855D01*
X164115363Y-138285145D01*
X164422372Y-138158292D01*
X164449843Y-138130869D01*
X164476393Y-138157466D01*
X164783179Y-138284855D01*
X165115363Y-138285145D01*
X165422372Y-138158292D01*
X165449843Y-138130869D01*
X165476393Y-138157466D01*
X165783179Y-138284855D01*
X166115363Y-138285145D01*
X166422372Y-138158292D01*
X166657466Y-137923607D01*
X166784855Y-137616821D01*
X166785145Y-137284637D01*
X166658292Y-136977628D01*
X166630869Y-136950157D01*
X166657466Y-136923607D01*
X166784855Y-136616821D01*
X166784943Y-136515363D01*
X178014855Y-136515363D01*
X178141708Y-136822372D01*
X178376393Y-137057466D01*
X178683179Y-137184855D01*
X179015363Y-137185145D01*
X179322372Y-137058292D01*
X179557466Y-136823607D01*
X179684855Y-136516821D01*
X179685145Y-136184637D01*
X179558292Y-135877628D01*
X179323607Y-135642534D01*
X179282111Y-135625303D01*
X190864657Y-135625303D01*
X190999135Y-135950765D01*
X191247925Y-136199990D01*
X191573152Y-136335036D01*
X191925303Y-136335343D01*
X192086579Y-136268705D01*
X214889647Y-136268705D01*
X215024126Y-136594170D01*
X215272920Y-136843398D01*
X215598150Y-136978446D01*
X215950305Y-136978753D01*
X216275770Y-136844274D01*
X216524998Y-136595480D01*
X216660046Y-136270250D01*
X216660353Y-135918095D01*
X216525874Y-135592630D01*
X216277080Y-135343402D01*
X215951850Y-135208354D01*
X215599695Y-135208047D01*
X215274230Y-135342526D01*
X215025002Y-135591320D01*
X214889954Y-135916550D01*
X214889647Y-136268705D01*
X192086579Y-136268705D01*
X192250765Y-136200865D01*
X192499990Y-135952075D01*
X192635036Y-135626848D01*
X192635343Y-135274697D01*
X192500865Y-134949235D01*
X192252075Y-134700010D01*
X191926848Y-134564964D01*
X191574697Y-134564657D01*
X191249235Y-134699135D01*
X191000010Y-134947925D01*
X190864964Y-135273152D01*
X190864657Y-135625303D01*
X179282111Y-135625303D01*
X179016821Y-135515145D01*
X178684637Y-135514855D01*
X178377628Y-135641708D01*
X178142534Y-135876393D01*
X178015145Y-136183179D01*
X178014855Y-136515363D01*
X166784943Y-136515363D01*
X166785145Y-136284637D01*
X166658292Y-135977628D01*
X166630869Y-135950157D01*
X166657466Y-135923607D01*
X166784855Y-135616821D01*
X166785145Y-135284637D01*
X166658292Y-134977628D01*
X166423607Y-134742534D01*
X166116821Y-134615145D01*
X165784637Y-134614855D01*
X165477628Y-134741708D01*
X165450157Y-134769131D01*
X165423607Y-134742534D01*
X165116821Y-134615145D01*
X164784637Y-134614855D01*
X164477628Y-134741708D01*
X164450157Y-134769131D01*
X164423607Y-134742534D01*
X164116821Y-134615145D01*
X163784637Y-134614855D01*
X163477628Y-134741708D01*
X163450157Y-134769131D01*
X163423607Y-134742534D01*
X163116821Y-134615145D01*
X162784637Y-134614855D01*
X162477628Y-134741708D01*
X162450157Y-134769131D01*
X162423607Y-134742534D01*
X162116821Y-134615145D01*
X161784637Y-134614855D01*
X161477628Y-134741708D01*
X161242534Y-134976393D01*
X161115145Y-135283179D01*
X161114855Y-135615363D01*
X138820474Y-135615363D01*
X138885317Y-135603162D01*
X139101441Y-135464090D01*
X139246431Y-135251890D01*
X139297440Y-135000000D01*
X139297440Y-134282805D01*
X202697447Y-134282805D01*
X202831926Y-134608270D01*
X203080720Y-134857498D01*
X203405950Y-134992546D01*
X203758105Y-134992853D01*
X204083570Y-134858374D01*
X204332798Y-134609580D01*
X204402569Y-134441554D01*
X204570320Y-134609598D01*
X204895550Y-134744646D01*
X205247705Y-134744953D01*
X205573170Y-134610474D01*
X205822398Y-134361680D01*
X205957446Y-134036450D01*
X205957753Y-133684295D01*
X205823274Y-133358830D01*
X205574480Y-133109602D01*
X205249250Y-132974554D01*
X204897095Y-132974247D01*
X204571630Y-133108726D01*
X204322402Y-133357520D01*
X204252631Y-133525546D01*
X204084880Y-133357502D01*
X203759650Y-133222454D01*
X203407495Y-133222147D01*
X203082030Y-133356626D01*
X202832802Y-133605420D01*
X202697754Y-133930650D01*
X202697447Y-134282805D01*
X139297440Y-134282805D01*
X139297440Y-133100000D01*
X139253162Y-132864683D01*
X139114090Y-132648559D01*
X138901890Y-132503569D01*
X138650000Y-132452560D01*
X136750000Y-132452560D01*
X136514683Y-132496838D01*
X136298559Y-132635910D01*
X136153569Y-132848110D01*
X136102560Y-133100000D01*
X132385000Y-133100000D01*
X132385000Y-131825303D01*
X201764657Y-131825303D01*
X201899135Y-132150765D01*
X202147925Y-132399990D01*
X202473152Y-132535036D01*
X202825303Y-132535343D01*
X203150765Y-132400865D01*
X203176559Y-132375116D01*
X203249135Y-132550765D01*
X203497925Y-132799990D01*
X203823152Y-132935036D01*
X204175303Y-132935343D01*
X204500765Y-132800865D01*
X204749990Y-132552075D01*
X204885036Y-132226848D01*
X204885343Y-131874697D01*
X204750865Y-131549235D01*
X204502075Y-131300010D01*
X204176848Y-131164964D01*
X203824697Y-131164657D01*
X203499235Y-131299135D01*
X203473441Y-131324884D01*
X203400865Y-131149235D01*
X203152075Y-130900010D01*
X202826848Y-130764964D01*
X202474697Y-130764657D01*
X202149235Y-130899135D01*
X201900010Y-131147925D01*
X201764964Y-131473152D01*
X201764657Y-131825303D01*
X132385000Y-131825303D01*
X132385000Y-127665363D01*
X205864855Y-127665363D01*
X205991708Y-127972372D01*
X206226393Y-128207466D01*
X206533179Y-128334855D01*
X206865363Y-128335145D01*
X207172372Y-128208292D01*
X207407466Y-127973607D01*
X207534855Y-127666821D01*
X207535145Y-127334637D01*
X207408292Y-127027628D01*
X207173607Y-126792534D01*
X206866821Y-126665145D01*
X206534637Y-126664855D01*
X206227628Y-126791708D01*
X205992534Y-127026393D01*
X205865145Y-127333179D01*
X205864855Y-127665363D01*
X132385000Y-127665363D01*
X132385000Y-126002564D01*
X132583179Y-126084855D01*
X132915363Y-126085145D01*
X133222372Y-125958292D01*
X133457466Y-125723607D01*
X133488069Y-125649905D01*
X213921147Y-125649905D01*
X214055626Y-125975370D01*
X214304420Y-126224598D01*
X214629650Y-126359646D01*
X214981805Y-126359953D01*
X215307270Y-126225474D01*
X215556498Y-125976680D01*
X215691546Y-125651450D01*
X215691853Y-125299295D01*
X215557374Y-124973830D01*
X215308580Y-124724602D01*
X214983350Y-124589554D01*
X214631195Y-124589247D01*
X214305730Y-124723726D01*
X214056502Y-124972520D01*
X213921454Y-125297750D01*
X213921147Y-125649905D01*
X133488069Y-125649905D01*
X133584855Y-125416821D01*
X133585145Y-125084637D01*
X133458292Y-124777628D01*
X133223607Y-124542534D01*
X132916821Y-124415145D01*
X132584637Y-124414855D01*
X132385000Y-124497343D01*
X132385000Y-121347505D01*
X146930247Y-121347505D01*
X147064726Y-121672970D01*
X147313520Y-121922198D01*
X147638750Y-122057246D01*
X147990905Y-122057553D01*
X148316370Y-121923074D01*
X148565598Y-121674280D01*
X148700646Y-121349050D01*
X148700928Y-121025303D01*
X213814657Y-121025303D01*
X213949135Y-121350765D01*
X214197925Y-121599990D01*
X214523152Y-121735036D01*
X214875303Y-121735343D01*
X215200765Y-121600865D01*
X215449990Y-121352075D01*
X215585036Y-121026848D01*
X215585343Y-120674697D01*
X215450865Y-120349235D01*
X215202075Y-120100010D01*
X214876848Y-119964964D01*
X214524697Y-119964657D01*
X214199235Y-120099135D01*
X213950010Y-120347925D01*
X213814964Y-120673152D01*
X213814657Y-121025303D01*
X148700928Y-121025303D01*
X148700953Y-120996895D01*
X148566474Y-120671430D01*
X148317680Y-120422202D01*
X147992450Y-120287154D01*
X147640295Y-120286847D01*
X147314830Y-120421326D01*
X147065602Y-120670120D01*
X146930554Y-120995350D01*
X146930247Y-121347505D01*
X132385000Y-121347505D01*
X132385000Y-119952605D01*
X141933947Y-119952605D01*
X142068426Y-120278070D01*
X142317220Y-120527298D01*
X142642450Y-120662346D01*
X142994605Y-120662653D01*
X143320070Y-120528174D01*
X143569298Y-120279380D01*
X143704346Y-119954150D01*
X143704653Y-119601995D01*
X143632515Y-119427405D01*
X144923747Y-119427405D01*
X145058226Y-119752870D01*
X145307020Y-120002098D01*
X145632250Y-120137146D01*
X145984405Y-120137453D01*
X146309870Y-120002974D01*
X146559098Y-119754180D01*
X146694146Y-119428950D01*
X146694453Y-119076795D01*
X146652518Y-118975303D01*
X148314657Y-118975303D01*
X148449135Y-119300765D01*
X148697925Y-119549990D01*
X149023152Y-119685036D01*
X149375303Y-119685343D01*
X149700765Y-119550865D01*
X149949990Y-119302075D01*
X150085036Y-118976848D01*
X150085080Y-118925303D01*
X150764657Y-118925303D01*
X150899135Y-119250765D01*
X151147925Y-119499990D01*
X151473152Y-119635036D01*
X151825303Y-119635343D01*
X152150765Y-119500865D01*
X152399990Y-119252075D01*
X152535036Y-118926848D01*
X152535343Y-118574697D01*
X152400865Y-118249235D01*
X152152075Y-118000010D01*
X151826848Y-117864964D01*
X151474697Y-117864657D01*
X151149235Y-117999135D01*
X150900010Y-118247925D01*
X150764964Y-118573152D01*
X150764657Y-118925303D01*
X150085080Y-118925303D01*
X150085343Y-118624697D01*
X149950865Y-118299235D01*
X149702075Y-118050010D01*
X149376848Y-117914964D01*
X149024697Y-117914657D01*
X148699235Y-118049135D01*
X148450010Y-118297925D01*
X148314964Y-118623152D01*
X148314657Y-118975303D01*
X146652518Y-118975303D01*
X146559974Y-118751330D01*
X146311180Y-118502102D01*
X145985950Y-118367054D01*
X145633795Y-118366747D01*
X145308330Y-118501226D01*
X145059102Y-118750020D01*
X144924054Y-119075250D01*
X144923747Y-119427405D01*
X143632515Y-119427405D01*
X143570174Y-119276530D01*
X143321380Y-119027302D01*
X142996150Y-118892254D01*
X142643995Y-118891947D01*
X142318530Y-119026426D01*
X142069302Y-119275220D01*
X141934254Y-119600450D01*
X141933947Y-119952605D01*
X132385000Y-119952605D01*
X132385000Y-117216505D01*
X198868147Y-117216505D01*
X199002626Y-117541970D01*
X199251420Y-117791198D01*
X199576650Y-117926246D01*
X199928805Y-117926553D01*
X200254270Y-117792074D01*
X200503498Y-117543280D01*
X200638546Y-117218050D01*
X200638853Y-116865895D01*
X200504374Y-116540430D01*
X200255580Y-116291202D01*
X199930350Y-116156154D01*
X199578195Y-116155847D01*
X199252730Y-116290326D01*
X199003502Y-116539120D01*
X198868454Y-116864350D01*
X198868147Y-117216505D01*
X132385000Y-117216505D01*
X132385000Y-115075303D01*
X157264657Y-115075303D01*
X157399135Y-115400765D01*
X157647925Y-115649990D01*
X157973152Y-115785036D01*
X158325303Y-115785343D01*
X158650765Y-115650865D01*
X158899990Y-115402075D01*
X159035036Y-115076848D01*
X159035080Y-115025303D01*
X178114657Y-115025303D01*
X178249135Y-115350765D01*
X178497925Y-115599990D01*
X178823152Y-115735036D01*
X179175303Y-115735343D01*
X179500765Y-115600865D01*
X179749990Y-115352075D01*
X179806757Y-115215363D01*
X191864855Y-115215363D01*
X191991708Y-115522372D01*
X192226393Y-115757466D01*
X192533179Y-115884855D01*
X192865363Y-115885145D01*
X193172372Y-115758292D01*
X193407466Y-115523607D01*
X193534855Y-115216821D01*
X193535145Y-114884637D01*
X193408292Y-114577628D01*
X193173607Y-114342534D01*
X192866821Y-114215145D01*
X192534637Y-114214855D01*
X192227628Y-114341708D01*
X191992534Y-114576393D01*
X191865145Y-114883179D01*
X191864855Y-115215363D01*
X179806757Y-115215363D01*
X179885036Y-115026848D01*
X179885343Y-114674697D01*
X179750865Y-114349235D01*
X179502075Y-114100010D01*
X179176848Y-113964964D01*
X178824697Y-113964657D01*
X178499235Y-114099135D01*
X178250010Y-114347925D01*
X178114964Y-114673152D01*
X178114657Y-115025303D01*
X159035080Y-115025303D01*
X159035343Y-114724697D01*
X158903227Y-114404952D01*
X159097925Y-114599990D01*
X159423152Y-114735036D01*
X159775303Y-114735343D01*
X160100765Y-114600865D01*
X160349990Y-114352075D01*
X160485036Y-114026848D01*
X160485343Y-113674697D01*
X160350865Y-113349235D01*
X160102075Y-113100010D01*
X159776848Y-112964964D01*
X159424697Y-112964657D01*
X159099235Y-113099135D01*
X158850010Y-113347925D01*
X158714964Y-113673152D01*
X158714657Y-114025303D01*
X158846773Y-114345048D01*
X158652075Y-114150010D01*
X158326848Y-114014964D01*
X157974697Y-114014657D01*
X157649235Y-114149135D01*
X157400010Y-114397925D01*
X157264964Y-114723152D01*
X157264657Y-115075303D01*
X132385000Y-115075303D01*
X132385000Y-112765363D01*
X165264855Y-112765363D01*
X165391708Y-113072372D01*
X165626393Y-113307466D01*
X165933179Y-113434855D01*
X166265363Y-113435145D01*
X166572372Y-113308292D01*
X166807466Y-113073607D01*
X166934855Y-112766821D01*
X166935145Y-112434637D01*
X166808292Y-112127628D01*
X166573607Y-111892534D01*
X166266821Y-111765145D01*
X165934637Y-111764855D01*
X165627628Y-111891708D01*
X165392534Y-112126393D01*
X165265145Y-112433179D01*
X165264855Y-112765363D01*
X132385000Y-112765363D01*
X132385000Y-112065363D01*
X142064855Y-112065363D01*
X142191708Y-112372372D01*
X142426393Y-112607466D01*
X142733179Y-112734855D01*
X143065363Y-112735145D01*
X143372372Y-112608292D01*
X143607466Y-112373607D01*
X143734855Y-112066821D01*
X143735145Y-111734637D01*
X143608292Y-111427628D01*
X143373607Y-111192534D01*
X143066821Y-111065145D01*
X142734637Y-111064855D01*
X142427628Y-111191708D01*
X142192534Y-111426393D01*
X142065145Y-111733179D01*
X142064855Y-112065363D01*
X132385000Y-112065363D01*
X132385000Y-110775305D01*
X144914647Y-110775305D01*
X145049126Y-111100770D01*
X145297920Y-111349998D01*
X145623150Y-111485046D01*
X145975305Y-111485353D01*
X146177664Y-111401740D01*
X146064964Y-111673152D01*
X146064657Y-112025303D01*
X146199135Y-112350765D01*
X146447925Y-112599990D01*
X146773152Y-112735036D01*
X147125303Y-112735343D01*
X147450765Y-112600865D01*
X147699990Y-112352075D01*
X147835036Y-112026848D01*
X147835343Y-111674697D01*
X147700865Y-111349235D01*
X147452075Y-111100010D01*
X147126848Y-110964964D01*
X146775366Y-110964658D01*
X146871345Y-110925000D01*
X155977560Y-110925000D01*
X155977560Y-111775000D01*
X156021838Y-112010317D01*
X156160910Y-112226441D01*
X156373110Y-112371431D01*
X156625000Y-112422440D01*
X157475000Y-112422440D01*
X157710317Y-112378162D01*
X157926441Y-112239090D01*
X158071431Y-112026890D01*
X158122440Y-111775000D01*
X158122440Y-111338605D01*
X168261447Y-111338605D01*
X168395926Y-111664070D01*
X168644720Y-111913298D01*
X168969950Y-112048346D01*
X169322105Y-112048653D01*
X169647570Y-111914174D01*
X169858806Y-111703305D01*
X171055147Y-111703305D01*
X171189626Y-112028770D01*
X171438420Y-112277998D01*
X171763650Y-112413046D01*
X172115805Y-112413353D01*
X172441270Y-112278874D01*
X172645499Y-112075000D01*
X180227560Y-112075000D01*
X180227560Y-112925000D01*
X180271838Y-113160317D01*
X180410910Y-113376441D01*
X180623110Y-113521431D01*
X180875000Y-113572440D01*
X181725000Y-113572440D01*
X181960317Y-113528162D01*
X182176441Y-113389090D01*
X182321431Y-113176890D01*
X182372440Y-112925000D01*
X182372440Y-112075000D01*
X182328162Y-111839683D01*
X182189090Y-111623559D01*
X181976890Y-111478569D01*
X181725000Y-111427560D01*
X180875000Y-111427560D01*
X180639683Y-111471838D01*
X180423559Y-111610910D01*
X180278569Y-111823110D01*
X180227560Y-112075000D01*
X172645499Y-112075000D01*
X172690498Y-112030080D01*
X172825546Y-111704850D01*
X172825853Y-111352695D01*
X172801433Y-111293593D01*
X172888898Y-111206280D01*
X172976876Y-110994405D01*
X193914647Y-110994405D01*
X194049126Y-111319870D01*
X194297920Y-111569098D01*
X194623150Y-111704146D01*
X194975305Y-111704453D01*
X195131112Y-111640075D01*
X195254120Y-111763298D01*
X195579350Y-111898346D01*
X195931505Y-111898653D01*
X196256970Y-111764174D01*
X196506198Y-111515380D01*
X196567767Y-111367105D01*
X197068747Y-111367105D01*
X197203226Y-111692570D01*
X197452020Y-111941798D01*
X197777250Y-112076846D01*
X198129405Y-112077153D01*
X198134615Y-112075000D01*
X204827560Y-112075000D01*
X204827560Y-112925000D01*
X204871838Y-113160317D01*
X205010910Y-113376441D01*
X205223110Y-113521431D01*
X205475000Y-113572440D01*
X206325000Y-113572440D01*
X206560317Y-113528162D01*
X206776441Y-113389090D01*
X206921431Y-113176890D01*
X206972440Y-112925000D01*
X206972440Y-112075000D01*
X206928162Y-111839683D01*
X206789090Y-111623559D01*
X206576890Y-111478569D01*
X206325000Y-111427560D01*
X205475000Y-111427560D01*
X205239683Y-111471838D01*
X205023559Y-111610910D01*
X204878569Y-111823110D01*
X204827560Y-112075000D01*
X198134615Y-112075000D01*
X198454870Y-111942674D01*
X198704098Y-111693880D01*
X198839146Y-111368650D01*
X198839453Y-111016495D01*
X198704974Y-110691030D01*
X198456180Y-110441802D01*
X198130950Y-110306754D01*
X197778795Y-110306447D01*
X197453330Y-110440926D01*
X197204102Y-110689720D01*
X197069054Y-111014950D01*
X197068747Y-111367105D01*
X196567767Y-111367105D01*
X196641246Y-111190150D01*
X196641553Y-110837995D01*
X196507074Y-110512530D01*
X196452711Y-110458072D01*
X196452953Y-110180395D01*
X196318474Y-109854930D01*
X196069680Y-109605702D01*
X195744450Y-109470654D01*
X195392295Y-109470347D01*
X195066830Y-109604826D01*
X194817602Y-109853620D01*
X194784272Y-109933886D01*
X194624695Y-109933747D01*
X194299230Y-110068226D01*
X194050002Y-110317020D01*
X193914954Y-110642250D01*
X193914647Y-110994405D01*
X172976876Y-110994405D01*
X173023946Y-110881050D01*
X173024253Y-110528895D01*
X172889774Y-110203430D01*
X172640980Y-109954202D01*
X172315750Y-109819154D01*
X171963595Y-109818847D01*
X171638130Y-109953326D01*
X171388902Y-110202120D01*
X171253854Y-110527350D01*
X171253547Y-110879505D01*
X171277967Y-110938607D01*
X171190502Y-111025920D01*
X171055454Y-111351150D01*
X171055147Y-111703305D01*
X169858806Y-111703305D01*
X169896798Y-111665380D01*
X170031846Y-111340150D01*
X170032153Y-110987995D01*
X169897674Y-110662530D01*
X169648880Y-110413302D01*
X169323650Y-110278254D01*
X168971495Y-110277947D01*
X168646030Y-110412426D01*
X168396802Y-110661220D01*
X168261754Y-110986450D01*
X168261447Y-111338605D01*
X158122440Y-111338605D01*
X158122440Y-110925000D01*
X158078162Y-110689683D01*
X157939090Y-110473559D01*
X157726890Y-110328569D01*
X157475000Y-110277560D01*
X156625000Y-110277560D01*
X156389683Y-110321838D01*
X156173559Y-110460910D01*
X156028569Y-110673110D01*
X155977560Y-110925000D01*
X146871345Y-110925000D01*
X147050765Y-110850865D01*
X147299990Y-110602075D01*
X147435036Y-110276848D01*
X147435343Y-109924697D01*
X147300865Y-109599235D01*
X147052075Y-109350010D01*
X146726848Y-109214964D01*
X146374697Y-109214657D01*
X146049235Y-109349135D01*
X145800010Y-109597925D01*
X145751497Y-109714758D01*
X145624695Y-109714647D01*
X145299230Y-109849126D01*
X145050002Y-110097920D01*
X144914954Y-110423150D01*
X144914647Y-110775305D01*
X132385000Y-110775305D01*
X132385000Y-108541305D01*
X159403747Y-108541305D01*
X159538226Y-108866770D01*
X159787020Y-109115998D01*
X160112250Y-109251046D01*
X160464405Y-109251353D01*
X160789870Y-109116874D01*
X161039098Y-108868080D01*
X161174146Y-108542850D01*
X161174453Y-108190695D01*
X161039974Y-107865230D01*
X160791180Y-107616002D01*
X160465950Y-107480954D01*
X160113795Y-107480647D01*
X159788330Y-107615126D01*
X159539102Y-107863920D01*
X159404054Y-108189150D01*
X159403747Y-108541305D01*
X132385000Y-108541305D01*
X132385000Y-106050905D01*
X147551147Y-106050905D01*
X147685626Y-106376370D01*
X147934420Y-106625598D01*
X148259650Y-106760646D01*
X148611805Y-106760953D01*
X148937270Y-106626474D01*
X149186498Y-106377680D01*
X149321546Y-106052450D01*
X149321853Y-105700295D01*
X149187374Y-105374830D01*
X148938580Y-105125602D01*
X148613350Y-104990554D01*
X148261195Y-104990247D01*
X147935730Y-105124726D01*
X147686502Y-105373520D01*
X147551454Y-105698750D01*
X147551147Y-106050905D01*
X132385000Y-106050905D01*
X132385000Y-104790505D01*
X191371047Y-104790505D01*
X191505526Y-105115970D01*
X191754320Y-105365198D01*
X192079550Y-105500246D01*
X192431705Y-105500553D01*
X192757170Y-105366074D01*
X193006398Y-105117280D01*
X193141446Y-104792050D01*
X193141753Y-104439895D01*
X193007274Y-104114430D01*
X192758480Y-103865202D01*
X192433250Y-103730154D01*
X192081095Y-103729847D01*
X191755630Y-103864326D01*
X191506402Y-104113120D01*
X191371354Y-104438350D01*
X191371047Y-104790505D01*
X132385000Y-104790505D01*
X132385000Y-103075303D01*
X163714657Y-103075303D01*
X163849135Y-103400765D01*
X164097925Y-103649990D01*
X164423152Y-103785036D01*
X164775303Y-103785343D01*
X165100765Y-103650865D01*
X165349990Y-103402075D01*
X165485036Y-103076848D01*
X165485343Y-102724697D01*
X165350865Y-102399235D01*
X165102075Y-102150010D01*
X164776848Y-102014964D01*
X164424697Y-102014657D01*
X164099235Y-102149135D01*
X163850010Y-102397925D01*
X163714964Y-102723152D01*
X163714657Y-103075303D01*
X132385000Y-103075303D01*
X132385000Y-101525303D01*
X143864657Y-101525303D01*
X143999135Y-101850765D01*
X144247925Y-102099990D01*
X144573152Y-102235036D01*
X144925303Y-102235343D01*
X145250765Y-102100865D01*
X145499990Y-101852075D01*
X145604534Y-101600303D01*
X145739657Y-101600303D01*
X145874135Y-101925765D01*
X146122925Y-102174990D01*
X146448152Y-102310036D01*
X146800303Y-102310343D01*
X147125765Y-102175865D01*
X147374990Y-101927075D01*
X147510036Y-101601848D01*
X147510343Y-101249697D01*
X147391720Y-100962605D01*
X147659647Y-100962605D01*
X147794126Y-101288070D01*
X148042920Y-101537298D01*
X148368150Y-101672346D01*
X148720305Y-101672653D01*
X149045770Y-101538174D01*
X149294998Y-101289380D01*
X149430046Y-100964150D01*
X149430353Y-100611995D01*
X149353214Y-100425303D01*
X162314657Y-100425303D01*
X162449135Y-100750765D01*
X162697925Y-100999990D01*
X163023152Y-101135036D01*
X163375303Y-101135343D01*
X163700765Y-101000865D01*
X163949990Y-100752075D01*
X164085036Y-100426848D01*
X164085037Y-100425303D01*
X166164657Y-100425303D01*
X166299135Y-100750765D01*
X166547925Y-100999990D01*
X166873152Y-101135036D01*
X167225303Y-101135343D01*
X167550765Y-101000865D01*
X167799990Y-100752075D01*
X167935036Y-100426848D01*
X167935073Y-100384005D01*
X169489647Y-100384005D01*
X169624126Y-100709470D01*
X169872920Y-100958698D01*
X170198150Y-101093746D01*
X170550305Y-101094053D01*
X170608263Y-101070105D01*
X171422247Y-101070105D01*
X171556726Y-101395570D01*
X171805520Y-101644798D01*
X172130750Y-101779846D01*
X172482905Y-101780153D01*
X172808370Y-101645674D01*
X173057598Y-101396880D01*
X173192646Y-101071650D01*
X173192647Y-101070105D01*
X174119647Y-101070105D01*
X174254126Y-101395570D01*
X174502920Y-101644798D01*
X174828150Y-101779846D01*
X175180305Y-101780153D01*
X175505770Y-101645674D01*
X175754998Y-101396880D01*
X175784719Y-101325303D01*
X189864657Y-101325303D01*
X189999135Y-101650765D01*
X190247925Y-101899990D01*
X190573152Y-102035036D01*
X190925303Y-102035343D01*
X191250765Y-101900865D01*
X191276371Y-101875303D01*
X193264657Y-101875303D01*
X193399135Y-102200765D01*
X193647925Y-102449990D01*
X193973152Y-102585036D01*
X194325303Y-102585343D01*
X194650765Y-102450865D01*
X194899990Y-102202075D01*
X194931868Y-102125303D01*
X195264657Y-102125303D01*
X195399135Y-102450765D01*
X195647925Y-102699990D01*
X195973152Y-102835036D01*
X196325303Y-102835343D01*
X196650765Y-102700865D01*
X196899990Y-102452075D01*
X197035036Y-102126848D01*
X197035124Y-102025303D01*
X197464657Y-102025303D01*
X197599135Y-102350765D01*
X197847925Y-102599990D01*
X198173152Y-102735036D01*
X198525303Y-102735343D01*
X198850765Y-102600865D01*
X198976546Y-102475303D01*
X208614657Y-102475303D01*
X208749135Y-102800765D01*
X208997925Y-103049990D01*
X209323152Y-103185036D01*
X209675303Y-103185343D01*
X210000765Y-103050865D01*
X210249990Y-102802075D01*
X210385036Y-102476848D01*
X210385343Y-102124697D01*
X210250865Y-101799235D01*
X210002075Y-101550010D01*
X209676848Y-101414964D01*
X209324697Y-101414657D01*
X208999235Y-101549135D01*
X208750010Y-101797925D01*
X208614964Y-102123152D01*
X208614657Y-102475303D01*
X198976546Y-102475303D01*
X199099990Y-102352075D01*
X199235036Y-102026848D01*
X199235343Y-101674697D01*
X199100865Y-101349235D01*
X198852075Y-101100010D01*
X198526848Y-100964964D01*
X198174697Y-100964657D01*
X197849235Y-101099135D01*
X197600010Y-101347925D01*
X197464964Y-101673152D01*
X197464657Y-102025303D01*
X197035124Y-102025303D01*
X197035343Y-101774697D01*
X196900865Y-101449235D01*
X196652075Y-101200010D01*
X196326848Y-101064964D01*
X195974697Y-101064657D01*
X195649235Y-101199135D01*
X195400010Y-101447925D01*
X195264964Y-101773152D01*
X195264657Y-102125303D01*
X194931868Y-102125303D01*
X195035036Y-101876848D01*
X195035343Y-101524697D01*
X194900865Y-101199235D01*
X194652075Y-100950010D01*
X194532368Y-100900303D01*
X199864657Y-100900303D01*
X199999135Y-101225765D01*
X200247925Y-101474990D01*
X200573152Y-101610036D01*
X200925303Y-101610343D01*
X201250765Y-101475865D01*
X201499990Y-101227075D01*
X201565169Y-101070105D01*
X213712247Y-101070105D01*
X213846726Y-101395570D01*
X214095520Y-101644798D01*
X214420750Y-101779846D01*
X214772905Y-101780153D01*
X215098370Y-101645674D01*
X215347598Y-101396880D01*
X215482646Y-101071650D01*
X215482953Y-100719495D01*
X215348474Y-100394030D01*
X215099680Y-100144802D01*
X214774450Y-100009754D01*
X214422295Y-100009447D01*
X214096830Y-100143926D01*
X213847602Y-100392720D01*
X213712554Y-100717950D01*
X213712247Y-101070105D01*
X201565169Y-101070105D01*
X201635036Y-100901848D01*
X201635343Y-100549697D01*
X201500865Y-100224235D01*
X201252075Y-99975010D01*
X200926848Y-99839964D01*
X200574697Y-99839657D01*
X200249235Y-99974135D01*
X200000010Y-100222925D01*
X199864964Y-100548152D01*
X199864657Y-100900303D01*
X194532368Y-100900303D01*
X194326848Y-100814964D01*
X193974697Y-100814657D01*
X193649235Y-100949135D01*
X193400010Y-101197925D01*
X193264964Y-101523152D01*
X193264657Y-101875303D01*
X191276371Y-101875303D01*
X191499990Y-101652075D01*
X191635036Y-101326848D01*
X191635343Y-100974697D01*
X191500865Y-100649235D01*
X191252075Y-100400010D01*
X190926848Y-100264964D01*
X190574697Y-100264657D01*
X190249235Y-100399135D01*
X190000010Y-100647925D01*
X189864964Y-100973152D01*
X189864657Y-101325303D01*
X175784719Y-101325303D01*
X175890046Y-101071650D01*
X175890353Y-100719495D01*
X175755874Y-100394030D01*
X175507080Y-100144802D01*
X175181850Y-100009754D01*
X174829695Y-100009447D01*
X174504230Y-100143926D01*
X174255002Y-100392720D01*
X174119954Y-100717950D01*
X174119647Y-101070105D01*
X173192647Y-101070105D01*
X173192953Y-100719495D01*
X173058474Y-100394030D01*
X172809680Y-100144802D01*
X172484450Y-100009754D01*
X172132295Y-100009447D01*
X171806830Y-100143926D01*
X171557602Y-100392720D01*
X171422554Y-100717950D01*
X171422247Y-101070105D01*
X170608263Y-101070105D01*
X170875770Y-100959574D01*
X171124998Y-100710780D01*
X171260046Y-100385550D01*
X171260353Y-100033395D01*
X171125874Y-99707930D01*
X170877080Y-99458702D01*
X170551850Y-99323654D01*
X170199695Y-99323347D01*
X169874230Y-99457826D01*
X169625002Y-99706620D01*
X169489954Y-100031850D01*
X169489647Y-100384005D01*
X167935073Y-100384005D01*
X167935343Y-100074697D01*
X167800865Y-99749235D01*
X167552075Y-99500010D01*
X167226848Y-99364964D01*
X166874697Y-99364657D01*
X166549235Y-99499135D01*
X166300010Y-99747925D01*
X166164964Y-100073152D01*
X166164657Y-100425303D01*
X164085037Y-100425303D01*
X164085343Y-100074697D01*
X163950865Y-99749235D01*
X163702075Y-99500010D01*
X163376848Y-99364964D01*
X163024697Y-99364657D01*
X162699235Y-99499135D01*
X162450010Y-99747925D01*
X162314964Y-100073152D01*
X162314657Y-100425303D01*
X149353214Y-100425303D01*
X149315941Y-100335095D01*
X149600303Y-100335343D01*
X149925765Y-100200865D01*
X150174990Y-99952075D01*
X150310036Y-99626848D01*
X150310343Y-99274697D01*
X150175865Y-98949235D01*
X149927075Y-98700010D01*
X149601848Y-98564964D01*
X149249697Y-98564657D01*
X148924235Y-98699135D01*
X148675010Y-98947925D01*
X148539964Y-99273152D01*
X148539657Y-99625303D01*
X148654066Y-99902195D01*
X148369695Y-99901947D01*
X148044230Y-100036426D01*
X147795002Y-100285220D01*
X147659954Y-100610450D01*
X147659647Y-100962605D01*
X147391720Y-100962605D01*
X147375865Y-100924235D01*
X147127075Y-100675010D01*
X146801848Y-100539964D01*
X146449697Y-100539657D01*
X146124235Y-100674135D01*
X145875010Y-100922925D01*
X145739964Y-101248152D01*
X145739657Y-101600303D01*
X145604534Y-101600303D01*
X145635036Y-101526848D01*
X145635343Y-101174697D01*
X145500865Y-100849235D01*
X145252075Y-100600010D01*
X144926848Y-100464964D01*
X144574697Y-100464657D01*
X144249235Y-100599135D01*
X144000010Y-100847925D01*
X143864964Y-101173152D01*
X143864657Y-101525303D01*
X132385000Y-101525303D01*
X132385000Y-100425303D01*
X137464657Y-100425303D01*
X137599135Y-100750765D01*
X137847925Y-100999990D01*
X138173152Y-101135036D01*
X138525303Y-101135343D01*
X138850765Y-101000865D01*
X139099990Y-100752075D01*
X139235036Y-100426848D01*
X139235343Y-100074697D01*
X139100865Y-99749235D01*
X138852075Y-99500010D01*
X138526848Y-99364964D01*
X138174697Y-99364657D01*
X137849235Y-99499135D01*
X137600010Y-99747925D01*
X137464964Y-100073152D01*
X137464657Y-100425303D01*
X132385000Y-100425303D01*
X132385000Y-97060750D01*
X134540000Y-97060750D01*
X134540000Y-97751310D01*
X134636673Y-97984699D01*
X134815302Y-98163327D01*
X135048691Y-98260000D01*
X135739250Y-98260000D01*
X135898000Y-98101250D01*
X135898000Y-96902000D01*
X136152000Y-96902000D01*
X136152000Y-98101250D01*
X136310750Y-98260000D01*
X137001309Y-98260000D01*
X137109072Y-98215363D01*
X159614855Y-98215363D01*
X159741708Y-98522372D01*
X159769131Y-98549843D01*
X159742534Y-98576393D01*
X159615145Y-98883179D01*
X159614855Y-99215363D01*
X159741708Y-99522372D01*
X159976393Y-99757466D01*
X160283179Y-99884855D01*
X160615363Y-99885145D01*
X160922372Y-99758292D01*
X160949843Y-99730869D01*
X160976393Y-99757466D01*
X161283179Y-99884855D01*
X161615363Y-99885145D01*
X161922372Y-99758292D01*
X162157466Y-99523607D01*
X162284855Y-99216821D01*
X162285145Y-98884637D01*
X162194544Y-98665363D01*
X185514855Y-98665363D01*
X185641708Y-98972372D01*
X185669131Y-98999843D01*
X185642534Y-99026393D01*
X185515145Y-99333179D01*
X185514855Y-99665363D01*
X185641708Y-99972372D01*
X185876393Y-100207466D01*
X186183179Y-100334855D01*
X186515363Y-100335145D01*
X186822372Y-100208292D01*
X186849843Y-100180869D01*
X186876393Y-100207466D01*
X187183179Y-100334855D01*
X187515363Y-100335145D01*
X187822372Y-100208292D01*
X188057466Y-99973607D01*
X188184855Y-99666821D01*
X188185145Y-99334637D01*
X188058292Y-99027628D01*
X188030869Y-99000157D01*
X188057466Y-98973607D01*
X188184855Y-98666821D01*
X188185145Y-98334637D01*
X188177182Y-98315363D01*
X212464855Y-98315363D01*
X212591708Y-98622372D01*
X212619131Y-98649843D01*
X212592534Y-98676393D01*
X212465145Y-98983179D01*
X212464855Y-99315363D01*
X212591708Y-99622372D01*
X212826393Y-99857466D01*
X213133179Y-99984855D01*
X213465363Y-99985145D01*
X213772372Y-99858292D01*
X213799843Y-99830869D01*
X213826393Y-99857466D01*
X214133179Y-99984855D01*
X214465363Y-99985145D01*
X214772372Y-99858292D01*
X215007466Y-99623607D01*
X215134855Y-99316821D01*
X215135145Y-98984637D01*
X215008292Y-98677628D01*
X214980869Y-98650157D01*
X215007466Y-98623607D01*
X215134855Y-98316821D01*
X215135145Y-97984637D01*
X215008292Y-97677628D01*
X214773607Y-97442534D01*
X214466821Y-97315145D01*
X214134637Y-97314855D01*
X213827628Y-97441708D01*
X213800157Y-97469131D01*
X213773607Y-97442534D01*
X213466821Y-97315145D01*
X213134637Y-97314855D01*
X212827628Y-97441708D01*
X212592534Y-97676393D01*
X212465145Y-97983179D01*
X212464855Y-98315363D01*
X188177182Y-98315363D01*
X188058292Y-98027628D01*
X187823607Y-97792534D01*
X187516821Y-97665145D01*
X187184637Y-97664855D01*
X186877628Y-97791708D01*
X186850157Y-97819131D01*
X186823607Y-97792534D01*
X186516821Y-97665145D01*
X186184637Y-97664855D01*
X185877628Y-97791708D01*
X185642534Y-98026393D01*
X185515145Y-98333179D01*
X185514855Y-98665363D01*
X162194544Y-98665363D01*
X162158292Y-98577628D01*
X162130869Y-98550157D01*
X162157466Y-98523607D01*
X162284855Y-98216821D01*
X162285145Y-97884637D01*
X162158292Y-97577628D01*
X161923607Y-97342534D01*
X161616821Y-97215145D01*
X161284637Y-97214855D01*
X160977628Y-97341708D01*
X160950157Y-97369131D01*
X160923607Y-97342534D01*
X160616821Y-97215145D01*
X160284637Y-97214855D01*
X159977628Y-97341708D01*
X159742534Y-97576393D01*
X159615145Y-97883179D01*
X159614855Y-98215363D01*
X137109072Y-98215363D01*
X137234698Y-98163327D01*
X137413327Y-97984699D01*
X137510000Y-97751310D01*
X137510000Y-97060750D01*
X137351250Y-96902000D01*
X136152000Y-96902000D01*
X135898000Y-96902000D01*
X134698750Y-96902000D01*
X134540000Y-97060750D01*
X132385000Y-97060750D01*
X132385000Y-95798690D01*
X134540000Y-95798690D01*
X134540000Y-96489250D01*
X134698750Y-96648000D01*
X135898000Y-96648000D01*
X135898000Y-95448750D01*
X136152000Y-95448750D01*
X136152000Y-96648000D01*
X137351250Y-96648000D01*
X137510000Y-96489250D01*
X137510000Y-95798690D01*
X137413327Y-95565301D01*
X137234698Y-95386673D01*
X137001309Y-95290000D01*
X136310750Y-95290000D01*
X136152000Y-95448750D01*
X135898000Y-95448750D01*
X135739250Y-95290000D01*
X135048691Y-95290000D01*
X134815302Y-95386673D01*
X134636673Y-95565301D01*
X134540000Y-95798690D01*
X132385000Y-95798690D01*
X132385000Y-91842619D01*
X133514613Y-91842619D01*
X133854155Y-92664372D01*
X134482321Y-93293636D01*
X135303481Y-93634611D01*
X136192619Y-93635387D01*
X137014372Y-93295845D01*
X137643636Y-92667679D01*
X137984611Y-91846519D01*
X137985387Y-90957381D01*
X137645845Y-90135628D01*
X137017679Y-89506364D01*
X136641113Y-89350000D01*
X141102560Y-89350000D01*
X141102560Y-91250000D01*
X141146838Y-91485317D01*
X141285910Y-91701441D01*
X141498110Y-91846431D01*
X141750000Y-91897440D01*
X143650000Y-91897440D01*
X143885317Y-91853162D01*
X144101441Y-91714090D01*
X144246431Y-91501890D01*
X144297440Y-91250000D01*
X144297440Y-90613893D01*
X145074725Y-90613893D01*
X145315519Y-91196657D01*
X145760997Y-91642914D01*
X146343341Y-91884724D01*
X146973893Y-91885275D01*
X147556657Y-91644481D01*
X148002914Y-91199003D01*
X148244724Y-90616659D01*
X148244726Y-90613893D01*
X149034725Y-90613893D01*
X149275519Y-91196657D01*
X149720997Y-91642914D01*
X150303341Y-91884724D01*
X150933893Y-91885275D01*
X151516657Y-91644481D01*
X151962914Y-91199003D01*
X152204724Y-90616659D01*
X152204726Y-90613893D01*
X152994725Y-90613893D01*
X153235519Y-91196657D01*
X153680997Y-91642914D01*
X154263341Y-91884724D01*
X154893893Y-91885275D01*
X155476657Y-91644481D01*
X155922914Y-91199003D01*
X156164724Y-90616659D01*
X156165275Y-89986107D01*
X155924481Y-89403343D01*
X155871232Y-89350000D01*
X166102560Y-89350000D01*
X166102560Y-91250000D01*
X166146838Y-91485317D01*
X166285910Y-91701441D01*
X166498110Y-91846431D01*
X166750000Y-91897440D01*
X168650000Y-91897440D01*
X168885317Y-91853162D01*
X169101441Y-91714090D01*
X169246431Y-91501890D01*
X169297440Y-91250000D01*
X169297440Y-90613893D01*
X170074725Y-90613893D01*
X170315519Y-91196657D01*
X170760997Y-91642914D01*
X171343341Y-91884724D01*
X171973893Y-91885275D01*
X172556657Y-91644481D01*
X173002914Y-91199003D01*
X173244724Y-90616659D01*
X173244726Y-90613893D01*
X174034725Y-90613893D01*
X174275519Y-91196657D01*
X174720997Y-91642914D01*
X175303341Y-91884724D01*
X175933893Y-91885275D01*
X176516657Y-91644481D01*
X176962914Y-91199003D01*
X177204724Y-90616659D01*
X177204726Y-90613893D01*
X177994725Y-90613893D01*
X178235519Y-91196657D01*
X178680997Y-91642914D01*
X179263341Y-91884724D01*
X179893893Y-91885275D01*
X180476657Y-91644481D01*
X180922914Y-91199003D01*
X181164724Y-90616659D01*
X181165275Y-89986107D01*
X180924481Y-89403343D01*
X180871232Y-89350000D01*
X191602560Y-89350000D01*
X191602560Y-91250000D01*
X191646838Y-91485317D01*
X191785910Y-91701441D01*
X191998110Y-91846431D01*
X192250000Y-91897440D01*
X194150000Y-91897440D01*
X194385317Y-91853162D01*
X194601441Y-91714090D01*
X194746431Y-91501890D01*
X194797440Y-91250000D01*
X194797440Y-90613893D01*
X195574725Y-90613893D01*
X195815519Y-91196657D01*
X196260997Y-91642914D01*
X196843341Y-91884724D01*
X197473893Y-91885275D01*
X198056657Y-91644481D01*
X198502914Y-91199003D01*
X198744724Y-90616659D01*
X198744726Y-90613893D01*
X199534725Y-90613893D01*
X199775519Y-91196657D01*
X200220997Y-91642914D01*
X200803341Y-91884724D01*
X201433893Y-91885275D01*
X202016657Y-91644481D01*
X202462914Y-91199003D01*
X202704724Y-90616659D01*
X202704726Y-90613893D01*
X203494725Y-90613893D01*
X203735519Y-91196657D01*
X204180997Y-91642914D01*
X204763341Y-91884724D01*
X205393893Y-91885275D01*
X205976657Y-91644481D01*
X206422914Y-91199003D01*
X206664724Y-90616659D01*
X206665275Y-89986107D01*
X206424481Y-89403343D01*
X205979003Y-88957086D01*
X205396659Y-88715276D01*
X204766107Y-88714725D01*
X204183343Y-88955519D01*
X203737086Y-89400997D01*
X203495276Y-89983341D01*
X203494725Y-90613893D01*
X202704726Y-90613893D01*
X202705275Y-89986107D01*
X202464481Y-89403343D01*
X202019003Y-88957086D01*
X201436659Y-88715276D01*
X200806107Y-88714725D01*
X200223343Y-88955519D01*
X199777086Y-89400997D01*
X199535276Y-89983341D01*
X199534725Y-90613893D01*
X198744726Y-90613893D01*
X198745275Y-89986107D01*
X198504481Y-89403343D01*
X198059003Y-88957086D01*
X197476659Y-88715276D01*
X196846107Y-88714725D01*
X196263343Y-88955519D01*
X195817086Y-89400997D01*
X195575276Y-89983341D01*
X195574725Y-90613893D01*
X194797440Y-90613893D01*
X194797440Y-89350000D01*
X194753162Y-89114683D01*
X194614090Y-88898559D01*
X194401890Y-88753569D01*
X194150000Y-88702560D01*
X192250000Y-88702560D01*
X192014683Y-88746838D01*
X191798559Y-88885910D01*
X191653569Y-89098110D01*
X191602560Y-89350000D01*
X180871232Y-89350000D01*
X180479003Y-88957086D01*
X179896659Y-88715276D01*
X179266107Y-88714725D01*
X178683343Y-88955519D01*
X178237086Y-89400997D01*
X177995276Y-89983341D01*
X177994725Y-90613893D01*
X177204726Y-90613893D01*
X177205275Y-89986107D01*
X176964481Y-89403343D01*
X176519003Y-88957086D01*
X175936659Y-88715276D01*
X175306107Y-88714725D01*
X174723343Y-88955519D01*
X174277086Y-89400997D01*
X174035276Y-89983341D01*
X174034725Y-90613893D01*
X173244726Y-90613893D01*
X173245275Y-89986107D01*
X173004481Y-89403343D01*
X172559003Y-88957086D01*
X171976659Y-88715276D01*
X171346107Y-88714725D01*
X170763343Y-88955519D01*
X170317086Y-89400997D01*
X170075276Y-89983341D01*
X170074725Y-90613893D01*
X169297440Y-90613893D01*
X169297440Y-89350000D01*
X169253162Y-89114683D01*
X169114090Y-88898559D01*
X168901890Y-88753569D01*
X168650000Y-88702560D01*
X166750000Y-88702560D01*
X166514683Y-88746838D01*
X166298559Y-88885910D01*
X166153569Y-89098110D01*
X166102560Y-89350000D01*
X155871232Y-89350000D01*
X155479003Y-88957086D01*
X154896659Y-88715276D01*
X154266107Y-88714725D01*
X153683343Y-88955519D01*
X153237086Y-89400997D01*
X152995276Y-89983341D01*
X152994725Y-90613893D01*
X152204726Y-90613893D01*
X152205275Y-89986107D01*
X151964481Y-89403343D01*
X151519003Y-88957086D01*
X150936659Y-88715276D01*
X150306107Y-88714725D01*
X149723343Y-88955519D01*
X149277086Y-89400997D01*
X149035276Y-89983341D01*
X149034725Y-90613893D01*
X148244726Y-90613893D01*
X148245275Y-89986107D01*
X148004481Y-89403343D01*
X147559003Y-88957086D01*
X146976659Y-88715276D01*
X146346107Y-88714725D01*
X145763343Y-88955519D01*
X145317086Y-89400997D01*
X145075276Y-89983341D01*
X145074725Y-90613893D01*
X144297440Y-90613893D01*
X144297440Y-89350000D01*
X144253162Y-89114683D01*
X144114090Y-88898559D01*
X143901890Y-88753569D01*
X143650000Y-88702560D01*
X141750000Y-88702560D01*
X141514683Y-88746838D01*
X141298559Y-88885910D01*
X141153569Y-89098110D01*
X141102560Y-89350000D01*
X136641113Y-89350000D01*
X136196519Y-89165389D01*
X135307381Y-89164613D01*
X134485628Y-89504155D01*
X133856364Y-90132321D01*
X133515389Y-90953481D01*
X133514613Y-91842619D01*
X132385000Y-91842619D01*
X132385000Y-87985000D01*
X218573000Y-87985000D01*
X218573000Y-143300000D01*
X218573000Y-143300000D01*
G37*
X218573000Y-143300000D02*
X218583006Y-143349410D01*
X218611447Y-143391035D01*
X218653841Y-143418315D01*
X218700000Y-143427000D01*
X270515000Y-143427000D01*
X270515000Y-163615000D01*
X132385000Y-163615000D01*
X132385000Y-160742619D01*
X133514613Y-160742619D01*
X133854155Y-161564372D01*
X134482321Y-162193636D01*
X135303481Y-162534611D01*
X136192619Y-162535387D01*
X137014372Y-162195845D01*
X137643636Y-161567679D01*
X137944706Y-160842619D01*
X264864613Y-160842619D01*
X265204155Y-161664372D01*
X265832321Y-162293636D01*
X266653481Y-162634611D01*
X267542619Y-162635387D01*
X268364372Y-162295845D01*
X268993636Y-161667679D01*
X269334611Y-160846519D01*
X269335387Y-159957381D01*
X268995845Y-159135628D01*
X268367679Y-158506364D01*
X267546519Y-158165389D01*
X266657381Y-158164613D01*
X265835628Y-158504155D01*
X265206364Y-159132321D01*
X264865389Y-159953481D01*
X264864613Y-160842619D01*
X137944706Y-160842619D01*
X137984611Y-160746519D01*
X137985387Y-159857381D01*
X137724218Y-159225303D01*
X164714657Y-159225303D01*
X164849135Y-159550765D01*
X165097925Y-159799990D01*
X165423152Y-159935036D01*
X165775303Y-159935343D01*
X166100765Y-159800865D01*
X166349990Y-159552075D01*
X166485036Y-159226848D01*
X166485343Y-158874697D01*
X166350865Y-158549235D01*
X166102075Y-158300010D01*
X165776848Y-158164964D01*
X165424697Y-158164657D01*
X165099235Y-158299135D01*
X164850010Y-158547925D01*
X164714964Y-158873152D01*
X164714657Y-159225303D01*
X137724218Y-159225303D01*
X137645845Y-159035628D01*
X137017679Y-158406364D01*
X136196519Y-158065389D01*
X135307381Y-158064613D01*
X134485628Y-158404155D01*
X133856364Y-159032321D01*
X133515389Y-159853481D01*
X133514613Y-160742619D01*
X132385000Y-160742619D01*
X132385000Y-157315363D01*
X228764855Y-157315363D01*
X228891708Y-157622372D01*
X229126393Y-157857466D01*
X229433179Y-157984855D01*
X229765363Y-157985145D01*
X230072372Y-157858292D01*
X230307466Y-157623607D01*
X230434855Y-157316821D01*
X230435145Y-156984637D01*
X230380137Y-156851505D01*
X241967647Y-156851505D01*
X242102126Y-157176970D01*
X242350920Y-157426198D01*
X242676150Y-157561246D01*
X243028305Y-157561553D01*
X243353770Y-157427074D01*
X243602998Y-157178280D01*
X243738046Y-156853050D01*
X243738353Y-156500895D01*
X243603874Y-156175430D01*
X243355080Y-155926202D01*
X243029850Y-155791154D01*
X242677695Y-155790847D01*
X242352230Y-155925326D01*
X242103002Y-156174120D01*
X241967954Y-156499350D01*
X241967647Y-156851505D01*
X230380137Y-156851505D01*
X230308292Y-156677628D01*
X230073607Y-156442534D01*
X229766821Y-156315145D01*
X229434637Y-156314855D01*
X229127628Y-156441708D01*
X228892534Y-156676393D01*
X228765145Y-156983179D01*
X228764855Y-157315363D01*
X132385000Y-157315363D01*
X132385000Y-156328205D01*
X212077247Y-156328205D01*
X212211726Y-156653670D01*
X212460520Y-156902898D01*
X212785750Y-157037946D01*
X213137905Y-157038253D01*
X213463370Y-156903774D01*
X213712598Y-156654980D01*
X213847646Y-156329750D01*
X213847908Y-156028205D01*
X227161347Y-156028205D01*
X227295826Y-156353670D01*
X227544620Y-156602898D01*
X227869850Y-156737946D01*
X228222005Y-156738253D01*
X228547470Y-156603774D01*
X228796698Y-156354980D01*
X228931746Y-156029750D01*
X228932053Y-155677595D01*
X228797574Y-155352130D01*
X228548780Y-155102902D01*
X228223550Y-154967854D01*
X227871395Y-154967547D01*
X227545930Y-155102026D01*
X227296702Y-155350820D01*
X227161654Y-155676050D01*
X227161347Y-156028205D01*
X213847908Y-156028205D01*
X213847953Y-155977595D01*
X213713474Y-155652130D01*
X213464680Y-155402902D01*
X213139450Y-155267854D01*
X212787295Y-155267547D01*
X212461830Y-155402026D01*
X212212602Y-155650820D01*
X212077554Y-155976050D01*
X212077247Y-156328205D01*
X132385000Y-156328205D01*
X132385000Y-153960750D01*
X134340000Y-153960750D01*
X134340000Y-154651310D01*
X134436673Y-154884699D01*
X134615302Y-155063327D01*
X134848691Y-155160000D01*
X135539250Y-155160000D01*
X135698000Y-155001250D01*
X135698000Y-153802000D01*
X135952000Y-153802000D01*
X135952000Y-155001250D01*
X136110750Y-155160000D01*
X136801309Y-155160000D01*
X137034698Y-155063327D01*
X137213327Y-154884699D01*
X137310000Y-154651310D01*
X137310000Y-154069505D01*
X192598447Y-154069505D01*
X192732926Y-154394970D01*
X192981720Y-154644198D01*
X193306950Y-154779246D01*
X193659105Y-154779553D01*
X193984570Y-154645074D01*
X193993910Y-154635750D01*
X266315000Y-154635750D01*
X266315000Y-155326310D01*
X266411673Y-155559699D01*
X266590302Y-155738327D01*
X266823691Y-155835000D01*
X267514250Y-155835000D01*
X267673000Y-155676250D01*
X267673000Y-154477000D01*
X267927000Y-154477000D01*
X267927000Y-155676250D01*
X268085750Y-155835000D01*
X268776309Y-155835000D01*
X269009698Y-155738327D01*
X269188327Y-155559699D01*
X269285000Y-155326310D01*
X269285000Y-154635750D01*
X269126250Y-154477000D01*
X267927000Y-154477000D01*
X267673000Y-154477000D01*
X266473750Y-154477000D01*
X266315000Y-154635750D01*
X193993910Y-154635750D01*
X194233798Y-154396280D01*
X194368846Y-154071050D01*
X194369153Y-153718895D01*
X194234674Y-153393430D01*
X194214969Y-153373690D01*
X266315000Y-153373690D01*
X266315000Y-154064250D01*
X266473750Y-154223000D01*
X267673000Y-154223000D01*
X267673000Y-153023750D01*
X267927000Y-153023750D01*
X267927000Y-154223000D01*
X269126250Y-154223000D01*
X269285000Y-154064250D01*
X269285000Y-153373690D01*
X269188327Y-153140301D01*
X269009698Y-152961673D01*
X268776309Y-152865000D01*
X268085750Y-152865000D01*
X267927000Y-153023750D01*
X267673000Y-153023750D01*
X267514250Y-152865000D01*
X266823691Y-152865000D01*
X266590302Y-152961673D01*
X266411673Y-153140301D01*
X266315000Y-153373690D01*
X194214969Y-153373690D01*
X193985880Y-153144202D01*
X193660650Y-153009154D01*
X193308495Y-153008847D01*
X192983030Y-153143326D01*
X192733802Y-153392120D01*
X192598754Y-153717350D01*
X192598447Y-154069505D01*
X137310000Y-154069505D01*
X137310000Y-153960750D01*
X137151250Y-153802000D01*
X135952000Y-153802000D01*
X135698000Y-153802000D01*
X134498750Y-153802000D01*
X134340000Y-153960750D01*
X132385000Y-153960750D01*
X132385000Y-152698690D01*
X134340000Y-152698690D01*
X134340000Y-153389250D01*
X134498750Y-153548000D01*
X135698000Y-153548000D01*
X135698000Y-152348750D01*
X135952000Y-152348750D01*
X135952000Y-153548000D01*
X137151250Y-153548000D01*
X137310000Y-153389250D01*
X137310000Y-152698690D01*
X137213327Y-152465301D01*
X137034698Y-152286673D01*
X136801309Y-152190000D01*
X136110750Y-152190000D01*
X135952000Y-152348750D01*
X135698000Y-152348750D01*
X135539250Y-152190000D01*
X134848691Y-152190000D01*
X134615302Y-152286673D01*
X134436673Y-152465301D01*
X134340000Y-152698690D01*
X132385000Y-152698690D01*
X132385000Y-150878105D01*
X184118347Y-150878105D01*
X184252826Y-151203570D01*
X184501620Y-151452798D01*
X184826850Y-151587846D01*
X185179005Y-151588153D01*
X185504470Y-151453674D01*
X185753698Y-151204880D01*
X185888746Y-150879650D01*
X185888747Y-150878105D01*
X191529447Y-150878105D01*
X191663926Y-151203570D01*
X191912720Y-151452798D01*
X192237950Y-151587846D01*
X192590105Y-151588153D01*
X192915570Y-151453674D01*
X193164798Y-151204880D01*
X193299846Y-150879650D01*
X193300153Y-150527495D01*
X193165674Y-150202030D01*
X192916880Y-149952802D01*
X192591650Y-149817754D01*
X192239495Y-149817447D01*
X191914030Y-149951926D01*
X191664802Y-150200720D01*
X191529754Y-150525950D01*
X191529447Y-150878105D01*
X185888747Y-150878105D01*
X185889053Y-150527495D01*
X185754574Y-150202030D01*
X185505780Y-149952802D01*
X185180550Y-149817754D01*
X184828395Y-149817447D01*
X184502930Y-149951926D01*
X184253702Y-150200720D01*
X184118654Y-150525950D01*
X184118347Y-150878105D01*
X132385000Y-150878105D01*
X132385000Y-146243893D01*
X136114725Y-146243893D01*
X136355519Y-146826657D01*
X136800997Y-147272914D01*
X137383341Y-147514724D01*
X138013893Y-147515275D01*
X138596657Y-147274481D01*
X139042914Y-146829003D01*
X139069339Y-146765363D01*
X178114855Y-146765363D01*
X178241708Y-147072372D01*
X178476393Y-147307466D01*
X178783179Y-147434855D01*
X179115363Y-147435145D01*
X179422372Y-147308292D01*
X179505505Y-147225303D01*
X229014657Y-147225303D01*
X229149135Y-147550765D01*
X229397925Y-147799990D01*
X229723152Y-147935036D01*
X230075303Y-147935343D01*
X230400765Y-147800865D01*
X230526546Y-147675303D01*
X251464657Y-147675303D01*
X251599135Y-148000765D01*
X251847925Y-148249990D01*
X252173152Y-148385036D01*
X252525303Y-148385343D01*
X252850765Y-148250865D01*
X253099990Y-148002075D01*
X253235036Y-147676848D01*
X253235343Y-147324697D01*
X253100865Y-146999235D01*
X252852075Y-146750010D01*
X252526848Y-146614964D01*
X252174697Y-146614657D01*
X251849235Y-146749135D01*
X251600010Y-146997925D01*
X251464964Y-147323152D01*
X251464657Y-147675303D01*
X230526546Y-147675303D01*
X230649990Y-147552075D01*
X230785036Y-147226848D01*
X230785343Y-146874697D01*
X230650865Y-146549235D01*
X230402075Y-146300010D01*
X230076848Y-146164964D01*
X229724697Y-146164657D01*
X229399235Y-146299135D01*
X229150010Y-146547925D01*
X229014964Y-146873152D01*
X229014657Y-147225303D01*
X179505505Y-147225303D01*
X179657466Y-147073607D01*
X179784855Y-146766821D01*
X179785145Y-146434637D01*
X179658292Y-146127628D01*
X179423607Y-145892534D01*
X179116821Y-145765145D01*
X178784637Y-145764855D01*
X178477628Y-145891708D01*
X178242534Y-146126393D01*
X178115145Y-146433179D01*
X178114855Y-146765363D01*
X139069339Y-146765363D01*
X139284724Y-146246659D01*
X139285275Y-145616107D01*
X139269284Y-145577405D01*
X190002147Y-145577405D01*
X190136626Y-145902870D01*
X190385420Y-146152098D01*
X190710650Y-146287146D01*
X191062805Y-146287453D01*
X191388270Y-146152974D01*
X191637498Y-145904180D01*
X191772546Y-145578950D01*
X191772592Y-145525303D01*
X226214657Y-145525303D01*
X226349135Y-145850765D01*
X226597925Y-146099990D01*
X226923152Y-146235036D01*
X227275303Y-146235343D01*
X227600765Y-146100865D01*
X227842547Y-145859505D01*
X257064647Y-145859505D01*
X257199126Y-146184970D01*
X257447920Y-146434198D01*
X257773150Y-146569246D01*
X258125305Y-146569553D01*
X258450770Y-146435074D01*
X258699998Y-146186280D01*
X258835046Y-145861050D01*
X258835353Y-145508895D01*
X258700874Y-145183430D01*
X258452080Y-144934202D01*
X258126850Y-144799154D01*
X257774695Y-144798847D01*
X257449230Y-144933326D01*
X257200002Y-145182120D01*
X257064954Y-145507350D01*
X257064647Y-145859505D01*
X227842547Y-145859505D01*
X227849990Y-145852075D01*
X227985036Y-145526848D01*
X227985343Y-145174697D01*
X227923615Y-145025303D01*
X239092457Y-145025303D01*
X239226935Y-145350765D01*
X239475725Y-145599990D01*
X239800952Y-145735036D01*
X240153103Y-145735343D01*
X240478565Y-145600865D01*
X240727790Y-145352075D01*
X240862836Y-145026848D01*
X240863143Y-144674697D01*
X240728665Y-144349235D01*
X240479875Y-144100010D01*
X240154648Y-143964964D01*
X239802497Y-143964657D01*
X239477035Y-144099135D01*
X239227810Y-144347925D01*
X239092764Y-144673152D01*
X239092457Y-145025303D01*
X227923615Y-145025303D01*
X227850865Y-144849235D01*
X227602075Y-144600010D01*
X227276848Y-144464964D01*
X226924697Y-144464657D01*
X226599235Y-144599135D01*
X226350010Y-144847925D01*
X226214964Y-145173152D01*
X226214657Y-145525303D01*
X191772592Y-145525303D01*
X191772853Y-145226795D01*
X191638374Y-144901330D01*
X191389580Y-144652102D01*
X191064350Y-144517054D01*
X190712195Y-144516747D01*
X190386730Y-144651226D01*
X190137502Y-144900020D01*
X190002454Y-145225250D01*
X190002147Y-145577405D01*
X139269284Y-145577405D01*
X139044481Y-145033343D01*
X138599003Y-144587086D01*
X138016659Y-144345276D01*
X137386107Y-144344725D01*
X136803343Y-144585519D01*
X136357086Y-145030997D01*
X136115276Y-145613341D01*
X136114725Y-146243893D01*
X132385000Y-146243893D01*
X132385000Y-142283893D01*
X136114725Y-142283893D01*
X136355519Y-142866657D01*
X136800997Y-143312914D01*
X137383341Y-143554724D01*
X138013893Y-143555275D01*
X138596657Y-143314481D01*
X139042914Y-142869003D01*
X139284724Y-142286659D01*
X139285275Y-141656107D01*
X139107271Y-141225305D01*
X205226047Y-141225305D01*
X205360526Y-141550770D01*
X205609320Y-141799998D01*
X205934550Y-141935046D01*
X206286705Y-141935353D01*
X206612170Y-141800874D01*
X206861398Y-141552080D01*
X206996446Y-141226850D01*
X206996753Y-140874695D01*
X206862274Y-140549230D01*
X206613480Y-140300002D01*
X206288250Y-140164954D01*
X205936095Y-140164647D01*
X205610630Y-140299126D01*
X205361402Y-140547920D01*
X205226354Y-140873150D01*
X205226047Y-141225305D01*
X139107271Y-141225305D01*
X139044481Y-141073343D01*
X138599003Y-140627086D01*
X138016659Y-140385276D01*
X137386107Y-140384725D01*
X136803343Y-140625519D01*
X136357086Y-141070997D01*
X136115276Y-141653341D01*
X136114725Y-142283893D01*
X132385000Y-142283893D01*
X132385000Y-138323893D01*
X136114725Y-138323893D01*
X136355519Y-138906657D01*
X136800997Y-139352914D01*
X137383341Y-139594724D01*
X138013893Y-139595275D01*
X138596657Y-139354481D01*
X139042914Y-138909003D01*
X139192398Y-138549005D01*
X201871647Y-138549005D01*
X202006126Y-138874470D01*
X202254920Y-139123698D01*
X202580150Y-139258746D01*
X202932305Y-139259053D01*
X203257770Y-139124574D01*
X203506998Y-138875780D01*
X203642046Y-138550550D01*
X203642312Y-138244703D01*
X213795257Y-138244703D01*
X213929735Y-138570165D01*
X214178525Y-138819390D01*
X214503752Y-138954436D01*
X214855903Y-138954743D01*
X215181365Y-138820265D01*
X215430590Y-138571475D01*
X215565636Y-138246248D01*
X215565943Y-137894097D01*
X215431465Y-137568635D01*
X215182675Y-137319410D01*
X214857448Y-137184364D01*
X214505297Y-137184057D01*
X214179835Y-137318535D01*
X213930610Y-137567325D01*
X213795564Y-137892552D01*
X213795257Y-138244703D01*
X203642312Y-138244703D01*
X203642353Y-138198395D01*
X203507874Y-137872930D01*
X203259080Y-137623702D01*
X202933850Y-137488654D01*
X202581695Y-137488347D01*
X202256230Y-137622826D01*
X202007002Y-137871620D01*
X201871954Y-138196850D01*
X201871647Y-138549005D01*
X139192398Y-138549005D01*
X139284724Y-138326659D01*
X139285275Y-137696107D01*
X139044481Y-137113343D01*
X138599003Y-136667086D01*
X138016659Y-136425276D01*
X137386107Y-136424725D01*
X136803343Y-136665519D01*
X136357086Y-137110997D01*
X136115276Y-137693341D01*
X136114725Y-138323893D01*
X132385000Y-138323893D01*
X132385000Y-133100000D01*
X136102560Y-133100000D01*
X136102560Y-135000000D01*
X136146838Y-135235317D01*
X136285910Y-135451441D01*
X136498110Y-135596431D01*
X136750000Y-135647440D01*
X138650000Y-135647440D01*
X138820474Y-135615363D01*
X161114855Y-135615363D01*
X161241708Y-135922372D01*
X161269131Y-135949843D01*
X161242534Y-135976393D01*
X161115145Y-136283179D01*
X161114855Y-136615363D01*
X161241708Y-136922372D01*
X161269131Y-136949843D01*
X161242534Y-136976393D01*
X161115145Y-137283179D01*
X161114855Y-137615363D01*
X161241708Y-137922372D01*
X161476393Y-138157466D01*
X161783179Y-138284855D01*
X162115363Y-138285145D01*
X162422372Y-138158292D01*
X162449843Y-138130869D01*
X162476393Y-138157466D01*
X162783179Y-138284855D01*
X163115363Y-138285145D01*
X163422372Y-138158292D01*
X163449843Y-138130869D01*
X163476393Y-138157466D01*
X163783179Y-138284855D01*
X164115363Y-138285145D01*
X164422372Y-138158292D01*
X164449843Y-138130869D01*
X164476393Y-138157466D01*
X164783179Y-138284855D01*
X165115363Y-138285145D01*
X165422372Y-138158292D01*
X165449843Y-138130869D01*
X165476393Y-138157466D01*
X165783179Y-138284855D01*
X166115363Y-138285145D01*
X166422372Y-138158292D01*
X166657466Y-137923607D01*
X166784855Y-137616821D01*
X166785145Y-137284637D01*
X166658292Y-136977628D01*
X166630869Y-136950157D01*
X166657466Y-136923607D01*
X166784855Y-136616821D01*
X166784943Y-136515363D01*
X178014855Y-136515363D01*
X178141708Y-136822372D01*
X178376393Y-137057466D01*
X178683179Y-137184855D01*
X179015363Y-137185145D01*
X179322372Y-137058292D01*
X179557466Y-136823607D01*
X179684855Y-136516821D01*
X179685145Y-136184637D01*
X179558292Y-135877628D01*
X179323607Y-135642534D01*
X179282111Y-135625303D01*
X190864657Y-135625303D01*
X190999135Y-135950765D01*
X191247925Y-136199990D01*
X191573152Y-136335036D01*
X191925303Y-136335343D01*
X192086579Y-136268705D01*
X214889647Y-136268705D01*
X215024126Y-136594170D01*
X215272920Y-136843398D01*
X215598150Y-136978446D01*
X215950305Y-136978753D01*
X216275770Y-136844274D01*
X216524998Y-136595480D01*
X216660046Y-136270250D01*
X216660353Y-135918095D01*
X216525874Y-135592630D01*
X216277080Y-135343402D01*
X215951850Y-135208354D01*
X215599695Y-135208047D01*
X215274230Y-135342526D01*
X215025002Y-135591320D01*
X214889954Y-135916550D01*
X214889647Y-136268705D01*
X192086579Y-136268705D01*
X192250765Y-136200865D01*
X192499990Y-135952075D01*
X192635036Y-135626848D01*
X192635343Y-135274697D01*
X192500865Y-134949235D01*
X192252075Y-134700010D01*
X191926848Y-134564964D01*
X191574697Y-134564657D01*
X191249235Y-134699135D01*
X191000010Y-134947925D01*
X190864964Y-135273152D01*
X190864657Y-135625303D01*
X179282111Y-135625303D01*
X179016821Y-135515145D01*
X178684637Y-135514855D01*
X178377628Y-135641708D01*
X178142534Y-135876393D01*
X178015145Y-136183179D01*
X178014855Y-136515363D01*
X166784943Y-136515363D01*
X166785145Y-136284637D01*
X166658292Y-135977628D01*
X166630869Y-135950157D01*
X166657466Y-135923607D01*
X166784855Y-135616821D01*
X166785145Y-135284637D01*
X166658292Y-134977628D01*
X166423607Y-134742534D01*
X166116821Y-134615145D01*
X165784637Y-134614855D01*
X165477628Y-134741708D01*
X165450157Y-134769131D01*
X165423607Y-134742534D01*
X165116821Y-134615145D01*
X164784637Y-134614855D01*
X164477628Y-134741708D01*
X164450157Y-134769131D01*
X164423607Y-134742534D01*
X164116821Y-134615145D01*
X163784637Y-134614855D01*
X163477628Y-134741708D01*
X163450157Y-134769131D01*
X163423607Y-134742534D01*
X163116821Y-134615145D01*
X162784637Y-134614855D01*
X162477628Y-134741708D01*
X162450157Y-134769131D01*
X162423607Y-134742534D01*
X162116821Y-134615145D01*
X161784637Y-134614855D01*
X161477628Y-134741708D01*
X161242534Y-134976393D01*
X161115145Y-135283179D01*
X161114855Y-135615363D01*
X138820474Y-135615363D01*
X138885317Y-135603162D01*
X139101441Y-135464090D01*
X139246431Y-135251890D01*
X139297440Y-135000000D01*
X139297440Y-134282805D01*
X202697447Y-134282805D01*
X202831926Y-134608270D01*
X203080720Y-134857498D01*
X203405950Y-134992546D01*
X203758105Y-134992853D01*
X204083570Y-134858374D01*
X204332798Y-134609580D01*
X204402569Y-134441554D01*
X204570320Y-134609598D01*
X204895550Y-134744646D01*
X205247705Y-134744953D01*
X205573170Y-134610474D01*
X205822398Y-134361680D01*
X205957446Y-134036450D01*
X205957753Y-133684295D01*
X205823274Y-133358830D01*
X205574480Y-133109602D01*
X205249250Y-132974554D01*
X204897095Y-132974247D01*
X204571630Y-133108726D01*
X204322402Y-133357520D01*
X204252631Y-133525546D01*
X204084880Y-133357502D01*
X203759650Y-133222454D01*
X203407495Y-133222147D01*
X203082030Y-133356626D01*
X202832802Y-133605420D01*
X202697754Y-133930650D01*
X202697447Y-134282805D01*
X139297440Y-134282805D01*
X139297440Y-133100000D01*
X139253162Y-132864683D01*
X139114090Y-132648559D01*
X138901890Y-132503569D01*
X138650000Y-132452560D01*
X136750000Y-132452560D01*
X136514683Y-132496838D01*
X136298559Y-132635910D01*
X136153569Y-132848110D01*
X136102560Y-133100000D01*
X132385000Y-133100000D01*
X132385000Y-131825303D01*
X201764657Y-131825303D01*
X201899135Y-132150765D01*
X202147925Y-132399990D01*
X202473152Y-132535036D01*
X202825303Y-132535343D01*
X203150765Y-132400865D01*
X203176559Y-132375116D01*
X203249135Y-132550765D01*
X203497925Y-132799990D01*
X203823152Y-132935036D01*
X204175303Y-132935343D01*
X204500765Y-132800865D01*
X204749990Y-132552075D01*
X204885036Y-132226848D01*
X204885343Y-131874697D01*
X204750865Y-131549235D01*
X204502075Y-131300010D01*
X204176848Y-131164964D01*
X203824697Y-131164657D01*
X203499235Y-131299135D01*
X203473441Y-131324884D01*
X203400865Y-131149235D01*
X203152075Y-130900010D01*
X202826848Y-130764964D01*
X202474697Y-130764657D01*
X202149235Y-130899135D01*
X201900010Y-131147925D01*
X201764964Y-131473152D01*
X201764657Y-131825303D01*
X132385000Y-131825303D01*
X132385000Y-127665363D01*
X205864855Y-127665363D01*
X205991708Y-127972372D01*
X206226393Y-128207466D01*
X206533179Y-128334855D01*
X206865363Y-128335145D01*
X207172372Y-128208292D01*
X207407466Y-127973607D01*
X207534855Y-127666821D01*
X207535145Y-127334637D01*
X207408292Y-127027628D01*
X207173607Y-126792534D01*
X206866821Y-126665145D01*
X206534637Y-126664855D01*
X206227628Y-126791708D01*
X205992534Y-127026393D01*
X205865145Y-127333179D01*
X205864855Y-127665363D01*
X132385000Y-127665363D01*
X132385000Y-126002564D01*
X132583179Y-126084855D01*
X132915363Y-126085145D01*
X133222372Y-125958292D01*
X133457466Y-125723607D01*
X133488069Y-125649905D01*
X213921147Y-125649905D01*
X214055626Y-125975370D01*
X214304420Y-126224598D01*
X214629650Y-126359646D01*
X214981805Y-126359953D01*
X215307270Y-126225474D01*
X215556498Y-125976680D01*
X215691546Y-125651450D01*
X215691853Y-125299295D01*
X215557374Y-124973830D01*
X215308580Y-124724602D01*
X214983350Y-124589554D01*
X214631195Y-124589247D01*
X214305730Y-124723726D01*
X214056502Y-124972520D01*
X213921454Y-125297750D01*
X213921147Y-125649905D01*
X133488069Y-125649905D01*
X133584855Y-125416821D01*
X133585145Y-125084637D01*
X133458292Y-124777628D01*
X133223607Y-124542534D01*
X132916821Y-124415145D01*
X132584637Y-124414855D01*
X132385000Y-124497343D01*
X132385000Y-121347505D01*
X146930247Y-121347505D01*
X147064726Y-121672970D01*
X147313520Y-121922198D01*
X147638750Y-122057246D01*
X147990905Y-122057553D01*
X148316370Y-121923074D01*
X148565598Y-121674280D01*
X148700646Y-121349050D01*
X148700928Y-121025303D01*
X213814657Y-121025303D01*
X213949135Y-121350765D01*
X214197925Y-121599990D01*
X214523152Y-121735036D01*
X214875303Y-121735343D01*
X215200765Y-121600865D01*
X215449990Y-121352075D01*
X215585036Y-121026848D01*
X215585343Y-120674697D01*
X215450865Y-120349235D01*
X215202075Y-120100010D01*
X214876848Y-119964964D01*
X214524697Y-119964657D01*
X214199235Y-120099135D01*
X213950010Y-120347925D01*
X213814964Y-120673152D01*
X213814657Y-121025303D01*
X148700928Y-121025303D01*
X148700953Y-120996895D01*
X148566474Y-120671430D01*
X148317680Y-120422202D01*
X147992450Y-120287154D01*
X147640295Y-120286847D01*
X147314830Y-120421326D01*
X147065602Y-120670120D01*
X146930554Y-120995350D01*
X146930247Y-121347505D01*
X132385000Y-121347505D01*
X132385000Y-119952605D01*
X141933947Y-119952605D01*
X142068426Y-120278070D01*
X142317220Y-120527298D01*
X142642450Y-120662346D01*
X142994605Y-120662653D01*
X143320070Y-120528174D01*
X143569298Y-120279380D01*
X143704346Y-119954150D01*
X143704653Y-119601995D01*
X143632515Y-119427405D01*
X144923747Y-119427405D01*
X145058226Y-119752870D01*
X145307020Y-120002098D01*
X145632250Y-120137146D01*
X145984405Y-120137453D01*
X146309870Y-120002974D01*
X146559098Y-119754180D01*
X146694146Y-119428950D01*
X146694453Y-119076795D01*
X146652518Y-118975303D01*
X148314657Y-118975303D01*
X148449135Y-119300765D01*
X148697925Y-119549990D01*
X149023152Y-119685036D01*
X149375303Y-119685343D01*
X149700765Y-119550865D01*
X149949990Y-119302075D01*
X150085036Y-118976848D01*
X150085080Y-118925303D01*
X150764657Y-118925303D01*
X150899135Y-119250765D01*
X151147925Y-119499990D01*
X151473152Y-119635036D01*
X151825303Y-119635343D01*
X152150765Y-119500865D01*
X152399990Y-119252075D01*
X152535036Y-118926848D01*
X152535343Y-118574697D01*
X152400865Y-118249235D01*
X152152075Y-118000010D01*
X151826848Y-117864964D01*
X151474697Y-117864657D01*
X151149235Y-117999135D01*
X150900010Y-118247925D01*
X150764964Y-118573152D01*
X150764657Y-118925303D01*
X150085080Y-118925303D01*
X150085343Y-118624697D01*
X149950865Y-118299235D01*
X149702075Y-118050010D01*
X149376848Y-117914964D01*
X149024697Y-117914657D01*
X148699235Y-118049135D01*
X148450010Y-118297925D01*
X148314964Y-118623152D01*
X148314657Y-118975303D01*
X146652518Y-118975303D01*
X146559974Y-118751330D01*
X146311180Y-118502102D01*
X145985950Y-118367054D01*
X145633795Y-118366747D01*
X145308330Y-118501226D01*
X145059102Y-118750020D01*
X144924054Y-119075250D01*
X144923747Y-119427405D01*
X143632515Y-119427405D01*
X143570174Y-119276530D01*
X143321380Y-119027302D01*
X142996150Y-118892254D01*
X142643995Y-118891947D01*
X142318530Y-119026426D01*
X142069302Y-119275220D01*
X141934254Y-119600450D01*
X141933947Y-119952605D01*
X132385000Y-119952605D01*
X132385000Y-117216505D01*
X198868147Y-117216505D01*
X199002626Y-117541970D01*
X199251420Y-117791198D01*
X199576650Y-117926246D01*
X199928805Y-117926553D01*
X200254270Y-117792074D01*
X200503498Y-117543280D01*
X200638546Y-117218050D01*
X200638853Y-116865895D01*
X200504374Y-116540430D01*
X200255580Y-116291202D01*
X199930350Y-116156154D01*
X199578195Y-116155847D01*
X199252730Y-116290326D01*
X199003502Y-116539120D01*
X198868454Y-116864350D01*
X198868147Y-117216505D01*
X132385000Y-117216505D01*
X132385000Y-115075303D01*
X157264657Y-115075303D01*
X157399135Y-115400765D01*
X157647925Y-115649990D01*
X157973152Y-115785036D01*
X158325303Y-115785343D01*
X158650765Y-115650865D01*
X158899990Y-115402075D01*
X159035036Y-115076848D01*
X159035080Y-115025303D01*
X178114657Y-115025303D01*
X178249135Y-115350765D01*
X178497925Y-115599990D01*
X178823152Y-115735036D01*
X179175303Y-115735343D01*
X179500765Y-115600865D01*
X179749990Y-115352075D01*
X179806757Y-115215363D01*
X191864855Y-115215363D01*
X191991708Y-115522372D01*
X192226393Y-115757466D01*
X192533179Y-115884855D01*
X192865363Y-115885145D01*
X193172372Y-115758292D01*
X193407466Y-115523607D01*
X193534855Y-115216821D01*
X193535145Y-114884637D01*
X193408292Y-114577628D01*
X193173607Y-114342534D01*
X192866821Y-114215145D01*
X192534637Y-114214855D01*
X192227628Y-114341708D01*
X191992534Y-114576393D01*
X191865145Y-114883179D01*
X191864855Y-115215363D01*
X179806757Y-115215363D01*
X179885036Y-115026848D01*
X179885343Y-114674697D01*
X179750865Y-114349235D01*
X179502075Y-114100010D01*
X179176848Y-113964964D01*
X178824697Y-113964657D01*
X178499235Y-114099135D01*
X178250010Y-114347925D01*
X178114964Y-114673152D01*
X178114657Y-115025303D01*
X159035080Y-115025303D01*
X159035343Y-114724697D01*
X158903227Y-114404952D01*
X159097925Y-114599990D01*
X159423152Y-114735036D01*
X159775303Y-114735343D01*
X160100765Y-114600865D01*
X160349990Y-114352075D01*
X160485036Y-114026848D01*
X160485343Y-113674697D01*
X160350865Y-113349235D01*
X160102075Y-113100010D01*
X159776848Y-112964964D01*
X159424697Y-112964657D01*
X159099235Y-113099135D01*
X158850010Y-113347925D01*
X158714964Y-113673152D01*
X158714657Y-114025303D01*
X158846773Y-114345048D01*
X158652075Y-114150010D01*
X158326848Y-114014964D01*
X157974697Y-114014657D01*
X157649235Y-114149135D01*
X157400010Y-114397925D01*
X157264964Y-114723152D01*
X157264657Y-115075303D01*
X132385000Y-115075303D01*
X132385000Y-112765363D01*
X165264855Y-112765363D01*
X165391708Y-113072372D01*
X165626393Y-113307466D01*
X165933179Y-113434855D01*
X166265363Y-113435145D01*
X166572372Y-113308292D01*
X166807466Y-113073607D01*
X166934855Y-112766821D01*
X166935145Y-112434637D01*
X166808292Y-112127628D01*
X166573607Y-111892534D01*
X166266821Y-111765145D01*
X165934637Y-111764855D01*
X165627628Y-111891708D01*
X165392534Y-112126393D01*
X165265145Y-112433179D01*
X165264855Y-112765363D01*
X132385000Y-112765363D01*
X132385000Y-112065363D01*
X142064855Y-112065363D01*
X142191708Y-112372372D01*
X142426393Y-112607466D01*
X142733179Y-112734855D01*
X143065363Y-112735145D01*
X143372372Y-112608292D01*
X143607466Y-112373607D01*
X143734855Y-112066821D01*
X143735145Y-111734637D01*
X143608292Y-111427628D01*
X143373607Y-111192534D01*
X143066821Y-111065145D01*
X142734637Y-111064855D01*
X142427628Y-111191708D01*
X142192534Y-111426393D01*
X142065145Y-111733179D01*
X142064855Y-112065363D01*
X132385000Y-112065363D01*
X132385000Y-110775305D01*
X144914647Y-110775305D01*
X145049126Y-111100770D01*
X145297920Y-111349998D01*
X145623150Y-111485046D01*
X145975305Y-111485353D01*
X146177664Y-111401740D01*
X146064964Y-111673152D01*
X146064657Y-112025303D01*
X146199135Y-112350765D01*
X146447925Y-112599990D01*
X146773152Y-112735036D01*
X147125303Y-112735343D01*
X147450765Y-112600865D01*
X147699990Y-112352075D01*
X147835036Y-112026848D01*
X147835343Y-111674697D01*
X147700865Y-111349235D01*
X147452075Y-111100010D01*
X147126848Y-110964964D01*
X146775366Y-110964658D01*
X146871345Y-110925000D01*
X155977560Y-110925000D01*
X155977560Y-111775000D01*
X156021838Y-112010317D01*
X156160910Y-112226441D01*
X156373110Y-112371431D01*
X156625000Y-112422440D01*
X157475000Y-112422440D01*
X157710317Y-112378162D01*
X157926441Y-112239090D01*
X158071431Y-112026890D01*
X158122440Y-111775000D01*
X158122440Y-111338605D01*
X168261447Y-111338605D01*
X168395926Y-111664070D01*
X168644720Y-111913298D01*
X168969950Y-112048346D01*
X169322105Y-112048653D01*
X169647570Y-111914174D01*
X169858806Y-111703305D01*
X171055147Y-111703305D01*
X171189626Y-112028770D01*
X171438420Y-112277998D01*
X171763650Y-112413046D01*
X172115805Y-112413353D01*
X172441270Y-112278874D01*
X172645499Y-112075000D01*
X180227560Y-112075000D01*
X180227560Y-112925000D01*
X180271838Y-113160317D01*
X180410910Y-113376441D01*
X180623110Y-113521431D01*
X180875000Y-113572440D01*
X181725000Y-113572440D01*
X181960317Y-113528162D01*
X182176441Y-113389090D01*
X182321431Y-113176890D01*
X182372440Y-112925000D01*
X182372440Y-112075000D01*
X182328162Y-111839683D01*
X182189090Y-111623559D01*
X181976890Y-111478569D01*
X181725000Y-111427560D01*
X180875000Y-111427560D01*
X180639683Y-111471838D01*
X180423559Y-111610910D01*
X180278569Y-111823110D01*
X180227560Y-112075000D01*
X172645499Y-112075000D01*
X172690498Y-112030080D01*
X172825546Y-111704850D01*
X172825853Y-111352695D01*
X172801433Y-111293593D01*
X172888898Y-111206280D01*
X172976876Y-110994405D01*
X193914647Y-110994405D01*
X194049126Y-111319870D01*
X194297920Y-111569098D01*
X194623150Y-111704146D01*
X194975305Y-111704453D01*
X195131112Y-111640075D01*
X195254120Y-111763298D01*
X195579350Y-111898346D01*
X195931505Y-111898653D01*
X196256970Y-111764174D01*
X196506198Y-111515380D01*
X196567767Y-111367105D01*
X197068747Y-111367105D01*
X197203226Y-111692570D01*
X197452020Y-111941798D01*
X197777250Y-112076846D01*
X198129405Y-112077153D01*
X198134615Y-112075000D01*
X204827560Y-112075000D01*
X204827560Y-112925000D01*
X204871838Y-113160317D01*
X205010910Y-113376441D01*
X205223110Y-113521431D01*
X205475000Y-113572440D01*
X206325000Y-113572440D01*
X206560317Y-113528162D01*
X206776441Y-113389090D01*
X206921431Y-113176890D01*
X206972440Y-112925000D01*
X206972440Y-112075000D01*
X206928162Y-111839683D01*
X206789090Y-111623559D01*
X206576890Y-111478569D01*
X206325000Y-111427560D01*
X205475000Y-111427560D01*
X205239683Y-111471838D01*
X205023559Y-111610910D01*
X204878569Y-111823110D01*
X204827560Y-112075000D01*
X198134615Y-112075000D01*
X198454870Y-111942674D01*
X198704098Y-111693880D01*
X198839146Y-111368650D01*
X198839453Y-111016495D01*
X198704974Y-110691030D01*
X198456180Y-110441802D01*
X198130950Y-110306754D01*
X197778795Y-110306447D01*
X197453330Y-110440926D01*
X197204102Y-110689720D01*
X197069054Y-111014950D01*
X197068747Y-111367105D01*
X196567767Y-111367105D01*
X196641246Y-111190150D01*
X196641553Y-110837995D01*
X196507074Y-110512530D01*
X196452711Y-110458072D01*
X196452953Y-110180395D01*
X196318474Y-109854930D01*
X196069680Y-109605702D01*
X195744450Y-109470654D01*
X195392295Y-109470347D01*
X195066830Y-109604826D01*
X194817602Y-109853620D01*
X194784272Y-109933886D01*
X194624695Y-109933747D01*
X194299230Y-110068226D01*
X194050002Y-110317020D01*
X193914954Y-110642250D01*
X193914647Y-110994405D01*
X172976876Y-110994405D01*
X173023946Y-110881050D01*
X173024253Y-110528895D01*
X172889774Y-110203430D01*
X172640980Y-109954202D01*
X172315750Y-109819154D01*
X171963595Y-109818847D01*
X171638130Y-109953326D01*
X171388902Y-110202120D01*
X171253854Y-110527350D01*
X171253547Y-110879505D01*
X171277967Y-110938607D01*
X171190502Y-111025920D01*
X171055454Y-111351150D01*
X171055147Y-111703305D01*
X169858806Y-111703305D01*
X169896798Y-111665380D01*
X170031846Y-111340150D01*
X170032153Y-110987995D01*
X169897674Y-110662530D01*
X169648880Y-110413302D01*
X169323650Y-110278254D01*
X168971495Y-110277947D01*
X168646030Y-110412426D01*
X168396802Y-110661220D01*
X168261754Y-110986450D01*
X168261447Y-111338605D01*
X158122440Y-111338605D01*
X158122440Y-110925000D01*
X158078162Y-110689683D01*
X157939090Y-110473559D01*
X157726890Y-110328569D01*
X157475000Y-110277560D01*
X156625000Y-110277560D01*
X156389683Y-110321838D01*
X156173559Y-110460910D01*
X156028569Y-110673110D01*
X155977560Y-110925000D01*
X146871345Y-110925000D01*
X147050765Y-110850865D01*
X147299990Y-110602075D01*
X147435036Y-110276848D01*
X147435343Y-109924697D01*
X147300865Y-109599235D01*
X147052075Y-109350010D01*
X146726848Y-109214964D01*
X146374697Y-109214657D01*
X146049235Y-109349135D01*
X145800010Y-109597925D01*
X145751497Y-109714758D01*
X145624695Y-109714647D01*
X145299230Y-109849126D01*
X145050002Y-110097920D01*
X144914954Y-110423150D01*
X144914647Y-110775305D01*
X132385000Y-110775305D01*
X132385000Y-108541305D01*
X159403747Y-108541305D01*
X159538226Y-108866770D01*
X159787020Y-109115998D01*
X160112250Y-109251046D01*
X160464405Y-109251353D01*
X160789870Y-109116874D01*
X161039098Y-108868080D01*
X161174146Y-108542850D01*
X161174453Y-108190695D01*
X161039974Y-107865230D01*
X160791180Y-107616002D01*
X160465950Y-107480954D01*
X160113795Y-107480647D01*
X159788330Y-107615126D01*
X159539102Y-107863920D01*
X159404054Y-108189150D01*
X159403747Y-108541305D01*
X132385000Y-108541305D01*
X132385000Y-106050905D01*
X147551147Y-106050905D01*
X147685626Y-106376370D01*
X147934420Y-106625598D01*
X148259650Y-106760646D01*
X148611805Y-106760953D01*
X148937270Y-106626474D01*
X149186498Y-106377680D01*
X149321546Y-106052450D01*
X149321853Y-105700295D01*
X149187374Y-105374830D01*
X148938580Y-105125602D01*
X148613350Y-104990554D01*
X148261195Y-104990247D01*
X147935730Y-105124726D01*
X147686502Y-105373520D01*
X147551454Y-105698750D01*
X147551147Y-106050905D01*
X132385000Y-106050905D01*
X132385000Y-104790505D01*
X191371047Y-104790505D01*
X191505526Y-105115970D01*
X191754320Y-105365198D01*
X192079550Y-105500246D01*
X192431705Y-105500553D01*
X192757170Y-105366074D01*
X193006398Y-105117280D01*
X193141446Y-104792050D01*
X193141753Y-104439895D01*
X193007274Y-104114430D01*
X192758480Y-103865202D01*
X192433250Y-103730154D01*
X192081095Y-103729847D01*
X191755630Y-103864326D01*
X191506402Y-104113120D01*
X191371354Y-104438350D01*
X191371047Y-104790505D01*
X132385000Y-104790505D01*
X132385000Y-103075303D01*
X163714657Y-103075303D01*
X163849135Y-103400765D01*
X164097925Y-103649990D01*
X164423152Y-103785036D01*
X164775303Y-103785343D01*
X165100765Y-103650865D01*
X165349990Y-103402075D01*
X165485036Y-103076848D01*
X165485343Y-102724697D01*
X165350865Y-102399235D01*
X165102075Y-102150010D01*
X164776848Y-102014964D01*
X164424697Y-102014657D01*
X164099235Y-102149135D01*
X163850010Y-102397925D01*
X163714964Y-102723152D01*
X163714657Y-103075303D01*
X132385000Y-103075303D01*
X132385000Y-101525303D01*
X143864657Y-101525303D01*
X143999135Y-101850765D01*
X144247925Y-102099990D01*
X144573152Y-102235036D01*
X144925303Y-102235343D01*
X145250765Y-102100865D01*
X145499990Y-101852075D01*
X145604534Y-101600303D01*
X145739657Y-101600303D01*
X145874135Y-101925765D01*
X146122925Y-102174990D01*
X146448152Y-102310036D01*
X146800303Y-102310343D01*
X147125765Y-102175865D01*
X147374990Y-101927075D01*
X147510036Y-101601848D01*
X147510343Y-101249697D01*
X147391720Y-100962605D01*
X147659647Y-100962605D01*
X147794126Y-101288070D01*
X148042920Y-101537298D01*
X148368150Y-101672346D01*
X148720305Y-101672653D01*
X149045770Y-101538174D01*
X149294998Y-101289380D01*
X149430046Y-100964150D01*
X149430353Y-100611995D01*
X149353214Y-100425303D01*
X162314657Y-100425303D01*
X162449135Y-100750765D01*
X162697925Y-100999990D01*
X163023152Y-101135036D01*
X163375303Y-101135343D01*
X163700765Y-101000865D01*
X163949990Y-100752075D01*
X164085036Y-100426848D01*
X164085037Y-100425303D01*
X166164657Y-100425303D01*
X166299135Y-100750765D01*
X166547925Y-100999990D01*
X166873152Y-101135036D01*
X167225303Y-101135343D01*
X167550765Y-101000865D01*
X167799990Y-100752075D01*
X167935036Y-100426848D01*
X167935073Y-100384005D01*
X169489647Y-100384005D01*
X169624126Y-100709470D01*
X169872920Y-100958698D01*
X170198150Y-101093746D01*
X170550305Y-101094053D01*
X170608263Y-101070105D01*
X171422247Y-101070105D01*
X171556726Y-101395570D01*
X171805520Y-101644798D01*
X172130750Y-101779846D01*
X172482905Y-101780153D01*
X172808370Y-101645674D01*
X173057598Y-101396880D01*
X173192646Y-101071650D01*
X173192647Y-101070105D01*
X174119647Y-101070105D01*
X174254126Y-101395570D01*
X174502920Y-101644798D01*
X174828150Y-101779846D01*
X175180305Y-101780153D01*
X175505770Y-101645674D01*
X175754998Y-101396880D01*
X175784719Y-101325303D01*
X189864657Y-101325303D01*
X189999135Y-101650765D01*
X190247925Y-101899990D01*
X190573152Y-102035036D01*
X190925303Y-102035343D01*
X191250765Y-101900865D01*
X191276371Y-101875303D01*
X193264657Y-101875303D01*
X193399135Y-102200765D01*
X193647925Y-102449990D01*
X193973152Y-102585036D01*
X194325303Y-102585343D01*
X194650765Y-102450865D01*
X194899990Y-102202075D01*
X194931868Y-102125303D01*
X195264657Y-102125303D01*
X195399135Y-102450765D01*
X195647925Y-102699990D01*
X195973152Y-102835036D01*
X196325303Y-102835343D01*
X196650765Y-102700865D01*
X196899990Y-102452075D01*
X197035036Y-102126848D01*
X197035124Y-102025303D01*
X197464657Y-102025303D01*
X197599135Y-102350765D01*
X197847925Y-102599990D01*
X198173152Y-102735036D01*
X198525303Y-102735343D01*
X198850765Y-102600865D01*
X198976546Y-102475303D01*
X208614657Y-102475303D01*
X208749135Y-102800765D01*
X208997925Y-103049990D01*
X209323152Y-103185036D01*
X209675303Y-103185343D01*
X210000765Y-103050865D01*
X210249990Y-102802075D01*
X210385036Y-102476848D01*
X210385343Y-102124697D01*
X210250865Y-101799235D01*
X210002075Y-101550010D01*
X209676848Y-101414964D01*
X209324697Y-101414657D01*
X208999235Y-101549135D01*
X208750010Y-101797925D01*
X208614964Y-102123152D01*
X208614657Y-102475303D01*
X198976546Y-102475303D01*
X199099990Y-102352075D01*
X199235036Y-102026848D01*
X199235343Y-101674697D01*
X199100865Y-101349235D01*
X198852075Y-101100010D01*
X198526848Y-100964964D01*
X198174697Y-100964657D01*
X197849235Y-101099135D01*
X197600010Y-101347925D01*
X197464964Y-101673152D01*
X197464657Y-102025303D01*
X197035124Y-102025303D01*
X197035343Y-101774697D01*
X196900865Y-101449235D01*
X196652075Y-101200010D01*
X196326848Y-101064964D01*
X195974697Y-101064657D01*
X195649235Y-101199135D01*
X195400010Y-101447925D01*
X195264964Y-101773152D01*
X195264657Y-102125303D01*
X194931868Y-102125303D01*
X195035036Y-101876848D01*
X195035343Y-101524697D01*
X194900865Y-101199235D01*
X194652075Y-100950010D01*
X194532368Y-100900303D01*
X199864657Y-100900303D01*
X199999135Y-101225765D01*
X200247925Y-101474990D01*
X200573152Y-101610036D01*
X200925303Y-101610343D01*
X201250765Y-101475865D01*
X201499990Y-101227075D01*
X201565169Y-101070105D01*
X213712247Y-101070105D01*
X213846726Y-101395570D01*
X214095520Y-101644798D01*
X214420750Y-101779846D01*
X214772905Y-101780153D01*
X215098370Y-101645674D01*
X215347598Y-101396880D01*
X215482646Y-101071650D01*
X215482953Y-100719495D01*
X215348474Y-100394030D01*
X215099680Y-100144802D01*
X214774450Y-100009754D01*
X214422295Y-100009447D01*
X214096830Y-100143926D01*
X213847602Y-100392720D01*
X213712554Y-100717950D01*
X213712247Y-101070105D01*
X201565169Y-101070105D01*
X201635036Y-100901848D01*
X201635343Y-100549697D01*
X201500865Y-100224235D01*
X201252075Y-99975010D01*
X200926848Y-99839964D01*
X200574697Y-99839657D01*
X200249235Y-99974135D01*
X200000010Y-100222925D01*
X199864964Y-100548152D01*
X199864657Y-100900303D01*
X194532368Y-100900303D01*
X194326848Y-100814964D01*
X193974697Y-100814657D01*
X193649235Y-100949135D01*
X193400010Y-101197925D01*
X193264964Y-101523152D01*
X193264657Y-101875303D01*
X191276371Y-101875303D01*
X191499990Y-101652075D01*
X191635036Y-101326848D01*
X191635343Y-100974697D01*
X191500865Y-100649235D01*
X191252075Y-100400010D01*
X190926848Y-100264964D01*
X190574697Y-100264657D01*
X190249235Y-100399135D01*
X190000010Y-100647925D01*
X189864964Y-100973152D01*
X189864657Y-101325303D01*
X175784719Y-101325303D01*
X175890046Y-101071650D01*
X175890353Y-100719495D01*
X175755874Y-100394030D01*
X175507080Y-100144802D01*
X175181850Y-100009754D01*
X174829695Y-100009447D01*
X174504230Y-100143926D01*
X174255002Y-100392720D01*
X174119954Y-100717950D01*
X174119647Y-101070105D01*
X173192647Y-101070105D01*
X173192953Y-100719495D01*
X173058474Y-100394030D01*
X172809680Y-100144802D01*
X172484450Y-100009754D01*
X172132295Y-100009447D01*
X171806830Y-100143926D01*
X171557602Y-100392720D01*
X171422554Y-100717950D01*
X171422247Y-101070105D01*
X170608263Y-101070105D01*
X170875770Y-100959574D01*
X171124998Y-100710780D01*
X171260046Y-100385550D01*
X171260353Y-100033395D01*
X171125874Y-99707930D01*
X170877080Y-99458702D01*
X170551850Y-99323654D01*
X170199695Y-99323347D01*
X169874230Y-99457826D01*
X169625002Y-99706620D01*
X169489954Y-100031850D01*
X169489647Y-100384005D01*
X167935073Y-100384005D01*
X167935343Y-100074697D01*
X167800865Y-99749235D01*
X167552075Y-99500010D01*
X167226848Y-99364964D01*
X166874697Y-99364657D01*
X166549235Y-99499135D01*
X166300010Y-99747925D01*
X166164964Y-100073152D01*
X166164657Y-100425303D01*
X164085037Y-100425303D01*
X164085343Y-100074697D01*
X163950865Y-99749235D01*
X163702075Y-99500010D01*
X163376848Y-99364964D01*
X163024697Y-99364657D01*
X162699235Y-99499135D01*
X162450010Y-99747925D01*
X162314964Y-100073152D01*
X162314657Y-100425303D01*
X149353214Y-100425303D01*
X149315941Y-100335095D01*
X149600303Y-100335343D01*
X149925765Y-100200865D01*
X150174990Y-99952075D01*
X150310036Y-99626848D01*
X150310343Y-99274697D01*
X150175865Y-98949235D01*
X149927075Y-98700010D01*
X149601848Y-98564964D01*
X149249697Y-98564657D01*
X148924235Y-98699135D01*
X148675010Y-98947925D01*
X148539964Y-99273152D01*
X148539657Y-99625303D01*
X148654066Y-99902195D01*
X148369695Y-99901947D01*
X148044230Y-100036426D01*
X147795002Y-100285220D01*
X147659954Y-100610450D01*
X147659647Y-100962605D01*
X147391720Y-100962605D01*
X147375865Y-100924235D01*
X147127075Y-100675010D01*
X146801848Y-100539964D01*
X146449697Y-100539657D01*
X146124235Y-100674135D01*
X145875010Y-100922925D01*
X145739964Y-101248152D01*
X145739657Y-101600303D01*
X145604534Y-101600303D01*
X145635036Y-101526848D01*
X145635343Y-101174697D01*
X145500865Y-100849235D01*
X145252075Y-100600010D01*
X144926848Y-100464964D01*
X144574697Y-100464657D01*
X144249235Y-100599135D01*
X144000010Y-100847925D01*
X143864964Y-101173152D01*
X143864657Y-101525303D01*
X132385000Y-101525303D01*
X132385000Y-100425303D01*
X137464657Y-100425303D01*
X137599135Y-100750765D01*
X137847925Y-100999990D01*
X138173152Y-101135036D01*
X138525303Y-101135343D01*
X138850765Y-101000865D01*
X139099990Y-100752075D01*
X139235036Y-100426848D01*
X139235343Y-100074697D01*
X139100865Y-99749235D01*
X138852075Y-99500010D01*
X138526848Y-99364964D01*
X138174697Y-99364657D01*
X137849235Y-99499135D01*
X137600010Y-99747925D01*
X137464964Y-100073152D01*
X137464657Y-100425303D01*
X132385000Y-100425303D01*
X132385000Y-97060750D01*
X134540000Y-97060750D01*
X134540000Y-97751310D01*
X134636673Y-97984699D01*
X134815302Y-98163327D01*
X135048691Y-98260000D01*
X135739250Y-98260000D01*
X135898000Y-98101250D01*
X135898000Y-96902000D01*
X136152000Y-96902000D01*
X136152000Y-98101250D01*
X136310750Y-98260000D01*
X137001309Y-98260000D01*
X137109072Y-98215363D01*
X159614855Y-98215363D01*
X159741708Y-98522372D01*
X159769131Y-98549843D01*
X159742534Y-98576393D01*
X159615145Y-98883179D01*
X159614855Y-99215363D01*
X159741708Y-99522372D01*
X159976393Y-99757466D01*
X160283179Y-99884855D01*
X160615363Y-99885145D01*
X160922372Y-99758292D01*
X160949843Y-99730869D01*
X160976393Y-99757466D01*
X161283179Y-99884855D01*
X161615363Y-99885145D01*
X161922372Y-99758292D01*
X162157466Y-99523607D01*
X162284855Y-99216821D01*
X162285145Y-98884637D01*
X162194544Y-98665363D01*
X185514855Y-98665363D01*
X185641708Y-98972372D01*
X185669131Y-98999843D01*
X185642534Y-99026393D01*
X185515145Y-99333179D01*
X185514855Y-99665363D01*
X185641708Y-99972372D01*
X185876393Y-100207466D01*
X186183179Y-100334855D01*
X186515363Y-100335145D01*
X186822372Y-100208292D01*
X186849843Y-100180869D01*
X186876393Y-100207466D01*
X187183179Y-100334855D01*
X187515363Y-100335145D01*
X187822372Y-100208292D01*
X188057466Y-99973607D01*
X188184855Y-99666821D01*
X188185145Y-99334637D01*
X188058292Y-99027628D01*
X188030869Y-99000157D01*
X188057466Y-98973607D01*
X188184855Y-98666821D01*
X188185145Y-98334637D01*
X188177182Y-98315363D01*
X212464855Y-98315363D01*
X212591708Y-98622372D01*
X212619131Y-98649843D01*
X212592534Y-98676393D01*
X212465145Y-98983179D01*
X212464855Y-99315363D01*
X212591708Y-99622372D01*
X212826393Y-99857466D01*
X213133179Y-99984855D01*
X213465363Y-99985145D01*
X213772372Y-99858292D01*
X213799843Y-99830869D01*
X213826393Y-99857466D01*
X214133179Y-99984855D01*
X214465363Y-99985145D01*
X214772372Y-99858292D01*
X215007466Y-99623607D01*
X215134855Y-99316821D01*
X215135145Y-98984637D01*
X215008292Y-98677628D01*
X214980869Y-98650157D01*
X215007466Y-98623607D01*
X215134855Y-98316821D01*
X215135145Y-97984637D01*
X215008292Y-97677628D01*
X214773607Y-97442534D01*
X214466821Y-97315145D01*
X214134637Y-97314855D01*
X213827628Y-97441708D01*
X213800157Y-97469131D01*
X213773607Y-97442534D01*
X213466821Y-97315145D01*
X213134637Y-97314855D01*
X212827628Y-97441708D01*
X212592534Y-97676393D01*
X212465145Y-97983179D01*
X212464855Y-98315363D01*
X188177182Y-98315363D01*
X188058292Y-98027628D01*
X187823607Y-97792534D01*
X187516821Y-97665145D01*
X187184637Y-97664855D01*
X186877628Y-97791708D01*
X186850157Y-97819131D01*
X186823607Y-97792534D01*
X186516821Y-97665145D01*
X186184637Y-97664855D01*
X185877628Y-97791708D01*
X185642534Y-98026393D01*
X185515145Y-98333179D01*
X185514855Y-98665363D01*
X162194544Y-98665363D01*
X162158292Y-98577628D01*
X162130869Y-98550157D01*
X162157466Y-98523607D01*
X162284855Y-98216821D01*
X162285145Y-97884637D01*
X162158292Y-97577628D01*
X161923607Y-97342534D01*
X161616821Y-97215145D01*
X161284637Y-97214855D01*
X160977628Y-97341708D01*
X160950157Y-97369131D01*
X160923607Y-97342534D01*
X160616821Y-97215145D01*
X160284637Y-97214855D01*
X159977628Y-97341708D01*
X159742534Y-97576393D01*
X159615145Y-97883179D01*
X159614855Y-98215363D01*
X137109072Y-98215363D01*
X137234698Y-98163327D01*
X137413327Y-97984699D01*
X137510000Y-97751310D01*
X137510000Y-97060750D01*
X137351250Y-96902000D01*
X136152000Y-96902000D01*
X135898000Y-96902000D01*
X134698750Y-96902000D01*
X134540000Y-97060750D01*
X132385000Y-97060750D01*
X132385000Y-95798690D01*
X134540000Y-95798690D01*
X134540000Y-96489250D01*
X134698750Y-96648000D01*
X135898000Y-96648000D01*
X135898000Y-95448750D01*
X136152000Y-95448750D01*
X136152000Y-96648000D01*
X137351250Y-96648000D01*
X137510000Y-96489250D01*
X137510000Y-95798690D01*
X137413327Y-95565301D01*
X137234698Y-95386673D01*
X137001309Y-95290000D01*
X136310750Y-95290000D01*
X136152000Y-95448750D01*
X135898000Y-95448750D01*
X135739250Y-95290000D01*
X135048691Y-95290000D01*
X134815302Y-95386673D01*
X134636673Y-95565301D01*
X134540000Y-95798690D01*
X132385000Y-95798690D01*
X132385000Y-91842619D01*
X133514613Y-91842619D01*
X133854155Y-92664372D01*
X134482321Y-93293636D01*
X135303481Y-93634611D01*
X136192619Y-93635387D01*
X137014372Y-93295845D01*
X137643636Y-92667679D01*
X137984611Y-91846519D01*
X137985387Y-90957381D01*
X137645845Y-90135628D01*
X137017679Y-89506364D01*
X136641113Y-89350000D01*
X141102560Y-89350000D01*
X141102560Y-91250000D01*
X141146838Y-91485317D01*
X141285910Y-91701441D01*
X141498110Y-91846431D01*
X141750000Y-91897440D01*
X143650000Y-91897440D01*
X143885317Y-91853162D01*
X144101441Y-91714090D01*
X144246431Y-91501890D01*
X144297440Y-91250000D01*
X144297440Y-90613893D01*
X145074725Y-90613893D01*
X145315519Y-91196657D01*
X145760997Y-91642914D01*
X146343341Y-91884724D01*
X146973893Y-91885275D01*
X147556657Y-91644481D01*
X148002914Y-91199003D01*
X148244724Y-90616659D01*
X148244726Y-90613893D01*
X149034725Y-90613893D01*
X149275519Y-91196657D01*
X149720997Y-91642914D01*
X150303341Y-91884724D01*
X150933893Y-91885275D01*
X151516657Y-91644481D01*
X151962914Y-91199003D01*
X152204724Y-90616659D01*
X152204726Y-90613893D01*
X152994725Y-90613893D01*
X153235519Y-91196657D01*
X153680997Y-91642914D01*
X154263341Y-91884724D01*
X154893893Y-91885275D01*
X155476657Y-91644481D01*
X155922914Y-91199003D01*
X156164724Y-90616659D01*
X156165275Y-89986107D01*
X155924481Y-89403343D01*
X155871232Y-89350000D01*
X166102560Y-89350000D01*
X166102560Y-91250000D01*
X166146838Y-91485317D01*
X166285910Y-91701441D01*
X166498110Y-91846431D01*
X166750000Y-91897440D01*
X168650000Y-91897440D01*
X168885317Y-91853162D01*
X169101441Y-91714090D01*
X169246431Y-91501890D01*
X169297440Y-91250000D01*
X169297440Y-90613893D01*
X170074725Y-90613893D01*
X170315519Y-91196657D01*
X170760997Y-91642914D01*
X171343341Y-91884724D01*
X171973893Y-91885275D01*
X172556657Y-91644481D01*
X173002914Y-91199003D01*
X173244724Y-90616659D01*
X173244726Y-90613893D01*
X174034725Y-90613893D01*
X174275519Y-91196657D01*
X174720997Y-91642914D01*
X175303341Y-91884724D01*
X175933893Y-91885275D01*
X176516657Y-91644481D01*
X176962914Y-91199003D01*
X177204724Y-90616659D01*
X177204726Y-90613893D01*
X177994725Y-90613893D01*
X178235519Y-91196657D01*
X178680997Y-91642914D01*
X179263341Y-91884724D01*
X179893893Y-91885275D01*
X180476657Y-91644481D01*
X180922914Y-91199003D01*
X181164724Y-90616659D01*
X181165275Y-89986107D01*
X180924481Y-89403343D01*
X180871232Y-89350000D01*
X191602560Y-89350000D01*
X191602560Y-91250000D01*
X191646838Y-91485317D01*
X191785910Y-91701441D01*
X191998110Y-91846431D01*
X192250000Y-91897440D01*
X194150000Y-91897440D01*
X194385317Y-91853162D01*
X194601441Y-91714090D01*
X194746431Y-91501890D01*
X194797440Y-91250000D01*
X194797440Y-90613893D01*
X195574725Y-90613893D01*
X195815519Y-91196657D01*
X196260997Y-91642914D01*
X196843341Y-91884724D01*
X197473893Y-91885275D01*
X198056657Y-91644481D01*
X198502914Y-91199003D01*
X198744724Y-90616659D01*
X198744726Y-90613893D01*
X199534725Y-90613893D01*
X199775519Y-91196657D01*
X200220997Y-91642914D01*
X200803341Y-91884724D01*
X201433893Y-91885275D01*
X202016657Y-91644481D01*
X202462914Y-91199003D01*
X202704724Y-90616659D01*
X202704726Y-90613893D01*
X203494725Y-90613893D01*
X203735519Y-91196657D01*
X204180997Y-91642914D01*
X204763341Y-91884724D01*
X205393893Y-91885275D01*
X205976657Y-91644481D01*
X206422914Y-91199003D01*
X206664724Y-90616659D01*
X206665275Y-89986107D01*
X206424481Y-89403343D01*
X205979003Y-88957086D01*
X205396659Y-88715276D01*
X204766107Y-88714725D01*
X204183343Y-88955519D01*
X203737086Y-89400997D01*
X203495276Y-89983341D01*
X203494725Y-90613893D01*
X202704726Y-90613893D01*
X202705275Y-89986107D01*
X202464481Y-89403343D01*
X202019003Y-88957086D01*
X201436659Y-88715276D01*
X200806107Y-88714725D01*
X200223343Y-88955519D01*
X199777086Y-89400997D01*
X199535276Y-89983341D01*
X199534725Y-90613893D01*
X198744726Y-90613893D01*
X198745275Y-89986107D01*
X198504481Y-89403343D01*
X198059003Y-88957086D01*
X197476659Y-88715276D01*
X196846107Y-88714725D01*
X196263343Y-88955519D01*
X195817086Y-89400997D01*
X195575276Y-89983341D01*
X195574725Y-90613893D01*
X194797440Y-90613893D01*
X194797440Y-89350000D01*
X194753162Y-89114683D01*
X194614090Y-88898559D01*
X194401890Y-88753569D01*
X194150000Y-88702560D01*
X192250000Y-88702560D01*
X192014683Y-88746838D01*
X191798559Y-88885910D01*
X191653569Y-89098110D01*
X191602560Y-89350000D01*
X180871232Y-89350000D01*
X180479003Y-88957086D01*
X179896659Y-88715276D01*
X179266107Y-88714725D01*
X178683343Y-88955519D01*
X178237086Y-89400997D01*
X177995276Y-89983341D01*
X177994725Y-90613893D01*
X177204726Y-90613893D01*
X177205275Y-89986107D01*
X176964481Y-89403343D01*
X176519003Y-88957086D01*
X175936659Y-88715276D01*
X175306107Y-88714725D01*
X174723343Y-88955519D01*
X174277086Y-89400997D01*
X174035276Y-89983341D01*
X174034725Y-90613893D01*
X173244726Y-90613893D01*
X173245275Y-89986107D01*
X173004481Y-89403343D01*
X172559003Y-88957086D01*
X171976659Y-88715276D01*
X171346107Y-88714725D01*
X170763343Y-88955519D01*
X170317086Y-89400997D01*
X170075276Y-89983341D01*
X170074725Y-90613893D01*
X169297440Y-90613893D01*
X169297440Y-89350000D01*
X169253162Y-89114683D01*
X169114090Y-88898559D01*
X168901890Y-88753569D01*
X168650000Y-88702560D01*
X166750000Y-88702560D01*
X166514683Y-88746838D01*
X166298559Y-88885910D01*
X166153569Y-89098110D01*
X166102560Y-89350000D01*
X155871232Y-89350000D01*
X155479003Y-88957086D01*
X154896659Y-88715276D01*
X154266107Y-88714725D01*
X153683343Y-88955519D01*
X153237086Y-89400997D01*
X152995276Y-89983341D01*
X152994725Y-90613893D01*
X152204726Y-90613893D01*
X152205275Y-89986107D01*
X151964481Y-89403343D01*
X151519003Y-88957086D01*
X150936659Y-88715276D01*
X150306107Y-88714725D01*
X149723343Y-88955519D01*
X149277086Y-89400997D01*
X149035276Y-89983341D01*
X149034725Y-90613893D01*
X148244726Y-90613893D01*
X148245275Y-89986107D01*
X148004481Y-89403343D01*
X147559003Y-88957086D01*
X146976659Y-88715276D01*
X146346107Y-88714725D01*
X145763343Y-88955519D01*
X145317086Y-89400997D01*
X145075276Y-89983341D01*
X145074725Y-90613893D01*
X144297440Y-90613893D01*
X144297440Y-89350000D01*
X144253162Y-89114683D01*
X144114090Y-88898559D01*
X143901890Y-88753569D01*
X143650000Y-88702560D01*
X141750000Y-88702560D01*
X141514683Y-88746838D01*
X141298559Y-88885910D01*
X141153569Y-89098110D01*
X141102560Y-89350000D01*
X136641113Y-89350000D01*
X136196519Y-89165389D01*
X135307381Y-89164613D01*
X134485628Y-89504155D01*
X133856364Y-90132321D01*
X133515389Y-90953481D01*
X133514613Y-91842619D01*
X132385000Y-91842619D01*
X132385000Y-87985000D01*
X218573000Y-87985000D01*
X218573000Y-143300000D01*
M02*
