G04 #@! TF.FileFunction,Legend,Bot*
%FSLAX46Y46*%
G04 Gerber Fmt 4.6, Leading zero omitted, Abs format (unit mm)*
G04 Created by KiCad (PCBNEW 4.0.1-stable) date 2018/04/09 16:51:16*
%MOMM*%
G01*
G04 APERTURE LIST*
%ADD10C,0.150000*%
%ADD11C,0.010000*%
%ADD12C,1.000000*%
%ADD13C,0.400000*%
%ADD14C,1.900000*%
%ADD15R,1.900000X1.900000*%
%ADD16R,0.850000X0.850000*%
%ADD17O,0.850000X0.850000*%
%ADD18C,1.520000*%
%ADD19C,2.700000*%
%ADD20C,3.200000*%
%ADD21R,1.700000X1.700000*%
G04 APERTURE END LIST*
D10*
D11*
G36*
X140630888Y-163402889D02*
X157140888Y-163402889D01*
X157140888Y-162288112D01*
X156463555Y-162288112D01*
X156462957Y-162427560D01*
X156460054Y-162520117D01*
X156453185Y-162575332D01*
X156440691Y-162602755D01*
X156420910Y-162611934D01*
X156407111Y-162612667D01*
X156375651Y-162606521D01*
X156358616Y-162579495D01*
X156351734Y-162518712D01*
X156350666Y-162442427D01*
X156339168Y-162294927D01*
X156307471Y-162177754D01*
X156259773Y-162096649D01*
X156200272Y-162057352D01*
X156133166Y-162065600D01*
X156094644Y-162092386D01*
X156066934Y-162126618D01*
X156050355Y-162176565D01*
X156042315Y-162255791D01*
X156040222Y-162377152D01*
X156039134Y-162492520D01*
X156034093Y-162562590D01*
X156022429Y-162598495D01*
X156001476Y-162611367D01*
X155983777Y-162612667D01*
X155954708Y-162607583D01*
X155937757Y-162584470D01*
X155929721Y-162531531D01*
X155927397Y-162436974D01*
X155927333Y-162404806D01*
X155923925Y-162285285D01*
X155911364Y-162205001D01*
X155886141Y-162147031D01*
X155868840Y-162122584D01*
X155798328Y-162057121D01*
X155735227Y-162044637D01*
X155682608Y-162081833D01*
X155643544Y-162165412D01*
X155621106Y-162292074D01*
X155616888Y-162393169D01*
X155615645Y-162503777D01*
X155609942Y-162569463D01*
X155596822Y-162601731D01*
X155573327Y-162612085D01*
X155560444Y-162612667D01*
X155532938Y-162608181D01*
X155516165Y-162587345D01*
X155507507Y-162539094D01*
X155504347Y-162452362D01*
X155504196Y-162418166D01*
X155344074Y-162418166D01*
X155319341Y-162506515D01*
X155254290Y-162572565D01*
X155162640Y-162610318D01*
X155058113Y-162613778D01*
X154965922Y-162583452D01*
X154920992Y-162568652D01*
X154911333Y-162583452D01*
X154887705Y-162607185D01*
X154854888Y-162612667D01*
X154827906Y-162608366D01*
X154811215Y-162588250D01*
X154802373Y-162541499D01*
X154798939Y-162457292D01*
X154798444Y-162362473D01*
X154800626Y-162233958D01*
X154808868Y-162147340D01*
X154825180Y-162090052D01*
X154600888Y-162090052D01*
X154600888Y-162104667D01*
X154600621Y-162285265D01*
X154599252Y-162417082D01*
X154595928Y-162507781D01*
X154589799Y-162565026D01*
X154580014Y-162596478D01*
X154565721Y-162609803D01*
X154546068Y-162612661D01*
X154544444Y-162612667D01*
X154511142Y-162605556D01*
X154494201Y-162575119D01*
X154488384Y-162507701D01*
X154488000Y-162465464D01*
X154488000Y-162318262D01*
X154338945Y-162465464D01*
X154240131Y-162554349D01*
X154164132Y-162601454D01*
X154113168Y-162612667D01*
X154057240Y-162604243D01*
X154036444Y-162586109D01*
X154056281Y-162556216D01*
X154108932Y-162500553D01*
X154184106Y-162429793D01*
X154205876Y-162410411D01*
X154375308Y-162261270D01*
X154212931Y-162113709D01*
X154132668Y-162039870D01*
X154090119Y-161995883D01*
X154080984Y-161973908D01*
X154100965Y-161966104D01*
X154131305Y-161964852D01*
X154215727Y-161987163D01*
X154323419Y-162057437D01*
X154350027Y-162079073D01*
X154488000Y-162194590D01*
X154488000Y-161963556D01*
X153951777Y-161963556D01*
X153951777Y-162612667D01*
X153810666Y-162612667D01*
X153810666Y-162288112D01*
X153613111Y-162288112D01*
X153612512Y-162427560D01*
X153609609Y-162520117D01*
X153602741Y-162575332D01*
X153590247Y-162602755D01*
X153570466Y-162611934D01*
X153556666Y-162612667D01*
X153527597Y-162607583D01*
X153510646Y-162584470D01*
X153502610Y-162531531D01*
X153500286Y-162436974D01*
X153500222Y-162404806D01*
X153496814Y-162285285D01*
X153484253Y-162205001D01*
X153459030Y-162147031D01*
X153441729Y-162122584D01*
X153373331Y-162061169D01*
X153305168Y-162055180D01*
X153241389Y-162094930D01*
X153214862Y-162129417D01*
X153199026Y-162182504D01*
X153191476Y-162267333D01*
X153189777Y-162377152D01*
X153189178Y-162492020D01*
X153185018Y-162561725D01*
X153173758Y-162597547D01*
X153151856Y-162610767D01*
X153115856Y-162612667D01*
X153041934Y-162612667D01*
X153053590Y-162346155D01*
X153061519Y-162219869D01*
X152901480Y-162219869D01*
X152900435Y-162340651D01*
X152852292Y-162463066D01*
X152769772Y-162547908D01*
X152657581Y-162593739D01*
X152530401Y-162596463D01*
X152451177Y-162574991D01*
X152384679Y-162553503D01*
X152346605Y-162550178D01*
X152343111Y-162554282D01*
X152361567Y-162635329D01*
X152406791Y-162717051D01*
X152463561Y-162773191D01*
X152472843Y-162778110D01*
X152561911Y-162806387D01*
X152642765Y-162797584D01*
X152734934Y-162751796D01*
X152808092Y-162715874D01*
X152852611Y-162717672D01*
X152861300Y-162724456D01*
X152876268Y-162771239D01*
X152844511Y-162823236D01*
X152773694Y-162870588D01*
X152735515Y-162886241D01*
X152610161Y-162917422D01*
X152500049Y-162911095D01*
X152411744Y-162881794D01*
X152343726Y-162843170D01*
X152294320Y-162787093D01*
X152260916Y-162705246D01*
X152240904Y-162589307D01*
X152231675Y-162430958D01*
X152230222Y-162303129D01*
X152230773Y-162159945D01*
X152233461Y-162063861D01*
X152239840Y-162005536D01*
X152251461Y-161975627D01*
X152252702Y-161974897D01*
X151806888Y-161974897D01*
X151796453Y-162003757D01*
X151768057Y-162073850D01*
X151726072Y-162174569D01*
X151676234Y-162292105D01*
X151545579Y-162597971D01*
X151598623Y-162697041D01*
X151654359Y-162771410D01*
X151714865Y-162805086D01*
X151715166Y-162805130D01*
X151767748Y-162831168D01*
X151776524Y-162876955D01*
X151757696Y-162906453D01*
X151711602Y-162918639D01*
X151642457Y-162906671D01*
X151574476Y-162877248D01*
X151537025Y-162845403D01*
X151515843Y-162805123D01*
X151479588Y-162724904D01*
X151432815Y-162615947D01*
X151380080Y-162489453D01*
X151325938Y-162356622D01*
X151301164Y-162294451D01*
X151114602Y-162294451D01*
X151099506Y-162393675D01*
X151045671Y-162493907D01*
X150954036Y-162567669D01*
X150839261Y-162609315D01*
X150716007Y-162613200D01*
X150612644Y-162581142D01*
X150519566Y-162510641D01*
X150467943Y-162411158D01*
X150452849Y-162284862D01*
X150461636Y-162218839D01*
X150282888Y-162218839D01*
X150281571Y-162342738D01*
X150275604Y-162424368D01*
X150261968Y-162477880D01*
X150237641Y-162517424D01*
X150213616Y-162543394D01*
X150136751Y-162591180D01*
X150040986Y-162613240D01*
X149949003Y-162607191D01*
X149889894Y-162577389D01*
X149856402Y-162556264D01*
X149839564Y-162577389D01*
X149804122Y-162606928D01*
X149772537Y-162612667D01*
X149749264Y-162608691D01*
X149733814Y-162590421D01*
X149724599Y-162548348D01*
X149720036Y-162472962D01*
X149718540Y-162354752D01*
X149718444Y-162288112D01*
X149520888Y-162288112D01*
X149520207Y-162427807D01*
X149517121Y-162520562D01*
X149510066Y-162575871D01*
X149497477Y-162603233D01*
X149477790Y-162612142D01*
X149467432Y-162612667D01*
X149440320Y-162606435D01*
X149423063Y-162580297D01*
X149412503Y-162523088D01*
X149405479Y-162423645D01*
X149403761Y-162387726D01*
X149394897Y-162288112D01*
X148730666Y-162288112D01*
X148730068Y-162427560D01*
X148727165Y-162520117D01*
X148720296Y-162575332D01*
X148707802Y-162602755D01*
X148688021Y-162611934D01*
X148674222Y-162612667D01*
X148649970Y-162609225D01*
X148633873Y-162592533D01*
X148624270Y-162553040D01*
X148619501Y-162481199D01*
X148617905Y-162367459D01*
X148617777Y-162288112D01*
X148617999Y-162236292D01*
X148437877Y-162236292D01*
X148430034Y-162366994D01*
X148420975Y-162398720D01*
X148378184Y-162483471D01*
X148319388Y-162552699D01*
X148315595Y-162555781D01*
X148223222Y-162598711D01*
X148109452Y-162612025D01*
X148000261Y-162594809D01*
X147946724Y-162568733D01*
X147901423Y-162540577D01*
X147885589Y-162547204D01*
X147884000Y-162568733D01*
X147860405Y-162604964D01*
X147827555Y-162612667D01*
X147807489Y-162610261D01*
X147792842Y-162597934D01*
X147782765Y-162568023D01*
X147776404Y-162512866D01*
X147772909Y-162424798D01*
X147771429Y-162296158D01*
X147771385Y-162271147D01*
X147600790Y-162271147D01*
X147600777Y-162273224D01*
X147580350Y-162418741D01*
X147521263Y-162523193D01*
X147422903Y-162587212D01*
X147284657Y-162611429D01*
X147271740Y-162611667D01*
X147158681Y-162595578D01*
X147076718Y-162546734D01*
X147029366Y-162493219D01*
X147018709Y-162451409D01*
X147020365Y-162447956D01*
X147066002Y-162417118D01*
X147123049Y-162432510D01*
X147150222Y-162457445D01*
X147215203Y-162496249D01*
X147300014Y-162498171D01*
X147384110Y-162465773D01*
X147433053Y-162422167D01*
X147439360Y-162414162D01*
X146868000Y-162414162D01*
X146856730Y-162503156D01*
X146817472Y-162559441D01*
X146805276Y-162568733D01*
X146717303Y-162603304D01*
X146609503Y-162610895D01*
X146512453Y-162589935D01*
X146500968Y-162584369D01*
X146447297Y-162571422D01*
X146430602Y-162584369D01*
X146389720Y-162610408D01*
X146372445Y-162612667D01*
X146352615Y-162586987D01*
X146338967Y-162519440D01*
X146331533Y-162424268D01*
X146331433Y-162415112D01*
X145852000Y-162415112D01*
X145827633Y-162507385D01*
X145763162Y-162574663D01*
X145671534Y-162611232D01*
X145565694Y-162611377D01*
X145477549Y-162580398D01*
X145427638Y-162562243D01*
X145406497Y-162580398D01*
X145372926Y-162608537D01*
X145348494Y-162612667D01*
X145325299Y-162605845D01*
X145312081Y-162578168D01*
X145307032Y-162518820D01*
X145308345Y-162416984D01*
X145309590Y-162379834D01*
X145313693Y-162288112D01*
X144779555Y-162288112D01*
X144778957Y-162427560D01*
X144776054Y-162520117D01*
X144769185Y-162575332D01*
X144756691Y-162602755D01*
X144736910Y-162611934D01*
X144723111Y-162612667D01*
X144694079Y-162607599D01*
X144677131Y-162584543D01*
X144669079Y-162531722D01*
X144666734Y-162437359D01*
X144666666Y-162404127D01*
X144660479Y-162307204D01*
X144378871Y-162307204D01*
X144375720Y-162338033D01*
X144334701Y-162460186D01*
X144255524Y-162549659D01*
X144148879Y-162602045D01*
X144025459Y-162612941D01*
X143895956Y-162577942D01*
X143851259Y-162554088D01*
X143792083Y-162514288D01*
X143775628Y-162486550D01*
X143794654Y-162456666D01*
X143798429Y-162452824D01*
X143645608Y-162452824D01*
X143595635Y-162540407D01*
X143589302Y-162547348D01*
X143506623Y-162598095D01*
X143402178Y-162612630D01*
X143298699Y-162589468D01*
X143261835Y-162568733D01*
X143216534Y-162540577D01*
X143200701Y-162547204D01*
X143199111Y-162568733D01*
X143175950Y-162605489D01*
X143148086Y-162612667D01*
X143124289Y-162607775D01*
X143110188Y-162586102D01*
X143104193Y-162537154D01*
X143104716Y-162450438D01*
X143108547Y-162351612D01*
X143119810Y-162195310D01*
X143139571Y-162090052D01*
X142888666Y-162090052D01*
X142888666Y-162104667D01*
X142888399Y-162285265D01*
X142887029Y-162417082D01*
X142883706Y-162507781D01*
X142877577Y-162565026D01*
X142867792Y-162596478D01*
X142853499Y-162609803D01*
X142833846Y-162612661D01*
X142832222Y-162612667D01*
X142812155Y-162610261D01*
X142797509Y-162597934D01*
X142787431Y-162568023D01*
X142781071Y-162512866D01*
X142777576Y-162424798D01*
X142776096Y-162296158D01*
X142776082Y-162288112D01*
X142578222Y-162288112D01*
X142577623Y-162427560D01*
X142574720Y-162520117D01*
X142567852Y-162575332D01*
X142555358Y-162602755D01*
X142535577Y-162611934D01*
X142521777Y-162612667D01*
X142497525Y-162609225D01*
X142481429Y-162592533D01*
X142471826Y-162553040D01*
X142467057Y-162481199D01*
X142465460Y-162367459D01*
X142465333Y-162288112D01*
X142465932Y-162148663D01*
X142468835Y-162056106D01*
X142473326Y-162020000D01*
X142352444Y-162020000D01*
X142332488Y-162067168D01*
X142296000Y-162076445D01*
X142267796Y-162081189D01*
X142250932Y-162103016D01*
X142242538Y-162153316D01*
X142239747Y-162243482D01*
X142239555Y-162300622D01*
X142237895Y-162415377D01*
X142230697Y-162487808D01*
X142214641Y-162531996D01*
X142186403Y-162562017D01*
X142176055Y-162569665D01*
X142098332Y-162603877D01*
X142025642Y-162602892D01*
X141975040Y-162569300D01*
X141962714Y-162537260D01*
X141965295Y-162492902D01*
X142001558Y-162488723D01*
X142014992Y-162491918D01*
X142067803Y-162493156D01*
X142101845Y-162459281D01*
X142120264Y-162383528D01*
X142126211Y-162259129D01*
X142126234Y-162252834D01*
X142126666Y-162076445D01*
X142042000Y-162076445D01*
X141980026Y-162067575D01*
X141958206Y-162034571D01*
X141957333Y-162020000D01*
X141970388Y-161979460D01*
X141929111Y-161979460D01*
X141918653Y-162010233D01*
X141890242Y-162081859D01*
X141848322Y-162183382D01*
X141801638Y-162293780D01*
X141674166Y-162592197D01*
X141724027Y-162694154D01*
X141779549Y-162773696D01*
X141837388Y-162805130D01*
X141887033Y-162825673D01*
X141900888Y-162849815D01*
X141880937Y-162904256D01*
X141829693Y-162922989D01*
X141760068Y-162905402D01*
X141694081Y-162859612D01*
X141655992Y-162806936D01*
X141603997Y-162709544D01*
X141542353Y-162576160D01*
X141531101Y-162549193D01*
X141247079Y-162549193D01*
X141220172Y-162596416D01*
X141174252Y-162607311D01*
X141133418Y-162573719D01*
X141124777Y-162528000D01*
X141142226Y-162472833D01*
X141181518Y-162446712D01*
X141223074Y-162457136D01*
X141240771Y-162483581D01*
X141247079Y-162549193D01*
X141531101Y-162549193D01*
X141475320Y-162415509D01*
X141466729Y-162393832D01*
X141411938Y-162253910D01*
X141365351Y-162133284D01*
X141330542Y-162041342D01*
X141311086Y-161987472D01*
X141308222Y-161977555D01*
X141332291Y-161966744D01*
X141373893Y-161963556D01*
X141408788Y-161970352D01*
X141438047Y-161997621D01*
X141468268Y-162055688D01*
X141506052Y-162154874D01*
X141518078Y-162189100D01*
X141555839Y-162289581D01*
X141589081Y-162363747D01*
X141612430Y-162400129D01*
X141617682Y-162401609D01*
X141636978Y-162370776D01*
X141669457Y-162300499D01*
X141708962Y-162204363D01*
X141719908Y-162176065D01*
X141763719Y-162067728D01*
X141797822Y-162003039D01*
X141829229Y-161971737D01*
X141864951Y-161963556D01*
X141865077Y-161963556D01*
X141914967Y-161969519D01*
X141929111Y-161979460D01*
X141970388Y-161979460D01*
X141970638Y-161978685D01*
X142020144Y-161964138D01*
X142042000Y-161963556D01*
X142101969Y-161956563D01*
X142124072Y-161923576D01*
X142126666Y-161878889D01*
X142135536Y-161816916D01*
X142168540Y-161795096D01*
X142183111Y-161794223D01*
X142224426Y-161807528D01*
X142238973Y-161857034D01*
X142239555Y-161878889D01*
X142248425Y-161940863D01*
X142281429Y-161962682D01*
X142296000Y-161963556D01*
X142343168Y-161983512D01*
X142352444Y-162020000D01*
X142473326Y-162020000D01*
X142475703Y-162000891D01*
X142488197Y-161973468D01*
X142507978Y-161964289D01*
X142521777Y-161963556D01*
X142546029Y-161966998D01*
X142562126Y-161983690D01*
X142571729Y-162023183D01*
X142576498Y-162095024D01*
X142578094Y-162208764D01*
X142578222Y-162288112D01*
X142776082Y-162288112D01*
X142775778Y-162119282D01*
X142775777Y-162104667D01*
X142776045Y-161924069D01*
X142777414Y-161792252D01*
X142779248Y-161742203D01*
X142591627Y-161742203D01*
X142575740Y-161783102D01*
X142521787Y-161818927D01*
X142470264Y-161809926D01*
X142446477Y-161777923D01*
X142450381Y-161723775D01*
X142471553Y-161691241D01*
X142508937Y-161664412D01*
X142543961Y-161680175D01*
X142561053Y-161696419D01*
X142591627Y-161742203D01*
X142779248Y-161742203D01*
X142780738Y-161701553D01*
X142786866Y-161644308D01*
X142796652Y-161612856D01*
X142810945Y-161599532D01*
X142830598Y-161596673D01*
X142832222Y-161596667D01*
X142852288Y-161599073D01*
X142866935Y-161611400D01*
X142877012Y-161641311D01*
X142883373Y-161696468D01*
X142886868Y-161784536D01*
X142888348Y-161913176D01*
X142888666Y-162090052D01*
X143139571Y-162090052D01*
X143140300Y-162086169D01*
X143174216Y-162015128D01*
X143225759Y-161973127D01*
X143293719Y-161952089D01*
X143364465Y-161950676D01*
X143450640Y-161964440D01*
X143534315Y-161988280D01*
X143597559Y-162017092D01*
X143622444Y-162045643D01*
X143601106Y-162093754D01*
X143544220Y-162106929D01*
X143464457Y-162083554D01*
X143387101Y-162055581D01*
X143325137Y-162060488D01*
X143298636Y-162070969D01*
X143237272Y-162111645D01*
X143230388Y-162149852D01*
X143276034Y-162181865D01*
X143367912Y-162203372D01*
X143500712Y-162237765D01*
X143594016Y-162295084D01*
X143643691Y-162368910D01*
X143645608Y-162452824D01*
X143798429Y-162452824D01*
X143799255Y-162451984D01*
X143836403Y-162424102D01*
X143874294Y-162431967D01*
X143908330Y-162454013D01*
X144005915Y-162494246D01*
X144106035Y-162489719D01*
X144186888Y-162443334D01*
X144229432Y-162393852D01*
X144235874Y-162361015D01*
X144201031Y-162341631D01*
X144119719Y-162332512D01*
X144003444Y-162330445D01*
X143763555Y-162330445D01*
X143763555Y-162244377D01*
X143786040Y-162118033D01*
X143849692Y-162022663D01*
X143948808Y-161966685D01*
X143952381Y-161965672D01*
X144094729Y-161950409D01*
X144215910Y-161983403D01*
X144308566Y-162058182D01*
X144365339Y-162168273D01*
X144378871Y-162307204D01*
X144660479Y-162307204D01*
X144656944Y-162251831D01*
X144626173Y-162148292D01*
X144571949Y-162088992D01*
X144491869Y-162069411D01*
X144488572Y-162069389D01*
X144430093Y-162057624D01*
X144412674Y-162016944D01*
X144412666Y-162015587D01*
X144432834Y-161960728D01*
X144488582Y-161944580D01*
X144572780Y-161968950D01*
X144580921Y-161972899D01*
X144637695Y-161994650D01*
X144665962Y-161992600D01*
X144666666Y-161989615D01*
X144690323Y-161968436D01*
X144723111Y-161963556D01*
X144747363Y-161966998D01*
X144763460Y-161983690D01*
X144773062Y-162023183D01*
X144777831Y-162095024D01*
X144779428Y-162208764D01*
X144779555Y-162288112D01*
X145313693Y-162288112D01*
X145316216Y-162231741D01*
X145325961Y-162129458D01*
X145342385Y-162062354D01*
X145369051Y-162019795D01*
X145409520Y-161991150D01*
X145445269Y-161974807D01*
X145532152Y-161953075D01*
X145624192Y-161952386D01*
X145709269Y-161968895D01*
X145775264Y-161998756D01*
X145810056Y-162038122D01*
X145801525Y-162083147D01*
X145798569Y-162086925D01*
X145768286Y-162111059D01*
X145727092Y-162106168D01*
X145677517Y-162083757D01*
X145590876Y-162059503D01*
X145509449Y-162067197D01*
X145451173Y-162102900D01*
X145434587Y-162137100D01*
X145441735Y-162165354D01*
X145483217Y-162184939D01*
X145569395Y-162200357D01*
X145584800Y-162202338D01*
X145720756Y-162233779D01*
X145807540Y-162289290D01*
X145848068Y-162371192D01*
X145852000Y-162415112D01*
X146331433Y-162415112D01*
X146330345Y-162315714D01*
X146335436Y-162208020D01*
X146346837Y-162115427D01*
X146364581Y-162052178D01*
X146371155Y-162041042D01*
X146453244Y-161976783D01*
X146565702Y-161949199D01*
X146693048Y-161962047D01*
X146694767Y-161962506D01*
X146788635Y-161995952D01*
X146829433Y-162033334D01*
X146820536Y-162078392D01*
X146810960Y-162091274D01*
X146778983Y-162116873D01*
X146739941Y-162104865D01*
X146717584Y-162090037D01*
X146626324Y-162052346D01*
X146538080Y-162060734D01*
X146489015Y-162092572D01*
X146452700Y-162137671D01*
X146456940Y-162167339D01*
X146507268Y-162187379D01*
X146592833Y-162201496D01*
X146725365Y-162227372D01*
X146810047Y-162267393D01*
X146854914Y-162327768D01*
X146868000Y-162414162D01*
X147439360Y-162414162D01*
X147494203Y-162344556D01*
X146973753Y-162328232D01*
X146989119Y-162213676D01*
X147030230Y-162088900D01*
X147109097Y-161999786D01*
X147215633Y-161952042D01*
X147339753Y-161951377D01*
X147413158Y-161973686D01*
X147520297Y-162041348D01*
X147581616Y-162138545D01*
X147600790Y-162271147D01*
X147771385Y-162271147D01*
X147771111Y-162119282D01*
X147771111Y-162104667D01*
X147771378Y-161924069D01*
X147772748Y-161792252D01*
X147776071Y-161701553D01*
X147782200Y-161644308D01*
X147791985Y-161612856D01*
X147806278Y-161599532D01*
X147825931Y-161596673D01*
X147827555Y-161596667D01*
X147856493Y-161601698D01*
X147873433Y-161624613D01*
X147881526Y-161677145D01*
X147883921Y-161771029D01*
X147884000Y-161806894D01*
X147884000Y-162017120D01*
X147985701Y-161974627D01*
X148113386Y-161947171D01*
X148230927Y-161967872D01*
X148329843Y-162028468D01*
X148401653Y-162120696D01*
X148437877Y-162236292D01*
X148617999Y-162236292D01*
X148618376Y-162148663D01*
X148621279Y-162056106D01*
X148628147Y-162000891D01*
X148640641Y-161973468D01*
X148660422Y-161964289D01*
X148674222Y-161963556D01*
X148698474Y-161966998D01*
X148714571Y-161983690D01*
X148724173Y-162023183D01*
X148728942Y-162095024D01*
X148730539Y-162208764D01*
X148730666Y-162288112D01*
X149394897Y-162288112D01*
X149390988Y-162244195D01*
X149365264Y-162148715D01*
X149322302Y-162093563D01*
X149257814Y-162071015D01*
X149227075Y-162069389D01*
X149169958Y-162056627D01*
X149154000Y-162015587D01*
X149174167Y-161960728D01*
X149229915Y-161944580D01*
X149314113Y-161968950D01*
X149322254Y-161972899D01*
X149379029Y-161994650D01*
X149407295Y-161992600D01*
X149408000Y-161989615D01*
X149431656Y-161968436D01*
X149464444Y-161963556D01*
X149488696Y-161966998D01*
X149504793Y-161983690D01*
X149514395Y-162023183D01*
X149519165Y-162095024D01*
X149520761Y-162208764D01*
X149520888Y-162288112D01*
X149718444Y-162288112D01*
X149719043Y-162148663D01*
X149721946Y-162056106D01*
X149728814Y-162000891D01*
X149741308Y-161973468D01*
X149761089Y-161964289D01*
X149774888Y-161963556D01*
X149806549Y-161969801D01*
X149823581Y-161997182D01*
X149830355Y-162058666D01*
X149831333Y-162131052D01*
X149841339Y-162293127D01*
X149872643Y-162405948D01*
X149927175Y-162473277D01*
X150006865Y-162498877D01*
X150020233Y-162499346D01*
X150090500Y-162477772D01*
X150138044Y-162410230D01*
X150164003Y-162294207D01*
X150170000Y-162168943D01*
X150171412Y-162062662D01*
X150177823Y-162000940D01*
X150192491Y-161971918D01*
X150218674Y-161963737D01*
X150226444Y-161963556D01*
X150253207Y-161967781D01*
X150269861Y-161987603D01*
X150278777Y-162033737D01*
X150282324Y-162116902D01*
X150282888Y-162218839D01*
X150461636Y-162218839D01*
X150471379Y-162145642D01*
X150530051Y-162044936D01*
X150631407Y-161979158D01*
X150681350Y-161962654D01*
X150820648Y-161949669D01*
X150941221Y-161984188D01*
X151035470Y-162058379D01*
X151095796Y-162164411D01*
X151114602Y-162294451D01*
X151301164Y-162294451D01*
X151274945Y-162228657D01*
X151231658Y-162116757D01*
X151200632Y-162032124D01*
X151186423Y-161985959D01*
X151186000Y-161982377D01*
X151209471Y-161968048D01*
X151248824Y-161968649D01*
X151284208Y-161983704D01*
X151317599Y-162024346D01*
X151355001Y-162100318D01*
X151399179Y-162212646D01*
X151486709Y-162447625D01*
X151580281Y-162205590D01*
X151626976Y-162089546D01*
X151662216Y-162017236D01*
X151692477Y-161978874D01*
X151724232Y-161964672D01*
X151740371Y-161963556D01*
X151791513Y-161967666D01*
X151806888Y-161974897D01*
X152252702Y-161974897D01*
X152269879Y-161964794D01*
X152286666Y-161963556D01*
X152332536Y-161974778D01*
X152343111Y-161990338D01*
X152365717Y-161997785D01*
X152422078Y-161983514D01*
X152443375Y-161975227D01*
X152572108Y-161946827D01*
X152689684Y-161965919D01*
X152788704Y-162023675D01*
X152861769Y-162111268D01*
X152901480Y-162219869D01*
X153061519Y-162219869D01*
X153062268Y-162207953D01*
X153075425Y-162114491D01*
X153095326Y-162054108D01*
X153116327Y-162023199D01*
X153206850Y-161962079D01*
X153316265Y-161946310D01*
X153415311Y-161973315D01*
X153471747Y-161994839D01*
X153499599Y-161992458D01*
X153500222Y-161989615D01*
X153523879Y-161968436D01*
X153556666Y-161963556D01*
X153580918Y-161966998D01*
X153597015Y-161983690D01*
X153606618Y-162023183D01*
X153611387Y-162095024D01*
X153612983Y-162208764D01*
X153613111Y-162288112D01*
X153810666Y-162288112D01*
X153810666Y-161963556D01*
X153951777Y-161963556D01*
X154488000Y-161963556D01*
X154488000Y-161895628D01*
X154488674Y-161766786D01*
X153949965Y-161766786D01*
X153931987Y-161804606D01*
X153885359Y-161819044D01*
X153837368Y-161795190D01*
X153821771Y-161766786D01*
X148728854Y-161766786D01*
X148710876Y-161804606D01*
X148664248Y-161819044D01*
X148616257Y-161795190D01*
X148594158Y-161754947D01*
X148605424Y-161696893D01*
X148652121Y-161668039D01*
X148692829Y-161672853D01*
X148724056Y-161709955D01*
X148728854Y-161766786D01*
X153821771Y-161766786D01*
X153815269Y-161754947D01*
X153826535Y-161696893D01*
X153873232Y-161668039D01*
X153913940Y-161672853D01*
X153945167Y-161709955D01*
X153949965Y-161766786D01*
X154488674Y-161766786D01*
X154488696Y-161762742D01*
X154492035Y-161676357D01*
X154499894Y-161626538D01*
X154514149Y-161603348D01*
X154536675Y-161596849D01*
X154544444Y-161596667D01*
X154564510Y-161599073D01*
X154579157Y-161611400D01*
X154589235Y-161641311D01*
X154595595Y-161696468D01*
X154599090Y-161784536D01*
X154600570Y-161913176D01*
X154600888Y-162090052D01*
X154825180Y-162090052D01*
X154825713Y-162088181D01*
X154853704Y-162042042D01*
X154855232Y-162040084D01*
X154944247Y-161968929D01*
X155058605Y-161946986D01*
X155178911Y-161969561D01*
X155263188Y-162005502D01*
X155296974Y-162044066D01*
X155286017Y-162092687D01*
X155280834Y-162101363D01*
X155255015Y-162124312D01*
X155215723Y-162111099D01*
X155190347Y-162094308D01*
X155096856Y-162053022D01*
X155013162Y-162061964D01*
X154954883Y-162111494D01*
X154932973Y-162146572D01*
X154935394Y-162168324D01*
X154971698Y-162183841D01*
X155051435Y-162200217D01*
X155081790Y-162205731D01*
X155211663Y-162238210D01*
X155293331Y-162283266D01*
X155334692Y-162347298D01*
X155344074Y-162418166D01*
X155504196Y-162418166D01*
X155504000Y-162374106D01*
X155509127Y-162216274D01*
X155526933Y-162104735D01*
X155561056Y-162030066D01*
X155615132Y-161982845D01*
X155662937Y-161962330D01*
X155787043Y-161946815D01*
X155897848Y-161985972D01*
X155934388Y-162013602D01*
X155971662Y-162035873D01*
X155983777Y-162026563D01*
X156007876Y-161998749D01*
X156067349Y-161968931D01*
X156082408Y-161963604D01*
X156165341Y-161945643D01*
X156235761Y-161959637D01*
X156265853Y-161973364D01*
X156322249Y-161994861D01*
X156350053Y-161992441D01*
X156350666Y-161989615D01*
X156374323Y-161968436D01*
X156407111Y-161963556D01*
X156431363Y-161966998D01*
X156447460Y-161983690D01*
X156457062Y-162023183D01*
X156461831Y-162095024D01*
X156463428Y-162208764D01*
X156463555Y-162288112D01*
X157140888Y-162288112D01*
X157140888Y-160571556D01*
X156621948Y-160571556D01*
X156614464Y-160581478D01*
X156592625Y-160589474D01*
X156551531Y-160595749D01*
X156486282Y-160600511D01*
X156391974Y-160603967D01*
X156263708Y-160606322D01*
X156096583Y-160607785D01*
X155885696Y-160608560D01*
X155626147Y-160608856D01*
X155448909Y-160608889D01*
X155196420Y-160608406D01*
X154962730Y-160607023D01*
X154753583Y-160604845D01*
X154574724Y-160601975D01*
X154431899Y-160598516D01*
X154330852Y-160594570D01*
X154277328Y-160590242D01*
X154270235Y-160587723D01*
X154304194Y-160526310D01*
X154360326Y-160427083D01*
X154434949Y-160296388D01*
X154524384Y-160140570D01*
X154624949Y-159965977D01*
X154732966Y-159778954D01*
X154844753Y-159585847D01*
X154956630Y-159393003D01*
X155064917Y-159206766D01*
X155165934Y-159033483D01*
X155256000Y-158879501D01*
X155331436Y-158751165D01*
X155388560Y-158654822D01*
X155423693Y-158596816D01*
X155433093Y-158582564D01*
X155447155Y-158582499D01*
X155471991Y-158605407D01*
X155509868Y-158654852D01*
X155563049Y-158734400D01*
X155633799Y-158847614D01*
X155724382Y-158998059D01*
X155837062Y-159189299D01*
X155974105Y-159424899D01*
X156033738Y-159528008D01*
X156158260Y-159743984D01*
X156274268Y-159945964D01*
X156378632Y-160128444D01*
X156468223Y-160285919D01*
X156539914Y-160412884D01*
X156590575Y-160503833D01*
X156617078Y-160553262D01*
X156619980Y-160559500D01*
X156621948Y-160571556D01*
X157140888Y-160571556D01*
X157140888Y-158575839D01*
X155386407Y-158575839D01*
X155369218Y-158609593D01*
X155327686Y-158684678D01*
X155265411Y-158794893D01*
X155185997Y-158934039D01*
X155093046Y-159095913D01*
X154990160Y-159274316D01*
X154880941Y-159463046D01*
X154768993Y-159655902D01*
X154657918Y-159846685D01*
X154551317Y-160029192D01*
X154452793Y-160197224D01*
X154365949Y-160344579D01*
X154294387Y-160465057D01*
X154241709Y-160552457D01*
X154211518Y-160600578D01*
X154205777Y-160608057D01*
X154189127Y-160584410D01*
X154184512Y-160576934D01*
X154083453Y-160576934D01*
X154073832Y-160589040D01*
X154044785Y-160597437D01*
X153989551Y-160602610D01*
X153901371Y-160605044D01*
X153773484Y-160605224D01*
X153599128Y-160603636D01*
X153498273Y-160602404D01*
X152897180Y-160594778D01*
X152627840Y-160128047D01*
X151351836Y-160128047D01*
X151345660Y-160199211D01*
X151305571Y-160355248D01*
X151230998Y-160470873D01*
X151116961Y-160553799D01*
X151116364Y-160554103D01*
X150994142Y-160593501D01*
X150854565Y-160603977D01*
X150719237Y-160586345D01*
X150705402Y-160580667D01*
X150141777Y-160580667D01*
X149917021Y-160580667D01*
X149909455Y-159911868D01*
X149901888Y-159243069D01*
X149762328Y-159728423D01*
X149622768Y-160213778D01*
X149530629Y-160213778D01*
X149499159Y-160213640D01*
X149473829Y-160208928D01*
X149451776Y-160193190D01*
X149430140Y-160159978D01*
X149406058Y-160102842D01*
X149376669Y-160015333D01*
X149339111Y-159891001D01*
X149290524Y-159723397D01*
X149249103Y-159579258D01*
X149168111Y-159297516D01*
X149154000Y-159932036D01*
X149139888Y-160566556D01*
X148914111Y-160566556D01*
X148914111Y-160544054D01*
X148702444Y-160544054D01*
X148675800Y-160570569D01*
X148597823Y-160580604D01*
X148588950Y-160580667D01*
X148509269Y-160573756D01*
X148465995Y-160547285D01*
X148449089Y-160517167D01*
X148429109Y-160454386D01*
X148405811Y-160360566D01*
X148391249Y-160291389D01*
X148359776Y-160129112D01*
X147947788Y-160129112D01*
X147914285Y-160305500D01*
X147889995Y-160430706D01*
X147870348Y-160510678D01*
X147849024Y-160555548D01*
X147819701Y-160575453D01*
X147776057Y-160580527D01*
X147742652Y-160580667D01*
X147668651Y-160574667D01*
X147622217Y-160559791D01*
X147617595Y-160555205D01*
X147620385Y-160524061D01*
X147633671Y-160445085D01*
X147655946Y-160325598D01*
X147685705Y-160172923D01*
X147721442Y-159994382D01*
X147722443Y-159989473D01*
X147399434Y-159989473D01*
X147399124Y-160176203D01*
X147398035Y-160331981D01*
X147396209Y-160450003D01*
X147393689Y-160523467D01*
X147391380Y-160545202D01*
X147356021Y-160568538D01*
X147283757Y-160580198D01*
X147263996Y-160580667D01*
X147150222Y-160580667D01*
X147150222Y-159734000D01*
X146956082Y-159734000D01*
X146881717Y-159980945D01*
X146840634Y-160117415D01*
X146798460Y-160257587D01*
X146762971Y-160375607D01*
X146756475Y-160397223D01*
X146705598Y-160566556D01*
X146575132Y-160575158D01*
X146493635Y-160576808D01*
X146454554Y-160565038D01*
X146444666Y-160536687D01*
X146452879Y-160494271D01*
X146475496Y-160408846D01*
X146509488Y-160291091D01*
X146551826Y-160151680D01*
X146574023Y-160080837D01*
X146703379Y-159672060D01*
X146641524Y-159628735D01*
X146562051Y-159541254D01*
X146507438Y-159416311D01*
X146478032Y-159267290D01*
X146474183Y-159107575D01*
X146496239Y-158950549D01*
X146544548Y-158809596D01*
X146617346Y-158700327D01*
X146715770Y-158634801D01*
X146863834Y-158595066D01*
X146921322Y-158591000D01*
X146317666Y-158591000D01*
X146317666Y-158816778D01*
X146141277Y-158825180D01*
X145964888Y-158833583D01*
X145964888Y-159688310D01*
X145964247Y-159902632D01*
X145962432Y-160098598D01*
X145959605Y-160269127D01*
X145955931Y-160407135D01*
X145951571Y-160505539D01*
X145946690Y-160557256D01*
X145944746Y-160563180D01*
X145906117Y-160574023D01*
X145834694Y-160576237D01*
X145810690Y-160574939D01*
X145696777Y-160566556D01*
X145691813Y-159989947D01*
X144605307Y-159989947D01*
X144604848Y-160177103D01*
X144603565Y-160333396D01*
X144601507Y-160451995D01*
X144598725Y-160526068D01*
X144596215Y-160548239D01*
X144577380Y-160565322D01*
X144531103Y-160575546D01*
X144448830Y-160579635D01*
X144322008Y-160578317D01*
X144261959Y-160576599D01*
X144121034Y-160571213D01*
X144023362Y-160563804D01*
X143955755Y-160551604D01*
X143905025Y-160531841D01*
X143857986Y-160501746D01*
X143839382Y-160487823D01*
X143781046Y-160436059D01*
X143735549Y-160375499D01*
X143701549Y-160299050D01*
X143677708Y-160199618D01*
X143662685Y-160070109D01*
X143659047Y-159989728D01*
X143363588Y-159989728D01*
X143363198Y-160176688D01*
X143362004Y-160332743D01*
X143360053Y-160451075D01*
X143357392Y-160524867D01*
X143354975Y-160546838D01*
X143315092Y-160572261D01*
X143223804Y-160575476D01*
X143220536Y-160575247D01*
X143100333Y-160566556D01*
X143100333Y-158629425D01*
X142888666Y-158629425D01*
X142879781Y-158672424D01*
X142855012Y-158759573D01*
X142817188Y-158881770D01*
X142769137Y-159029913D01*
X142713690Y-159194900D01*
X142705222Y-159219629D01*
X142521777Y-159754051D01*
X142521777Y-160148544D01*
X142520499Y-160292411D01*
X142516989Y-160415564D01*
X142511738Y-160507245D01*
X142505235Y-160556696D01*
X142502963Y-160561852D01*
X142464851Y-160574039D01*
X142394346Y-160580401D01*
X142375963Y-160580667D01*
X142267777Y-160580667D01*
X142267777Y-160340449D01*
X141897308Y-160340449D01*
X141879651Y-160407989D01*
X141840217Y-160479191D01*
X141784718Y-160541647D01*
X141718867Y-160582950D01*
X141695314Y-160589932D01*
X141557386Y-160594286D01*
X141432755Y-160552894D01*
X141357611Y-160494323D01*
X141306091Y-160424810D01*
X141283644Y-160347570D01*
X141280000Y-160273583D01*
X141298284Y-160142091D01*
X141357099Y-160043327D01*
X141462394Y-159969163D01*
X141521523Y-159943543D01*
X141630988Y-159887207D01*
X141685099Y-159823147D01*
X141683548Y-159751771D01*
X141676427Y-159736460D01*
X141637465Y-159686729D01*
X141611934Y-159669718D01*
X141553183Y-159671638D01*
X141499701Y-159704636D01*
X141477555Y-159750893D01*
X141460750Y-159780714D01*
X141403407Y-159786571D01*
X141385833Y-159785177D01*
X141322936Y-159772832D01*
X141301126Y-159743356D01*
X141301900Y-159706816D01*
X141337427Y-159610798D01*
X141410698Y-159540892D01*
X141508114Y-159499763D01*
X141616076Y-159490075D01*
X141720984Y-159514495D01*
X141809239Y-159575684D01*
X141831457Y-159603058D01*
X141862065Y-159683902D01*
X141871411Y-159791284D01*
X141859831Y-159899593D01*
X141827660Y-159983219D01*
X141826438Y-159984996D01*
X141774783Y-160033444D01*
X141692151Y-160086514D01*
X141632710Y-160116227D01*
X141529089Y-160172820D01*
X141476197Y-160232549D01*
X141468572Y-160303891D01*
X141481559Y-160350781D01*
X141523197Y-160398841D01*
X141585451Y-160408209D01*
X141649909Y-160380968D01*
X141694688Y-160326667D01*
X141729511Y-160276066D01*
X141758842Y-160258934D01*
X141809993Y-160263308D01*
X141844444Y-160265989D01*
X141887477Y-160288980D01*
X141897308Y-160340449D01*
X142267777Y-160340449D01*
X142267777Y-159803044D01*
X142070386Y-159212380D01*
X142012617Y-159035282D01*
X141964140Y-158878318D01*
X141927085Y-158749062D01*
X141903585Y-158655088D01*
X141895769Y-158603969D01*
X141897334Y-158597378D01*
X141939238Y-158583654D01*
X142011448Y-158580951D01*
X142027522Y-158582019D01*
X142133370Y-158591000D01*
X142242850Y-158943778D01*
X142285265Y-159079421D01*
X142322861Y-159197751D01*
X142351895Y-159287118D01*
X142368624Y-159335876D01*
X142369809Y-159338889D01*
X142384395Y-159329642D01*
X142412519Y-159273180D01*
X142451326Y-159176300D01*
X142497961Y-159045798D01*
X142518033Y-158986112D01*
X142648777Y-158591000D01*
X142768722Y-158582322D01*
X142844731Y-158580400D01*
X142879779Y-158593177D01*
X142888644Y-158626457D01*
X142888666Y-158629425D01*
X143100333Y-158629425D01*
X143100333Y-158591000D01*
X143354333Y-158591000D01*
X143361772Y-159550369D01*
X143363128Y-159778682D01*
X143363588Y-159989728D01*
X143659047Y-159989728D01*
X143655141Y-159903430D01*
X143653735Y-159692486D01*
X143655680Y-159515143D01*
X143659317Y-159314189D01*
X143663692Y-159161063D01*
X143669614Y-159047149D01*
X143677896Y-158963829D01*
X143689347Y-158902488D01*
X143704779Y-158854508D01*
X143721222Y-158818599D01*
X143772905Y-158729237D01*
X143829302Y-158666501D01*
X143901271Y-158625858D01*
X143999675Y-158602776D01*
X144135373Y-158592720D01*
X144266518Y-158591000D01*
X144596111Y-158591000D01*
X144603550Y-159550369D01*
X144604891Y-159778758D01*
X144605307Y-159989947D01*
X145691813Y-159989947D01*
X145689316Y-159700059D01*
X145681854Y-158833562D01*
X145329888Y-158816778D01*
X145329888Y-158591000D01*
X146317666Y-158591000D01*
X146921322Y-158591000D01*
X147061807Y-158581064D01*
X147150222Y-158582479D01*
X147390111Y-158591000D01*
X147397550Y-159550369D01*
X147398924Y-159778594D01*
X147399434Y-159989473D01*
X147722443Y-159989473D01*
X147761652Y-159797296D01*
X147804829Y-159588988D01*
X147849467Y-159376779D01*
X147894061Y-159167991D01*
X147937105Y-158969946D01*
X147977094Y-158789966D01*
X148011348Y-158640389D01*
X148029222Y-158600268D01*
X148069049Y-158581617D01*
X148147546Y-158576895D01*
X148152111Y-158576889D01*
X148232648Y-158581165D01*
X148273765Y-158599018D01*
X148292164Y-158637991D01*
X148292731Y-158640389D01*
X148317186Y-158747932D01*
X148348877Y-158890138D01*
X148386149Y-159059318D01*
X148427347Y-159247784D01*
X148470818Y-159447848D01*
X148514906Y-159651822D01*
X148557957Y-159852017D01*
X148598316Y-160040745D01*
X148634328Y-160210319D01*
X148664338Y-160353049D01*
X148686693Y-160461249D01*
X148699737Y-160527228D01*
X148702444Y-160544054D01*
X148914111Y-160544054D01*
X148914111Y-158591000D01*
X149034802Y-158582286D01*
X149078435Y-158579297D01*
X149113315Y-158581526D01*
X149142537Y-158595140D01*
X149169193Y-158626307D01*
X149196377Y-158681194D01*
X149227181Y-158765968D01*
X149264701Y-158886799D01*
X149312027Y-159049852D01*
X149368191Y-159247031D01*
X149413436Y-159402942D01*
X149454301Y-159538171D01*
X149488051Y-159644109D01*
X149511951Y-159712146D01*
X149522861Y-159733864D01*
X149535313Y-159708130D01*
X149561003Y-159636107D01*
X149597355Y-159525690D01*
X149641793Y-159384774D01*
X149691740Y-159221252D01*
X149709343Y-159162500D01*
X149879740Y-158591000D01*
X150010759Y-158582399D01*
X150141777Y-158573797D01*
X150141777Y-160580667D01*
X150705402Y-160580667D01*
X150609764Y-160541417D01*
X150600009Y-160534684D01*
X150511779Y-160446665D01*
X150453236Y-160329252D01*
X150421433Y-160174293D01*
X150413267Y-160017857D01*
X150418264Y-159848659D01*
X150440780Y-159722243D01*
X150488520Y-159625810D01*
X150569186Y-159546558D01*
X150690482Y-159471686D01*
X150764669Y-159433902D01*
X150899504Y-159362523D01*
X150989223Y-159298951D01*
X151042315Y-159233320D01*
X151067270Y-159155764D01*
X151072695Y-159075978D01*
X151056079Y-158942186D01*
X151005184Y-158852897D01*
X150920246Y-158808428D01*
X150868500Y-158803099D01*
X150777973Y-158827993D01*
X150709678Y-158893541D01*
X150678544Y-158984425D01*
X150678000Y-158998557D01*
X150670870Y-159066137D01*
X150641210Y-159097705D01*
X150576618Y-159100912D01*
X150523758Y-159093692D01*
X150417144Y-159076391D01*
X150434141Y-158932874D01*
X150474931Y-158776375D01*
X150554568Y-158660557D01*
X150671659Y-158586521D01*
X150824810Y-158555369D01*
X150911212Y-158556002D01*
X151066433Y-158582749D01*
X151182469Y-158642915D01*
X151262017Y-158740194D01*
X151307774Y-158878284D01*
X151322437Y-159060878D01*
X151321420Y-159118145D01*
X151310570Y-159270756D01*
X151284176Y-159382257D01*
X151233135Y-159466529D01*
X151148344Y-159537453D01*
X151020699Y-159608908D01*
X150989391Y-159624403D01*
X150854560Y-159694487D01*
X150764393Y-159756281D01*
X150710779Y-159821522D01*
X150685609Y-159901948D01*
X150680774Y-160009294D01*
X150682989Y-160067863D01*
X150696533Y-160201346D01*
X150724995Y-160287752D01*
X150774341Y-160335731D01*
X150850540Y-160353938D01*
X150880949Y-160354889D01*
X150974548Y-160328977D01*
X151045814Y-160256144D01*
X151087912Y-160143745D01*
X151090432Y-160129509D01*
X151106179Y-160056875D01*
X151132025Y-160024573D01*
X151182940Y-160016701D01*
X151196662Y-160016655D01*
X151289188Y-160025907D01*
X151338050Y-160059529D01*
X151351836Y-160128047D01*
X152627840Y-160128047D01*
X152400443Y-159734000D01*
X152280196Y-159525588D01*
X152165018Y-159325883D01*
X152058935Y-159141874D01*
X151965975Y-158980548D01*
X151890165Y-158848893D01*
X151835531Y-158753899D01*
X151810892Y-158710945D01*
X151718079Y-158548667D01*
X152929898Y-158548667D01*
X153495676Y-159529952D01*
X153619946Y-159745886D01*
X153735713Y-159947817D01*
X153839851Y-160130233D01*
X153929233Y-160287623D01*
X154000731Y-160414475D01*
X154051220Y-160505277D01*
X154077572Y-160554519D01*
X154080410Y-160560633D01*
X154083453Y-160576934D01*
X154184512Y-160576934D01*
X154147446Y-160516902D01*
X154083753Y-160410650D01*
X154001068Y-160270774D01*
X153902410Y-160102394D01*
X153790798Y-159910629D01*
X153669253Y-159700598D01*
X153613111Y-159603208D01*
X153488022Y-159385759D01*
X153371775Y-159183292D01*
X153267383Y-159001083D01*
X153177856Y-158844407D01*
X153106208Y-158718539D01*
X153055450Y-158628752D01*
X153028594Y-158580323D01*
X153025148Y-158573534D01*
X153050342Y-158568028D01*
X153126771Y-158562994D01*
X153249225Y-158558544D01*
X153412495Y-158554786D01*
X153611372Y-158551830D01*
X153840646Y-158549787D01*
X154095110Y-158548765D01*
X154205777Y-158548667D01*
X154513690Y-158549299D01*
X154779108Y-158551157D01*
X154999650Y-158554187D01*
X155172936Y-158558334D01*
X155296584Y-158563544D01*
X155368214Y-158569761D01*
X155386407Y-158575839D01*
X157140888Y-158575839D01*
X157140888Y-158097112D01*
X140630888Y-158097112D01*
X140630888Y-163402889D01*
X140630888Y-163402889D01*
G37*
X140630888Y-163402889D02*
X157140888Y-163402889D01*
X157140888Y-162288112D01*
X156463555Y-162288112D01*
X156462957Y-162427560D01*
X156460054Y-162520117D01*
X156453185Y-162575332D01*
X156440691Y-162602755D01*
X156420910Y-162611934D01*
X156407111Y-162612667D01*
X156375651Y-162606521D01*
X156358616Y-162579495D01*
X156351734Y-162518712D01*
X156350666Y-162442427D01*
X156339168Y-162294927D01*
X156307471Y-162177754D01*
X156259773Y-162096649D01*
X156200272Y-162057352D01*
X156133166Y-162065600D01*
X156094644Y-162092386D01*
X156066934Y-162126618D01*
X156050355Y-162176565D01*
X156042315Y-162255791D01*
X156040222Y-162377152D01*
X156039134Y-162492520D01*
X156034093Y-162562590D01*
X156022429Y-162598495D01*
X156001476Y-162611367D01*
X155983777Y-162612667D01*
X155954708Y-162607583D01*
X155937757Y-162584470D01*
X155929721Y-162531531D01*
X155927397Y-162436974D01*
X155927333Y-162404806D01*
X155923925Y-162285285D01*
X155911364Y-162205001D01*
X155886141Y-162147031D01*
X155868840Y-162122584D01*
X155798328Y-162057121D01*
X155735227Y-162044637D01*
X155682608Y-162081833D01*
X155643544Y-162165412D01*
X155621106Y-162292074D01*
X155616888Y-162393169D01*
X155615645Y-162503777D01*
X155609942Y-162569463D01*
X155596822Y-162601731D01*
X155573327Y-162612085D01*
X155560444Y-162612667D01*
X155532938Y-162608181D01*
X155516165Y-162587345D01*
X155507507Y-162539094D01*
X155504347Y-162452362D01*
X155504196Y-162418166D01*
X155344074Y-162418166D01*
X155319341Y-162506515D01*
X155254290Y-162572565D01*
X155162640Y-162610318D01*
X155058113Y-162613778D01*
X154965922Y-162583452D01*
X154920992Y-162568652D01*
X154911333Y-162583452D01*
X154887705Y-162607185D01*
X154854888Y-162612667D01*
X154827906Y-162608366D01*
X154811215Y-162588250D01*
X154802373Y-162541499D01*
X154798939Y-162457292D01*
X154798444Y-162362473D01*
X154800626Y-162233958D01*
X154808868Y-162147340D01*
X154825180Y-162090052D01*
X154600888Y-162090052D01*
X154600888Y-162104667D01*
X154600621Y-162285265D01*
X154599252Y-162417082D01*
X154595928Y-162507781D01*
X154589799Y-162565026D01*
X154580014Y-162596478D01*
X154565721Y-162609803D01*
X154546068Y-162612661D01*
X154544444Y-162612667D01*
X154511142Y-162605556D01*
X154494201Y-162575119D01*
X154488384Y-162507701D01*
X154488000Y-162465464D01*
X154488000Y-162318262D01*
X154338945Y-162465464D01*
X154240131Y-162554349D01*
X154164132Y-162601454D01*
X154113168Y-162612667D01*
X154057240Y-162604243D01*
X154036444Y-162586109D01*
X154056281Y-162556216D01*
X154108932Y-162500553D01*
X154184106Y-162429793D01*
X154205876Y-162410411D01*
X154375308Y-162261270D01*
X154212931Y-162113709D01*
X154132668Y-162039870D01*
X154090119Y-161995883D01*
X154080984Y-161973908D01*
X154100965Y-161966104D01*
X154131305Y-161964852D01*
X154215727Y-161987163D01*
X154323419Y-162057437D01*
X154350027Y-162079073D01*
X154488000Y-162194590D01*
X154488000Y-161963556D01*
X153951777Y-161963556D01*
X153951777Y-162612667D01*
X153810666Y-162612667D01*
X153810666Y-162288112D01*
X153613111Y-162288112D01*
X153612512Y-162427560D01*
X153609609Y-162520117D01*
X153602741Y-162575332D01*
X153590247Y-162602755D01*
X153570466Y-162611934D01*
X153556666Y-162612667D01*
X153527597Y-162607583D01*
X153510646Y-162584470D01*
X153502610Y-162531531D01*
X153500286Y-162436974D01*
X153500222Y-162404806D01*
X153496814Y-162285285D01*
X153484253Y-162205001D01*
X153459030Y-162147031D01*
X153441729Y-162122584D01*
X153373331Y-162061169D01*
X153305168Y-162055180D01*
X153241389Y-162094930D01*
X153214862Y-162129417D01*
X153199026Y-162182504D01*
X153191476Y-162267333D01*
X153189777Y-162377152D01*
X153189178Y-162492020D01*
X153185018Y-162561725D01*
X153173758Y-162597547D01*
X153151856Y-162610767D01*
X153115856Y-162612667D01*
X153041934Y-162612667D01*
X153053590Y-162346155D01*
X153061519Y-162219869D01*
X152901480Y-162219869D01*
X152900435Y-162340651D01*
X152852292Y-162463066D01*
X152769772Y-162547908D01*
X152657581Y-162593739D01*
X152530401Y-162596463D01*
X152451177Y-162574991D01*
X152384679Y-162553503D01*
X152346605Y-162550178D01*
X152343111Y-162554282D01*
X152361567Y-162635329D01*
X152406791Y-162717051D01*
X152463561Y-162773191D01*
X152472843Y-162778110D01*
X152561911Y-162806387D01*
X152642765Y-162797584D01*
X152734934Y-162751796D01*
X152808092Y-162715874D01*
X152852611Y-162717672D01*
X152861300Y-162724456D01*
X152876268Y-162771239D01*
X152844511Y-162823236D01*
X152773694Y-162870588D01*
X152735515Y-162886241D01*
X152610161Y-162917422D01*
X152500049Y-162911095D01*
X152411744Y-162881794D01*
X152343726Y-162843170D01*
X152294320Y-162787093D01*
X152260916Y-162705246D01*
X152240904Y-162589307D01*
X152231675Y-162430958D01*
X152230222Y-162303129D01*
X152230773Y-162159945D01*
X152233461Y-162063861D01*
X152239840Y-162005536D01*
X152251461Y-161975627D01*
X152252702Y-161974897D01*
X151806888Y-161974897D01*
X151796453Y-162003757D01*
X151768057Y-162073850D01*
X151726072Y-162174569D01*
X151676234Y-162292105D01*
X151545579Y-162597971D01*
X151598623Y-162697041D01*
X151654359Y-162771410D01*
X151714865Y-162805086D01*
X151715166Y-162805130D01*
X151767748Y-162831168D01*
X151776524Y-162876955D01*
X151757696Y-162906453D01*
X151711602Y-162918639D01*
X151642457Y-162906671D01*
X151574476Y-162877248D01*
X151537025Y-162845403D01*
X151515843Y-162805123D01*
X151479588Y-162724904D01*
X151432815Y-162615947D01*
X151380080Y-162489453D01*
X151325938Y-162356622D01*
X151301164Y-162294451D01*
X151114602Y-162294451D01*
X151099506Y-162393675D01*
X151045671Y-162493907D01*
X150954036Y-162567669D01*
X150839261Y-162609315D01*
X150716007Y-162613200D01*
X150612644Y-162581142D01*
X150519566Y-162510641D01*
X150467943Y-162411158D01*
X150452849Y-162284862D01*
X150461636Y-162218839D01*
X150282888Y-162218839D01*
X150281571Y-162342738D01*
X150275604Y-162424368D01*
X150261968Y-162477880D01*
X150237641Y-162517424D01*
X150213616Y-162543394D01*
X150136751Y-162591180D01*
X150040986Y-162613240D01*
X149949003Y-162607191D01*
X149889894Y-162577389D01*
X149856402Y-162556264D01*
X149839564Y-162577389D01*
X149804122Y-162606928D01*
X149772537Y-162612667D01*
X149749264Y-162608691D01*
X149733814Y-162590421D01*
X149724599Y-162548348D01*
X149720036Y-162472962D01*
X149718540Y-162354752D01*
X149718444Y-162288112D01*
X149520888Y-162288112D01*
X149520207Y-162427807D01*
X149517121Y-162520562D01*
X149510066Y-162575871D01*
X149497477Y-162603233D01*
X149477790Y-162612142D01*
X149467432Y-162612667D01*
X149440320Y-162606435D01*
X149423063Y-162580297D01*
X149412503Y-162523088D01*
X149405479Y-162423645D01*
X149403761Y-162387726D01*
X149394897Y-162288112D01*
X148730666Y-162288112D01*
X148730068Y-162427560D01*
X148727165Y-162520117D01*
X148720296Y-162575332D01*
X148707802Y-162602755D01*
X148688021Y-162611934D01*
X148674222Y-162612667D01*
X148649970Y-162609225D01*
X148633873Y-162592533D01*
X148624270Y-162553040D01*
X148619501Y-162481199D01*
X148617905Y-162367459D01*
X148617777Y-162288112D01*
X148617999Y-162236292D01*
X148437877Y-162236292D01*
X148430034Y-162366994D01*
X148420975Y-162398720D01*
X148378184Y-162483471D01*
X148319388Y-162552699D01*
X148315595Y-162555781D01*
X148223222Y-162598711D01*
X148109452Y-162612025D01*
X148000261Y-162594809D01*
X147946724Y-162568733D01*
X147901423Y-162540577D01*
X147885589Y-162547204D01*
X147884000Y-162568733D01*
X147860405Y-162604964D01*
X147827555Y-162612667D01*
X147807489Y-162610261D01*
X147792842Y-162597934D01*
X147782765Y-162568023D01*
X147776404Y-162512866D01*
X147772909Y-162424798D01*
X147771429Y-162296158D01*
X147771385Y-162271147D01*
X147600790Y-162271147D01*
X147600777Y-162273224D01*
X147580350Y-162418741D01*
X147521263Y-162523193D01*
X147422903Y-162587212D01*
X147284657Y-162611429D01*
X147271740Y-162611667D01*
X147158681Y-162595578D01*
X147076718Y-162546734D01*
X147029366Y-162493219D01*
X147018709Y-162451409D01*
X147020365Y-162447956D01*
X147066002Y-162417118D01*
X147123049Y-162432510D01*
X147150222Y-162457445D01*
X147215203Y-162496249D01*
X147300014Y-162498171D01*
X147384110Y-162465773D01*
X147433053Y-162422167D01*
X147439360Y-162414162D01*
X146868000Y-162414162D01*
X146856730Y-162503156D01*
X146817472Y-162559441D01*
X146805276Y-162568733D01*
X146717303Y-162603304D01*
X146609503Y-162610895D01*
X146512453Y-162589935D01*
X146500968Y-162584369D01*
X146447297Y-162571422D01*
X146430602Y-162584369D01*
X146389720Y-162610408D01*
X146372445Y-162612667D01*
X146352615Y-162586987D01*
X146338967Y-162519440D01*
X146331533Y-162424268D01*
X146331433Y-162415112D01*
X145852000Y-162415112D01*
X145827633Y-162507385D01*
X145763162Y-162574663D01*
X145671534Y-162611232D01*
X145565694Y-162611377D01*
X145477549Y-162580398D01*
X145427638Y-162562243D01*
X145406497Y-162580398D01*
X145372926Y-162608537D01*
X145348494Y-162612667D01*
X145325299Y-162605845D01*
X145312081Y-162578168D01*
X145307032Y-162518820D01*
X145308345Y-162416984D01*
X145309590Y-162379834D01*
X145313693Y-162288112D01*
X144779555Y-162288112D01*
X144778957Y-162427560D01*
X144776054Y-162520117D01*
X144769185Y-162575332D01*
X144756691Y-162602755D01*
X144736910Y-162611934D01*
X144723111Y-162612667D01*
X144694079Y-162607599D01*
X144677131Y-162584543D01*
X144669079Y-162531722D01*
X144666734Y-162437359D01*
X144666666Y-162404127D01*
X144660479Y-162307204D01*
X144378871Y-162307204D01*
X144375720Y-162338033D01*
X144334701Y-162460186D01*
X144255524Y-162549659D01*
X144148879Y-162602045D01*
X144025459Y-162612941D01*
X143895956Y-162577942D01*
X143851259Y-162554088D01*
X143792083Y-162514288D01*
X143775628Y-162486550D01*
X143794654Y-162456666D01*
X143798429Y-162452824D01*
X143645608Y-162452824D01*
X143595635Y-162540407D01*
X143589302Y-162547348D01*
X143506623Y-162598095D01*
X143402178Y-162612630D01*
X143298699Y-162589468D01*
X143261835Y-162568733D01*
X143216534Y-162540577D01*
X143200701Y-162547204D01*
X143199111Y-162568733D01*
X143175950Y-162605489D01*
X143148086Y-162612667D01*
X143124289Y-162607775D01*
X143110188Y-162586102D01*
X143104193Y-162537154D01*
X143104716Y-162450438D01*
X143108547Y-162351612D01*
X143119810Y-162195310D01*
X143139571Y-162090052D01*
X142888666Y-162090052D01*
X142888666Y-162104667D01*
X142888399Y-162285265D01*
X142887029Y-162417082D01*
X142883706Y-162507781D01*
X142877577Y-162565026D01*
X142867792Y-162596478D01*
X142853499Y-162609803D01*
X142833846Y-162612661D01*
X142832222Y-162612667D01*
X142812155Y-162610261D01*
X142797509Y-162597934D01*
X142787431Y-162568023D01*
X142781071Y-162512866D01*
X142777576Y-162424798D01*
X142776096Y-162296158D01*
X142776082Y-162288112D01*
X142578222Y-162288112D01*
X142577623Y-162427560D01*
X142574720Y-162520117D01*
X142567852Y-162575332D01*
X142555358Y-162602755D01*
X142535577Y-162611934D01*
X142521777Y-162612667D01*
X142497525Y-162609225D01*
X142481429Y-162592533D01*
X142471826Y-162553040D01*
X142467057Y-162481199D01*
X142465460Y-162367459D01*
X142465333Y-162288112D01*
X142465932Y-162148663D01*
X142468835Y-162056106D01*
X142473326Y-162020000D01*
X142352444Y-162020000D01*
X142332488Y-162067168D01*
X142296000Y-162076445D01*
X142267796Y-162081189D01*
X142250932Y-162103016D01*
X142242538Y-162153316D01*
X142239747Y-162243482D01*
X142239555Y-162300622D01*
X142237895Y-162415377D01*
X142230697Y-162487808D01*
X142214641Y-162531996D01*
X142186403Y-162562017D01*
X142176055Y-162569665D01*
X142098332Y-162603877D01*
X142025642Y-162602892D01*
X141975040Y-162569300D01*
X141962714Y-162537260D01*
X141965295Y-162492902D01*
X142001558Y-162488723D01*
X142014992Y-162491918D01*
X142067803Y-162493156D01*
X142101845Y-162459281D01*
X142120264Y-162383528D01*
X142126211Y-162259129D01*
X142126234Y-162252834D01*
X142126666Y-162076445D01*
X142042000Y-162076445D01*
X141980026Y-162067575D01*
X141958206Y-162034571D01*
X141957333Y-162020000D01*
X141970388Y-161979460D01*
X141929111Y-161979460D01*
X141918653Y-162010233D01*
X141890242Y-162081859D01*
X141848322Y-162183382D01*
X141801638Y-162293780D01*
X141674166Y-162592197D01*
X141724027Y-162694154D01*
X141779549Y-162773696D01*
X141837388Y-162805130D01*
X141887033Y-162825673D01*
X141900888Y-162849815D01*
X141880937Y-162904256D01*
X141829693Y-162922989D01*
X141760068Y-162905402D01*
X141694081Y-162859612D01*
X141655992Y-162806936D01*
X141603997Y-162709544D01*
X141542353Y-162576160D01*
X141531101Y-162549193D01*
X141247079Y-162549193D01*
X141220172Y-162596416D01*
X141174252Y-162607311D01*
X141133418Y-162573719D01*
X141124777Y-162528000D01*
X141142226Y-162472833D01*
X141181518Y-162446712D01*
X141223074Y-162457136D01*
X141240771Y-162483581D01*
X141247079Y-162549193D01*
X141531101Y-162549193D01*
X141475320Y-162415509D01*
X141466729Y-162393832D01*
X141411938Y-162253910D01*
X141365351Y-162133284D01*
X141330542Y-162041342D01*
X141311086Y-161987472D01*
X141308222Y-161977555D01*
X141332291Y-161966744D01*
X141373893Y-161963556D01*
X141408788Y-161970352D01*
X141438047Y-161997621D01*
X141468268Y-162055688D01*
X141506052Y-162154874D01*
X141518078Y-162189100D01*
X141555839Y-162289581D01*
X141589081Y-162363747D01*
X141612430Y-162400129D01*
X141617682Y-162401609D01*
X141636978Y-162370776D01*
X141669457Y-162300499D01*
X141708962Y-162204363D01*
X141719908Y-162176065D01*
X141763719Y-162067728D01*
X141797822Y-162003039D01*
X141829229Y-161971737D01*
X141864951Y-161963556D01*
X141865077Y-161963556D01*
X141914967Y-161969519D01*
X141929111Y-161979460D01*
X141970388Y-161979460D01*
X141970638Y-161978685D01*
X142020144Y-161964138D01*
X142042000Y-161963556D01*
X142101969Y-161956563D01*
X142124072Y-161923576D01*
X142126666Y-161878889D01*
X142135536Y-161816916D01*
X142168540Y-161795096D01*
X142183111Y-161794223D01*
X142224426Y-161807528D01*
X142238973Y-161857034D01*
X142239555Y-161878889D01*
X142248425Y-161940863D01*
X142281429Y-161962682D01*
X142296000Y-161963556D01*
X142343168Y-161983512D01*
X142352444Y-162020000D01*
X142473326Y-162020000D01*
X142475703Y-162000891D01*
X142488197Y-161973468D01*
X142507978Y-161964289D01*
X142521777Y-161963556D01*
X142546029Y-161966998D01*
X142562126Y-161983690D01*
X142571729Y-162023183D01*
X142576498Y-162095024D01*
X142578094Y-162208764D01*
X142578222Y-162288112D01*
X142776082Y-162288112D01*
X142775778Y-162119282D01*
X142775777Y-162104667D01*
X142776045Y-161924069D01*
X142777414Y-161792252D01*
X142779248Y-161742203D01*
X142591627Y-161742203D01*
X142575740Y-161783102D01*
X142521787Y-161818927D01*
X142470264Y-161809926D01*
X142446477Y-161777923D01*
X142450381Y-161723775D01*
X142471553Y-161691241D01*
X142508937Y-161664412D01*
X142543961Y-161680175D01*
X142561053Y-161696419D01*
X142591627Y-161742203D01*
X142779248Y-161742203D01*
X142780738Y-161701553D01*
X142786866Y-161644308D01*
X142796652Y-161612856D01*
X142810945Y-161599532D01*
X142830598Y-161596673D01*
X142832222Y-161596667D01*
X142852288Y-161599073D01*
X142866935Y-161611400D01*
X142877012Y-161641311D01*
X142883373Y-161696468D01*
X142886868Y-161784536D01*
X142888348Y-161913176D01*
X142888666Y-162090052D01*
X143139571Y-162090052D01*
X143140300Y-162086169D01*
X143174216Y-162015128D01*
X143225759Y-161973127D01*
X143293719Y-161952089D01*
X143364465Y-161950676D01*
X143450640Y-161964440D01*
X143534315Y-161988280D01*
X143597559Y-162017092D01*
X143622444Y-162045643D01*
X143601106Y-162093754D01*
X143544220Y-162106929D01*
X143464457Y-162083554D01*
X143387101Y-162055581D01*
X143325137Y-162060488D01*
X143298636Y-162070969D01*
X143237272Y-162111645D01*
X143230388Y-162149852D01*
X143276034Y-162181865D01*
X143367912Y-162203372D01*
X143500712Y-162237765D01*
X143594016Y-162295084D01*
X143643691Y-162368910D01*
X143645608Y-162452824D01*
X143798429Y-162452824D01*
X143799255Y-162451984D01*
X143836403Y-162424102D01*
X143874294Y-162431967D01*
X143908330Y-162454013D01*
X144005915Y-162494246D01*
X144106035Y-162489719D01*
X144186888Y-162443334D01*
X144229432Y-162393852D01*
X144235874Y-162361015D01*
X144201031Y-162341631D01*
X144119719Y-162332512D01*
X144003444Y-162330445D01*
X143763555Y-162330445D01*
X143763555Y-162244377D01*
X143786040Y-162118033D01*
X143849692Y-162022663D01*
X143948808Y-161966685D01*
X143952381Y-161965672D01*
X144094729Y-161950409D01*
X144215910Y-161983403D01*
X144308566Y-162058182D01*
X144365339Y-162168273D01*
X144378871Y-162307204D01*
X144660479Y-162307204D01*
X144656944Y-162251831D01*
X144626173Y-162148292D01*
X144571949Y-162088992D01*
X144491869Y-162069411D01*
X144488572Y-162069389D01*
X144430093Y-162057624D01*
X144412674Y-162016944D01*
X144412666Y-162015587D01*
X144432834Y-161960728D01*
X144488582Y-161944580D01*
X144572780Y-161968950D01*
X144580921Y-161972899D01*
X144637695Y-161994650D01*
X144665962Y-161992600D01*
X144666666Y-161989615D01*
X144690323Y-161968436D01*
X144723111Y-161963556D01*
X144747363Y-161966998D01*
X144763460Y-161983690D01*
X144773062Y-162023183D01*
X144777831Y-162095024D01*
X144779428Y-162208764D01*
X144779555Y-162288112D01*
X145313693Y-162288112D01*
X145316216Y-162231741D01*
X145325961Y-162129458D01*
X145342385Y-162062354D01*
X145369051Y-162019795D01*
X145409520Y-161991150D01*
X145445269Y-161974807D01*
X145532152Y-161953075D01*
X145624192Y-161952386D01*
X145709269Y-161968895D01*
X145775264Y-161998756D01*
X145810056Y-162038122D01*
X145801525Y-162083147D01*
X145798569Y-162086925D01*
X145768286Y-162111059D01*
X145727092Y-162106168D01*
X145677517Y-162083757D01*
X145590876Y-162059503D01*
X145509449Y-162067197D01*
X145451173Y-162102900D01*
X145434587Y-162137100D01*
X145441735Y-162165354D01*
X145483217Y-162184939D01*
X145569395Y-162200357D01*
X145584800Y-162202338D01*
X145720756Y-162233779D01*
X145807540Y-162289290D01*
X145848068Y-162371192D01*
X145852000Y-162415112D01*
X146331433Y-162415112D01*
X146330345Y-162315714D01*
X146335436Y-162208020D01*
X146346837Y-162115427D01*
X146364581Y-162052178D01*
X146371155Y-162041042D01*
X146453244Y-161976783D01*
X146565702Y-161949199D01*
X146693048Y-161962047D01*
X146694767Y-161962506D01*
X146788635Y-161995952D01*
X146829433Y-162033334D01*
X146820536Y-162078392D01*
X146810960Y-162091274D01*
X146778983Y-162116873D01*
X146739941Y-162104865D01*
X146717584Y-162090037D01*
X146626324Y-162052346D01*
X146538080Y-162060734D01*
X146489015Y-162092572D01*
X146452700Y-162137671D01*
X146456940Y-162167339D01*
X146507268Y-162187379D01*
X146592833Y-162201496D01*
X146725365Y-162227372D01*
X146810047Y-162267393D01*
X146854914Y-162327768D01*
X146868000Y-162414162D01*
X147439360Y-162414162D01*
X147494203Y-162344556D01*
X146973753Y-162328232D01*
X146989119Y-162213676D01*
X147030230Y-162088900D01*
X147109097Y-161999786D01*
X147215633Y-161952042D01*
X147339753Y-161951377D01*
X147413158Y-161973686D01*
X147520297Y-162041348D01*
X147581616Y-162138545D01*
X147600790Y-162271147D01*
X147771385Y-162271147D01*
X147771111Y-162119282D01*
X147771111Y-162104667D01*
X147771378Y-161924069D01*
X147772748Y-161792252D01*
X147776071Y-161701553D01*
X147782200Y-161644308D01*
X147791985Y-161612856D01*
X147806278Y-161599532D01*
X147825931Y-161596673D01*
X147827555Y-161596667D01*
X147856493Y-161601698D01*
X147873433Y-161624613D01*
X147881526Y-161677145D01*
X147883921Y-161771029D01*
X147884000Y-161806894D01*
X147884000Y-162017120D01*
X147985701Y-161974627D01*
X148113386Y-161947171D01*
X148230927Y-161967872D01*
X148329843Y-162028468D01*
X148401653Y-162120696D01*
X148437877Y-162236292D01*
X148617999Y-162236292D01*
X148618376Y-162148663D01*
X148621279Y-162056106D01*
X148628147Y-162000891D01*
X148640641Y-161973468D01*
X148660422Y-161964289D01*
X148674222Y-161963556D01*
X148698474Y-161966998D01*
X148714571Y-161983690D01*
X148724173Y-162023183D01*
X148728942Y-162095024D01*
X148730539Y-162208764D01*
X148730666Y-162288112D01*
X149394897Y-162288112D01*
X149390988Y-162244195D01*
X149365264Y-162148715D01*
X149322302Y-162093563D01*
X149257814Y-162071015D01*
X149227075Y-162069389D01*
X149169958Y-162056627D01*
X149154000Y-162015587D01*
X149174167Y-161960728D01*
X149229915Y-161944580D01*
X149314113Y-161968950D01*
X149322254Y-161972899D01*
X149379029Y-161994650D01*
X149407295Y-161992600D01*
X149408000Y-161989615D01*
X149431656Y-161968436D01*
X149464444Y-161963556D01*
X149488696Y-161966998D01*
X149504793Y-161983690D01*
X149514395Y-162023183D01*
X149519165Y-162095024D01*
X149520761Y-162208764D01*
X149520888Y-162288112D01*
X149718444Y-162288112D01*
X149719043Y-162148663D01*
X149721946Y-162056106D01*
X149728814Y-162000891D01*
X149741308Y-161973468D01*
X149761089Y-161964289D01*
X149774888Y-161963556D01*
X149806549Y-161969801D01*
X149823581Y-161997182D01*
X149830355Y-162058666D01*
X149831333Y-162131052D01*
X149841339Y-162293127D01*
X149872643Y-162405948D01*
X149927175Y-162473277D01*
X150006865Y-162498877D01*
X150020233Y-162499346D01*
X150090500Y-162477772D01*
X150138044Y-162410230D01*
X150164003Y-162294207D01*
X150170000Y-162168943D01*
X150171412Y-162062662D01*
X150177823Y-162000940D01*
X150192491Y-161971918D01*
X150218674Y-161963737D01*
X150226444Y-161963556D01*
X150253207Y-161967781D01*
X150269861Y-161987603D01*
X150278777Y-162033737D01*
X150282324Y-162116902D01*
X150282888Y-162218839D01*
X150461636Y-162218839D01*
X150471379Y-162145642D01*
X150530051Y-162044936D01*
X150631407Y-161979158D01*
X150681350Y-161962654D01*
X150820648Y-161949669D01*
X150941221Y-161984188D01*
X151035470Y-162058379D01*
X151095796Y-162164411D01*
X151114602Y-162294451D01*
X151301164Y-162294451D01*
X151274945Y-162228657D01*
X151231658Y-162116757D01*
X151200632Y-162032124D01*
X151186423Y-161985959D01*
X151186000Y-161982377D01*
X151209471Y-161968048D01*
X151248824Y-161968649D01*
X151284208Y-161983704D01*
X151317599Y-162024346D01*
X151355001Y-162100318D01*
X151399179Y-162212646D01*
X151486709Y-162447625D01*
X151580281Y-162205590D01*
X151626976Y-162089546D01*
X151662216Y-162017236D01*
X151692477Y-161978874D01*
X151724232Y-161964672D01*
X151740371Y-161963556D01*
X151791513Y-161967666D01*
X151806888Y-161974897D01*
X152252702Y-161974897D01*
X152269879Y-161964794D01*
X152286666Y-161963556D01*
X152332536Y-161974778D01*
X152343111Y-161990338D01*
X152365717Y-161997785D01*
X152422078Y-161983514D01*
X152443375Y-161975227D01*
X152572108Y-161946827D01*
X152689684Y-161965919D01*
X152788704Y-162023675D01*
X152861769Y-162111268D01*
X152901480Y-162219869D01*
X153061519Y-162219869D01*
X153062268Y-162207953D01*
X153075425Y-162114491D01*
X153095326Y-162054108D01*
X153116327Y-162023199D01*
X153206850Y-161962079D01*
X153316265Y-161946310D01*
X153415311Y-161973315D01*
X153471747Y-161994839D01*
X153499599Y-161992458D01*
X153500222Y-161989615D01*
X153523879Y-161968436D01*
X153556666Y-161963556D01*
X153580918Y-161966998D01*
X153597015Y-161983690D01*
X153606618Y-162023183D01*
X153611387Y-162095024D01*
X153612983Y-162208764D01*
X153613111Y-162288112D01*
X153810666Y-162288112D01*
X153810666Y-161963556D01*
X153951777Y-161963556D01*
X154488000Y-161963556D01*
X154488000Y-161895628D01*
X154488674Y-161766786D01*
X153949965Y-161766786D01*
X153931987Y-161804606D01*
X153885359Y-161819044D01*
X153837368Y-161795190D01*
X153821771Y-161766786D01*
X148728854Y-161766786D01*
X148710876Y-161804606D01*
X148664248Y-161819044D01*
X148616257Y-161795190D01*
X148594158Y-161754947D01*
X148605424Y-161696893D01*
X148652121Y-161668039D01*
X148692829Y-161672853D01*
X148724056Y-161709955D01*
X148728854Y-161766786D01*
X153821771Y-161766786D01*
X153815269Y-161754947D01*
X153826535Y-161696893D01*
X153873232Y-161668039D01*
X153913940Y-161672853D01*
X153945167Y-161709955D01*
X153949965Y-161766786D01*
X154488674Y-161766786D01*
X154488696Y-161762742D01*
X154492035Y-161676357D01*
X154499894Y-161626538D01*
X154514149Y-161603348D01*
X154536675Y-161596849D01*
X154544444Y-161596667D01*
X154564510Y-161599073D01*
X154579157Y-161611400D01*
X154589235Y-161641311D01*
X154595595Y-161696468D01*
X154599090Y-161784536D01*
X154600570Y-161913176D01*
X154600888Y-162090052D01*
X154825180Y-162090052D01*
X154825713Y-162088181D01*
X154853704Y-162042042D01*
X154855232Y-162040084D01*
X154944247Y-161968929D01*
X155058605Y-161946986D01*
X155178911Y-161969561D01*
X155263188Y-162005502D01*
X155296974Y-162044066D01*
X155286017Y-162092687D01*
X155280834Y-162101363D01*
X155255015Y-162124312D01*
X155215723Y-162111099D01*
X155190347Y-162094308D01*
X155096856Y-162053022D01*
X155013162Y-162061964D01*
X154954883Y-162111494D01*
X154932973Y-162146572D01*
X154935394Y-162168324D01*
X154971698Y-162183841D01*
X155051435Y-162200217D01*
X155081790Y-162205731D01*
X155211663Y-162238210D01*
X155293331Y-162283266D01*
X155334692Y-162347298D01*
X155344074Y-162418166D01*
X155504196Y-162418166D01*
X155504000Y-162374106D01*
X155509127Y-162216274D01*
X155526933Y-162104735D01*
X155561056Y-162030066D01*
X155615132Y-161982845D01*
X155662937Y-161962330D01*
X155787043Y-161946815D01*
X155897848Y-161985972D01*
X155934388Y-162013602D01*
X155971662Y-162035873D01*
X155983777Y-162026563D01*
X156007876Y-161998749D01*
X156067349Y-161968931D01*
X156082408Y-161963604D01*
X156165341Y-161945643D01*
X156235761Y-161959637D01*
X156265853Y-161973364D01*
X156322249Y-161994861D01*
X156350053Y-161992441D01*
X156350666Y-161989615D01*
X156374323Y-161968436D01*
X156407111Y-161963556D01*
X156431363Y-161966998D01*
X156447460Y-161983690D01*
X156457062Y-162023183D01*
X156461831Y-162095024D01*
X156463428Y-162208764D01*
X156463555Y-162288112D01*
X157140888Y-162288112D01*
X157140888Y-160571556D01*
X156621948Y-160571556D01*
X156614464Y-160581478D01*
X156592625Y-160589474D01*
X156551531Y-160595749D01*
X156486282Y-160600511D01*
X156391974Y-160603967D01*
X156263708Y-160606322D01*
X156096583Y-160607785D01*
X155885696Y-160608560D01*
X155626147Y-160608856D01*
X155448909Y-160608889D01*
X155196420Y-160608406D01*
X154962730Y-160607023D01*
X154753583Y-160604845D01*
X154574724Y-160601975D01*
X154431899Y-160598516D01*
X154330852Y-160594570D01*
X154277328Y-160590242D01*
X154270235Y-160587723D01*
X154304194Y-160526310D01*
X154360326Y-160427083D01*
X154434949Y-160296388D01*
X154524384Y-160140570D01*
X154624949Y-159965977D01*
X154732966Y-159778954D01*
X154844753Y-159585847D01*
X154956630Y-159393003D01*
X155064917Y-159206766D01*
X155165934Y-159033483D01*
X155256000Y-158879501D01*
X155331436Y-158751165D01*
X155388560Y-158654822D01*
X155423693Y-158596816D01*
X155433093Y-158582564D01*
X155447155Y-158582499D01*
X155471991Y-158605407D01*
X155509868Y-158654852D01*
X155563049Y-158734400D01*
X155633799Y-158847614D01*
X155724382Y-158998059D01*
X155837062Y-159189299D01*
X155974105Y-159424899D01*
X156033738Y-159528008D01*
X156158260Y-159743984D01*
X156274268Y-159945964D01*
X156378632Y-160128444D01*
X156468223Y-160285919D01*
X156539914Y-160412884D01*
X156590575Y-160503833D01*
X156617078Y-160553262D01*
X156619980Y-160559500D01*
X156621948Y-160571556D01*
X157140888Y-160571556D01*
X157140888Y-158575839D01*
X155386407Y-158575839D01*
X155369218Y-158609593D01*
X155327686Y-158684678D01*
X155265411Y-158794893D01*
X155185997Y-158934039D01*
X155093046Y-159095913D01*
X154990160Y-159274316D01*
X154880941Y-159463046D01*
X154768993Y-159655902D01*
X154657918Y-159846685D01*
X154551317Y-160029192D01*
X154452793Y-160197224D01*
X154365949Y-160344579D01*
X154294387Y-160465057D01*
X154241709Y-160552457D01*
X154211518Y-160600578D01*
X154205777Y-160608057D01*
X154189127Y-160584410D01*
X154184512Y-160576934D01*
X154083453Y-160576934D01*
X154073832Y-160589040D01*
X154044785Y-160597437D01*
X153989551Y-160602610D01*
X153901371Y-160605044D01*
X153773484Y-160605224D01*
X153599128Y-160603636D01*
X153498273Y-160602404D01*
X152897180Y-160594778D01*
X152627840Y-160128047D01*
X151351836Y-160128047D01*
X151345660Y-160199211D01*
X151305571Y-160355248D01*
X151230998Y-160470873D01*
X151116961Y-160553799D01*
X151116364Y-160554103D01*
X150994142Y-160593501D01*
X150854565Y-160603977D01*
X150719237Y-160586345D01*
X150705402Y-160580667D01*
X150141777Y-160580667D01*
X149917021Y-160580667D01*
X149909455Y-159911868D01*
X149901888Y-159243069D01*
X149762328Y-159728423D01*
X149622768Y-160213778D01*
X149530629Y-160213778D01*
X149499159Y-160213640D01*
X149473829Y-160208928D01*
X149451776Y-160193190D01*
X149430140Y-160159978D01*
X149406058Y-160102842D01*
X149376669Y-160015333D01*
X149339111Y-159891001D01*
X149290524Y-159723397D01*
X149249103Y-159579258D01*
X149168111Y-159297516D01*
X149154000Y-159932036D01*
X149139888Y-160566556D01*
X148914111Y-160566556D01*
X148914111Y-160544054D01*
X148702444Y-160544054D01*
X148675800Y-160570569D01*
X148597823Y-160580604D01*
X148588950Y-160580667D01*
X148509269Y-160573756D01*
X148465995Y-160547285D01*
X148449089Y-160517167D01*
X148429109Y-160454386D01*
X148405811Y-160360566D01*
X148391249Y-160291389D01*
X148359776Y-160129112D01*
X147947788Y-160129112D01*
X147914285Y-160305500D01*
X147889995Y-160430706D01*
X147870348Y-160510678D01*
X147849024Y-160555548D01*
X147819701Y-160575453D01*
X147776057Y-160580527D01*
X147742652Y-160580667D01*
X147668651Y-160574667D01*
X147622217Y-160559791D01*
X147617595Y-160555205D01*
X147620385Y-160524061D01*
X147633671Y-160445085D01*
X147655946Y-160325598D01*
X147685705Y-160172923D01*
X147721442Y-159994382D01*
X147722443Y-159989473D01*
X147399434Y-159989473D01*
X147399124Y-160176203D01*
X147398035Y-160331981D01*
X147396209Y-160450003D01*
X147393689Y-160523467D01*
X147391380Y-160545202D01*
X147356021Y-160568538D01*
X147283757Y-160580198D01*
X147263996Y-160580667D01*
X147150222Y-160580667D01*
X147150222Y-159734000D01*
X146956082Y-159734000D01*
X146881717Y-159980945D01*
X146840634Y-160117415D01*
X146798460Y-160257587D01*
X146762971Y-160375607D01*
X146756475Y-160397223D01*
X146705598Y-160566556D01*
X146575132Y-160575158D01*
X146493635Y-160576808D01*
X146454554Y-160565038D01*
X146444666Y-160536687D01*
X146452879Y-160494271D01*
X146475496Y-160408846D01*
X146509488Y-160291091D01*
X146551826Y-160151680D01*
X146574023Y-160080837D01*
X146703379Y-159672060D01*
X146641524Y-159628735D01*
X146562051Y-159541254D01*
X146507438Y-159416311D01*
X146478032Y-159267290D01*
X146474183Y-159107575D01*
X146496239Y-158950549D01*
X146544548Y-158809596D01*
X146617346Y-158700327D01*
X146715770Y-158634801D01*
X146863834Y-158595066D01*
X146921322Y-158591000D01*
X146317666Y-158591000D01*
X146317666Y-158816778D01*
X146141277Y-158825180D01*
X145964888Y-158833583D01*
X145964888Y-159688310D01*
X145964247Y-159902632D01*
X145962432Y-160098598D01*
X145959605Y-160269127D01*
X145955931Y-160407135D01*
X145951571Y-160505539D01*
X145946690Y-160557256D01*
X145944746Y-160563180D01*
X145906117Y-160574023D01*
X145834694Y-160576237D01*
X145810690Y-160574939D01*
X145696777Y-160566556D01*
X145691813Y-159989947D01*
X144605307Y-159989947D01*
X144604848Y-160177103D01*
X144603565Y-160333396D01*
X144601507Y-160451995D01*
X144598725Y-160526068D01*
X144596215Y-160548239D01*
X144577380Y-160565322D01*
X144531103Y-160575546D01*
X144448830Y-160579635D01*
X144322008Y-160578317D01*
X144261959Y-160576599D01*
X144121034Y-160571213D01*
X144023362Y-160563804D01*
X143955755Y-160551604D01*
X143905025Y-160531841D01*
X143857986Y-160501746D01*
X143839382Y-160487823D01*
X143781046Y-160436059D01*
X143735549Y-160375499D01*
X143701549Y-160299050D01*
X143677708Y-160199618D01*
X143662685Y-160070109D01*
X143659047Y-159989728D01*
X143363588Y-159989728D01*
X143363198Y-160176688D01*
X143362004Y-160332743D01*
X143360053Y-160451075D01*
X143357392Y-160524867D01*
X143354975Y-160546838D01*
X143315092Y-160572261D01*
X143223804Y-160575476D01*
X143220536Y-160575247D01*
X143100333Y-160566556D01*
X143100333Y-158629425D01*
X142888666Y-158629425D01*
X142879781Y-158672424D01*
X142855012Y-158759573D01*
X142817188Y-158881770D01*
X142769137Y-159029913D01*
X142713690Y-159194900D01*
X142705222Y-159219629D01*
X142521777Y-159754051D01*
X142521777Y-160148544D01*
X142520499Y-160292411D01*
X142516989Y-160415564D01*
X142511738Y-160507245D01*
X142505235Y-160556696D01*
X142502963Y-160561852D01*
X142464851Y-160574039D01*
X142394346Y-160580401D01*
X142375963Y-160580667D01*
X142267777Y-160580667D01*
X142267777Y-160340449D01*
X141897308Y-160340449D01*
X141879651Y-160407989D01*
X141840217Y-160479191D01*
X141784718Y-160541647D01*
X141718867Y-160582950D01*
X141695314Y-160589932D01*
X141557386Y-160594286D01*
X141432755Y-160552894D01*
X141357611Y-160494323D01*
X141306091Y-160424810D01*
X141283644Y-160347570D01*
X141280000Y-160273583D01*
X141298284Y-160142091D01*
X141357099Y-160043327D01*
X141462394Y-159969163D01*
X141521523Y-159943543D01*
X141630988Y-159887207D01*
X141685099Y-159823147D01*
X141683548Y-159751771D01*
X141676427Y-159736460D01*
X141637465Y-159686729D01*
X141611934Y-159669718D01*
X141553183Y-159671638D01*
X141499701Y-159704636D01*
X141477555Y-159750893D01*
X141460750Y-159780714D01*
X141403407Y-159786571D01*
X141385833Y-159785177D01*
X141322936Y-159772832D01*
X141301126Y-159743356D01*
X141301900Y-159706816D01*
X141337427Y-159610798D01*
X141410698Y-159540892D01*
X141508114Y-159499763D01*
X141616076Y-159490075D01*
X141720984Y-159514495D01*
X141809239Y-159575684D01*
X141831457Y-159603058D01*
X141862065Y-159683902D01*
X141871411Y-159791284D01*
X141859831Y-159899593D01*
X141827660Y-159983219D01*
X141826438Y-159984996D01*
X141774783Y-160033444D01*
X141692151Y-160086514D01*
X141632710Y-160116227D01*
X141529089Y-160172820D01*
X141476197Y-160232549D01*
X141468572Y-160303891D01*
X141481559Y-160350781D01*
X141523197Y-160398841D01*
X141585451Y-160408209D01*
X141649909Y-160380968D01*
X141694688Y-160326667D01*
X141729511Y-160276066D01*
X141758842Y-160258934D01*
X141809993Y-160263308D01*
X141844444Y-160265989D01*
X141887477Y-160288980D01*
X141897308Y-160340449D01*
X142267777Y-160340449D01*
X142267777Y-159803044D01*
X142070386Y-159212380D01*
X142012617Y-159035282D01*
X141964140Y-158878318D01*
X141927085Y-158749062D01*
X141903585Y-158655088D01*
X141895769Y-158603969D01*
X141897334Y-158597378D01*
X141939238Y-158583654D01*
X142011448Y-158580951D01*
X142027522Y-158582019D01*
X142133370Y-158591000D01*
X142242850Y-158943778D01*
X142285265Y-159079421D01*
X142322861Y-159197751D01*
X142351895Y-159287118D01*
X142368624Y-159335876D01*
X142369809Y-159338889D01*
X142384395Y-159329642D01*
X142412519Y-159273180D01*
X142451326Y-159176300D01*
X142497961Y-159045798D01*
X142518033Y-158986112D01*
X142648777Y-158591000D01*
X142768722Y-158582322D01*
X142844731Y-158580400D01*
X142879779Y-158593177D01*
X142888644Y-158626457D01*
X142888666Y-158629425D01*
X143100333Y-158629425D01*
X143100333Y-158591000D01*
X143354333Y-158591000D01*
X143361772Y-159550369D01*
X143363128Y-159778682D01*
X143363588Y-159989728D01*
X143659047Y-159989728D01*
X143655141Y-159903430D01*
X143653735Y-159692486D01*
X143655680Y-159515143D01*
X143659317Y-159314189D01*
X143663692Y-159161063D01*
X143669614Y-159047149D01*
X143677896Y-158963829D01*
X143689347Y-158902488D01*
X143704779Y-158854508D01*
X143721222Y-158818599D01*
X143772905Y-158729237D01*
X143829302Y-158666501D01*
X143901271Y-158625858D01*
X143999675Y-158602776D01*
X144135373Y-158592720D01*
X144266518Y-158591000D01*
X144596111Y-158591000D01*
X144603550Y-159550369D01*
X144604891Y-159778758D01*
X144605307Y-159989947D01*
X145691813Y-159989947D01*
X145689316Y-159700059D01*
X145681854Y-158833562D01*
X145329888Y-158816778D01*
X145329888Y-158591000D01*
X146317666Y-158591000D01*
X146921322Y-158591000D01*
X147061807Y-158581064D01*
X147150222Y-158582479D01*
X147390111Y-158591000D01*
X147397550Y-159550369D01*
X147398924Y-159778594D01*
X147399434Y-159989473D01*
X147722443Y-159989473D01*
X147761652Y-159797296D01*
X147804829Y-159588988D01*
X147849467Y-159376779D01*
X147894061Y-159167991D01*
X147937105Y-158969946D01*
X147977094Y-158789966D01*
X148011348Y-158640389D01*
X148029222Y-158600268D01*
X148069049Y-158581617D01*
X148147546Y-158576895D01*
X148152111Y-158576889D01*
X148232648Y-158581165D01*
X148273765Y-158599018D01*
X148292164Y-158637991D01*
X148292731Y-158640389D01*
X148317186Y-158747932D01*
X148348877Y-158890138D01*
X148386149Y-159059318D01*
X148427347Y-159247784D01*
X148470818Y-159447848D01*
X148514906Y-159651822D01*
X148557957Y-159852017D01*
X148598316Y-160040745D01*
X148634328Y-160210319D01*
X148664338Y-160353049D01*
X148686693Y-160461249D01*
X148699737Y-160527228D01*
X148702444Y-160544054D01*
X148914111Y-160544054D01*
X148914111Y-158591000D01*
X149034802Y-158582286D01*
X149078435Y-158579297D01*
X149113315Y-158581526D01*
X149142537Y-158595140D01*
X149169193Y-158626307D01*
X149196377Y-158681194D01*
X149227181Y-158765968D01*
X149264701Y-158886799D01*
X149312027Y-159049852D01*
X149368191Y-159247031D01*
X149413436Y-159402942D01*
X149454301Y-159538171D01*
X149488051Y-159644109D01*
X149511951Y-159712146D01*
X149522861Y-159733864D01*
X149535313Y-159708130D01*
X149561003Y-159636107D01*
X149597355Y-159525690D01*
X149641793Y-159384774D01*
X149691740Y-159221252D01*
X149709343Y-159162500D01*
X149879740Y-158591000D01*
X150010759Y-158582399D01*
X150141777Y-158573797D01*
X150141777Y-160580667D01*
X150705402Y-160580667D01*
X150609764Y-160541417D01*
X150600009Y-160534684D01*
X150511779Y-160446665D01*
X150453236Y-160329252D01*
X150421433Y-160174293D01*
X150413267Y-160017857D01*
X150418264Y-159848659D01*
X150440780Y-159722243D01*
X150488520Y-159625810D01*
X150569186Y-159546558D01*
X150690482Y-159471686D01*
X150764669Y-159433902D01*
X150899504Y-159362523D01*
X150989223Y-159298951D01*
X151042315Y-159233320D01*
X151067270Y-159155764D01*
X151072695Y-159075978D01*
X151056079Y-158942186D01*
X151005184Y-158852897D01*
X150920246Y-158808428D01*
X150868500Y-158803099D01*
X150777973Y-158827993D01*
X150709678Y-158893541D01*
X150678544Y-158984425D01*
X150678000Y-158998557D01*
X150670870Y-159066137D01*
X150641210Y-159097705D01*
X150576618Y-159100912D01*
X150523758Y-159093692D01*
X150417144Y-159076391D01*
X150434141Y-158932874D01*
X150474931Y-158776375D01*
X150554568Y-158660557D01*
X150671659Y-158586521D01*
X150824810Y-158555369D01*
X150911212Y-158556002D01*
X151066433Y-158582749D01*
X151182469Y-158642915D01*
X151262017Y-158740194D01*
X151307774Y-158878284D01*
X151322437Y-159060878D01*
X151321420Y-159118145D01*
X151310570Y-159270756D01*
X151284176Y-159382257D01*
X151233135Y-159466529D01*
X151148344Y-159537453D01*
X151020699Y-159608908D01*
X150989391Y-159624403D01*
X150854560Y-159694487D01*
X150764393Y-159756281D01*
X150710779Y-159821522D01*
X150685609Y-159901948D01*
X150680774Y-160009294D01*
X150682989Y-160067863D01*
X150696533Y-160201346D01*
X150724995Y-160287752D01*
X150774341Y-160335731D01*
X150850540Y-160353938D01*
X150880949Y-160354889D01*
X150974548Y-160328977D01*
X151045814Y-160256144D01*
X151087912Y-160143745D01*
X151090432Y-160129509D01*
X151106179Y-160056875D01*
X151132025Y-160024573D01*
X151182940Y-160016701D01*
X151196662Y-160016655D01*
X151289188Y-160025907D01*
X151338050Y-160059529D01*
X151351836Y-160128047D01*
X152627840Y-160128047D01*
X152400443Y-159734000D01*
X152280196Y-159525588D01*
X152165018Y-159325883D01*
X152058935Y-159141874D01*
X151965975Y-158980548D01*
X151890165Y-158848893D01*
X151835531Y-158753899D01*
X151810892Y-158710945D01*
X151718079Y-158548667D01*
X152929898Y-158548667D01*
X153495676Y-159529952D01*
X153619946Y-159745886D01*
X153735713Y-159947817D01*
X153839851Y-160130233D01*
X153929233Y-160287623D01*
X154000731Y-160414475D01*
X154051220Y-160505277D01*
X154077572Y-160554519D01*
X154080410Y-160560633D01*
X154083453Y-160576934D01*
X154184512Y-160576934D01*
X154147446Y-160516902D01*
X154083753Y-160410650D01*
X154001068Y-160270774D01*
X153902410Y-160102394D01*
X153790798Y-159910629D01*
X153669253Y-159700598D01*
X153613111Y-159603208D01*
X153488022Y-159385759D01*
X153371775Y-159183292D01*
X153267383Y-159001083D01*
X153177856Y-158844407D01*
X153106208Y-158718539D01*
X153055450Y-158628752D01*
X153028594Y-158580323D01*
X153025148Y-158573534D01*
X153050342Y-158568028D01*
X153126771Y-158562994D01*
X153249225Y-158558544D01*
X153412495Y-158554786D01*
X153611372Y-158551830D01*
X153840646Y-158549787D01*
X154095110Y-158548765D01*
X154205777Y-158548667D01*
X154513690Y-158549299D01*
X154779108Y-158551157D01*
X154999650Y-158554187D01*
X155172936Y-158558334D01*
X155296584Y-158563544D01*
X155368214Y-158569761D01*
X155386407Y-158575839D01*
X157140888Y-158575839D01*
X157140888Y-158097112D01*
X140630888Y-158097112D01*
X140630888Y-163402889D01*
G36*
X152474551Y-162079557D02*
X152395689Y-162142420D01*
X152353520Y-162231721D01*
X152352510Y-162329368D01*
X152392500Y-162411900D01*
X152477309Y-162474635D01*
X152577200Y-162489202D01*
X152675110Y-162453782D01*
X152689278Y-162443491D01*
X152752117Y-162362638D01*
X152770939Y-162265561D01*
X152745593Y-162170378D01*
X152692082Y-162106715D01*
X152617251Y-162059325D01*
X152550309Y-162052974D01*
X152474551Y-162079557D01*
X152474551Y-162079557D01*
G37*
X152474551Y-162079557D02*
X152395689Y-162142420D01*
X152353520Y-162231721D01*
X152352510Y-162329368D01*
X152392500Y-162411900D01*
X152477309Y-162474635D01*
X152577200Y-162489202D01*
X152675110Y-162453782D01*
X152689278Y-162443491D01*
X152752117Y-162362638D01*
X152770939Y-162265561D01*
X152745593Y-162170378D01*
X152692082Y-162106715D01*
X152617251Y-162059325D01*
X152550309Y-162052974D01*
X152474551Y-162079557D01*
G36*
X154912701Y-162311546D02*
X154911333Y-162315006D01*
X154921767Y-162347409D01*
X154942667Y-162396560D01*
X155002401Y-162471673D01*
X155085295Y-162505493D01*
X155158277Y-162496866D01*
X155211251Y-162455509D01*
X155219262Y-162399798D01*
X155183291Y-162348169D01*
X155149385Y-162329746D01*
X155085304Y-162313105D01*
X155010940Y-162303686D01*
X154946628Y-162302746D01*
X154912701Y-162311546D01*
X154912701Y-162311546D01*
G37*
X154912701Y-162311546D02*
X154911333Y-162315006D01*
X154921767Y-162347409D01*
X154942667Y-162396560D01*
X155002401Y-162471673D01*
X155085295Y-162505493D01*
X155158277Y-162496866D01*
X155211251Y-162455509D01*
X155219262Y-162399798D01*
X155183291Y-162348169D01*
X155149385Y-162329746D01*
X155085304Y-162313105D01*
X155010940Y-162303686D01*
X154946628Y-162302746D01*
X154912701Y-162311546D01*
G36*
X150692614Y-162073298D02*
X150618908Y-162136700D01*
X150572670Y-162220694D01*
X150565111Y-162268912D01*
X150587405Y-162371759D01*
X150645534Y-162447915D01*
X150726362Y-162491375D01*
X150816757Y-162496130D01*
X150903585Y-162456175D01*
X150927080Y-162434459D01*
X150975694Y-162348221D01*
X150982155Y-162251869D01*
X150952240Y-162160248D01*
X150891726Y-162088203D01*
X150806388Y-162050578D01*
X150776777Y-162048223D01*
X150692614Y-162073298D01*
X150692614Y-162073298D01*
G37*
X150692614Y-162073298D02*
X150618908Y-162136700D01*
X150572670Y-162220694D01*
X150565111Y-162268912D01*
X150587405Y-162371759D01*
X150645534Y-162447915D01*
X150726362Y-162491375D01*
X150816757Y-162496130D01*
X150903585Y-162456175D01*
X150927080Y-162434459D01*
X150975694Y-162348221D01*
X150982155Y-162251869D01*
X150952240Y-162160248D01*
X150891726Y-162088203D01*
X150806388Y-162050578D01*
X150776777Y-162048223D01*
X150692614Y-162073298D01*
G36*
X148040562Y-162060271D02*
X147958906Y-162118355D01*
X147916832Y-162180423D01*
X147886181Y-162280259D01*
X147908741Y-162374214D01*
X147942492Y-162425417D01*
X148021170Y-162484494D01*
X148117709Y-162500879D01*
X148211719Y-162473387D01*
X148250888Y-162443334D01*
X148299709Y-162358867D01*
X148308897Y-162257937D01*
X148279604Y-162162188D01*
X148232971Y-162106715D01*
X148133838Y-162055943D01*
X148040562Y-162060271D01*
X148040562Y-162060271D01*
G37*
X148040562Y-162060271D02*
X147958906Y-162118355D01*
X147916832Y-162180423D01*
X147886181Y-162280259D01*
X147908741Y-162374214D01*
X147942492Y-162425417D01*
X148021170Y-162484494D01*
X148117709Y-162500879D01*
X148211719Y-162473387D01*
X148250888Y-162443334D01*
X148299709Y-162358867D01*
X148308897Y-162257937D01*
X148279604Y-162162188D01*
X148232971Y-162106715D01*
X148133838Y-162055943D01*
X148040562Y-162060271D01*
G36*
X147222519Y-162070516D02*
X147157530Y-162116408D01*
X147122748Y-162159713D01*
X147109769Y-162189757D01*
X147117895Y-162207051D01*
X147157365Y-162215107D01*
X147238417Y-162217438D01*
X147291333Y-162217556D01*
X147394496Y-162216657D01*
X147451458Y-162211619D01*
X147472457Y-162198927D01*
X147467731Y-162175070D01*
X147459918Y-162159713D01*
X147394926Y-162088556D01*
X147307811Y-162057032D01*
X147222519Y-162070516D01*
X147222519Y-162070516D01*
G37*
X147222519Y-162070516D02*
X147157530Y-162116408D01*
X147122748Y-162159713D01*
X147109769Y-162189757D01*
X147117895Y-162207051D01*
X147157365Y-162215107D01*
X147238417Y-162217438D01*
X147291333Y-162217556D01*
X147394496Y-162216657D01*
X147451458Y-162211619D01*
X147472457Y-162198927D01*
X147467731Y-162175070D01*
X147459918Y-162159713D01*
X147394926Y-162088556D01*
X147307811Y-162057032D01*
X147222519Y-162070516D01*
G36*
X146468907Y-162312926D02*
X146446450Y-162347782D01*
X146471366Y-162410907D01*
X146488600Y-162437054D01*
X146544721Y-162481959D01*
X146618717Y-162501206D01*
X146689554Y-162493659D01*
X146736196Y-162458179D01*
X146739707Y-162450636D01*
X146734845Y-162395310D01*
X146687311Y-162345539D01*
X146610696Y-162311438D01*
X146540317Y-162302223D01*
X146468907Y-162312926D01*
X146468907Y-162312926D01*
G37*
X146468907Y-162312926D02*
X146446450Y-162347782D01*
X146471366Y-162410907D01*
X146488600Y-162437054D01*
X146544721Y-162481959D01*
X146618717Y-162501206D01*
X146689554Y-162493659D01*
X146736196Y-162458179D01*
X146739707Y-162450636D01*
X146734845Y-162395310D01*
X146687311Y-162345539D01*
X146610696Y-162311438D01*
X146540317Y-162302223D01*
X146468907Y-162312926D01*
G36*
X145472276Y-162307862D02*
X145432875Y-162336161D01*
X145428666Y-162354293D01*
X145452967Y-162424016D01*
X145513420Y-162473764D01*
X145591356Y-162496988D01*
X145668103Y-162487142D01*
X145713573Y-162454210D01*
X145733961Y-162416348D01*
X145714945Y-162381077D01*
X145685680Y-162355432D01*
X145616001Y-162317574D01*
X145539092Y-162301692D01*
X145472276Y-162307862D01*
X145472276Y-162307862D01*
G37*
X145472276Y-162307862D02*
X145432875Y-162336161D01*
X145428666Y-162354293D01*
X145452967Y-162424016D01*
X145513420Y-162473764D01*
X145591356Y-162496988D01*
X145668103Y-162487142D01*
X145713573Y-162454210D01*
X145733961Y-162416348D01*
X145714945Y-162381077D01*
X145685680Y-162355432D01*
X145616001Y-162317574D01*
X145539092Y-162301692D01*
X145472276Y-162307862D01*
G36*
X143991304Y-162066644D02*
X143927252Y-162110610D01*
X143883806Y-162163170D01*
X143876444Y-162189334D01*
X143902363Y-162204082D01*
X143971024Y-162214179D01*
X144059888Y-162217556D01*
X144153304Y-162213750D01*
X144219376Y-162203793D01*
X144243333Y-162190433D01*
X144220171Y-162143611D01*
X144164662Y-162094050D01*
X144097778Y-162057549D01*
X144054567Y-162048223D01*
X143991304Y-162066644D01*
X143991304Y-162066644D01*
G37*
X143991304Y-162066644D02*
X143927252Y-162110610D01*
X143883806Y-162163170D01*
X143876444Y-162189334D01*
X143902363Y-162204082D01*
X143971024Y-162214179D01*
X144059888Y-162217556D01*
X144153304Y-162213750D01*
X144219376Y-162203793D01*
X144243333Y-162190433D01*
X144220171Y-162143611D01*
X144164662Y-162094050D01*
X144097778Y-162057549D01*
X144054567Y-162048223D01*
X143991304Y-162066644D01*
G36*
X143249593Y-162318043D02*
X143227478Y-162358588D01*
X143245453Y-162413484D01*
X143301459Y-162472358D01*
X143354333Y-162506283D01*
X143400456Y-162508997D01*
X143446055Y-162497374D01*
X143497489Y-162454575D01*
X143506030Y-162395381D01*
X143470518Y-162341401D01*
X143454966Y-162331438D01*
X143386509Y-162309900D01*
X143313855Y-162302223D01*
X143249593Y-162318043D01*
X143249593Y-162318043D01*
G37*
X143249593Y-162318043D02*
X143227478Y-162358588D01*
X143245453Y-162413484D01*
X143301459Y-162472358D01*
X143354333Y-162506283D01*
X143400456Y-162508997D01*
X143446055Y-162497374D01*
X143497489Y-162454575D01*
X143506030Y-162395381D01*
X143470518Y-162341401D01*
X143454966Y-162331438D01*
X143386509Y-162309900D01*
X143313855Y-162302223D01*
X143249593Y-162318043D01*
G36*
X148083765Y-159454846D02*
X148057265Y-159590882D01*
X148033540Y-159708118D01*
X148015062Y-159794641D01*
X148004304Y-159838536D01*
X148003857Y-159839834D01*
X148013431Y-159861196D01*
X148066551Y-159872386D01*
X148150370Y-159875112D01*
X148309891Y-159875112D01*
X148292031Y-159779910D01*
X148278552Y-159711818D01*
X148256712Y-159605511D01*
X148230019Y-159477954D01*
X148212418Y-159394922D01*
X148150665Y-159105136D01*
X148083765Y-159454846D01*
X148083765Y-159454846D01*
G37*
X148083765Y-159454846D02*
X148057265Y-159590882D01*
X148033540Y-159708118D01*
X148015062Y-159794641D01*
X148004304Y-159838536D01*
X148003857Y-159839834D01*
X148013431Y-159861196D01*
X148066551Y-159872386D01*
X148150370Y-159875112D01*
X148309891Y-159875112D01*
X148292031Y-159779910D01*
X148278552Y-159711818D01*
X148256712Y-159605511D01*
X148230019Y-159477954D01*
X148212418Y-159394922D01*
X148150665Y-159105136D01*
X148083765Y-159454846D01*
G36*
X146899493Y-158853716D02*
X146805604Y-158918681D01*
X146748375Y-159020515D01*
X146730820Y-159153946D01*
X146754326Y-159307753D01*
X146786589Y-159393294D01*
X146835685Y-159444131D01*
X146882867Y-159468024D01*
X146980855Y-159498461D01*
X147068182Y-159507546D01*
X147126256Y-159493679D01*
X147131407Y-159489408D01*
X147138910Y-159455219D01*
X147144992Y-159376710D01*
X147148979Y-159266000D01*
X147150222Y-159150741D01*
X147150222Y-158830889D01*
X147027028Y-158830889D01*
X146899493Y-158853716D01*
X146899493Y-158853716D01*
G37*
X146899493Y-158853716D02*
X146805604Y-158918681D01*
X146748375Y-159020515D01*
X146730820Y-159153946D01*
X146754326Y-159307753D01*
X146786589Y-159393294D01*
X146835685Y-159444131D01*
X146882867Y-159468024D01*
X146980855Y-159498461D01*
X147068182Y-159507546D01*
X147126256Y-159493679D01*
X147131407Y-159489408D01*
X147138910Y-159455219D01*
X147144992Y-159376710D01*
X147148979Y-159266000D01*
X147150222Y-159150741D01*
X147150222Y-158830889D01*
X147027028Y-158830889D01*
X146899493Y-158853716D01*
G36*
X144134192Y-158835350D02*
X144061724Y-158852859D01*
X144007410Y-158889603D01*
X143968696Y-158951772D01*
X143943029Y-159045553D01*
X143927856Y-159177135D01*
X143920623Y-159352705D01*
X143918777Y-159578453D01*
X143918777Y-159578778D01*
X143920618Y-159804594D01*
X143927842Y-159980226D01*
X143943004Y-160111860D01*
X143968655Y-160205685D01*
X144007351Y-160267891D01*
X144061643Y-160304664D01*
X144134086Y-160322193D01*
X144227232Y-160326667D01*
X144356222Y-160326667D01*
X144356222Y-158830889D01*
X144227366Y-158830889D01*
X144134192Y-158835350D01*
X144134192Y-158835350D01*
G37*
X144134192Y-158835350D02*
X144061724Y-158852859D01*
X144007410Y-158889603D01*
X143968696Y-158951772D01*
X143943029Y-159045553D01*
X143927856Y-159177135D01*
X143920623Y-159352705D01*
X143918777Y-159578453D01*
X143918777Y-159578778D01*
X143920618Y-159804594D01*
X143927842Y-159980226D01*
X143943004Y-160111860D01*
X143968655Y-160205685D01*
X144007351Y-160267891D01*
X144061643Y-160304664D01*
X144134086Y-160322193D01*
X144227232Y-160326667D01*
X144356222Y-160326667D01*
X144356222Y-158830889D01*
X144227366Y-158830889D01*
X144134192Y-158835350D01*
%LPC*%
D12*
X265550000Y-160500000D02*
X268700000Y-160500000D01*
X265550000Y-159850000D02*
X265550000Y-160500000D01*
X268750000Y-159850000D02*
X265550000Y-159850000D01*
X268750000Y-160400000D02*
X268750000Y-159850000D01*
X268750000Y-161750000D02*
X268750000Y-160400000D01*
X265850000Y-161750000D02*
X268750000Y-161750000D01*
X265850000Y-159100000D02*
X265850000Y-161750000D01*
X269200000Y-159100000D02*
X265850000Y-159100000D01*
X269200000Y-162400000D02*
X269200000Y-159100000D01*
X265150000Y-162400000D02*
X269200000Y-162400000D01*
X265150000Y-158350000D02*
X265150000Y-162400000D01*
X269900000Y-158350000D02*
X265150000Y-158350000D01*
X269900000Y-163000000D02*
X269900000Y-158350000D01*
X264450000Y-163000000D02*
X269900000Y-163000000D01*
X264450000Y-157600000D02*
X264450000Y-163000000D01*
X270700000Y-157600000D02*
X264450000Y-157600000D01*
X270700000Y-163850000D02*
X270700000Y-157600000D01*
X263700000Y-163850000D02*
X270700000Y-163850000D01*
X263700000Y-156800000D02*
X263700000Y-163850000D01*
X270650000Y-156800000D02*
X263700000Y-156800000D01*
X270650000Y-163700000D02*
X270650000Y-156800000D01*
X268350000Y-91200000D02*
X266650000Y-91200000D01*
X268350000Y-91800000D02*
X268350000Y-91200000D01*
X266500000Y-91800000D02*
X268350000Y-91800000D01*
X266500000Y-90650000D02*
X266500000Y-91800000D01*
X268650000Y-90650000D02*
X266500000Y-90650000D01*
X268650000Y-92800000D02*
X268650000Y-90650000D01*
X265800000Y-92800000D02*
X268650000Y-92800000D01*
X265800000Y-90000000D02*
X265800000Y-92800000D01*
X269200000Y-90000000D02*
X265800000Y-90000000D01*
X269200000Y-93400000D02*
X269200000Y-90000000D01*
X265250000Y-93400000D02*
X269200000Y-93400000D01*
X265250000Y-89350000D02*
X265250000Y-93400000D01*
X269900000Y-89350000D02*
X265250000Y-89350000D01*
X269900000Y-94150000D02*
X269900000Y-89350000D01*
X264450000Y-94150000D02*
X269900000Y-94150000D01*
X264450000Y-88650000D02*
X264450000Y-94150000D01*
X270750000Y-88650000D02*
X264450000Y-88650000D01*
X270750000Y-87800000D02*
X270750000Y-88650000D01*
X263700000Y-87800000D02*
X270750000Y-87800000D01*
X263700000Y-94800000D02*
X263700000Y-87800000D01*
X270700000Y-94800000D02*
X263700000Y-94800000D01*
X270700000Y-87900000D02*
X270700000Y-94800000D01*
X136550000Y-160550000D02*
X134850000Y-160550000D01*
X136550000Y-160100000D02*
X136550000Y-160550000D01*
X134500000Y-160100000D02*
X136550000Y-160100000D01*
X134500000Y-161500000D02*
X134500000Y-160100000D01*
X137250000Y-161500000D02*
X134500000Y-161500000D01*
X137250000Y-159450000D02*
X137250000Y-161500000D01*
X134050000Y-159450000D02*
X137250000Y-159450000D01*
X134050000Y-162300000D02*
X134050000Y-159450000D01*
X137950000Y-162300000D02*
X134050000Y-162300000D01*
X137950000Y-158550000D02*
X137950000Y-162300000D01*
X133350000Y-158550000D02*
X137950000Y-158550000D01*
X133350000Y-163150000D02*
X133350000Y-158550000D01*
X138550000Y-163150000D02*
X133350000Y-163150000D01*
X138550000Y-157800000D02*
X138550000Y-163150000D01*
X132650000Y-157800000D02*
X138550000Y-157800000D01*
X132650000Y-163850000D02*
X132650000Y-157800000D01*
X139200000Y-163850000D02*
X132650000Y-163850000D01*
X139200000Y-156800000D02*
X139200000Y-163850000D01*
X132200000Y-156800000D02*
X139200000Y-156800000D01*
X132200000Y-163800000D02*
X132200000Y-156800000D01*
X136200000Y-91050000D02*
X138550000Y-88700000D01*
X136700000Y-91550000D02*
X136200000Y-91050000D01*
X135300000Y-91550000D02*
X136700000Y-91550000D01*
X135300000Y-90150000D02*
X135300000Y-91550000D01*
X136850000Y-90150000D02*
X135300000Y-90150000D01*
X136850000Y-92550000D02*
X136850000Y-90150000D01*
X134550000Y-92550000D02*
X136850000Y-92550000D01*
X134550000Y-89400000D02*
X134550000Y-92550000D01*
X137550000Y-89400000D02*
X134550000Y-89400000D01*
X137550000Y-93200000D02*
X137550000Y-89400000D01*
X133750000Y-93200000D02*
X137550000Y-93200000D01*
X133750000Y-88600000D02*
X133750000Y-93200000D01*
X138250000Y-88600000D02*
X133750000Y-88600000D01*
X138250000Y-94050000D02*
X138250000Y-88600000D01*
X133050000Y-94050000D02*
X138250000Y-94050000D01*
X133050000Y-88400000D02*
X133050000Y-94050000D01*
X139150000Y-87750000D02*
X132250000Y-87750000D01*
X139150000Y-94800000D02*
X139150000Y-87750000D01*
X132200000Y-94800000D02*
X139150000Y-94800000D01*
X132200000Y-88000000D02*
X132200000Y-94800000D01*
D13*
X201150000Y-127000000D03*
X196500000Y-128000000D03*
X199500000Y-125050000D03*
X161950000Y-135450000D03*
X162950000Y-135450000D03*
X161950000Y-136450000D03*
X162950000Y-136450000D03*
X161950000Y-137450000D03*
X162950000Y-137450000D03*
X154350000Y-148550000D03*
X156350000Y-148550000D03*
X156300000Y-146150000D03*
X154300000Y-146150000D03*
X150200000Y-146150000D03*
X152200000Y-146150000D03*
X152250000Y-148550000D03*
X150250000Y-148550000D03*
X168050000Y-148550000D03*
X170050000Y-148550000D03*
X170000000Y-146150000D03*
X168000000Y-146150000D03*
X169900000Y-143600000D03*
X167900000Y-143600000D03*
X166100000Y-143600000D03*
X166200000Y-146150000D03*
X166250000Y-148550000D03*
X158450000Y-148550000D03*
X160450000Y-148550000D03*
X160400000Y-146150000D03*
X158400000Y-146150000D03*
X160300000Y-143600000D03*
X158300000Y-143600000D03*
X162100000Y-143600000D03*
X164100000Y-143600000D03*
X162200000Y-146150000D03*
X164200000Y-146150000D03*
X164250000Y-148550000D03*
X162250000Y-148550000D03*
X153950000Y-141050000D03*
X155950000Y-141050000D03*
X153900000Y-138650000D03*
X153800000Y-136100000D03*
X150000000Y-136100000D03*
X152000000Y-136100000D03*
X151950000Y-133700000D03*
X149950000Y-133700000D03*
X150100000Y-138650000D03*
X152100000Y-138650000D03*
X152150000Y-141050000D03*
X150150000Y-141050000D03*
X243450000Y-149500000D03*
X241450000Y-149500000D03*
X242450000Y-148500000D03*
X240450000Y-148500000D03*
X159700000Y-128800000D03*
X157700000Y-128800000D03*
X155700000Y-128800000D03*
X153700000Y-128800000D03*
X160700000Y-127800000D03*
X158700000Y-127800000D03*
X156700000Y-127800000D03*
X154700000Y-127800000D03*
X152700000Y-127800000D03*
X144500000Y-127800000D03*
X146500000Y-127800000D03*
X148500000Y-127800000D03*
X150500000Y-127800000D03*
X145500000Y-128800000D03*
X147500000Y-128800000D03*
X149500000Y-128800000D03*
X151500000Y-128800000D03*
X165450000Y-102150000D03*
X217200000Y-133950000D03*
X262350000Y-125850000D03*
X263350000Y-126850000D03*
X261350000Y-127050000D03*
X260350000Y-126050000D03*
X258050000Y-123750000D03*
X259050000Y-124750000D03*
X159200000Y-88450000D03*
X158200000Y-88450000D03*
X157200000Y-88450000D03*
X162850000Y-88450000D03*
X163850000Y-88450000D03*
X164850000Y-88450000D03*
X217850000Y-88600000D03*
X216850000Y-88600000D03*
X215850000Y-88600000D03*
X208150000Y-88550000D03*
X209150000Y-88550000D03*
X210150000Y-88550000D03*
X211150000Y-88550000D03*
X238650000Y-133650000D03*
X239550000Y-129850000D03*
X238550000Y-128850000D03*
X238600000Y-131900000D03*
X239600000Y-132900000D03*
X239600000Y-131350000D03*
X238600000Y-130350000D03*
X243150000Y-127250000D03*
X244150000Y-128250000D03*
X244150000Y-129800000D03*
X243150000Y-128800000D03*
X243100000Y-125750000D03*
X244100000Y-126750000D03*
X254550000Y-126500000D03*
X255550000Y-127500000D03*
X253500000Y-125500000D03*
X252500000Y-124500000D03*
X250450000Y-122550000D03*
X251450000Y-123550000D03*
X266350000Y-136550000D03*
X268350000Y-136550000D03*
X265350000Y-137550000D03*
X267350000Y-137550000D03*
X269350000Y-137550000D03*
X269350000Y-135400000D03*
X267350000Y-135400000D03*
X265350000Y-135400000D03*
X268350000Y-134400000D03*
X266350000Y-134400000D03*
X266300000Y-130200000D03*
X268300000Y-130200000D03*
X265300000Y-131200000D03*
X267300000Y-131200000D03*
X269300000Y-131200000D03*
X269300000Y-133350000D03*
X267300000Y-133350000D03*
X265300000Y-133350000D03*
X268300000Y-132350000D03*
X266300000Y-132350000D03*
X261050000Y-124550000D03*
X244100000Y-125200000D03*
X260050000Y-123550000D03*
X243100000Y-124200000D03*
X230350000Y-106000000D03*
X232350000Y-106000000D03*
X231350000Y-107000000D03*
X229450000Y-100150000D03*
X237150000Y-113300000D03*
X263450000Y-129050000D03*
X262450000Y-128050000D03*
X227800000Y-136700000D03*
X226800000Y-137700000D03*
X228800000Y-137700000D03*
X264100000Y-127950000D03*
X266100000Y-127950000D03*
X268100000Y-127950000D03*
X265100000Y-128950000D03*
X267100000Y-128950000D03*
X269100000Y-128950000D03*
X249050000Y-100800000D03*
X249050000Y-99850000D03*
X252850000Y-102600000D03*
X254850000Y-102600000D03*
X253850000Y-103600000D03*
X238700000Y-103850000D03*
X193500000Y-128800000D03*
X191500000Y-128800000D03*
X189500000Y-128800000D03*
X187500000Y-128800000D03*
X185500000Y-128800000D03*
X183500000Y-128800000D03*
X192500000Y-127800000D03*
X190500000Y-127800000D03*
X188500000Y-127800000D03*
X186500000Y-127800000D03*
X184500000Y-127800000D03*
X182500000Y-127800000D03*
X170650000Y-127800000D03*
X172650000Y-127800000D03*
X174650000Y-127800000D03*
X176650000Y-127800000D03*
X178650000Y-127800000D03*
X180650000Y-127800000D03*
X171650000Y-128800000D03*
X173650000Y-128800000D03*
X175650000Y-128800000D03*
X177650000Y-128800000D03*
X179650000Y-128800000D03*
X181650000Y-128800000D03*
X168750000Y-123600000D03*
X170750000Y-123600000D03*
X172750000Y-123600000D03*
X174750000Y-123600000D03*
X176750000Y-123600000D03*
X178750000Y-123600000D03*
X169750000Y-124600000D03*
X171750000Y-124600000D03*
X173750000Y-124600000D03*
X175750000Y-124600000D03*
X177750000Y-124600000D03*
X179750000Y-124600000D03*
X167900000Y-124600000D03*
X166900000Y-123600000D03*
X213450000Y-124750000D03*
X208650000Y-124800000D03*
X208650000Y-126500000D03*
X208450000Y-130700000D03*
X201800000Y-136100000D03*
X207450000Y-129700000D03*
X205450000Y-129700000D03*
X211400000Y-128600000D03*
X213400000Y-128600000D03*
X212400000Y-129600000D03*
X214400000Y-129600000D03*
X203650000Y-114900000D03*
X201650000Y-114900000D03*
X202650000Y-113900000D03*
X200650000Y-113900000D03*
X207900000Y-109100000D03*
X209900000Y-109100000D03*
X211900000Y-109100000D03*
X213900000Y-109100000D03*
X208900000Y-110100000D03*
X210900000Y-110100000D03*
X212900000Y-110100000D03*
X266850000Y-149100000D03*
X268850000Y-149100000D03*
X267850000Y-150100000D03*
X267800000Y-148300000D03*
X268800000Y-147300000D03*
X266800000Y-147300000D03*
X260200000Y-160150000D03*
X262200000Y-160150000D03*
X261200000Y-161150000D03*
X261250000Y-162950000D03*
X262250000Y-161950000D03*
X260250000Y-161950000D03*
X225000000Y-147200000D03*
X223000000Y-147200000D03*
X221000000Y-147200000D03*
X219000000Y-147200000D03*
X217000000Y-147200000D03*
X224000000Y-146200000D03*
X222000000Y-146200000D03*
X220000000Y-146200000D03*
X218000000Y-146200000D03*
X216000000Y-146200000D03*
X212400000Y-122100000D03*
X210400000Y-122100000D03*
X208400000Y-122100000D03*
X206400000Y-122100000D03*
X204400000Y-122100000D03*
X211400000Y-121100000D03*
X209400000Y-121100000D03*
X207400000Y-121100000D03*
X205400000Y-121100000D03*
X203400000Y-121100000D03*
X206050000Y-119700000D03*
X208050000Y-119700000D03*
X210050000Y-119700000D03*
X212050000Y-119700000D03*
X211050000Y-118400000D03*
X209050000Y-118400000D03*
X207050000Y-118400000D03*
X212050000Y-117400000D03*
X210050000Y-117400000D03*
X208050000Y-117400000D03*
X206050000Y-117400000D03*
X144450000Y-123450000D03*
X146450000Y-123450000D03*
X148450000Y-123450000D03*
X150450000Y-123450000D03*
X145450000Y-124450000D03*
X147450000Y-124450000D03*
X149450000Y-124450000D03*
X151450000Y-124450000D03*
X151450000Y-126750000D03*
X149450000Y-126750000D03*
X147450000Y-126750000D03*
X145450000Y-126750000D03*
X150450000Y-125750000D03*
X148450000Y-125750000D03*
X146450000Y-125750000D03*
X144450000Y-125750000D03*
X156200000Y-143600000D03*
X154200000Y-143600000D03*
X152200000Y-143600000D03*
X150200000Y-143600000D03*
X142050000Y-148450000D03*
X144050000Y-148450000D03*
X146050000Y-148450000D03*
X143050000Y-149450000D03*
X145050000Y-149450000D03*
X145050000Y-147150000D03*
X143050000Y-147150000D03*
X146050000Y-146150000D03*
X144050000Y-146150000D03*
X142050000Y-146150000D03*
X152650000Y-125750000D03*
X154650000Y-125750000D03*
X156650000Y-125750000D03*
X158650000Y-125750000D03*
X160650000Y-125750000D03*
X153650000Y-126750000D03*
X155650000Y-126750000D03*
X157650000Y-126750000D03*
X159650000Y-126750000D03*
X159650000Y-124450000D03*
X157650000Y-124450000D03*
X155650000Y-124450000D03*
X153650000Y-124450000D03*
X160650000Y-123450000D03*
X158650000Y-123450000D03*
X156650000Y-123450000D03*
X154650000Y-123450000D03*
X152650000Y-123450000D03*
X184350000Y-110250000D03*
X186350000Y-110250000D03*
X188350000Y-110250000D03*
X185350000Y-111250000D03*
X187350000Y-111250000D03*
X187350000Y-113550000D03*
X188350000Y-112550000D03*
X186350000Y-112550000D03*
X184400000Y-116950000D03*
X185400000Y-117950000D03*
X188400000Y-114650000D03*
X216150000Y-150700000D03*
X218150000Y-150700000D03*
X220150000Y-150700000D03*
X222150000Y-150700000D03*
X224150000Y-150700000D03*
X180650000Y-123500000D03*
X217150000Y-151700000D03*
X219150000Y-151700000D03*
X221150000Y-151700000D03*
X223150000Y-151700000D03*
X225150000Y-151700000D03*
X181650000Y-124500000D03*
X181650000Y-126800000D03*
X179650000Y-126800000D03*
X177650000Y-126800000D03*
X175650000Y-126800000D03*
X173650000Y-126800000D03*
X171650000Y-126800000D03*
X180650000Y-125800000D03*
X178650000Y-125800000D03*
X176650000Y-125800000D03*
X174650000Y-125800000D03*
X172650000Y-125800000D03*
X170650000Y-125800000D03*
X182500000Y-125800000D03*
X184500000Y-125800000D03*
X186500000Y-125800000D03*
X188500000Y-125800000D03*
X190500000Y-125800000D03*
X192500000Y-125800000D03*
X183500000Y-126800000D03*
X185500000Y-126800000D03*
X187500000Y-126800000D03*
X189500000Y-126800000D03*
X191500000Y-126800000D03*
X193500000Y-126800000D03*
X151450000Y-114850000D03*
X191500000Y-124500000D03*
X189500000Y-124500000D03*
X187500000Y-124500000D03*
X185500000Y-124500000D03*
X183500000Y-124500000D03*
X155450000Y-114850000D03*
X153450000Y-114850000D03*
X149450000Y-114850000D03*
X190500000Y-123500000D03*
X188500000Y-123500000D03*
X186500000Y-123500000D03*
X184500000Y-123500000D03*
X182500000Y-123500000D03*
X154450000Y-113850000D03*
X152450000Y-113850000D03*
X150450000Y-113850000D03*
X259800000Y-90700000D03*
X258800000Y-90700000D03*
X257800000Y-90700000D03*
X246650000Y-117500000D03*
X245150000Y-102550000D03*
X229850000Y-132750000D03*
X222600000Y-133150000D03*
X261900000Y-137900000D03*
X250900000Y-137950000D03*
X259800000Y-89700000D03*
X258800000Y-89700000D03*
X257800000Y-89700000D03*
X237600000Y-118800000D03*
X231100000Y-122350000D03*
X237750000Y-104350000D03*
X227600000Y-97000000D03*
X223300000Y-97000000D03*
X222550000Y-138850000D03*
X256400000Y-137900000D03*
X245350000Y-138000000D03*
X240150000Y-138000000D03*
X234650000Y-137950000D03*
X221000000Y-133950000D03*
X236700000Y-118950000D03*
X269100000Y-126800000D03*
X267100000Y-126800000D03*
X265100000Y-126800000D03*
X268100000Y-125800000D03*
X266100000Y-125800000D03*
D14*
X137700000Y-145930000D03*
X137700000Y-141970000D03*
D15*
X137700000Y-134050000D03*
D14*
X137700000Y-138010000D03*
D13*
X187350000Y-99500000D03*
X186350000Y-99500000D03*
X214300000Y-99150000D03*
X213300000Y-99150000D03*
X165950000Y-137450000D03*
X164950000Y-137450000D03*
X163950000Y-137450000D03*
X132750000Y-125250000D03*
X161450000Y-99050000D03*
X160450000Y-99050000D03*
X187350000Y-98500000D03*
X186350000Y-98500000D03*
X214300000Y-98150000D03*
X213300000Y-98150000D03*
X165950000Y-136450000D03*
X164950000Y-136450000D03*
X163950000Y-136450000D03*
X142900000Y-111900000D03*
X166100000Y-112600000D03*
X192700000Y-115050000D03*
X161450000Y-98050000D03*
X160450000Y-98050000D03*
X178950000Y-146600000D03*
X206700000Y-127500000D03*
X178850000Y-136350000D03*
X229600000Y-157150000D03*
X165950000Y-135450000D03*
X164950000Y-135450000D03*
X163950000Y-135450000D03*
X202100000Y-106400000D03*
X201100000Y-106400000D03*
X200100000Y-106400000D03*
X199100000Y-106400000D03*
X190350000Y-107050000D03*
X189350000Y-107050000D03*
X188350000Y-107050000D03*
X187350000Y-107050000D03*
X175450000Y-107300000D03*
X174450000Y-107300000D03*
X173450000Y-107300000D03*
X172450000Y-107300000D03*
X165500000Y-107350000D03*
X164500000Y-107350000D03*
X163500000Y-107350000D03*
X204250000Y-103050000D03*
X203250000Y-103050000D03*
X202250000Y-103050000D03*
X201250000Y-103050000D03*
X200250000Y-103050000D03*
X202100000Y-105400000D03*
X201100000Y-105400000D03*
X200100000Y-105400000D03*
X199100000Y-105400000D03*
X190350000Y-106050000D03*
X189350000Y-106050000D03*
X188350000Y-106050000D03*
X187350000Y-106050000D03*
X175450000Y-106300000D03*
X174450000Y-106300000D03*
X173450000Y-106300000D03*
X172450000Y-106300000D03*
X165500000Y-106350000D03*
X164500000Y-106350000D03*
X163500000Y-106350000D03*
X264100000Y-125800000D03*
X190350000Y-105050000D03*
X189350000Y-105050000D03*
X188350000Y-105050000D03*
X187350000Y-105050000D03*
X175450000Y-105300000D03*
X174450000Y-105300000D03*
X173450000Y-105300000D03*
X172450000Y-105300000D03*
X165500000Y-105350000D03*
X164500000Y-105350000D03*
X163500000Y-105350000D03*
X138850000Y-106900000D03*
X137850000Y-106900000D03*
X136850000Y-106900000D03*
X135850000Y-106900000D03*
X196700000Y-107150000D03*
X195700000Y-107150000D03*
X194700000Y-107150000D03*
X193700000Y-107150000D03*
X170700000Y-107450000D03*
X169700000Y-107450000D03*
X168700000Y-107450000D03*
X167700000Y-107450000D03*
X147150000Y-106800000D03*
X146150000Y-106800000D03*
X145150000Y-106800000D03*
X144150000Y-106800000D03*
X152600000Y-105950000D03*
X151600000Y-105950000D03*
X150600000Y-105950000D03*
X149600000Y-105950000D03*
X138850000Y-105900000D03*
X137850000Y-105900000D03*
X136850000Y-105900000D03*
X135850000Y-105900000D03*
X196700000Y-106150000D03*
X195700000Y-106150000D03*
X194700000Y-106150000D03*
X193700000Y-106150000D03*
X170700000Y-106450000D03*
X169700000Y-106450000D03*
X168700000Y-106450000D03*
X167700000Y-106450000D03*
X147150000Y-105800000D03*
X146150000Y-105800000D03*
X145150000Y-105800000D03*
X144150000Y-105800000D03*
X152600000Y-104950000D03*
X151600000Y-104950000D03*
X150600000Y-104950000D03*
X149600000Y-104950000D03*
X138850000Y-104900000D03*
X137850000Y-104900000D03*
X136850000Y-104900000D03*
X135850000Y-104900000D03*
X196700000Y-105150000D03*
X195700000Y-105150000D03*
X194700000Y-105150000D03*
X193700000Y-105150000D03*
X170700000Y-105450000D03*
X169700000Y-105450000D03*
X168700000Y-105450000D03*
X167700000Y-105450000D03*
X147150000Y-104800000D03*
X146150000Y-104800000D03*
X145150000Y-104800000D03*
D16*
X157050000Y-111350000D03*
X250700000Y-89300000D03*
D17*
X250700000Y-90300000D03*
X249700000Y-89300000D03*
X249700000Y-90300000D03*
X248700000Y-89300000D03*
X248700000Y-90300000D03*
X247700000Y-89300000D03*
X247700000Y-90300000D03*
X246700000Y-89300000D03*
X246700000Y-90300000D03*
D16*
X181300000Y-112500000D03*
X205900000Y-112500000D03*
D14*
X179580000Y-90300000D03*
X175620000Y-90300000D03*
D15*
X167700000Y-90300000D03*
D14*
X171660000Y-90300000D03*
X205080000Y-90300000D03*
X201120000Y-90300000D03*
D15*
X193200000Y-90300000D03*
D14*
X197160000Y-90300000D03*
X154580000Y-90300000D03*
X150620000Y-90300000D03*
D15*
X142700000Y-90300000D03*
D14*
X146660000Y-90300000D03*
D18*
X256200000Y-111340000D03*
X256200000Y-108800000D03*
X258200000Y-108800000D03*
X258200000Y-111340000D03*
D19*
X260900000Y-116070000D03*
X260900000Y-104070000D03*
D13*
X144150000Y-104800000D03*
D20*
X135750000Y-91400000D03*
X135750000Y-160300000D03*
X267200000Y-91550000D03*
X267100000Y-160400000D03*
D21*
X136025000Y-96775000D03*
X135825000Y-153675000D03*
X267800000Y-154350000D03*
X266875000Y-101550000D03*
M02*
